<?xml version="1.0" encoding="UTF-8"?>
<svg xmlns="http://www.w3.org/2000/svg" xmlns:xlink="http://www.w3.org/1999/xlink" width="12cm" height="12.0187cm" viewBox="3.74219 3.35937 491.515 492.282" version="1.1">
<g id="surface27">
<path style="fill:none;stroke-width:1;stroke-linecap:square;stroke-linejoin:miter;stroke:rgb(11.372549%,30.588235%,84.705882%);stroke-opacity:1;stroke-miterlimit:3.25;" d="M 513.925781 254.5 L 274.40625 155.128906 " transform="matrix(1,0,0,1,-66,-5)"/>
<path style="fill:none;stroke-width:1;stroke-linecap:square;stroke-linejoin:miter;stroke:rgb(11.372549%,30.588235%,84.705882%);stroke-opacity:1;stroke-miterlimit:3.25;" d="M 513.925781 254.5 L 414.710938 494.402344 " transform="matrix(1,0,0,1,-66,-5)"/>
<path style="fill:none;stroke-width:1;stroke-linecap:square;stroke-linejoin:miter;stroke:rgb(11.372549%,30.588235%,84.705882%);stroke-opacity:1;stroke-miterlimit:3.25;" d="M 513.925781 254.5 L 414.710938 213.339844 " transform="matrix(1,0,0,1,-66,-5)"/>
<path style="fill:none;stroke-width:1;stroke-linecap:square;stroke-linejoin:miter;stroke:rgb(11.372549%,30.588235%,84.705882%);stroke-opacity:1;stroke-miterlimit:3.25;" d="M 513.925781 254.5 L 555.019531 155.128906 " transform="matrix(1,0,0,1,-66,-5)"/>
<path style="fill:none;stroke-width:1;stroke-linecap:square;stroke-linejoin:miter;stroke:rgb(11.372549%,30.588235%,84.705882%);stroke-opacity:1;stroke-miterlimit:3.25;" d="M 513.925781 254.5 L 414.710938 295.660156 " transform="matrix(1,0,0,1,-66,-5)"/>
<path style="fill:none;stroke-width:1;stroke-linecap:square;stroke-linejoin:miter;stroke:rgb(11.372549%,30.588235%,84.705882%);stroke-opacity:1;stroke-miterlimit:3.25;" d="M 513.925781 254.5 L 414.710938 14.597656 " transform="matrix(1,0,0,1,-66,-5)"/>
<path style="fill:none;stroke-width:1;stroke-linecap:square;stroke-linejoin:miter;stroke:rgb(11.372549%,30.588235%,84.705882%);stroke-opacity:1;stroke-miterlimit:3.25;" d="M 513.925781 254.5 L 555.019531 353.871094 " transform="matrix(1,0,0,1,-66,-5)"/>
<path style="fill:none;stroke-width:1;stroke-linecap:square;stroke-linejoin:miter;stroke:rgb(11.372549%,30.588235%,84.705882%);stroke-opacity:1;stroke-miterlimit:3.25;" d="M 513.925781 254.5 L 274.40625 353.871094 " transform="matrix(1,0,0,1,-66,-5)"/>
<path style="fill:none;stroke-width:1;stroke-linecap:square;stroke-linejoin:miter;stroke:rgb(11.372549%,30.588235%,84.705882%);stroke-opacity:1;stroke-miterlimit:3.25;" d="M 315.5 55.757812 L 274.40625 155.128906 " transform="matrix(1,0,0,1,-66,-5)"/>
<path style="fill:none;stroke-width:1;stroke-linecap:square;stroke-linejoin:miter;stroke:rgb(11.372549%,30.588235%,84.705882%);stroke-opacity:1;stroke-miterlimit:3.25;" d="M 315.5 55.757812 L 216.289062 295.660156 " transform="matrix(1,0,0,1,-66,-5)"/>
<path style="fill:none;stroke-width:1;stroke-linecap:square;stroke-linejoin:miter;stroke:rgb(11.372549%,30.588235%,84.705882%);stroke-opacity:1;stroke-miterlimit:3.25;" d="M 315.5 55.757812 L 216.289062 14.597656 " transform="matrix(1,0,0,1,-66,-5)"/>
<path style="fill:none;stroke-width:1;stroke-linecap:square;stroke-linejoin:miter;stroke:rgb(11.372549%,30.588235%,84.705882%);stroke-opacity:1;stroke-miterlimit:3.25;" d="M 315.5 55.757812 L 555.019531 155.128906 " transform="matrix(1,0,0,1,-66,-5)"/>
<path style="fill:none;stroke-width:1;stroke-linecap:square;stroke-linejoin:miter;stroke:rgb(11.372549%,30.588235%,84.705882%);stroke-opacity:1;stroke-miterlimit:3.25;" d="M 315.5 55.757812 L 414.710938 295.660156 " transform="matrix(1,0,0,1,-66,-5)"/>
<path style="fill:none;stroke-width:1;stroke-linecap:square;stroke-linejoin:miter;stroke:rgb(11.372549%,30.588235%,84.705882%);stroke-opacity:1;stroke-miterlimit:3.25;" d="M 315.5 55.757812 L 414.710938 14.597656 " transform="matrix(1,0,0,1,-66,-5)"/>
<path style="fill:none;stroke-width:1;stroke-linecap:square;stroke-linejoin:miter;stroke:rgb(11.372549%,30.588235%,84.705882%);stroke-opacity:1;stroke-miterlimit:3.25;" d="M 315.5 55.757812 L 356.59375 155.128906 " transform="matrix(1,0,0,1,-66,-5)"/>
<path style="fill:none;stroke-width:1;stroke-linecap:square;stroke-linejoin:miter;stroke:rgb(11.372549%,30.588235%,84.705882%);stroke-opacity:1;stroke-miterlimit:3.25;" d="M 315.5 55.757812 L 75.980469 155.128906 " transform="matrix(1,0,0,1,-66,-5)"/>
<path style="fill:none;stroke-width:1;stroke-linecap:square;stroke-linejoin:miter;stroke:rgb(11.372549%,30.588235%,84.705882%);stroke-opacity:1;stroke-miterlimit:3.25;" d="M 455.808594 395.03125 L 414.710938 494.402344 " transform="matrix(1,0,0,1,-66,-5)"/>
<path style="fill:none;stroke-width:1;stroke-linecap:square;stroke-linejoin:miter;stroke:rgb(11.372549%,30.588235%,84.705882%);stroke-opacity:1;stroke-miterlimit:3.25;" d="M 455.808594 395.03125 L 216.289062 295.660156 " transform="matrix(1,0,0,1,-66,-5)"/>
<path style="fill:none;stroke-width:1;stroke-linecap:square;stroke-linejoin:miter;stroke:rgb(11.372549%,30.588235%,84.705882%);stroke-opacity:1;stroke-miterlimit:3.25;" d="M 455.808594 395.03125 L 356.59375 353.871094 " transform="matrix(1,0,0,1,-66,-5)"/>
<path style="fill:none;stroke-width:1;stroke-linecap:square;stroke-linejoin:miter;stroke:rgb(11.372549%,30.588235%,84.705882%);stroke-opacity:1;stroke-miterlimit:3.25;" d="M 455.808594 395.03125 L 555.019531 155.128906 " transform="matrix(1,0,0,1,-66,-5)"/>
<path style="fill:none;stroke-width:1;stroke-linecap:square;stroke-linejoin:miter;stroke:rgb(11.372549%,30.588235%,84.705882%);stroke-opacity:1;stroke-miterlimit:3.25;" d="M 455.808594 395.03125 L 414.710938 295.660156 " transform="matrix(1,0,0,1,-66,-5)"/>
<path style="fill:none;stroke-width:1;stroke-linecap:square;stroke-linejoin:miter;stroke:rgb(11.372549%,30.588235%,84.705882%);stroke-opacity:1;stroke-miterlimit:3.25;" d="M 455.808594 395.03125 L 555.019531 353.871094 " transform="matrix(1,0,0,1,-66,-5)"/>
<path style="fill:none;stroke-width:1;stroke-linecap:square;stroke-linejoin:miter;stroke:rgb(11.372549%,30.588235%,84.705882%);stroke-opacity:1;stroke-miterlimit:3.25;" d="M 455.808594 395.03125 L 356.59375 155.128906 " transform="matrix(1,0,0,1,-66,-5)"/>
<path style="fill:none;stroke-width:1;stroke-linecap:square;stroke-linejoin:miter;stroke:rgb(11.372549%,30.588235%,84.705882%);stroke-opacity:1;stroke-miterlimit:3.25;" d="M 455.808594 395.03125 L 216.289062 494.402344 " transform="matrix(1,0,0,1,-66,-5)"/>
<path style="fill:none;stroke-width:1;stroke-linecap:square;stroke-linejoin:miter;stroke:rgb(11.372549%,30.588235%,84.705882%);stroke-opacity:1;stroke-miterlimit:3.25;" d="M 455.808594 113.96875 L 414.710938 213.339844 " transform="matrix(1,0,0,1,-66,-5)"/>
<path style="fill:none;stroke-width:1;stroke-linecap:square;stroke-linejoin:miter;stroke:rgb(11.372549%,30.588235%,84.705882%);stroke-opacity:1;stroke-miterlimit:3.25;" d="M 455.808594 113.96875 L 216.289062 14.597656 " transform="matrix(1,0,0,1,-66,-5)"/>
<path style="fill:none;stroke-width:1;stroke-linecap:square;stroke-linejoin:miter;stroke:rgb(11.372549%,30.588235%,84.705882%);stroke-opacity:1;stroke-miterlimit:3.25;" d="M 455.808594 113.96875 L 356.59375 353.871094 " transform="matrix(1,0,0,1,-66,-5)"/>
<path style="fill:none;stroke-width:1;stroke-linecap:square;stroke-linejoin:miter;stroke:rgb(11.372549%,30.588235%,84.705882%);stroke-opacity:1;stroke-miterlimit:3.25;" d="M 455.808594 113.96875 L 555.019531 155.128906 " transform="matrix(1,0,0,1,-66,-5)"/>
<path style="fill:none;stroke-width:1;stroke-linecap:square;stroke-linejoin:miter;stroke:rgb(11.372549%,30.588235%,84.705882%);stroke-opacity:1;stroke-miterlimit:3.25;" d="M 455.808594 113.96875 L 414.710938 14.597656 " transform="matrix(1,0,0,1,-66,-5)"/>
<path style="fill:none;stroke-width:1;stroke-linecap:square;stroke-linejoin:miter;stroke:rgb(11.372549%,30.588235%,84.705882%);stroke-opacity:1;stroke-miterlimit:3.25;" d="M 455.808594 113.96875 L 555.019531 353.871094 " transform="matrix(1,0,0,1,-66,-5)"/>
<path style="fill:none;stroke-width:1;stroke-linecap:square;stroke-linejoin:miter;stroke:rgb(11.372549%,30.588235%,84.705882%);stroke-opacity:1;stroke-miterlimit:3.25;" d="M 455.808594 113.96875 L 356.59375 155.128906 " transform="matrix(1,0,0,1,-66,-5)"/>
<path style="fill:none;stroke-width:1;stroke-linecap:square;stroke-linejoin:miter;stroke:rgb(11.372549%,30.588235%,84.705882%);stroke-opacity:1;stroke-miterlimit:3.25;" d="M 455.808594 113.96875 L 216.289062 213.339844 " transform="matrix(1,0,0,1,-66,-5)"/>
<path style="fill:none;stroke-width:1;stroke-linecap:square;stroke-linejoin:miter;stroke:rgb(11.372549%,30.588235%,84.705882%);stroke-opacity:1;stroke-miterlimit:3.25;" d="M 117.074219 254.5 L 216.289062 295.660156 " transform="matrix(1,0,0,1,-66,-5)"/>
<path style="fill:none;stroke-width:1;stroke-linecap:square;stroke-linejoin:miter;stroke:rgb(11.372549%,30.588235%,84.705882%);stroke-opacity:1;stroke-miterlimit:3.25;" d="M 117.074219 254.5 L 216.289062 14.597656 " transform="matrix(1,0,0,1,-66,-5)"/>
<path style="fill:none;stroke-width:1;stroke-linecap:square;stroke-linejoin:miter;stroke:rgb(11.372549%,30.588235%,84.705882%);stroke-opacity:1;stroke-miterlimit:3.25;" d="M 117.074219 254.5 L 356.59375 353.871094 " transform="matrix(1,0,0,1,-66,-5)"/>
<path style="fill:none;stroke-width:1;stroke-linecap:square;stroke-linejoin:miter;stroke:rgb(11.372549%,30.588235%,84.705882%);stroke-opacity:1;stroke-miterlimit:3.25;" d="M 117.074219 254.5 L 75.980469 353.871094 " transform="matrix(1,0,0,1,-66,-5)"/>
<path style="fill:none;stroke-width:1;stroke-linecap:square;stroke-linejoin:miter;stroke:rgb(11.372549%,30.588235%,84.705882%);stroke-opacity:1;stroke-miterlimit:3.25;" d="M 117.074219 254.5 L 356.59375 155.128906 " transform="matrix(1,0,0,1,-66,-5)"/>
<path style="fill:none;stroke-width:1;stroke-linecap:square;stroke-linejoin:miter;stroke:rgb(11.372549%,30.588235%,84.705882%);stroke-opacity:1;stroke-miterlimit:3.25;" d="M 117.074219 254.5 L 75.980469 155.128906 " transform="matrix(1,0,0,1,-66,-5)"/>
<path style="fill:none;stroke-width:1;stroke-linecap:square;stroke-linejoin:miter;stroke:rgb(11.372549%,30.588235%,84.705882%);stroke-opacity:1;stroke-miterlimit:3.25;" d="M 117.074219 254.5 L 216.289062 494.402344 " transform="matrix(1,0,0,1,-66,-5)"/>
<path style="fill:none;stroke-width:1;stroke-linecap:square;stroke-linejoin:miter;stroke:rgb(11.372549%,30.588235%,84.705882%);stroke-opacity:1;stroke-miterlimit:3.25;" d="M 117.074219 254.5 L 216.289062 213.339844 " transform="matrix(1,0,0,1,-66,-5)"/>
<path style="fill:none;stroke-width:1;stroke-linecap:square;stroke-linejoin:miter;stroke:rgb(11.372549%,30.588235%,84.705882%);stroke-opacity:1;stroke-miterlimit:3.25;" d="M 315.5 453.242188 L 414.710938 494.402344 " transform="matrix(1,0,0,1,-66,-5)"/>
<path style="fill:none;stroke-width:1;stroke-linecap:square;stroke-linejoin:miter;stroke:rgb(11.372549%,30.588235%,84.705882%);stroke-opacity:1;stroke-miterlimit:3.25;" d="M 315.5 453.242188 L 414.710938 213.339844 " transform="matrix(1,0,0,1,-66,-5)"/>
<path style="fill:none;stroke-width:1;stroke-linecap:square;stroke-linejoin:miter;stroke:rgb(11.372549%,30.588235%,84.705882%);stroke-opacity:1;stroke-miterlimit:3.25;" d="M 315.5 453.242188 L 356.59375 353.871094 " transform="matrix(1,0,0,1,-66,-5)"/>
<path style="fill:none;stroke-width:1;stroke-linecap:square;stroke-linejoin:miter;stroke:rgb(11.372549%,30.588235%,84.705882%);stroke-opacity:1;stroke-miterlimit:3.25;" d="M 315.5 453.242188 L 75.980469 353.871094 " transform="matrix(1,0,0,1,-66,-5)"/>
<path style="fill:none;stroke-width:1;stroke-linecap:square;stroke-linejoin:miter;stroke:rgb(11.372549%,30.588235%,84.705882%);stroke-opacity:1;stroke-miterlimit:3.25;" d="M 315.5 453.242188 L 555.019531 353.871094 " transform="matrix(1,0,0,1,-66,-5)"/>
<path style="fill:none;stroke-width:1;stroke-linecap:square;stroke-linejoin:miter;stroke:rgb(11.372549%,30.588235%,84.705882%);stroke-opacity:1;stroke-miterlimit:3.25;" d="M 315.5 453.242188 L 274.40625 353.871094 " transform="matrix(1,0,0,1,-66,-5)"/>
<path style="fill:none;stroke-width:1;stroke-linecap:square;stroke-linejoin:miter;stroke:rgb(11.372549%,30.588235%,84.705882%);stroke-opacity:1;stroke-miterlimit:3.25;" d="M 315.5 453.242188 L 216.289062 494.402344 " transform="matrix(1,0,0,1,-66,-5)"/>
<path style="fill:none;stroke-width:1;stroke-linecap:square;stroke-linejoin:miter;stroke:rgb(11.372549%,30.588235%,84.705882%);stroke-opacity:1;stroke-miterlimit:3.25;" d="M 315.5 453.242188 L 216.289062 213.339844 " transform="matrix(1,0,0,1,-66,-5)"/>
<path style="fill:none;stroke-width:1;stroke-linecap:square;stroke-linejoin:miter;stroke:rgb(11.372549%,30.588235%,84.705882%);stroke-opacity:1;stroke-miterlimit:3.25;" d="M 175.191406 113.96875 L 274.40625 155.128906 " transform="matrix(1,0,0,1,-66,-5)"/>
<path style="fill:none;stroke-width:1;stroke-linecap:square;stroke-linejoin:miter;stroke:rgb(11.372549%,30.588235%,84.705882%);stroke-opacity:1;stroke-miterlimit:3.25;" d="M 175.191406 113.96875 L 414.710938 213.339844 " transform="matrix(1,0,0,1,-66,-5)"/>
<path style="fill:none;stroke-width:1;stroke-linecap:square;stroke-linejoin:miter;stroke:rgb(11.372549%,30.588235%,84.705882%);stroke-opacity:1;stroke-miterlimit:3.25;" d="M 175.191406 113.96875 L 216.289062 14.597656 " transform="matrix(1,0,0,1,-66,-5)"/>
<path style="fill:none;stroke-width:1;stroke-linecap:square;stroke-linejoin:miter;stroke:rgb(11.372549%,30.588235%,84.705882%);stroke-opacity:1;stroke-miterlimit:3.25;" d="M 175.191406 113.96875 L 75.980469 353.871094 " transform="matrix(1,0,0,1,-66,-5)"/>
<path style="fill:none;stroke-width:1;stroke-linecap:square;stroke-linejoin:miter;stroke:rgb(11.372549%,30.588235%,84.705882%);stroke-opacity:1;stroke-miterlimit:3.25;" d="M 175.191406 113.96875 L 414.710938 14.597656 " transform="matrix(1,0,0,1,-66,-5)"/>
<path style="fill:none;stroke-width:1;stroke-linecap:square;stroke-linejoin:miter;stroke:rgb(11.372549%,30.588235%,84.705882%);stroke-opacity:1;stroke-miterlimit:3.25;" d="M 175.191406 113.96875 L 274.40625 353.871094 " transform="matrix(1,0,0,1,-66,-5)"/>
<path style="fill:none;stroke-width:1;stroke-linecap:square;stroke-linejoin:miter;stroke:rgb(11.372549%,30.588235%,84.705882%);stroke-opacity:1;stroke-miterlimit:3.25;" d="M 175.191406 113.96875 L 75.980469 155.128906 " transform="matrix(1,0,0,1,-66,-5)"/>
<path style="fill:none;stroke-width:1;stroke-linecap:square;stroke-linejoin:miter;stroke:rgb(11.372549%,30.588235%,84.705882%);stroke-opacity:1;stroke-miterlimit:3.25;" d="M 175.191406 113.96875 L 216.289062 213.339844 " transform="matrix(1,0,0,1,-66,-5)"/>
<path style="fill:none;stroke-width:1;stroke-linecap:square;stroke-linejoin:miter;stroke:rgb(11.372549%,30.588235%,84.705882%);stroke-opacity:1;stroke-miterlimit:3.25;" d="M 175.191406 395.03125 L 274.40625 155.128906 " transform="matrix(1,0,0,1,-66,-5)"/>
<path style="fill:none;stroke-width:1;stroke-linecap:square;stroke-linejoin:miter;stroke:rgb(11.372549%,30.588235%,84.705882%);stroke-opacity:1;stroke-miterlimit:3.25;" d="M 175.191406 395.03125 L 414.710938 494.402344 " transform="matrix(1,0,0,1,-66,-5)"/>
<path style="fill:none;stroke-width:1;stroke-linecap:square;stroke-linejoin:miter;stroke:rgb(11.372549%,30.588235%,84.705882%);stroke-opacity:1;stroke-miterlimit:3.25;" d="M 175.191406 395.03125 L 216.289062 295.660156 " transform="matrix(1,0,0,1,-66,-5)"/>
<path style="fill:none;stroke-width:1;stroke-linecap:square;stroke-linejoin:miter;stroke:rgb(11.372549%,30.588235%,84.705882%);stroke-opacity:1;stroke-miterlimit:3.25;" d="M 175.191406 395.03125 L 75.980469 353.871094 " transform="matrix(1,0,0,1,-66,-5)"/>
<path style="fill:none;stroke-width:1;stroke-linecap:square;stroke-linejoin:miter;stroke:rgb(11.372549%,30.588235%,84.705882%);stroke-opacity:1;stroke-miterlimit:3.25;" d="M 175.191406 395.03125 L 414.710938 295.660156 " transform="matrix(1,0,0,1,-66,-5)"/>
<path style="fill:none;stroke-width:1;stroke-linecap:square;stroke-linejoin:miter;stroke:rgb(11.372549%,30.588235%,84.705882%);stroke-opacity:1;stroke-miterlimit:3.25;" d="M 175.191406 395.03125 L 274.40625 353.871094 " transform="matrix(1,0,0,1,-66,-5)"/>
<path style="fill:none;stroke-width:1;stroke-linecap:square;stroke-linejoin:miter;stroke:rgb(11.372549%,30.588235%,84.705882%);stroke-opacity:1;stroke-miterlimit:3.25;" d="M 175.191406 395.03125 L 75.980469 155.128906 " transform="matrix(1,0,0,1,-66,-5)"/>
<path style="fill:none;stroke-width:1;stroke-linecap:square;stroke-linejoin:miter;stroke:rgb(11.372549%,30.588235%,84.705882%);stroke-opacity:1;stroke-miterlimit:3.25;" d="M 175.191406 395.03125 L 216.289062 494.402344 " transform="matrix(1,0,0,1,-66,-5)"/>
<path style="fill:none;stroke-width:1;stroke-linecap:square;stroke-linejoin:miter;stroke:rgb(11.372549%,30.588235%,84.705882%);stroke-opacity:1;stroke-miterlimit:3.25;" d="M 274.40625 155.128906 L 414.710938 295.660156 " transform="matrix(1,0,0,1,-66,-5)"/>
<path style="fill:none;stroke-width:1;stroke-linecap:square;stroke-linejoin:miter;stroke:rgb(11.372549%,30.588235%,84.705882%);stroke-opacity:1;stroke-miterlimit:3.25;" d="M 274.40625 155.128906 L 414.710938 14.597656 " transform="matrix(1,0,0,1,-66,-5)"/>
<path style="fill:none;stroke-width:1;stroke-linecap:square;stroke-linejoin:miter;stroke:rgb(11.372549%,30.588235%,84.705882%);stroke-opacity:1;stroke-miterlimit:3.25;" d="M 274.40625 155.128906 L 274.40625 353.871094 " transform="matrix(1,0,0,1,-66,-5)"/>
<path style="fill:none;stroke-width:1;stroke-linecap:square;stroke-linejoin:miter;stroke:rgb(11.372549%,30.588235%,84.705882%);stroke-opacity:1;stroke-miterlimit:3.25;" d="M 274.40625 155.128906 L 75.980469 155.128906 " transform="matrix(1,0,0,1,-66,-5)"/>
<path style="fill:none;stroke-width:1;stroke-linecap:square;stroke-linejoin:miter;stroke:rgb(11.372549%,30.588235%,84.705882%);stroke-opacity:1;stroke-miterlimit:3.25;" d="M 414.710938 494.402344 L 414.710938 295.660156 " transform="matrix(1,0,0,1,-66,-5)"/>
<path style="fill:none;stroke-width:1;stroke-linecap:square;stroke-linejoin:miter;stroke:rgb(11.372549%,30.588235%,84.705882%);stroke-opacity:1;stroke-miterlimit:3.25;" d="M 414.710938 494.402344 L 555.019531 353.871094 " transform="matrix(1,0,0,1,-66,-5)"/>
<path style="fill:none;stroke-width:1;stroke-linecap:square;stroke-linejoin:miter;stroke:rgb(11.372549%,30.588235%,84.705882%);stroke-opacity:1;stroke-miterlimit:3.25;" d="M 414.710938 494.402344 L 274.40625 353.871094 " transform="matrix(1,0,0,1,-66,-5)"/>
<path style="fill:none;stroke-width:1;stroke-linecap:square;stroke-linejoin:miter;stroke:rgb(11.372549%,30.588235%,84.705882%);stroke-opacity:1;stroke-miterlimit:3.25;" d="M 414.710938 494.402344 L 216.289062 494.402344 " transform="matrix(1,0,0,1,-66,-5)"/>
<path style="fill:none;stroke-width:1;stroke-linecap:square;stroke-linejoin:miter;stroke:rgb(11.372549%,30.588235%,84.705882%);stroke-opacity:1;stroke-miterlimit:3.25;" d="M 414.710938 213.339844 L 414.710938 14.597656 " transform="matrix(1,0,0,1,-66,-5)"/>
<path style="fill:none;stroke-width:1;stroke-linecap:square;stroke-linejoin:miter;stroke:rgb(11.372549%,30.588235%,84.705882%);stroke-opacity:1;stroke-miterlimit:3.25;" d="M 414.710938 213.339844 L 555.019531 353.871094 " transform="matrix(1,0,0,1,-66,-5)"/>
<path style="fill:none;stroke-width:1;stroke-linecap:square;stroke-linejoin:miter;stroke:rgb(11.372549%,30.588235%,84.705882%);stroke-opacity:1;stroke-miterlimit:3.25;" d="M 414.710938 213.339844 L 274.40625 353.871094 " transform="matrix(1,0,0,1,-66,-5)"/>
<path style="fill:none;stroke-width:1;stroke-linecap:square;stroke-linejoin:miter;stroke:rgb(11.372549%,30.588235%,84.705882%);stroke-opacity:1;stroke-miterlimit:3.25;" d="M 414.710938 213.339844 L 216.289062 213.339844 " transform="matrix(1,0,0,1,-66,-5)"/>
<path style="fill:none;stroke-width:1;stroke-linecap:square;stroke-linejoin:miter;stroke:rgb(11.372549%,30.588235%,84.705882%);stroke-opacity:1;stroke-miterlimit:3.25;" d="M 216.289062 295.660156 L 414.710938 295.660156 " transform="matrix(1,0,0,1,-66,-5)"/>
<path style="fill:none;stroke-width:1;stroke-linecap:square;stroke-linejoin:miter;stroke:rgb(11.372549%,30.588235%,84.705882%);stroke-opacity:1;stroke-miterlimit:3.25;" d="M 216.289062 295.660156 L 356.59375 155.128906 " transform="matrix(1,0,0,1,-66,-5)"/>
<path style="fill:none;stroke-width:1;stroke-linecap:square;stroke-linejoin:miter;stroke:rgb(11.372549%,30.588235%,84.705882%);stroke-opacity:1;stroke-miterlimit:3.25;" d="M 216.289062 295.660156 L 75.980469 155.128906 " transform="matrix(1,0,0,1,-66,-5)"/>
<path style="fill:none;stroke-width:1;stroke-linecap:square;stroke-linejoin:miter;stroke:rgb(11.372549%,30.588235%,84.705882%);stroke-opacity:1;stroke-miterlimit:3.25;" d="M 216.289062 295.660156 L 216.289062 494.402344 " transform="matrix(1,0,0,1,-66,-5)"/>
<path style="fill:none;stroke-width:1;stroke-linecap:square;stroke-linejoin:miter;stroke:rgb(11.372549%,30.588235%,84.705882%);stroke-opacity:1;stroke-miterlimit:3.25;" d="M 216.289062 14.597656 L 414.710938 14.597656 " transform="matrix(1,0,0,1,-66,-5)"/>
<path style="fill:none;stroke-width:1;stroke-linecap:square;stroke-linejoin:miter;stroke:rgb(11.372549%,30.588235%,84.705882%);stroke-opacity:1;stroke-miterlimit:3.25;" d="M 216.289062 14.597656 L 356.59375 155.128906 " transform="matrix(1,0,0,1,-66,-5)"/>
<path style="fill:none;stroke-width:1;stroke-linecap:square;stroke-linejoin:miter;stroke:rgb(11.372549%,30.588235%,84.705882%);stroke-opacity:1;stroke-miterlimit:3.25;" d="M 216.289062 14.597656 L 75.980469 155.128906 " transform="matrix(1,0,0,1,-66,-5)"/>
<path style="fill:none;stroke-width:1;stroke-linecap:square;stroke-linejoin:miter;stroke:rgb(11.372549%,30.588235%,84.705882%);stroke-opacity:1;stroke-miterlimit:3.25;" d="M 216.289062 14.597656 L 216.289062 213.339844 " transform="matrix(1,0,0,1,-66,-5)"/>
<path style="fill:none;stroke-width:1;stroke-linecap:square;stroke-linejoin:miter;stroke:rgb(11.372549%,30.588235%,84.705882%);stroke-opacity:1;stroke-miterlimit:3.25;" d="M 356.59375 353.871094 L 555.019531 353.871094 " transform="matrix(1,0,0,1,-66,-5)"/>
<path style="fill:none;stroke-width:1;stroke-linecap:square;stroke-linejoin:miter;stroke:rgb(11.372549%,30.588235%,84.705882%);stroke-opacity:1;stroke-miterlimit:3.25;" d="M 356.59375 353.871094 L 356.59375 155.128906 " transform="matrix(1,0,0,1,-66,-5)"/>
<path style="fill:none;stroke-width:1;stroke-linecap:square;stroke-linejoin:miter;stroke:rgb(11.372549%,30.588235%,84.705882%);stroke-opacity:1;stroke-miterlimit:3.25;" d="M 356.59375 353.871094 L 216.289062 494.402344 " transform="matrix(1,0,0,1,-66,-5)"/>
<path style="fill:none;stroke-width:1;stroke-linecap:square;stroke-linejoin:miter;stroke:rgb(11.372549%,30.588235%,84.705882%);stroke-opacity:1;stroke-miterlimit:3.25;" d="M 356.59375 353.871094 L 216.289062 213.339844 " transform="matrix(1,0,0,1,-66,-5)"/>
<path style="fill:none;stroke-width:1;stroke-linecap:square;stroke-linejoin:miter;stroke:rgb(11.372549%,30.588235%,84.705882%);stroke-opacity:1;stroke-miterlimit:3.25;" d="M 555.019531 155.128906 L 414.710938 295.660156 " transform="matrix(1,0,0,1,-66,-5)"/>
<path style="fill:none;stroke-width:1;stroke-linecap:square;stroke-linejoin:miter;stroke:rgb(11.372549%,30.588235%,84.705882%);stroke-opacity:1;stroke-miterlimit:3.25;" d="M 555.019531 155.128906 L 414.710938 14.597656 " transform="matrix(1,0,0,1,-66,-5)"/>
<path style="fill:none;stroke-width:1;stroke-linecap:square;stroke-linejoin:miter;stroke:rgb(11.372549%,30.588235%,84.705882%);stroke-opacity:1;stroke-miterlimit:3.25;" d="M 555.019531 155.128906 L 555.019531 353.871094 " transform="matrix(1,0,0,1,-66,-5)"/>
<path style="fill:none;stroke-width:1;stroke-linecap:square;stroke-linejoin:miter;stroke:rgb(11.372549%,30.588235%,84.705882%);stroke-opacity:1;stroke-miterlimit:3.25;" d="M 555.019531 155.128906 L 356.59375 155.128906 " transform="matrix(1,0,0,1,-66,-5)"/>
<path style="fill:none;stroke-width:1;stroke-linecap:square;stroke-linejoin:miter;stroke:rgb(11.372549%,30.588235%,84.705882%);stroke-opacity:1;stroke-miterlimit:3.25;" d="M 75.980469 353.871094 L 274.40625 353.871094 " transform="matrix(1,0,0,1,-66,-5)"/>
<path style="fill:none;stroke-width:1;stroke-linecap:square;stroke-linejoin:miter;stroke:rgb(11.372549%,30.588235%,84.705882%);stroke-opacity:1;stroke-miterlimit:3.25;" d="M 75.980469 353.871094 L 75.980469 155.128906 " transform="matrix(1,0,0,1,-66,-5)"/>
<path style="fill:none;stroke-width:1;stroke-linecap:square;stroke-linejoin:miter;stroke:rgb(11.372549%,30.588235%,84.705882%);stroke-opacity:1;stroke-miterlimit:3.25;" d="M 75.980469 353.871094 L 216.289062 494.402344 " transform="matrix(1,0,0,1,-66,-5)"/>
<path style="fill:none;stroke-width:1;stroke-linecap:square;stroke-linejoin:miter;stroke:rgb(11.372549%,30.588235%,84.705882%);stroke-opacity:1;stroke-miterlimit:3.25;" d="M 75.980469 353.871094 L 216.289062 213.339844 " transform="matrix(1,0,0,1,-66,-5)"/>
<path style=" stroke:none;fill-rule:evenodd;fill:rgb(11.372549%,30.588235%,84.705882%);fill-opacity:1;" d="M 454.164062 249.5 C 454.164062 251.152344 453.503906 252.742188 452.335938 253.910156 C 451.164062 255.082031 449.578125 255.738281 447.925781 255.738281 C 446.269531 255.738281 444.683594 255.082031 443.515625 253.910156 C 442.34375 252.742188 441.6875 251.152344 441.6875 249.5 C 441.6875 247.847656 442.34375 246.257812 443.515625 245.089844 C 444.683594 243.917969 446.269531 243.261719 447.925781 243.261719 C 449.578125 243.261719 451.164062 243.917969 452.335938 245.089844 C 453.503906 246.257812 454.164062 247.847656 454.164062 249.5 Z M 454.164062 249.5 "/>
<path style=" stroke:none;fill-rule:evenodd;fill:rgb(11.372549%,30.588235%,84.705882%);fill-opacity:1;" d="M 255.738281 50.757812 C 255.738281 52.410156 255.082031 53.996094 253.910156 55.167969 C 252.742188 56.335938 251.152344 56.996094 249.5 56.996094 C 247.847656 56.996094 246.257812 56.335938 245.089844 55.167969 C 243.917969 53.996094 243.261719 52.410156 243.261719 50.757812 C 243.261719 49.101562 243.917969 47.515625 245.089844 46.347656 C 246.257812 45.175781 247.847656 44.519531 249.5 44.519531 C 251.152344 44.519531 252.742188 45.175781 253.910156 46.347656 C 255.082031 47.515625 255.738281 49.101562 255.738281 50.757812 Z M 255.738281 50.757812 "/>
<path style=" stroke:none;fill-rule:evenodd;fill:rgb(11.372549%,30.588235%,84.705882%);fill-opacity:1;" d="M 396.046875 390.03125 C 396.046875 391.6875 395.386719 393.273438 394.21875 394.441406 C 393.046875 395.613281 391.460938 396.269531 389.808594 396.269531 C 388.152344 396.269531 386.566406 395.613281 385.398438 394.441406 C 384.226562 393.273438 383.570312 391.6875 383.570312 390.03125 C 383.570312 388.378906 384.226562 386.792969 385.398438 385.621094 C 386.566406 384.453125 388.152344 383.792969 389.808594 383.792969 C 391.460938 383.792969 393.046875 384.453125 394.21875 385.621094 C 395.386719 386.792969 396.046875 388.378906 396.046875 390.03125 Z M 396.046875 390.03125 "/>
<path style=" stroke:none;fill-rule:evenodd;fill:rgb(11.372549%,30.588235%,84.705882%);fill-opacity:1;" d="M 396.046875 108.96875 C 396.046875 110.621094 395.386719 112.207031 394.21875 113.378906 C 393.046875 114.546875 391.460938 115.207031 389.808594 115.207031 C 388.152344 115.207031 386.566406 114.546875 385.398438 113.378906 C 384.226562 112.207031 383.570312 110.621094 383.570312 108.96875 C 383.570312 107.3125 384.226562 105.726562 385.398438 104.558594 C 386.566406 103.386719 388.152344 102.730469 389.808594 102.730469 C 391.460938 102.730469 393.046875 103.386719 394.21875 104.558594 C 395.386719 105.726562 396.046875 107.3125 396.046875 108.96875 Z M 396.046875 108.96875 "/>
<path style=" stroke:none;fill-rule:evenodd;fill:rgb(11.372549%,30.588235%,84.705882%);fill-opacity:1;" d="M 57.3125 249.5 C 57.3125 251.152344 56.65625 252.742188 55.484375 253.910156 C 54.316406 255.082031 52.730469 255.738281 51.074219 255.738281 C 49.421875 255.738281 47.835938 255.082031 46.664062 253.910156 C 45.496094 252.742188 44.835938 251.152344 44.835938 249.5 C 44.835938 247.847656 45.496094 246.257812 46.664062 245.089844 C 47.835938 243.917969 49.421875 243.261719 51.074219 243.261719 C 52.730469 243.261719 54.316406 243.917969 55.484375 245.089844 C 56.65625 246.257812 57.3125 247.847656 57.3125 249.5 Z M 57.3125 249.5 "/>
<path style=" stroke:none;fill-rule:evenodd;fill:rgb(11.372549%,30.588235%,84.705882%);fill-opacity:1;" d="M 255.738281 448.242188 C 255.738281 449.898438 255.082031 451.484375 253.910156 452.652344 C 252.742188 453.824219 251.152344 454.480469 249.5 454.480469 C 247.847656 454.480469 246.257812 453.824219 245.089844 452.652344 C 243.917969 451.484375 243.261719 449.898438 243.261719 448.242188 C 243.261719 446.589844 243.917969 445.003906 245.089844 443.832031 C 246.257812 442.664062 247.847656 442.003906 249.5 442.003906 C 251.152344 442.003906 252.742188 442.664062 253.910156 443.832031 C 255.082031 445.003906 255.738281 446.589844 255.738281 448.242188 Z M 255.738281 448.242188 "/>
<path style=" stroke:none;fill-rule:evenodd;fill:rgb(11.372549%,30.588235%,84.705882%);fill-opacity:1;" d="M 115.429688 108.96875 C 115.429688 110.621094 114.773438 112.207031 113.601562 113.378906 C 112.433594 114.546875 110.847656 115.207031 109.191406 115.207031 C 107.539062 115.207031 105.953125 114.546875 104.78125 113.378906 C 103.613281 112.207031 102.953125 110.621094 102.953125 108.96875 C 102.953125 107.3125 103.613281 105.726562 104.78125 104.558594 C 105.953125 103.386719 107.539062 102.730469 109.191406 102.730469 C 110.847656 102.730469 112.433594 103.386719 113.601562 104.558594 C 114.773438 105.726562 115.429688 107.3125 115.429688 108.96875 Z M 115.429688 108.96875 "/>
<path style=" stroke:none;fill-rule:evenodd;fill:rgb(11.372549%,30.588235%,84.705882%);fill-opacity:1;" d="M 115.429688 390.03125 C 115.429688 391.6875 114.773438 393.273438 113.601562 394.441406 C 112.433594 395.613281 110.847656 396.269531 109.191406 396.269531 C 107.539062 396.269531 105.953125 395.613281 104.78125 394.441406 C 103.613281 393.273438 102.953125 391.6875 102.953125 390.03125 C 102.953125 388.378906 103.613281 386.792969 104.78125 385.621094 C 105.953125 384.453125 107.539062 383.792969 109.191406 383.792969 C 110.847656 383.792969 112.433594 384.453125 113.601562 385.621094 C 114.773438 386.792969 115.429688 388.378906 115.429688 390.03125 Z M 115.429688 390.03125 "/>
<path style=" stroke:none;fill-rule:evenodd;fill:rgb(11.372549%,30.588235%,84.705882%);fill-opacity:1;" d="M 214.640625 150.128906 C 214.640625 151.78125 213.984375 153.371094 212.816406 154.539062 C 211.644531 155.707031 210.058594 156.367188 208.40625 156.367188 C 206.75 156.367188 205.164062 155.707031 203.996094 154.539062 C 202.824219 153.371094 202.167969 151.78125 202.167969 150.128906 C 202.167969 148.472656 202.824219 146.886719 203.996094 145.71875 C 205.164062 144.546875 206.75 143.890625 208.40625 143.890625 C 210.058594 143.890625 211.644531 144.546875 212.816406 145.71875 C 213.984375 146.886719 214.640625 148.472656 214.640625 150.128906 Z M 214.640625 150.128906 "/>
<path style=" stroke:none;fill-rule:evenodd;fill:rgb(11.372549%,30.588235%,84.705882%);fill-opacity:1;" d="M 354.949219 489.402344 C 354.949219 491.058594 354.292969 492.644531 353.121094 493.8125 C 351.953125 494.984375 350.367188 495.640625 348.710938 495.640625 C 347.058594 495.640625 345.472656 494.984375 344.300781 493.8125 C 343.132812 492.644531 342.476562 491.058594 342.476562 489.402344 C 342.476562 487.75 343.132812 486.164062 344.300781 484.992188 C 345.472656 483.824219 347.058594 483.167969 348.710938 483.167969 C 350.367188 483.167969 351.953125 483.824219 353.121094 484.992188 C 354.292969 486.164062 354.949219 487.75 354.949219 489.402344 Z M 354.949219 489.402344 "/>
<path style=" stroke:none;fill-rule:evenodd;fill:rgb(11.372549%,30.588235%,84.705882%);fill-opacity:1;" d="M 354.949219 208.339844 C 354.949219 209.992188 354.292969 211.578125 353.121094 212.75 C 351.953125 213.917969 350.367188 214.578125 348.710938 214.578125 C 347.058594 214.578125 345.472656 213.917969 344.300781 212.75 C 343.132812 211.578125 342.476562 209.992188 342.476562 208.339844 C 342.476562 206.683594 343.132812 205.097656 344.300781 203.929688 C 345.472656 202.757812 347.058594 202.101562 348.710938 202.101562 C 350.367188 202.101562 351.953125 202.757812 353.121094 203.929688 C 354.292969 205.097656 354.949219 206.683594 354.949219 208.339844 Z M 354.949219 208.339844 "/>
<path style=" stroke:none;fill-rule:evenodd;fill:rgb(11.372549%,30.588235%,84.705882%);fill-opacity:1;" d="M 156.523438 290.660156 C 156.523438 292.316406 155.867188 293.902344 154.699219 295.070312 C 153.527344 296.242188 151.941406 296.898438 150.289062 296.898438 C 148.632812 296.898438 147.046875 296.242188 145.878906 295.070312 C 144.707031 293.902344 144.050781 292.316406 144.050781 290.660156 C 144.050781 289.007812 144.707031 287.421875 145.878906 286.25 C 147.046875 285.082031 148.632812 284.421875 150.289062 284.421875 C 151.941406 284.421875 153.527344 285.082031 154.699219 286.25 C 155.867188 287.421875 156.523438 289.007812 156.523438 290.660156 Z M 156.523438 290.660156 "/>
<path style=" stroke:none;fill-rule:evenodd;fill:rgb(11.372549%,30.588235%,84.705882%);fill-opacity:1;" d="M 156.523438 9.597656 C 156.523438 11.25 155.867188 12.835938 154.699219 14.007812 C 153.527344 15.175781 151.941406 15.832031 150.289062 15.832031 C 148.632812 15.832031 147.046875 15.175781 145.878906 14.007812 C 144.707031 12.835938 144.050781 11.25 144.050781 9.597656 C 144.050781 7.941406 144.707031 6.355469 145.878906 5.1875 C 147.046875 4.015625 148.632812 3.359375 150.289062 3.359375 C 151.941406 3.359375 153.527344 4.015625 154.699219 5.1875 C 155.867188 6.355469 156.523438 7.941406 156.523438 9.597656 Z M 156.523438 9.597656 "/>
<path style=" stroke:none;fill-rule:evenodd;fill:rgb(11.372549%,30.588235%,84.705882%);fill-opacity:1;" d="M 296.832031 348.871094 C 296.832031 350.527344 296.175781 352.113281 295.003906 353.28125 C 293.835938 354.453125 292.25 355.109375 290.59375 355.109375 C 288.941406 355.109375 287.355469 354.453125 286.183594 353.28125 C 285.015625 352.113281 284.359375 350.527344 284.359375 348.871094 C 284.359375 347.21875 285.015625 345.628906 286.183594 344.460938 C 287.355469 343.292969 288.941406 342.632812 290.59375 342.632812 C 292.25 342.632812 293.835938 343.292969 295.003906 344.460938 C 296.175781 345.628906 296.832031 347.21875 296.832031 348.871094 Z M 296.832031 348.871094 "/>
<path style=" stroke:none;fill-rule:evenodd;fill:rgb(11.372549%,30.588235%,84.705882%);fill-opacity:1;" d="M 495.257812 150.128906 C 495.257812 151.78125 494.601562 153.371094 493.429688 154.539062 C 492.261719 155.707031 490.675781 156.367188 489.019531 156.367188 C 487.367188 156.367188 485.777344 155.707031 484.609375 154.539062 C 483.441406 153.371094 482.78125 151.78125 482.78125 150.128906 C 482.78125 148.472656 483.441406 146.886719 484.609375 145.71875 C 485.777344 144.546875 487.367188 143.890625 489.019531 143.890625 C 490.675781 143.890625 492.261719 144.546875 493.429688 145.71875 C 494.601562 146.886719 495.257812 148.472656 495.257812 150.128906 Z M 495.257812 150.128906 "/>
<path style=" stroke:none;fill-rule:evenodd;fill:rgb(11.372549%,30.588235%,84.705882%);fill-opacity:1;" d="M 16.21875 348.871094 C 16.21875 350.527344 15.558594 352.113281 14.390625 353.28125 C 13.222656 354.453125 11.632812 355.109375 9.980469 355.109375 C 8.324219 355.109375 6.738281 354.453125 5.570312 353.28125 C 4.398438 352.113281 3.742188 350.527344 3.742188 348.871094 C 3.742188 347.21875 4.398438 345.628906 5.570312 344.460938 C 6.738281 343.292969 8.324219 342.632812 9.980469 342.632812 C 11.632812 342.632812 13.222656 343.292969 14.390625 344.460938 C 15.558594 345.628906 16.21875 347.21875 16.21875 348.871094 Z M 16.21875 348.871094 "/>
<path style=" stroke:none;fill-rule:evenodd;fill:rgb(11.372549%,30.588235%,84.705882%);fill-opacity:1;" d="M 354.949219 290.660156 C 354.949219 292.316406 354.292969 293.902344 353.121094 295.070312 C 351.953125 296.242188 350.367188 296.898438 348.710938 296.898438 C 347.058594 296.898438 345.472656 296.242188 344.300781 295.070312 C 343.132812 293.902344 342.476562 292.316406 342.476562 290.660156 C 342.476562 289.007812 343.132812 287.421875 344.300781 286.25 C 345.472656 285.082031 347.058594 284.421875 348.710938 284.421875 C 350.367188 284.421875 351.953125 285.082031 353.121094 286.25 C 354.292969 287.421875 354.949219 289.007812 354.949219 290.660156 Z M 354.949219 290.660156 "/>
<path style=" stroke:none;fill-rule:evenodd;fill:rgb(11.372549%,30.588235%,84.705882%);fill-opacity:1;" d="M 354.949219 9.597656 C 354.949219 11.25 354.292969 12.835938 353.121094 14.007812 C 351.953125 15.175781 350.367188 15.832031 348.710938 15.832031 C 347.058594 15.832031 345.472656 15.175781 344.300781 14.007812 C 343.132812 12.835938 342.476562 11.25 342.476562 9.597656 C 342.476562 7.941406 343.132812 6.355469 344.300781 5.1875 C 345.472656 4.015625 347.058594 3.359375 348.710938 3.359375 C 350.367188 3.359375 351.953125 4.015625 353.121094 5.1875 C 354.292969 6.355469 354.949219 7.941406 354.949219 9.597656 Z M 354.949219 9.597656 "/>
<path style=" stroke:none;fill-rule:evenodd;fill:rgb(11.372549%,30.588235%,84.705882%);fill-opacity:1;" d="M 495.257812 348.871094 C 495.257812 350.527344 494.601562 352.113281 493.429688 353.28125 C 492.261719 354.453125 490.675781 355.109375 489.019531 355.109375 C 487.367188 355.109375 485.777344 354.453125 484.609375 353.28125 C 483.441406 352.113281 482.78125 350.527344 482.78125 348.871094 C 482.78125 347.21875 483.441406 345.628906 484.609375 344.460938 C 485.777344 343.292969 487.367188 342.632812 489.019531 342.632812 C 490.675781 342.632812 492.261719 343.292969 493.429688 344.460938 C 494.601562 345.628906 495.257812 347.21875 495.257812 348.871094 Z M 495.257812 348.871094 "/>
<path style=" stroke:none;fill-rule:evenodd;fill:rgb(11.372549%,30.588235%,84.705882%);fill-opacity:1;" d="M 296.832031 150.128906 C 296.832031 151.78125 296.175781 153.371094 295.003906 154.539062 C 293.835938 155.707031 292.25 156.367188 290.59375 156.367188 C 288.941406 156.367188 287.355469 155.707031 286.183594 154.539062 C 285.015625 153.371094 284.359375 151.78125 284.359375 150.128906 C 284.359375 148.472656 285.015625 146.886719 286.183594 145.71875 C 287.355469 144.546875 288.941406 143.890625 290.59375 143.890625 C 292.25 143.890625 293.835938 144.546875 295.003906 145.71875 C 296.175781 146.886719 296.832031 148.472656 296.832031 150.128906 Z M 296.832031 150.128906 "/>
<path style=" stroke:none;fill-rule:evenodd;fill:rgb(11.372549%,30.588235%,84.705882%);fill-opacity:1;" d="M 214.640625 348.871094 C 214.640625 350.527344 213.984375 352.113281 212.816406 353.28125 C 211.644531 354.453125 210.058594 355.109375 208.40625 355.109375 C 206.75 355.109375 205.164062 354.453125 203.996094 353.28125 C 202.824219 352.113281 202.167969 350.527344 202.167969 348.871094 C 202.167969 347.21875 202.824219 345.628906 203.996094 344.460938 C 205.164062 343.292969 206.75 342.632812 208.40625 342.632812 C 210.058594 342.632812 211.644531 343.292969 212.816406 344.460938 C 213.984375 345.628906 214.640625 347.21875 214.640625 348.871094 Z M 214.640625 348.871094 "/>
<path style=" stroke:none;fill-rule:evenodd;fill:rgb(11.372549%,30.588235%,84.705882%);fill-opacity:1;" d="M 16.21875 150.128906 C 16.21875 151.78125 15.558594 153.371094 14.390625 154.539062 C 13.222656 155.707031 11.632812 156.367188 9.980469 156.367188 C 8.324219 156.367188 6.738281 155.707031 5.570312 154.539062 C 4.398438 153.371094 3.742188 151.78125 3.742188 150.128906 C 3.742188 148.472656 4.398438 146.886719 5.570312 145.71875 C 6.738281 144.546875 8.324219 143.890625 9.980469 143.890625 C 11.632812 143.890625 13.222656 144.546875 14.390625 145.71875 C 15.558594 146.886719 16.21875 148.472656 16.21875 150.128906 Z M 16.21875 150.128906 "/>
<path style=" stroke:none;fill-rule:evenodd;fill:rgb(11.372549%,30.588235%,84.705882%);fill-opacity:1;" d="M 156.523438 489.402344 C 156.523438 491.058594 155.867188 492.644531 154.699219 493.8125 C 153.527344 494.984375 151.941406 495.640625 150.289062 495.640625 C 148.632812 495.640625 147.046875 494.984375 145.878906 493.8125 C 144.707031 492.644531 144.050781 491.058594 144.050781 489.402344 C 144.050781 487.75 144.707031 486.164062 145.878906 484.992188 C 147.046875 483.824219 148.632812 483.167969 150.289062 483.167969 C 151.941406 483.167969 153.527344 483.824219 154.699219 484.992188 C 155.867188 486.164062 156.523438 487.75 156.523438 489.402344 Z M 156.523438 489.402344 "/>
<path style=" stroke:none;fill-rule:evenodd;fill:rgb(11.372549%,30.588235%,84.705882%);fill-opacity:1;" d="M 156.523438 208.339844 C 156.523438 209.992188 155.867188 211.578125 154.699219 212.75 C 153.527344 213.917969 151.941406 214.578125 150.289062 214.578125 C 148.632812 214.578125 147.046875 213.917969 145.878906 212.75 C 144.707031 211.578125 144.050781 209.992188 144.050781 208.339844 C 144.050781 206.683594 144.707031 205.097656 145.878906 203.929688 C 147.046875 202.757812 148.632812 202.101562 150.289062 202.101562 C 151.941406 202.101562 153.527344 202.757812 154.699219 203.929688 C 155.867188 205.097656 156.523438 206.683594 156.523438 208.339844 Z M 156.523438 208.339844 "/>
</g>
</svg>
