<?xml version="1.0" encoding="UTF-8" standalone="no"?>
<!DOCTYPE svg PUBLIC "-//W3C//DTD SVG 1.1//EN" "http://www.w3.org/Graphics/SVG/1.1/DTD/svg11.dtd">
<svg xmlns="http://www.w3.org/2000/svg" xmlns:xlink="http://www.w3.org/1999/xlink" version="1.1" width="280.833pt" height="136.981pt" viewBox="0 0 280.833 136.981">
<g enable-background="new">
<path transform="matrix(1,0,0,-1,.5,.8990021)" stroke-width=".797" stroke-linecap="butt" stroke-miterlimit="10" stroke-linejoin="miter" fill="none" stroke="#000000" d="M 0 0 L 279.833 0 "/>
<symbol id="font_0_3">
<path d="M .59300008 .71700009 C .59300008 .72 .591 .72700008 .582 .72700008 C .577 .72700008 .57600006 .7260001 .56400009 .7120001 L .51600006 .65500006 C .49000008 .702 .43800003 .72700008 .37300004 .72700008 C .246 .72700008 .126 .61200007 .126 .49100004 C .126 .41000004 .179 .36400003 .23 .34900005 L .337 .32100005 C .374 .31200005 .42900003 .29700003 .42900003 .215 C .42900003 .12500002 .347 .031000004 .24900003 .031000004 C .18500002 .031000004 .074 .053000004 .074 .177 C .074 .201 .07900001 .22500001 .08 .231 C .081 .23500002 .082 .23600002 .082 .238 C .082 .24800001 .075 .24900002 .07000001 .24900002 C .065000008 .24900002 .063 .24800001 .060000004 .245 C .056 .24100001 0 .013000001 0 .010000002 C 0 .0040000008 .0050000029 0 .011 0 C .016000003 0 .017000005 .0010000002 .029 .0150000019 L .07800001 .072000008 C .12100001 .014000001 .18900001 0 .24700003 0 C .38300003 0 .50100007 .13300002 .50100007 .25700004 C .50100007 .32600004 .46700008 .36000005 .45200003 .37400005 C .42900003 .39700005 .41400004 .40100003 .325 .42400003 C .30300004 .43000005 .26700003 .44000004 .25800003 .44200004 C .23100002 .45100004 .19700001 .48000006 .19700001 .53300008 C .19700001 .614 .277 .69900009 .37200005 .69900009 C .45500005 .69900009 .51600006 .656 .51600006 .544 C .51600006 .512 .512 .49400006 .512 .48800005 C .512 .48700006 .512 .47800005 .52400007 .47800005 C .53400006 .47800005 .535 .48100005 .53900006 .49800004 L .59300008 .71700009 Z "/>
</symbol>
<use xlink:href="#font_0_3" transform="matrix(9.96264,0,0,-9.96264,12.8260569,14.350183)"/>
<symbol id="font_1_1">
<path d="M .448 .60600009 C .44900007 .61 .45000006 .61600008 .45000006 .62100008 C .45000006 .62700006 .44600005 .635 .43700005 .635 C .42700006 .635 .385 .601 .365 .569 C .35500003 .589 .32200004 .635 .25800003 .635 C .13000001 .635 0 .49400003 0 .35000003 C 0 .25300003 .065 .184 .15100001 .184 C .20800002 .184 .255 .22 .277 .23900001 C .27600003 .236 .24500002 .11 .24100001 .093 C .22700002 .038000004 .226 .037 .164 .036 C .15200001 .036 .13800001 .036 .13800001 .013999999 C .13800001 .008000001 .143 0 .15300001 0 C .186 0 .223 .003999993 .25700004 .003999993 C .291 .003999993 .333 0 .36400003 0 C .37300004 0 .384 .0029999912 .384 .022 C .384 .036 .37 .036 .35800005 .036 C .33600004 .036 .30900003 .036 .30900003 .047999994 C .30900003 .051 .30900003 .053000004 .314 .07 L .448 .60600009 M .297 .32 C .292 .303 .292 .301 .27899999 .28500004 C .24000003 .23900001 .193 .21200001 .154 .21200001 C .117 .21200001 .081 .238 .081 .30900003 C .081 .36200003 .11 .47200004 .133 .512 C .179 .592 .23 .607 .25800003 .607 C .328 .607 .347 .53000006 .347 .52 C .347 .515 .34500004 .50900009 .34400005 .505 L .297 .32 Z "/>
</symbol>
<use xlink:href="#font_1_1" transform="matrix(6.97385,0,0,-6.97385,18.842406,16.977927)"/>
<path transform="matrix(1,0,0,-1,34.825,18.434006)" stroke-width=".398" stroke-linecap="butt" stroke-miterlimit="10" stroke-linejoin="miter" fill="none" stroke="#000000" d="M 0 0 L 0 14.346 "/>
<symbol id="font_2_2">
<path d="M .453 .28200004 C .39900003 .35000003 .38700003 .365 .356 .39000003 C .3 .43500004 .24400002 .45300005 .193 .45300005 C .076000008 .45300005 0 .34300003 0 .22600001 C 0 .111 .074 0 .18900001 0 C .30400003 0 .38700003 .091000009 .43600003 .17100002 C .49 .10300001 .50200006 .08800001 .533 .063 C .58900007 .018000002 .64500007 0 .69600006 0 C .813 0 .88900008 .11000001 .88900008 .22700002 C .88900008 .34200005 .81500008 .45300005 .70000007 .45300005 C .58500006 .45300005 .50200006 .36200003 .453 .28200004 M .47900004 .24800003 C .52000007 .32000003 .59400007 .42100004 .707 .42100004 C .813 .42100004 .86700007 .31700004 .86700007 .22700002 C .86700007 .12900001 .8 .048 .712 .048 C .65400007 .048 .609 .09 .588 .111 C .563 .13800001 .54 .16900002 .47900004 .24800003 M .41000004 .20500002 C .36900003 .13300002 .29500003 .032 .18200001 .032 C .076000008 .032 .022000004 .136 .022000004 .22600001 C .022000004 .32400004 .089 .40500004 .177 .40500004 C .23500002 .40500004 .28 .36300005 .301 .34200005 C .326 .31500004 .349 .284 .41000004 .20500002 Z "/>
</symbol>
<use xlink:href="#font_2_2" transform="matrix(9.96264,0,0,-9.96264,49.923948,14.240593)"/>
<symbol id="font_3_3">
<path d="M .421 .34200005 C .421 .42200003 .416 .50200006 .381 .57600006 C .335 .67200008 .25300003 .688 .211 .688 C .15100001 .688 .07800001 .66200008 .037000006 .56900009 C .0050000029 .5 0 .42200003 0 .34200005 C 0 .26700003 .0040000008 .177 .045000007 .101 C .088 .020000002 .161 0 .21000001 0 C .264 0 .34 .021000002 .384 .116000007 C .416 .185 .421 .263 .421 .34200005 M .21000001 .022000002 C .171 .022000002 .112 .047000003 .094 .143 C .083000008 .20300001 .083000008 .29500003 .083000008 .35400004 C .083000008 .41800005 .083000008 .48400004 .091000009 .53800007 C .11 .65700009 .185 .66600009 .21000001 .66600009 C .243 .66600009 .30900003 .64800009 .328 .549 C .338 .49300004 .338 .41700004 .338 .35400004 C .338 .279 .338 .21100001 .32700003 .147 C .312 .052 .255 .022000002 .21000001 .022000002 Z "/>
</symbol>
<symbol id="font_3_4">
<path d="M .205 .64000007 C .205 .66400006 .205 .666 .18200003 .666 C .120000008 .60200008 .032000007 .60200008 0 .60200008 L 0 .57100006 C .020000004 .57100006 .07900001 .57100006 .13100001 .597 L .13100001 .079 C .13100001 .043 .128 .031000002 .038000004 .031000002 L .0060000049 .031000002 L .0060000049 0 C .04100001 .003 .128 .003 .168 .003 C .20800002 .003 .29500003 .003 .33000005 0 L .33000005 .031000002 L .29800005 .031000002 C .20800002 .031000002 .205 .042000005 .205 .079 L .205 .64000007 Z "/>
</symbol>
<use xlink:href="#font_3_3" transform="matrix(9.96264,0,0,-9.96264,87.048549,14.350183)"/>
<use xlink:href="#font_3_4" transform="matrix(9.96264,0,0,-9.96264,118.460758,14.131004)"/>
<symbol id="font_0_2">
<path d="M .106 .053000004 C .106 .082 .08200001 .106000009 .05300001 .106000009 C .024000004 .106000009 0 .082 0 .053000004 C 0 .024 .024000004 0 .05300001 0 C .08200001 0 .106 .024 .106 .053000004 Z "/>
</symbol>
<symbol id="font_0_5">
<path d="M .41000004 .83000007 C .41000004 .8490001 .39600004 .86600008 .37200005 .86600008 C .34900005 .86600008 .31900005 .84300008 .31900005 .8130001 C .31900005 .793 .33300004 .77700009 .35600005 .77700009 C .38300003 .77700009 .41000004 .8030001 .41000004 .83000007 M .209 .15500002 C .19 .07900001 .142 .022 .08600001 .022 C .08 .022 .065 .022 .047000003 .031000004 C .07700001 .038000004 .09200001 .06400001 .09200001 .08400001 C .09200001 .10000001 .081 .11900001 .054 .11900001 C .029000001 .11900001 0 .098000008 0 .062000008 C 0 .022 .04 0 .088 0 C .158 0 .25100003 .053000004 .27600003 .15200001 L .36800004 .518 C .37300004 .538 .37300004 .55200007 .37300004 .55500009 C .37300004 .612 .33100004 .6470001 .28100003 .6470001 C .179 .6470001 .12200001 .50200006 .12200001 .49300004 C .12200001 .48300005 .132 .48300005 .134 .48300005 C .143 .48300005 .14400001 .48400004 .15200001 .503 C .177 .564 .223 .625 .27800004 .625 C .29200004 .625 .31000004 .62100008 .31000004 .579 C .31000004 .556 .307 .545 .30300004 .528 L .209 .15500002 Z "/>
</symbol>
<symbol id="font_0_6">
<path d="M .07700001 .072 C .069000009 .038000004 .067 .031000004 .023000002 .031000004 C .011 .031000004 0 .031000004 0 .0119999949 C 0 .003999993 .005000001 0 .013 0 C .040000004 0 .069000009 .0029999912 .097 .0029999912 C .13000001 .0029999912 .164 0 .19600001 0 C .20100002 0 .21400002 0 .21400002 .019999996 C .21400002 .031000004 .20400001 .031000004 .19000001 .031000004 C .14 .031000004 .14 .038000004 .14 .047000007 C .14 .059 .18200001 .222 .18900001 .24700001 C .202 .21800001 .23000002 .183 .28100003 .183 C .397 .183 .522 .329 .522 .476 C .522 .57000008 .46500004 .63600006 .38900004 .63600006 C .33900003 .63600006 .291 .6 .25800003 .561 C .24800001 .615 .20500002 .63600006 .16800002 .63600006 C .12200001 .63600006 .103 .597 .094000007 .579 C .076000008 .545 .063 .485 .063 .48200003 C .063 .47200004 .073 .47200004 .075 .47200004 C .08500001 .47200004 .086 .47300003 .09200001 .49500004 C .10900001 .566 .12900001 .614 .165 .614 C .18200001 .614 .19600001 .60600009 .19600001 .568 C .19600001 .545 .19300002 .53400006 .18900001 .517 L .07700001 .072 M .25300003 .50600007 C .26000003 .533 .28700004 .561 .305 .57600006 C .34000004 .607 .36900003 .614 .386 .614 C .42600004 .614 .45000003 .579 .45000003 .52 C .45000003 .46100004 .41700004 .34600003 .39900003 .30800004 C .365 .238 .31700004 .20500002 .28 .20500002 C .21400002 .20500002 .20100002 .28800003 .20100002 .294 C .20100002 .296 .20100002 .298 .20400001 .31 L .25300003 .50600007 Z "/>
</symbol>
<use xlink:href="#font_0_2" transform="matrix(9.96264,0,0,-9.96264,142.36379,14.131004)"/>
<use xlink:href="#font_0_2" transform="matrix(9.96264,0,0,-9.96264,146.78719,14.131004)"/>
<use xlink:href="#font_0_2" transform="matrix(9.96264,0,0,-9.96264,151.22055,14.131004)"/>
<use xlink:href="#font_0_5" transform="matrix(9.96264,0,0,-9.96264,181.41732,16.173346)"/>
<use xlink:href="#font_0_2" transform="matrix(9.96264,0,0,-9.96264,213.82579,14.131004)"/>
<use xlink:href="#font_0_2" transform="matrix(9.96264,0,0,-9.96264,218.25916,14.131004)"/>
<use xlink:href="#font_0_2" transform="matrix(9.96264,0,0,-9.96264,222.68256,14.131004)"/>
<use xlink:href="#font_0_6" transform="matrix(9.96264,0,0,-9.96264,244.88928,16.063757)"/>
<symbol id="font_2_1">
<path d="M .57600006 0 C .59300008 0 .611 0 .611 .019999996 C .611 .040000008 .59300008 .040000008 .57600006 .040000008 L .035000005 .040000008 C .018 .040000008 0 .040000008 0 .019999996 C 0 0 .018 0 .035000005 0 L .57600006 0 Z "/>
</symbol>
<use xlink:href="#font_2_1" transform="matrix(9.96264,0,0,-9.96264,253.2469,11.839598)"/>
<use xlink:href="#font_3_4" transform="matrix(9.96264,0,0,-9.96264,263.26969,14.131004)"/>
<path transform="matrix(1,0,0,-1,.5,20.401001)" stroke-width=".498" stroke-linecap="butt" stroke-miterlimit="10" stroke-linejoin="miter" fill="none" stroke="#000000" d="M 0 0 L 279.833 0 "/>
<use xlink:href="#font_2_2" transform="matrix(9.96264,0,0,-9.96264,13.128945,33.59259)"/>
<path transform="matrix(1,0,0,-1,34.825,37.787004)" stroke-width=".398" stroke-linecap="butt" stroke-miterlimit="10" stroke-linejoin="miter" fill="none" stroke="#000000" d="M 0 0 L 0 14.346 "/>
<use xlink:href="#font_3_3" transform="matrix(9.96264,0,0,-9.96264,52.255544,33.70218)"/>
<use xlink:href="#font_3_4" transform="matrix(9.96264,0,0,-9.96264,87.54321,33.483)"/>
<use xlink:href="#font_3_4" transform="matrix(9.96264,0,0,-9.96264,118.45729,33.483)"/>
<use xlink:href="#font_0_2" transform="matrix(9.96264,0,0,-9.96264,142.36379,33.483)"/>
<use xlink:href="#font_0_2" transform="matrix(9.96264,0,0,-9.96264,146.78719,33.483)"/>
<use xlink:href="#font_0_2" transform="matrix(9.96264,0,0,-9.96264,151.22055,33.483)"/>
<use xlink:href="#font_3_4" transform="matrix(9.96264,0,0,-9.96264,182.27367,33.483)"/>
<use xlink:href="#font_0_2" transform="matrix(9.96264,0,0,-9.96264,213.82079,33.483)"/>
<use xlink:href="#font_0_2" transform="matrix(9.96264,0,0,-9.96264,218.24419,33.483)"/>
<use xlink:href="#font_0_2" transform="matrix(9.96264,0,0,-9.96264,222.67755,33.483)"/>
<use xlink:href="#font_3_4" transform="matrix(9.96264,0,0,-9.96264,254.67568,33.483)"/>
<use xlink:href="#font_3_3" transform="matrix(9.96264,0,0,-9.96264,15.460543,48.04918)"/>
<path transform="matrix(1,0,0,-1,34.825,52.133005)" stroke-width=".398" stroke-linecap="butt" stroke-miterlimit="10" stroke-linejoin="miter" fill="none" stroke="#000000" d="M 0 0 L 0 14.346 "/>
<symbol id="font_0_1">
<path d="M .552 .60800006 C .563 .6190001 .563 .62100008 .563 .6240001 C .563 .63 .559 .63600006 .551 .63600006 C .545 .63600006 .541 .63100007 .535 .6240001 L .30600003 .36900003 C .26600004 .49600003 .25800003 .521 .235 .574 C .22400002 .597 .202 .6470001 .11400001 .6470001 C .056 .6470001 .030000003 .595 .030000003 .58100005 C .030000003 .58000007 .030000003 .57100006 .042000005 .57100006 C .051 .57100006 .053000004 .577 .055 .582 C .07 .62100008 .102 .625 .10800001 .625 C .13800001 .625 .16800002 .549 .185 .505 C .21700001 .42600004 .249 .31 .249 .307 C .249 .30600003 .249 .30400003 .24100001 .296 L .011000002 .039000006 C 0 .028000012 0 .026000008 0 .023000002 C 0 .017000005 .005999999 .011000007 .012 .011000007 C .019 .011000007 .024000003 .018000007 .028000003 .022 L .25700004 .279 C .28900004 .17500001 .30100004 .136 .32500003 .08000001 C .33800004 .050000013 .36000005 0 .44900004 0 C .507 0 .534 .052 .534 .06500001 C .534 .07000001 .532 .076000008 .522 .076000008 C .512 .076000008 .51100006 .07200001 .508 .062000008 C .49900005 .038000004 .474 .022 .45500005 .022 C .40400005 .022 .33600004 .26400004 .31400005 .34100003 L .552 .60800006 Z "/>
</symbol>
<use xlink:href="#font_0_1" transform="matrix(9.96264,0,0,-9.96264,41.31084,49.872346)"/>
<symbol id="font_3_1">
<path d="M .23200003 .00999999 C .23200003 .012999982 .23200003 .014999986 .215 .03199999 C .09 .15799999 .058 .347 .058 .5 C .058 .674 .096 .84800007 .21900001 .97300007 C .23200003 .985 .23200003 .98700007 .23200003 .99 C .23200003 .99700006 .22800002 1 .222 1 C .21200001 1 .12200001 .93200007 .06299999 .805 C .012000002 .69500008 0 .584 0 .5 C 0 .422 .011 .301 .066 .188 C .126 .065 .21200001 0 .222 0 C .22800002 0 .23200003 .0029999912 .23200003 .00999999 Z "/>
</symbol>
<use xlink:href="#font_3_1" transform="matrix(9.96264,0,0,-9.96264,48.221303,50.320665)"/>
<use xlink:href="#font_2_1" transform="matrix(9.96264,0,0,-9.96264,51.9359,45.538595)"/>
<symbol id="font_3_2">
<path d="M .232 .5 C .232 .578 .22100002 .699 .16600001 .81200006 C .106 .93500009 .020000004 1 .009999998 1 C .0040000008 1 0 .99600008 0 .99 C 0 .98700007 0 .985 .019000002 .967 C .117000009 .86800006 .174 .709 .174 .5 C .174 .329 .137 .153 .012999997 .026999996 C 0 .014999986 0 .012999982 0 .00999999 C 0 .003999993 .0040000008 0 .009999998 0 C .020000004 0 .11000001 .06799999 .169 .195 C .22 .305 .232 .416 .232 .5 Z "/>
</symbol>
<use xlink:href="#font_3_4" transform="matrix(9.96264,0,0,-9.96264,59.74468,47.83)"/>
<use xlink:href="#font_3_2" transform="matrix(9.96264,0,0,-9.96264,64.40719,50.320665)"/>
<use xlink:href="#font_0_1" transform="matrix(9.96264,0,0,-9.96264,79.977848,49.872346)"/>
<use xlink:href="#font_3_1" transform="matrix(9.96264,0,0,-9.96264,86.8893,50.320665)"/>
<use xlink:href="#font_3_3" transform="matrix(9.96264,0,0,-9.96264,90.16701,48.04918)"/>
<use xlink:href="#font_3_2" transform="matrix(9.96264,0,0,-9.96264,95.32766,50.320665)"/>
<use xlink:href="#font_0_1" transform="matrix(9.96264,0,0,-9.96264,110.89684,49.872346)"/>
<use xlink:href="#font_3_1" transform="matrix(9.96264,0,0,-9.96264,117.8073,50.320665)"/>
<use xlink:href="#font_3_4" transform="matrix(9.96264,0,0,-9.96264,121.58314,47.83)"/>
<use xlink:href="#font_3_2" transform="matrix(9.96264,0,0,-9.96264,126.24566,50.320665)"/>
<use xlink:href="#font_0_2" transform="matrix(9.96264,0,0,-9.96264,142.36379,47.83)"/>
<use xlink:href="#font_0_2" transform="matrix(9.96264,0,0,-9.96264,146.78719,47.83)"/>
<use xlink:href="#font_0_2" transform="matrix(9.96264,0,0,-9.96264,151.22055,47.83)"/>
<use xlink:href="#font_0_1" transform="matrix(9.96264,0,0,-9.96264,174.8619,49.872346)"/>
<use xlink:href="#font_3_1" transform="matrix(9.96264,0,0,-9.96264,181.7693,50.320665)"/>
<use xlink:href="#font_0_5" transform="matrix(9.96264,0,0,-9.96264,184.52748,49.872346)"/>
<use xlink:href="#font_3_2" transform="matrix(9.96264,0,0,-9.96264,189.89788,50.320665)"/>
<use xlink:href="#font_0_2" transform="matrix(9.96264,0,0,-9.96264,213.82079,47.83)"/>
<use xlink:href="#font_0_2" transform="matrix(9.96264,0,0,-9.96264,218.24419,47.83)"/>
<use xlink:href="#font_0_2" transform="matrix(9.96264,0,0,-9.96264,222.67755,47.83)"/>
<use xlink:href="#font_0_1" transform="matrix(9.96264,0,0,-9.96264,238.51815,49.872346)"/>
<use xlink:href="#font_3_1" transform="matrix(9.96264,0,0,-9.96264,245.4223,50.320665)"/>
<use xlink:href="#font_0_6" transform="matrix(9.96264,0,0,-9.96264,247.9922,49.762754)"/>
<use xlink:href="#font_2_1" transform="matrix(9.96264,0,0,-9.96264,256.3639,45.538595)"/>
<use xlink:href="#font_3_4" transform="matrix(9.96264,0,0,-9.96264,266.3867,47.83)"/>
<use xlink:href="#font_3_2" transform="matrix(9.96264,0,0,-9.96264,271.0492,50.320665)"/>
<use xlink:href="#font_3_4" transform="matrix(9.96264,0,0,-9.96264,15.958674,62.176004)"/>
<path transform="matrix(1,0,0,-1,34.825,66.48)" stroke-width=".398" stroke-linecap="butt" stroke-miterlimit="10" stroke-linejoin="miter" fill="none" stroke="#000000" d="M 0 0 L 0 14.346 "/>
<use xlink:href="#font_0_1" transform="matrix(9.96264,0,0,-9.96264,41.31084,64.218349)"/>
<use xlink:href="#font_3_1" transform="matrix(9.96264,0,0,-9.96264,48.221303,64.666667)"/>
<use xlink:href="#font_2_1" transform="matrix(9.96264,0,0,-9.96264,51.9359,59.884595)"/>
<use xlink:href="#font_3_4" transform="matrix(9.96264,0,0,-9.96264,59.74468,62.176004)"/>
<use xlink:href="#font_3_2" transform="matrix(9.96264,0,0,-9.96264,64.40719,64.666667)"/>
<symbol id="font_4_4e9">
<path d="M .059999996 0 C .093 0 .12 .026 .12 .063 C .12 .101 .093 .127 .059999996 .127 C .027000003 .127 0 .101 0 .063 C 0 .026 .027000003 0 .059999996 0 Z "/>
</symbol>
<use xlink:href="#font_4_4e9" transform="matrix(9.96264,0,0,-9.96264,16.964571,73.72256)"/>
<use xlink:href="#font_4_4e9" transform="matrix(9.96264,0,0,-9.96264,16.964571,77.70755)"/>
<use xlink:href="#font_4_4e9" transform="matrix(9.96264,0,0,-9.96264,16.964571,81.69255)"/>
<path transform="matrix(1,0,0,-1,34.825,85.877)" stroke-width=".398" stroke-linecap="butt" stroke-miterlimit="10" stroke-linejoin="miter" fill="none" stroke="#000000" d="M 0 0 L 0 19.397 "/>
<use xlink:href="#font_4_4e9" transform="matrix(9.96264,0,0,-9.96264,53.75957,73.72256)"/>
<use xlink:href="#font_4_4e9" transform="matrix(9.96264,0,0,-9.96264,53.75957,77.70755)"/>
<use xlink:href="#font_4_4e9" transform="matrix(9.96264,0,0,-9.96264,53.75957,81.69255)"/>
<use xlink:href="#font_4_4e9" transform="matrix(9.96264,0,0,-9.96264,143.95256,74.71855)"/>
<use xlink:href="#font_4_4e9" transform="matrix(9.96264,0,0,-9.96264,147.55057,77.70755)"/>
<use xlink:href="#font_4_4e9" transform="matrix(9.96264,0,0,-9.96264,151.14858,80.696559)"/>
<use xlink:href="#font_4_4e9" transform="matrix(9.96264,0,0,-9.96264,215.41057,74.71855)"/>
<use xlink:href="#font_4_4e9" transform="matrix(9.96264,0,0,-9.96264,219.00856,77.70755)"/>
<use xlink:href="#font_4_4e9" transform="matrix(9.96264,0,0,-9.96264,222.60556,80.696559)"/>
<symbol id="font_0_4">
<path d="M .255 .636 C .255 .656 .24100001 .672 .21800001 .672 C .19100002 .672 .164 .646 .164 .619 C .164 .6 .17800002 .583 .202 .583 C .22500001 .583 .255 .606 .255 .636 M .179 .26000003 C .19100002 .28900004 .19100002 .291 .201 .31800003 C .209 .33800004 .21400002 .35200004 .21400002 .37100003 C .21400002 .41600005 .18200001 .45300005 .13200002 .45300005 C .038000004 .45300005 0 .30800004 0 .29900003 C 0 .28900004 .01 .28900004 .012 .28900004 C .022000002 .28900004 .023 .291 .028000003 .307 C .055000009 .40100003 .095000009 .43100003 .12900001 .43100003 C .13700001 .43100003 .15400002 .43100003 .15400002 .39900003 C .15400002 .37800003 .14700002 .35700003 .143 .34700004 C .135 .321 .09 .20500002 .07400001 .16200002 C .064 .136 .051000008 .10300001 .051000008 .082 C .051000008 .035 .08500001 0 .133 0 C .22700002 0 .264 .14500001 .264 .15400002 C .264 .16400002 .255 .16400002 .252 .16400002 C .24200003 .16400002 .24200003 .16100002 .237 .14600002 C .21900001 .083000008 .186 .022000002 .135 .022000002 C .118 .022000002 .111 .032 .111 .055000005 C .111 .080000009 .11700001 .094000007 .14000002 .15500002 L .179 .26000003 Z "/>
</symbol>
<use xlink:href="#font_0_4" transform="matrix(9.96264,0,0,-9.96264,16.135916,96.028598)"/>
<path transform="matrix(1,0,0,-1,34.825,100.22301)" stroke-width=".398" stroke-linecap="butt" stroke-miterlimit="10" stroke-linejoin="miter" fill="none" stroke="#000000" d="M 0 0 L 0 14.346 "/>
<use xlink:href="#font_0_1" transform="matrix(9.96264,0,0,-9.96264,41.31084,97.96135)"/>
<use xlink:href="#font_3_1" transform="matrix(9.96264,0,0,-9.96264,48.221303,98.40967)"/>
<use xlink:href="#font_2_1" transform="matrix(9.96264,0,0,-9.96264,51.9359,93.6276)"/>
<use xlink:href="#font_3_4" transform="matrix(9.96264,0,0,-9.96264,59.74468,95.91901)"/>
<use xlink:href="#font_3_2" transform="matrix(9.96264,0,0,-9.96264,64.40719,98.40967)"/>
<use xlink:href="#font_0_1" transform="matrix(9.96264,0,0,-9.96264,167.05384,97.96135)"/>
<use xlink:href="#font_3_1" transform="matrix(9.96264,0,0,-9.96264,173.9653,98.40967)"/>
<use xlink:href="#font_0_5" transform="matrix(9.96264,0,0,-9.96264,176.72348,97.96135)"/>
<use xlink:href="#font_2_1" transform="matrix(9.96264,0,0,-9.96264,184.56691,93.6276)"/>
<use xlink:href="#font_0_4" transform="matrix(9.96264,0,0,-9.96264,193.99192,96.028598)"/>
<use xlink:href="#font_3_2" transform="matrix(9.96264,0,0,-9.96264,197.70287,98.40967)"/>
<use xlink:href="#font_4_4e9" transform="matrix(9.96264,0,0,-9.96264,16.964571,107.46555)"/>
<use xlink:href="#font_4_4e9" transform="matrix(9.96264,0,0,-9.96264,16.964571,111.450557)"/>
<use xlink:href="#font_4_4e9" transform="matrix(9.96264,0,0,-9.96264,16.964571,115.435558)"/>
<path transform="matrix(1,0,0,-1,34.825,119.62)" stroke-width=".398" stroke-linecap="butt" stroke-miterlimit="10" stroke-linejoin="miter" fill="none" stroke="#000000" d="M 0 0 L 0 19.397 "/>
<use xlink:href="#font_4_4e9" transform="matrix(9.96264,0,0,-9.96264,53.75957,107.46555)"/>
<use xlink:href="#font_4_4e9" transform="matrix(9.96264,0,0,-9.96264,53.75957,111.450557)"/>
<use xlink:href="#font_4_4e9" transform="matrix(9.96264,0,0,-9.96264,53.75957,115.435558)"/>
<use xlink:href="#font_4_4e9" transform="matrix(9.96264,0,0,-9.96264,143.95256,108.462558)"/>
<use xlink:href="#font_4_4e9" transform="matrix(9.96264,0,0,-9.96264,147.55057,111.450557)"/>
<use xlink:href="#font_4_4e9" transform="matrix(9.96264,0,0,-9.96264,151.14858,114.43956)"/>
<use xlink:href="#font_4_4e9" transform="matrix(9.96264,0,0,-9.96264,215.41057,108.462558)"/>
<use xlink:href="#font_4_4e9" transform="matrix(9.96264,0,0,-9.96264,219.00856,111.450557)"/>
<use xlink:href="#font_4_4e9" transform="matrix(9.96264,0,0,-9.96264,222.60556,114.43956)"/>
<use xlink:href="#font_0_6" transform="matrix(9.96264,0,0,-9.96264,6.159196,131.59577)"/>
<use xlink:href="#font_2_1" transform="matrix(9.96264,0,0,-9.96264,14.5309,127.371608)"/>
<use xlink:href="#font_3_4" transform="matrix(9.96264,0,0,-9.96264,24.553675,129.66301)"/>
<path transform="matrix(1,0,0,-1,34.825,133.966)" stroke-width=".398" stroke-linecap="butt" stroke-miterlimit="10" stroke-linejoin="miter" fill="none" stroke="#000000" d="M 0 0 L 0 14.346 "/>
<use xlink:href="#font_0_1" transform="matrix(9.96264,0,0,-9.96264,41.31084,131.70536)"/>
<use xlink:href="#font_3_1" transform="matrix(9.96264,0,0,-9.96264,48.221303,132.15367)"/>
<use xlink:href="#font_2_1" transform="matrix(9.96264,0,0,-9.96264,51.9359,127.371608)"/>
<use xlink:href="#font_3_4" transform="matrix(9.96264,0,0,-9.96264,59.74468,129.66301)"/>
<use xlink:href="#font_3_2" transform="matrix(9.96264,0,0,-9.96264,64.40719,132.15367)"/>
<path transform="matrix(1,0,0,-1,.5,136.082)" stroke-width=".797" stroke-linecap="butt" stroke-miterlimit="10" stroke-linejoin="miter" fill="none" stroke="#000000" d="M 0 0 L 279.833 0 "/>
</g>
</svg>
