<?xml version="1.0" encoding="UTF-8"?>
<svg xmlns="http://www.w3.org/2000/svg" xmlns:xlink="http://www.w3.org/1999/xlink" width="500pt" height="500pt" viewBox="0 0 500 500" version="1.1">
<g id="surface22">
<path style="fill:none;stroke-width:1;stroke-linecap:square;stroke-linejoin:miter;stroke:rgb(11.372549%,30.588235%,84.705882%);stroke-opacity:1;stroke-miterlimit:3.25;" d="M 167.46875 402.769531 L 146.132812 424.136719 " transform="matrix(1,0,0,1,-66,-5)"/>
<path style="fill:none;stroke-width:1;stroke-linecap:square;stroke-linejoin:miter;stroke:rgb(11.372549%,30.588235%,84.705882%);stroke-opacity:1;stroke-miterlimit:3.25;" d="M 167.46875 402.769531 L 146.132812 294.546875 " transform="matrix(1,0,0,1,-66,-5)"/>
<path style="fill:none;stroke-width:1;stroke-linecap:square;stroke-linejoin:miter;stroke:rgb(11.372549%,30.588235%,84.705882%);stroke-opacity:1;stroke-miterlimit:3.25;" d="M 167.46875 402.769531 L 275.519531 424.136719 " transform="matrix(1,0,0,1,-66,-5)"/>
<path style="fill:none;stroke-width:1;stroke-linecap:square;stroke-linejoin:miter;stroke:rgb(11.372549%,30.588235%,84.705882%);stroke-opacity:1;stroke-miterlimit:3.25;" d="M 167.46875 402.769531 L 275.519531 294.546875 " transform="matrix(1,0,0,1,-66,-5)"/>
<path style="fill:none;stroke-width:1;stroke-linecap:square;stroke-linejoin:miter;stroke:rgb(11.372549%,30.588235%,84.705882%);stroke-opacity:1;stroke-miterlimit:3.25;" d="M 167.46875 402.769531 L 315.5 464.183594 " transform="matrix(1,0,0,1,-66,-5)"/>
<path style="fill:none;stroke-width:1;stroke-linecap:square;stroke-linejoin:miter;stroke:rgb(11.372549%,30.588235%,84.705882%);stroke-opacity:1;stroke-miterlimit:3.25;" d="M 167.46875 402.769531 L 106.152344 254.5 " transform="matrix(1,0,0,1,-66,-5)"/>
<path style="fill:none;stroke-width:1;stroke-linecap:square;stroke-linejoin:miter;stroke:rgb(11.372549%,30.588235%,84.705882%);stroke-opacity:1;stroke-miterlimit:3.25;" d="M 315.5 494.402344 L 146.132812 424.136719 " transform="matrix(1,0,0,1,-66,-5)"/>
<path style="fill:none;stroke-width:1;stroke-linecap:square;stroke-linejoin:miter;stroke:rgb(11.372549%,30.588235%,84.705882%);stroke-opacity:1;stroke-miterlimit:3.25;" d="M 315.5 494.402344 L 355.480469 424.136719 " transform="matrix(1,0,0,1,-66,-5)"/>
<path style="fill:none;stroke-width:1;stroke-linecap:square;stroke-linejoin:miter;stroke:rgb(11.372549%,30.588235%,84.705882%);stroke-opacity:1;stroke-miterlimit:3.25;" d="M 315.5 494.402344 L 275.519531 424.136719 " transform="matrix(1,0,0,1,-66,-5)"/>
<path style="fill:none;stroke-width:1;stroke-linecap:square;stroke-linejoin:miter;stroke:rgb(11.372549%,30.588235%,84.705882%);stroke-opacity:1;stroke-miterlimit:3.25;" d="M 315.5 494.402344 L 484.867188 424.136719 " transform="matrix(1,0,0,1,-66,-5)"/>
<path style="fill:none;stroke-width:1;stroke-linecap:square;stroke-linejoin:miter;stroke:rgb(11.372549%,30.588235%,84.705882%);stroke-opacity:1;stroke-miterlimit:3.25;" d="M 315.5 494.402344 L 315.5 464.183594 " transform="matrix(1,0,0,1,-66,-5)"/>
<path style="fill:none;stroke-width:1;stroke-linecap:square;stroke-linejoin:miter;stroke:rgb(11.372549%,30.588235%,84.705882%);stroke-opacity:1;stroke-miterlimit:3.25;" d="M 315.5 494.402344 L 315.5 384.089844 " transform="matrix(1,0,0,1,-66,-5)"/>
<path style="fill:none;stroke-width:1;stroke-linecap:square;stroke-linejoin:miter;stroke:rgb(11.372549%,30.588235%,84.705882%);stroke-opacity:1;stroke-miterlimit:3.25;" d="M 167.46875 346.136719 L 146.132812 424.136719 " transform="matrix(1,0,0,1,-66,-5)"/>
<path style="fill:none;stroke-width:1;stroke-linecap:square;stroke-linejoin:miter;stroke:rgb(11.372549%,30.588235%,84.705882%);stroke-opacity:1;stroke-miterlimit:3.25;" d="M 167.46875 346.136719 L 146.132812 214.453125 " transform="matrix(1,0,0,1,-66,-5)"/>
<path style="fill:none;stroke-width:1;stroke-linecap:square;stroke-linejoin:miter;stroke:rgb(11.372549%,30.588235%,84.705882%);stroke-opacity:1;stroke-miterlimit:3.25;" d="M 167.46875 346.136719 L 275.519531 424.136719 " transform="matrix(1,0,0,1,-66,-5)"/>
<path style="fill:none;stroke-width:1;stroke-linecap:square;stroke-linejoin:miter;stroke:rgb(11.372549%,30.588235%,84.705882%);stroke-opacity:1;stroke-miterlimit:3.25;" d="M 167.46875 346.136719 L 275.519531 214.453125 " transform="matrix(1,0,0,1,-66,-5)"/>
<path style="fill:none;stroke-width:1;stroke-linecap:square;stroke-linejoin:miter;stroke:rgb(11.372549%,30.588235%,84.705882%);stroke-opacity:1;stroke-miterlimit:3.25;" d="M 167.46875 346.136719 L 106.152344 254.5 " transform="matrix(1,0,0,1,-66,-5)"/>
<path style="fill:none;stroke-width:1;stroke-linecap:square;stroke-linejoin:miter;stroke:rgb(11.372549%,30.588235%,84.705882%);stroke-opacity:1;stroke-miterlimit:3.25;" d="M 167.46875 346.136719 L 315.5 384.089844 " transform="matrix(1,0,0,1,-66,-5)"/>
<path style="fill:none;stroke-width:1;stroke-linecap:square;stroke-linejoin:miter;stroke:rgb(11.372549%,30.588235%,84.705882%);stroke-opacity:1;stroke-miterlimit:3.25;" d="M 224.011719 402.769531 L 146.132812 424.136719 " transform="matrix(1,0,0,1,-66,-5)"/>
<path style="fill:none;stroke-width:1;stroke-linecap:square;stroke-linejoin:miter;stroke:rgb(11.372549%,30.588235%,84.705882%);stroke-opacity:1;stroke-miterlimit:3.25;" d="M 224.011719 402.769531 L 355.480469 424.136719 " transform="matrix(1,0,0,1,-66,-5)"/>
<path style="fill:none;stroke-width:1;stroke-linecap:square;stroke-linejoin:miter;stroke:rgb(11.372549%,30.588235%,84.705882%);stroke-opacity:1;stroke-miterlimit:3.25;" d="M 224.011719 402.769531 L 146.132812 294.546875 " transform="matrix(1,0,0,1,-66,-5)"/>
<path style="fill:none;stroke-width:1;stroke-linecap:square;stroke-linejoin:miter;stroke:rgb(11.372549%,30.588235%,84.705882%);stroke-opacity:1;stroke-miterlimit:3.25;" d="M 224.011719 402.769531 L 355.480469 294.546875 " transform="matrix(1,0,0,1,-66,-5)"/>
<path style="fill:none;stroke-width:1;stroke-linecap:square;stroke-linejoin:miter;stroke:rgb(11.372549%,30.588235%,84.705882%);stroke-opacity:1;stroke-miterlimit:3.25;" d="M 224.011719 402.769531 L 315.5 464.183594 " transform="matrix(1,0,0,1,-66,-5)"/>
<path style="fill:none;stroke-width:1;stroke-linecap:square;stroke-linejoin:miter;stroke:rgb(11.372549%,30.588235%,84.705882%);stroke-opacity:1;stroke-miterlimit:3.25;" d="M 224.011719 402.769531 L 186.117188 254.5 " transform="matrix(1,0,0,1,-66,-5)"/>
<path style="fill:none;stroke-width:1;stroke-linecap:square;stroke-linejoin:miter;stroke:rgb(11.372549%,30.588235%,84.705882%);stroke-opacity:1;stroke-miterlimit:3.25;" d="M 75.980469 254.5 L 146.132812 424.136719 " transform="matrix(1,0,0,1,-66,-5)"/>
<path style="fill:none;stroke-width:1;stroke-linecap:square;stroke-linejoin:miter;stroke:rgb(11.372549%,30.588235%,84.705882%);stroke-opacity:1;stroke-miterlimit:3.25;" d="M 75.980469 254.5 L 146.132812 214.453125 " transform="matrix(1,0,0,1,-66,-5)"/>
<path style="fill:none;stroke-width:1;stroke-linecap:square;stroke-linejoin:miter;stroke:rgb(11.372549%,30.588235%,84.705882%);stroke-opacity:1;stroke-miterlimit:3.25;" d="M 75.980469 254.5 L 146.132812 294.546875 " transform="matrix(1,0,0,1,-66,-5)"/>
<path style="fill:none;stroke-width:1;stroke-linecap:square;stroke-linejoin:miter;stroke:rgb(11.372549%,30.588235%,84.705882%);stroke-opacity:1;stroke-miterlimit:3.25;" d="M 75.980469 254.5 L 146.132812 84.863281 " transform="matrix(1,0,0,1,-66,-5)"/>
<path style="fill:none;stroke-width:1;stroke-linecap:square;stroke-linejoin:miter;stroke:rgb(11.372549%,30.588235%,84.705882%);stroke-opacity:1;stroke-miterlimit:3.25;" d="M 75.980469 254.5 L 106.152344 254.5 " transform="matrix(1,0,0,1,-66,-5)"/>
<path style="fill:none;stroke-width:1;stroke-linecap:square;stroke-linejoin:miter;stroke:rgb(11.372549%,30.588235%,84.705882%);stroke-opacity:1;stroke-miterlimit:3.25;" d="M 75.980469 254.5 L 186.117188 254.5 " transform="matrix(1,0,0,1,-66,-5)"/>
<path style="fill:none;stroke-width:1;stroke-linecap:square;stroke-linejoin:miter;stroke:rgb(11.372549%,30.588235%,84.705882%);stroke-opacity:1;stroke-miterlimit:3.25;" d="M 224.011719 346.136719 L 146.132812 424.136719 " transform="matrix(1,0,0,1,-66,-5)"/>
<path style="fill:none;stroke-width:1;stroke-linecap:square;stroke-linejoin:miter;stroke:rgb(11.372549%,30.588235%,84.705882%);stroke-opacity:1;stroke-miterlimit:3.25;" d="M 224.011719 346.136719 L 146.132812 214.453125 " transform="matrix(1,0,0,1,-66,-5)"/>
<path style="fill:none;stroke-width:1;stroke-linecap:square;stroke-linejoin:miter;stroke:rgb(11.372549%,30.588235%,84.705882%);stroke-opacity:1;stroke-miterlimit:3.25;" d="M 224.011719 346.136719 L 355.480469 424.136719 " transform="matrix(1,0,0,1,-66,-5)"/>
<path style="fill:none;stroke-width:1;stroke-linecap:square;stroke-linejoin:miter;stroke:rgb(11.372549%,30.588235%,84.705882%);stroke-opacity:1;stroke-miterlimit:3.25;" d="M 224.011719 346.136719 L 355.480469 214.453125 " transform="matrix(1,0,0,1,-66,-5)"/>
<path style="fill:none;stroke-width:1;stroke-linecap:square;stroke-linejoin:miter;stroke:rgb(11.372549%,30.588235%,84.705882%);stroke-opacity:1;stroke-miterlimit:3.25;" d="M 224.011719 346.136719 L 315.5 384.089844 " transform="matrix(1,0,0,1,-66,-5)"/>
<path style="fill:none;stroke-width:1;stroke-linecap:square;stroke-linejoin:miter;stroke:rgb(11.372549%,30.588235%,84.705882%);stroke-opacity:1;stroke-miterlimit:3.25;" d="M 224.011719 346.136719 L 186.117188 254.5 " transform="matrix(1,0,0,1,-66,-5)"/>
<path style="fill:none;stroke-width:1;stroke-linecap:square;stroke-linejoin:miter;stroke:rgb(11.372549%,30.588235%,84.705882%);stroke-opacity:1;stroke-miterlimit:3.25;" d="M 167.46875 106.230469 L 146.132812 214.453125 " transform="matrix(1,0,0,1,-66,-5)"/>
<path style="fill:none;stroke-width:1;stroke-linecap:square;stroke-linejoin:miter;stroke:rgb(11.372549%,30.588235%,84.705882%);stroke-opacity:1;stroke-miterlimit:3.25;" d="M 167.46875 106.230469 L 146.132812 84.863281 " transform="matrix(1,0,0,1,-66,-5)"/>
<path style="fill:none;stroke-width:1;stroke-linecap:square;stroke-linejoin:miter;stroke:rgb(11.372549%,30.588235%,84.705882%);stroke-opacity:1;stroke-miterlimit:3.25;" d="M 167.46875 106.230469 L 275.519531 214.453125 " transform="matrix(1,0,0,1,-66,-5)"/>
<path style="fill:none;stroke-width:1;stroke-linecap:square;stroke-linejoin:miter;stroke:rgb(11.372549%,30.588235%,84.705882%);stroke-opacity:1;stroke-miterlimit:3.25;" d="M 167.46875 106.230469 L 275.519531 84.863281 " transform="matrix(1,0,0,1,-66,-5)"/>
<path style="fill:none;stroke-width:1;stroke-linecap:square;stroke-linejoin:miter;stroke:rgb(11.372549%,30.588235%,84.705882%);stroke-opacity:1;stroke-miterlimit:3.25;" d="M 167.46875 106.230469 L 106.152344 254.5 " transform="matrix(1,0,0,1,-66,-5)"/>
<path style="fill:none;stroke-width:1;stroke-linecap:square;stroke-linejoin:miter;stroke:rgb(11.372549%,30.588235%,84.705882%);stroke-opacity:1;stroke-miterlimit:3.25;" d="M 167.46875 106.230469 L 315.5 44.816406 " transform="matrix(1,0,0,1,-66,-5)"/>
<path style="fill:none;stroke-width:1;stroke-linecap:square;stroke-linejoin:miter;stroke:rgb(11.372549%,30.588235%,84.705882%);stroke-opacity:1;stroke-miterlimit:3.25;" d="M 463.53125 402.769531 L 355.480469 424.136719 " transform="matrix(1,0,0,1,-66,-5)"/>
<path style="fill:none;stroke-width:1;stroke-linecap:square;stroke-linejoin:miter;stroke:rgb(11.372549%,30.588235%,84.705882%);stroke-opacity:1;stroke-miterlimit:3.25;" d="M 463.53125 402.769531 L 355.480469 294.546875 " transform="matrix(1,0,0,1,-66,-5)"/>
<path style="fill:none;stroke-width:1;stroke-linecap:square;stroke-linejoin:miter;stroke:rgb(11.372549%,30.588235%,84.705882%);stroke-opacity:1;stroke-miterlimit:3.25;" d="M 463.53125 402.769531 L 484.867188 424.136719 " transform="matrix(1,0,0,1,-66,-5)"/>
<path style="fill:none;stroke-width:1;stroke-linecap:square;stroke-linejoin:miter;stroke:rgb(11.372549%,30.588235%,84.705882%);stroke-opacity:1;stroke-miterlimit:3.25;" d="M 463.53125 402.769531 L 484.867188 294.546875 " transform="matrix(1,0,0,1,-66,-5)"/>
<path style="fill:none;stroke-width:1;stroke-linecap:square;stroke-linejoin:miter;stroke:rgb(11.372549%,30.588235%,84.705882%);stroke-opacity:1;stroke-miterlimit:3.25;" d="M 463.53125 402.769531 L 315.5 464.183594 " transform="matrix(1,0,0,1,-66,-5)"/>
<path style="fill:none;stroke-width:1;stroke-linecap:square;stroke-linejoin:miter;stroke:rgb(11.372549%,30.588235%,84.705882%);stroke-opacity:1;stroke-miterlimit:3.25;" d="M 463.53125 402.769531 L 524.847656 254.5 " transform="matrix(1,0,0,1,-66,-5)"/>
<path style="fill:none;stroke-width:1;stroke-linecap:square;stroke-linejoin:miter;stroke:rgb(11.372549%,30.588235%,84.705882%);stroke-opacity:1;stroke-miterlimit:3.25;" d="M 315.5 197.867188 L 146.132812 214.453125 " transform="matrix(1,0,0,1,-66,-5)"/>
<path style="fill:none;stroke-width:1;stroke-linecap:square;stroke-linejoin:miter;stroke:rgb(11.372549%,30.588235%,84.705882%);stroke-opacity:1;stroke-miterlimit:3.25;" d="M 315.5 197.867188 L 355.480469 214.453125 " transform="matrix(1,0,0,1,-66,-5)"/>
<path style="fill:none;stroke-width:1;stroke-linecap:square;stroke-linejoin:miter;stroke:rgb(11.372549%,30.588235%,84.705882%);stroke-opacity:1;stroke-miterlimit:3.25;" d="M 315.5 197.867188 L 275.519531 214.453125 " transform="matrix(1,0,0,1,-66,-5)"/>
<path style="fill:none;stroke-width:1;stroke-linecap:square;stroke-linejoin:miter;stroke:rgb(11.372549%,30.588235%,84.705882%);stroke-opacity:1;stroke-miterlimit:3.25;" d="M 315.5 197.867188 L 484.867188 214.453125 " transform="matrix(1,0,0,1,-66,-5)"/>
<path style="fill:none;stroke-width:1;stroke-linecap:square;stroke-linejoin:miter;stroke:rgb(11.372549%,30.588235%,84.705882%);stroke-opacity:1;stroke-miterlimit:3.25;" d="M 315.5 197.867188 L 315.5 384.089844 " transform="matrix(1,0,0,1,-66,-5)"/>
<path style="fill:none;stroke-width:1;stroke-linecap:square;stroke-linejoin:miter;stroke:rgb(11.372549%,30.588235%,84.705882%);stroke-opacity:1;stroke-miterlimit:3.25;" d="M 315.5 197.867188 L 315.5 44.816406 " transform="matrix(1,0,0,1,-66,-5)"/>
<path style="fill:none;stroke-width:1;stroke-linecap:square;stroke-linejoin:miter;stroke:rgb(11.372549%,30.588235%,84.705882%);stroke-opacity:1;stroke-miterlimit:3.25;" d="M 463.53125 346.136719 L 355.480469 424.136719 " transform="matrix(1,0,0,1,-66,-5)"/>
<path style="fill:none;stroke-width:1;stroke-linecap:square;stroke-linejoin:miter;stroke:rgb(11.372549%,30.588235%,84.705882%);stroke-opacity:1;stroke-miterlimit:3.25;" d="M 463.53125 346.136719 L 355.480469 214.453125 " transform="matrix(1,0,0,1,-66,-5)"/>
<path style="fill:none;stroke-width:1;stroke-linecap:square;stroke-linejoin:miter;stroke:rgb(11.372549%,30.588235%,84.705882%);stroke-opacity:1;stroke-miterlimit:3.25;" d="M 463.53125 346.136719 L 484.867188 424.136719 " transform="matrix(1,0,0,1,-66,-5)"/>
<path style="fill:none;stroke-width:1;stroke-linecap:square;stroke-linejoin:miter;stroke:rgb(11.372549%,30.588235%,84.705882%);stroke-opacity:1;stroke-miterlimit:3.25;" d="M 463.53125 346.136719 L 484.867188 214.453125 " transform="matrix(1,0,0,1,-66,-5)"/>
<path style="fill:none;stroke-width:1;stroke-linecap:square;stroke-linejoin:miter;stroke:rgb(11.372549%,30.588235%,84.705882%);stroke-opacity:1;stroke-miterlimit:3.25;" d="M 463.53125 346.136719 L 315.5 384.089844 " transform="matrix(1,0,0,1,-66,-5)"/>
<path style="fill:none;stroke-width:1;stroke-linecap:square;stroke-linejoin:miter;stroke:rgb(11.372549%,30.588235%,84.705882%);stroke-opacity:1;stroke-miterlimit:3.25;" d="M 463.53125 346.136719 L 524.847656 254.5 " transform="matrix(1,0,0,1,-66,-5)"/>
<path style="fill:none;stroke-width:1;stroke-linecap:square;stroke-linejoin:miter;stroke:rgb(11.372549%,30.588235%,84.705882%);stroke-opacity:1;stroke-miterlimit:3.25;" d="M 315.5 311.132812 L 146.132812 294.546875 " transform="matrix(1,0,0,1,-66,-5)"/>
<path style="fill:none;stroke-width:1;stroke-linecap:square;stroke-linejoin:miter;stroke:rgb(11.372549%,30.588235%,84.705882%);stroke-opacity:1;stroke-miterlimit:3.25;" d="M 315.5 311.132812 L 355.480469 294.546875 " transform="matrix(1,0,0,1,-66,-5)"/>
<path style="fill:none;stroke-width:1;stroke-linecap:square;stroke-linejoin:miter;stroke:rgb(11.372549%,30.588235%,84.705882%);stroke-opacity:1;stroke-miterlimit:3.25;" d="M 315.5 311.132812 L 275.519531 294.546875 " transform="matrix(1,0,0,1,-66,-5)"/>
<path style="fill:none;stroke-width:1;stroke-linecap:square;stroke-linejoin:miter;stroke:rgb(11.372549%,30.588235%,84.705882%);stroke-opacity:1;stroke-miterlimit:3.25;" d="M 315.5 311.132812 L 484.867188 294.546875 " transform="matrix(1,0,0,1,-66,-5)"/>
<path style="fill:none;stroke-width:1;stroke-linecap:square;stroke-linejoin:miter;stroke:rgb(11.372549%,30.588235%,84.705882%);stroke-opacity:1;stroke-miterlimit:3.25;" d="M 315.5 311.132812 L 315.5 464.183594 " transform="matrix(1,0,0,1,-66,-5)"/>
<path style="fill:none;stroke-width:1;stroke-linecap:square;stroke-linejoin:miter;stroke:rgb(11.372549%,30.588235%,84.705882%);stroke-opacity:1;stroke-miterlimit:3.25;" d="M 315.5 311.132812 L 315.5 124.910156 " transform="matrix(1,0,0,1,-66,-5)"/>
<path style="fill:none;stroke-width:1;stroke-linecap:square;stroke-linejoin:miter;stroke:rgb(11.372549%,30.588235%,84.705882%);stroke-opacity:1;stroke-miterlimit:3.25;" d="M 167.46875 162.863281 L 146.132812 294.546875 " transform="matrix(1,0,0,1,-66,-5)"/>
<path style="fill:none;stroke-width:1;stroke-linecap:square;stroke-linejoin:miter;stroke:rgb(11.372549%,30.588235%,84.705882%);stroke-opacity:1;stroke-miterlimit:3.25;" d="M 167.46875 162.863281 L 146.132812 84.863281 " transform="matrix(1,0,0,1,-66,-5)"/>
<path style="fill:none;stroke-width:1;stroke-linecap:square;stroke-linejoin:miter;stroke:rgb(11.372549%,30.588235%,84.705882%);stroke-opacity:1;stroke-miterlimit:3.25;" d="M 167.46875 162.863281 L 275.519531 294.546875 " transform="matrix(1,0,0,1,-66,-5)"/>
<path style="fill:none;stroke-width:1;stroke-linecap:square;stroke-linejoin:miter;stroke:rgb(11.372549%,30.588235%,84.705882%);stroke-opacity:1;stroke-miterlimit:3.25;" d="M 167.46875 162.863281 L 275.519531 84.863281 " transform="matrix(1,0,0,1,-66,-5)"/>
<path style="fill:none;stroke-width:1;stroke-linecap:square;stroke-linejoin:miter;stroke:rgb(11.372549%,30.588235%,84.705882%);stroke-opacity:1;stroke-miterlimit:3.25;" d="M 167.46875 162.863281 L 106.152344 254.5 " transform="matrix(1,0,0,1,-66,-5)"/>
<path style="fill:none;stroke-width:1;stroke-linecap:square;stroke-linejoin:miter;stroke:rgb(11.372549%,30.588235%,84.705882%);stroke-opacity:1;stroke-miterlimit:3.25;" d="M 167.46875 162.863281 L 315.5 124.910156 " transform="matrix(1,0,0,1,-66,-5)"/>
<path style="fill:none;stroke-width:1;stroke-linecap:square;stroke-linejoin:miter;stroke:rgb(11.372549%,30.588235%,84.705882%);stroke-opacity:1;stroke-miterlimit:3.25;" d="M 224.011719 106.230469 L 146.132812 214.453125 " transform="matrix(1,0,0,1,-66,-5)"/>
<path style="fill:none;stroke-width:1;stroke-linecap:square;stroke-linejoin:miter;stroke:rgb(11.372549%,30.588235%,84.705882%);stroke-opacity:1;stroke-miterlimit:3.25;" d="M 224.011719 106.230469 L 355.480469 214.453125 " transform="matrix(1,0,0,1,-66,-5)"/>
<path style="fill:none;stroke-width:1;stroke-linecap:square;stroke-linejoin:miter;stroke:rgb(11.372549%,30.588235%,84.705882%);stroke-opacity:1;stroke-miterlimit:3.25;" d="M 224.011719 106.230469 L 146.132812 84.863281 " transform="matrix(1,0,0,1,-66,-5)"/>
<path style="fill:none;stroke-width:1;stroke-linecap:square;stroke-linejoin:miter;stroke:rgb(11.372549%,30.588235%,84.705882%);stroke-opacity:1;stroke-miterlimit:3.25;" d="M 224.011719 106.230469 L 355.480469 84.863281 " transform="matrix(1,0,0,1,-66,-5)"/>
<path style="fill:none;stroke-width:1;stroke-linecap:square;stroke-linejoin:miter;stroke:rgb(11.372549%,30.588235%,84.705882%);stroke-opacity:1;stroke-miterlimit:3.25;" d="M 224.011719 106.230469 L 186.117188 254.5 " transform="matrix(1,0,0,1,-66,-5)"/>
<path style="fill:none;stroke-width:1;stroke-linecap:square;stroke-linejoin:miter;stroke:rgb(11.372549%,30.588235%,84.705882%);stroke-opacity:1;stroke-miterlimit:3.25;" d="M 224.011719 106.230469 L 315.5 44.816406 " transform="matrix(1,0,0,1,-66,-5)"/>
<path style="fill:none;stroke-width:1;stroke-linecap:square;stroke-linejoin:miter;stroke:rgb(11.372549%,30.588235%,84.705882%);stroke-opacity:1;stroke-miterlimit:3.25;" d="M 372.042969 254.5 L 355.480469 424.136719 " transform="matrix(1,0,0,1,-66,-5)"/>
<path style="fill:none;stroke-width:1;stroke-linecap:square;stroke-linejoin:miter;stroke:rgb(11.372549%,30.588235%,84.705882%);stroke-opacity:1;stroke-miterlimit:3.25;" d="M 372.042969 254.5 L 355.480469 214.453125 " transform="matrix(1,0,0,1,-66,-5)"/>
<path style="fill:none;stroke-width:1;stroke-linecap:square;stroke-linejoin:miter;stroke:rgb(11.372549%,30.588235%,84.705882%);stroke-opacity:1;stroke-miterlimit:3.25;" d="M 372.042969 254.5 L 355.480469 294.546875 " transform="matrix(1,0,0,1,-66,-5)"/>
<path style="fill:none;stroke-width:1;stroke-linecap:square;stroke-linejoin:miter;stroke:rgb(11.372549%,30.588235%,84.705882%);stroke-opacity:1;stroke-miterlimit:3.25;" d="M 372.042969 254.5 L 355.480469 84.863281 " transform="matrix(1,0,0,1,-66,-5)"/>
<path style="fill:none;stroke-width:1;stroke-linecap:square;stroke-linejoin:miter;stroke:rgb(11.372549%,30.588235%,84.705882%);stroke-opacity:1;stroke-miterlimit:3.25;" d="M 372.042969 254.5 L 186.117188 254.5 " transform="matrix(1,0,0,1,-66,-5)"/>
<path style="fill:none;stroke-width:1;stroke-linecap:square;stroke-linejoin:miter;stroke:rgb(11.372549%,30.588235%,84.705882%);stroke-opacity:1;stroke-miterlimit:3.25;" d="M 372.042969 254.5 L 524.847656 254.5 " transform="matrix(1,0,0,1,-66,-5)"/>
<path style="fill:none;stroke-width:1;stroke-linecap:square;stroke-linejoin:miter;stroke:rgb(11.372549%,30.588235%,84.705882%);stroke-opacity:1;stroke-miterlimit:3.25;" d="M 224.011719 162.863281 L 146.132812 294.546875 " transform="matrix(1,0,0,1,-66,-5)"/>
<path style="fill:none;stroke-width:1;stroke-linecap:square;stroke-linejoin:miter;stroke:rgb(11.372549%,30.588235%,84.705882%);stroke-opacity:1;stroke-miterlimit:3.25;" d="M 224.011719 162.863281 L 146.132812 84.863281 " transform="matrix(1,0,0,1,-66,-5)"/>
<path style="fill:none;stroke-width:1;stroke-linecap:square;stroke-linejoin:miter;stroke:rgb(11.372549%,30.588235%,84.705882%);stroke-opacity:1;stroke-miterlimit:3.25;" d="M 224.011719 162.863281 L 355.480469 294.546875 " transform="matrix(1,0,0,1,-66,-5)"/>
<path style="fill:none;stroke-width:1;stroke-linecap:square;stroke-linejoin:miter;stroke:rgb(11.372549%,30.588235%,84.705882%);stroke-opacity:1;stroke-miterlimit:3.25;" d="M 224.011719 162.863281 L 355.480469 84.863281 " transform="matrix(1,0,0,1,-66,-5)"/>
<path style="fill:none;stroke-width:1;stroke-linecap:square;stroke-linejoin:miter;stroke:rgb(11.372549%,30.588235%,84.705882%);stroke-opacity:1;stroke-miterlimit:3.25;" d="M 224.011719 162.863281 L 186.117188 254.5 " transform="matrix(1,0,0,1,-66,-5)"/>
<path style="fill:none;stroke-width:1;stroke-linecap:square;stroke-linejoin:miter;stroke:rgb(11.372549%,30.588235%,84.705882%);stroke-opacity:1;stroke-miterlimit:3.25;" d="M 224.011719 162.863281 L 315.5 124.910156 " transform="matrix(1,0,0,1,-66,-5)"/>
<path style="fill:none;stroke-width:1;stroke-linecap:square;stroke-linejoin:miter;stroke:rgb(11.372549%,30.588235%,84.705882%);stroke-opacity:1;stroke-miterlimit:3.25;" d="M 406.988281 402.769531 L 275.519531 424.136719 " transform="matrix(1,0,0,1,-66,-5)"/>
<path style="fill:none;stroke-width:1;stroke-linecap:square;stroke-linejoin:miter;stroke:rgb(11.372549%,30.588235%,84.705882%);stroke-opacity:1;stroke-miterlimit:3.25;" d="M 406.988281 402.769531 L 484.867188 424.136719 " transform="matrix(1,0,0,1,-66,-5)"/>
<path style="fill:none;stroke-width:1;stroke-linecap:square;stroke-linejoin:miter;stroke:rgb(11.372549%,30.588235%,84.705882%);stroke-opacity:1;stroke-miterlimit:3.25;" d="M 406.988281 402.769531 L 275.519531 294.546875 " transform="matrix(1,0,0,1,-66,-5)"/>
<path style="fill:none;stroke-width:1;stroke-linecap:square;stroke-linejoin:miter;stroke:rgb(11.372549%,30.588235%,84.705882%);stroke-opacity:1;stroke-miterlimit:3.25;" d="M 406.988281 402.769531 L 484.867188 294.546875 " transform="matrix(1,0,0,1,-66,-5)"/>
<path style="fill:none;stroke-width:1;stroke-linecap:square;stroke-linejoin:miter;stroke:rgb(11.372549%,30.588235%,84.705882%);stroke-opacity:1;stroke-miterlimit:3.25;" d="M 406.988281 402.769531 L 315.5 464.183594 " transform="matrix(1,0,0,1,-66,-5)"/>
<path style="fill:none;stroke-width:1;stroke-linecap:square;stroke-linejoin:miter;stroke:rgb(11.372549%,30.588235%,84.705882%);stroke-opacity:1;stroke-miterlimit:3.25;" d="M 406.988281 402.769531 L 444.882812 254.5 " transform="matrix(1,0,0,1,-66,-5)"/>
<path style="fill:none;stroke-width:1;stroke-linecap:square;stroke-linejoin:miter;stroke:rgb(11.372549%,30.588235%,84.705882%);stroke-opacity:1;stroke-miterlimit:3.25;" d="M 258.957031 254.5 L 275.519531 424.136719 " transform="matrix(1,0,0,1,-66,-5)"/>
<path style="fill:none;stroke-width:1;stroke-linecap:square;stroke-linejoin:miter;stroke:rgb(11.372549%,30.588235%,84.705882%);stroke-opacity:1;stroke-miterlimit:3.25;" d="M 258.957031 254.5 L 275.519531 214.453125 " transform="matrix(1,0,0,1,-66,-5)"/>
<path style="fill:none;stroke-width:1;stroke-linecap:square;stroke-linejoin:miter;stroke:rgb(11.372549%,30.588235%,84.705882%);stroke-opacity:1;stroke-miterlimit:3.25;" d="M 258.957031 254.5 L 275.519531 294.546875 " transform="matrix(1,0,0,1,-66,-5)"/>
<path style="fill:none;stroke-width:1;stroke-linecap:square;stroke-linejoin:miter;stroke:rgb(11.372549%,30.588235%,84.705882%);stroke-opacity:1;stroke-miterlimit:3.25;" d="M 258.957031 254.5 L 275.519531 84.863281 " transform="matrix(1,0,0,1,-66,-5)"/>
<path style="fill:none;stroke-width:1;stroke-linecap:square;stroke-linejoin:miter;stroke:rgb(11.372549%,30.588235%,84.705882%);stroke-opacity:1;stroke-miterlimit:3.25;" d="M 258.957031 254.5 L 106.152344 254.5 " transform="matrix(1,0,0,1,-66,-5)"/>
<path style="fill:none;stroke-width:1;stroke-linecap:square;stroke-linejoin:miter;stroke:rgb(11.372549%,30.588235%,84.705882%);stroke-opacity:1;stroke-miterlimit:3.25;" d="M 258.957031 254.5 L 444.882812 254.5 " transform="matrix(1,0,0,1,-66,-5)"/>
<path style="fill:none;stroke-width:1;stroke-linecap:square;stroke-linejoin:miter;stroke:rgb(11.372549%,30.588235%,84.705882%);stroke-opacity:1;stroke-miterlimit:3.25;" d="M 406.988281 346.136719 L 275.519531 424.136719 " transform="matrix(1,0,0,1,-66,-5)"/>
<path style="fill:none;stroke-width:1;stroke-linecap:square;stroke-linejoin:miter;stroke:rgb(11.372549%,30.588235%,84.705882%);stroke-opacity:1;stroke-miterlimit:3.25;" d="M 406.988281 346.136719 L 275.519531 214.453125 " transform="matrix(1,0,0,1,-66,-5)"/>
<path style="fill:none;stroke-width:1;stroke-linecap:square;stroke-linejoin:miter;stroke:rgb(11.372549%,30.588235%,84.705882%);stroke-opacity:1;stroke-miterlimit:3.25;" d="M 406.988281 346.136719 L 484.867188 424.136719 " transform="matrix(1,0,0,1,-66,-5)"/>
<path style="fill:none;stroke-width:1;stroke-linecap:square;stroke-linejoin:miter;stroke:rgb(11.372549%,30.588235%,84.705882%);stroke-opacity:1;stroke-miterlimit:3.25;" d="M 406.988281 346.136719 L 484.867188 214.453125 " transform="matrix(1,0,0,1,-66,-5)"/>
<path style="fill:none;stroke-width:1;stroke-linecap:square;stroke-linejoin:miter;stroke:rgb(11.372549%,30.588235%,84.705882%);stroke-opacity:1;stroke-miterlimit:3.25;" d="M 406.988281 346.136719 L 315.5 384.089844 " transform="matrix(1,0,0,1,-66,-5)"/>
<path style="fill:none;stroke-width:1;stroke-linecap:square;stroke-linejoin:miter;stroke:rgb(11.372549%,30.588235%,84.705882%);stroke-opacity:1;stroke-miterlimit:3.25;" d="M 406.988281 346.136719 L 444.882812 254.5 " transform="matrix(1,0,0,1,-66,-5)"/>
<path style="fill:none;stroke-width:1;stroke-linecap:square;stroke-linejoin:miter;stroke:rgb(11.372549%,30.588235%,84.705882%);stroke-opacity:1;stroke-miterlimit:3.25;" d="M 463.53125 106.230469 L 355.480469 214.453125 " transform="matrix(1,0,0,1,-66,-5)"/>
<path style="fill:none;stroke-width:1;stroke-linecap:square;stroke-linejoin:miter;stroke:rgb(11.372549%,30.588235%,84.705882%);stroke-opacity:1;stroke-miterlimit:3.25;" d="M 463.53125 106.230469 L 355.480469 84.863281 " transform="matrix(1,0,0,1,-66,-5)"/>
<path style="fill:none;stroke-width:1;stroke-linecap:square;stroke-linejoin:miter;stroke:rgb(11.372549%,30.588235%,84.705882%);stroke-opacity:1;stroke-miterlimit:3.25;" d="M 463.53125 106.230469 L 484.867188 214.453125 " transform="matrix(1,0,0,1,-66,-5)"/>
<path style="fill:none;stroke-width:1;stroke-linecap:square;stroke-linejoin:miter;stroke:rgb(11.372549%,30.588235%,84.705882%);stroke-opacity:1;stroke-miterlimit:3.25;" d="M 463.53125 106.230469 L 484.867188 84.863281 " transform="matrix(1,0,0,1,-66,-5)"/>
<path style="fill:none;stroke-width:1;stroke-linecap:square;stroke-linejoin:miter;stroke:rgb(11.372549%,30.588235%,84.705882%);stroke-opacity:1;stroke-miterlimit:3.25;" d="M 463.53125 106.230469 L 315.5 44.816406 " transform="matrix(1,0,0,1,-66,-5)"/>
<path style="fill:none;stroke-width:1;stroke-linecap:square;stroke-linejoin:miter;stroke:rgb(11.372549%,30.588235%,84.705882%);stroke-opacity:1;stroke-miterlimit:3.25;" d="M 463.53125 106.230469 L 524.847656 254.5 " transform="matrix(1,0,0,1,-66,-5)"/>
<path style="fill:none;stroke-width:1;stroke-linecap:square;stroke-linejoin:miter;stroke:rgb(11.372549%,30.588235%,84.705882%);stroke-opacity:1;stroke-miterlimit:3.25;" d="M 315.5 14.597656 L 146.132812 84.863281 " transform="matrix(1,0,0,1,-66,-5)"/>
<path style="fill:none;stroke-width:1;stroke-linecap:square;stroke-linejoin:miter;stroke:rgb(11.372549%,30.588235%,84.705882%);stroke-opacity:1;stroke-miterlimit:3.25;" d="M 315.5 14.597656 L 355.480469 84.863281 " transform="matrix(1,0,0,1,-66,-5)"/>
<path style="fill:none;stroke-width:1;stroke-linecap:square;stroke-linejoin:miter;stroke:rgb(11.372549%,30.588235%,84.705882%);stroke-opacity:1;stroke-miterlimit:3.25;" d="M 315.5 14.597656 L 275.519531 84.863281 " transform="matrix(1,0,0,1,-66,-5)"/>
<path style="fill:none;stroke-width:1;stroke-linecap:square;stroke-linejoin:miter;stroke:rgb(11.372549%,30.588235%,84.705882%);stroke-opacity:1;stroke-miterlimit:3.25;" d="M 315.5 14.597656 L 484.867188 84.863281 " transform="matrix(1,0,0,1,-66,-5)"/>
<path style="fill:none;stroke-width:1;stroke-linecap:square;stroke-linejoin:miter;stroke:rgb(11.372549%,30.588235%,84.705882%);stroke-opacity:1;stroke-miterlimit:3.25;" d="M 315.5 14.597656 L 315.5 44.816406 " transform="matrix(1,0,0,1,-66,-5)"/>
<path style="fill:none;stroke-width:1;stroke-linecap:square;stroke-linejoin:miter;stroke:rgb(11.372549%,30.588235%,84.705882%);stroke-opacity:1;stroke-miterlimit:3.25;" d="M 315.5 14.597656 L 315.5 124.910156 " transform="matrix(1,0,0,1,-66,-5)"/>
<path style="fill:none;stroke-width:1;stroke-linecap:square;stroke-linejoin:miter;stroke:rgb(11.372549%,30.588235%,84.705882%);stroke-opacity:1;stroke-miterlimit:3.25;" d="M 463.53125 162.863281 L 355.480469 294.546875 " transform="matrix(1,0,0,1,-66,-5)"/>
<path style="fill:none;stroke-width:1;stroke-linecap:square;stroke-linejoin:miter;stroke:rgb(11.372549%,30.588235%,84.705882%);stroke-opacity:1;stroke-miterlimit:3.25;" d="M 463.53125 162.863281 L 355.480469 84.863281 " transform="matrix(1,0,0,1,-66,-5)"/>
<path style="fill:none;stroke-width:1;stroke-linecap:square;stroke-linejoin:miter;stroke:rgb(11.372549%,30.588235%,84.705882%);stroke-opacity:1;stroke-miterlimit:3.25;" d="M 463.53125 162.863281 L 484.867188 294.546875 " transform="matrix(1,0,0,1,-66,-5)"/>
<path style="fill:none;stroke-width:1;stroke-linecap:square;stroke-linejoin:miter;stroke:rgb(11.372549%,30.588235%,84.705882%);stroke-opacity:1;stroke-miterlimit:3.25;" d="M 463.53125 162.863281 L 484.867188 84.863281 " transform="matrix(1,0,0,1,-66,-5)"/>
<path style="fill:none;stroke-width:1;stroke-linecap:square;stroke-linejoin:miter;stroke:rgb(11.372549%,30.588235%,84.705882%);stroke-opacity:1;stroke-miterlimit:3.25;" d="M 463.53125 162.863281 L 524.847656 254.5 " transform="matrix(1,0,0,1,-66,-5)"/>
<path style="fill:none;stroke-width:1;stroke-linecap:square;stroke-linejoin:miter;stroke:rgb(11.372549%,30.588235%,84.705882%);stroke-opacity:1;stroke-miterlimit:3.25;" d="M 463.53125 162.863281 L 315.5 124.910156 " transform="matrix(1,0,0,1,-66,-5)"/>
<path style="fill:none;stroke-width:1;stroke-linecap:square;stroke-linejoin:miter;stroke:rgb(11.372549%,30.588235%,84.705882%);stroke-opacity:1;stroke-miterlimit:3.25;" d="M 406.988281 106.230469 L 275.519531 214.453125 " transform="matrix(1,0,0,1,-66,-5)"/>
<path style="fill:none;stroke-width:1;stroke-linecap:square;stroke-linejoin:miter;stroke:rgb(11.372549%,30.588235%,84.705882%);stroke-opacity:1;stroke-miterlimit:3.25;" d="M 406.988281 106.230469 L 484.867188 214.453125 " transform="matrix(1,0,0,1,-66,-5)"/>
<path style="fill:none;stroke-width:1;stroke-linecap:square;stroke-linejoin:miter;stroke:rgb(11.372549%,30.588235%,84.705882%);stroke-opacity:1;stroke-miterlimit:3.25;" d="M 406.988281 106.230469 L 275.519531 84.863281 " transform="matrix(1,0,0,1,-66,-5)"/>
<path style="fill:none;stroke-width:1;stroke-linecap:square;stroke-linejoin:miter;stroke:rgb(11.372549%,30.588235%,84.705882%);stroke-opacity:1;stroke-miterlimit:3.25;" d="M 406.988281 106.230469 L 484.867188 84.863281 " transform="matrix(1,0,0,1,-66,-5)"/>
<path style="fill:none;stroke-width:1;stroke-linecap:square;stroke-linejoin:miter;stroke:rgb(11.372549%,30.588235%,84.705882%);stroke-opacity:1;stroke-miterlimit:3.25;" d="M 406.988281 106.230469 L 315.5 44.816406 " transform="matrix(1,0,0,1,-66,-5)"/>
<path style="fill:none;stroke-width:1;stroke-linecap:square;stroke-linejoin:miter;stroke:rgb(11.372549%,30.588235%,84.705882%);stroke-opacity:1;stroke-miterlimit:3.25;" d="M 406.988281 106.230469 L 444.882812 254.5 " transform="matrix(1,0,0,1,-66,-5)"/>
<path style="fill:none;stroke-width:1;stroke-linecap:square;stroke-linejoin:miter;stroke:rgb(11.372549%,30.588235%,84.705882%);stroke-opacity:1;stroke-miterlimit:3.25;" d="M 555.019531 254.5 L 484.867188 424.136719 " transform="matrix(1,0,0,1,-66,-5)"/>
<path style="fill:none;stroke-width:1;stroke-linecap:square;stroke-linejoin:miter;stroke:rgb(11.372549%,30.588235%,84.705882%);stroke-opacity:1;stroke-miterlimit:3.25;" d="M 555.019531 254.5 L 484.867188 214.453125 " transform="matrix(1,0,0,1,-66,-5)"/>
<path style="fill:none;stroke-width:1;stroke-linecap:square;stroke-linejoin:miter;stroke:rgb(11.372549%,30.588235%,84.705882%);stroke-opacity:1;stroke-miterlimit:3.25;" d="M 555.019531 254.5 L 484.867188 294.546875 " transform="matrix(1,0,0,1,-66,-5)"/>
<path style="fill:none;stroke-width:1;stroke-linecap:square;stroke-linejoin:miter;stroke:rgb(11.372549%,30.588235%,84.705882%);stroke-opacity:1;stroke-miterlimit:3.25;" d="M 555.019531 254.5 L 484.867188 84.863281 " transform="matrix(1,0,0,1,-66,-5)"/>
<path style="fill:none;stroke-width:1;stroke-linecap:square;stroke-linejoin:miter;stroke:rgb(11.372549%,30.588235%,84.705882%);stroke-opacity:1;stroke-miterlimit:3.25;" d="M 555.019531 254.5 L 524.847656 254.5 " transform="matrix(1,0,0,1,-66,-5)"/>
<path style="fill:none;stroke-width:1;stroke-linecap:square;stroke-linejoin:miter;stroke:rgb(11.372549%,30.588235%,84.705882%);stroke-opacity:1;stroke-miterlimit:3.25;" d="M 555.019531 254.5 L 444.882812 254.5 " transform="matrix(1,0,0,1,-66,-5)"/>
<path style="fill:none;stroke-width:1;stroke-linecap:square;stroke-linejoin:miter;stroke:rgb(11.372549%,30.588235%,84.705882%);stroke-opacity:1;stroke-miterlimit:3.25;" d="M 406.988281 162.863281 L 275.519531 294.546875 " transform="matrix(1,0,0,1,-66,-5)"/>
<path style="fill:none;stroke-width:1;stroke-linecap:square;stroke-linejoin:miter;stroke:rgb(11.372549%,30.588235%,84.705882%);stroke-opacity:1;stroke-miterlimit:3.25;" d="M 406.988281 162.863281 L 275.519531 84.863281 " transform="matrix(1,0,0,1,-66,-5)"/>
<path style="fill:none;stroke-width:1;stroke-linecap:square;stroke-linejoin:miter;stroke:rgb(11.372549%,30.588235%,84.705882%);stroke-opacity:1;stroke-miterlimit:3.25;" d="M 406.988281 162.863281 L 484.867188 294.546875 " transform="matrix(1,0,0,1,-66,-5)"/>
<path style="fill:none;stroke-width:1;stroke-linecap:square;stroke-linejoin:miter;stroke:rgb(11.372549%,30.588235%,84.705882%);stroke-opacity:1;stroke-miterlimit:3.25;" d="M 406.988281 162.863281 L 484.867188 84.863281 " transform="matrix(1,0,0,1,-66,-5)"/>
<path style="fill:none;stroke-width:1;stroke-linecap:square;stroke-linejoin:miter;stroke:rgb(11.372549%,30.588235%,84.705882%);stroke-opacity:1;stroke-miterlimit:3.25;" d="M 406.988281 162.863281 L 315.5 124.910156 " transform="matrix(1,0,0,1,-66,-5)"/>
<path style="fill:none;stroke-width:1;stroke-linecap:square;stroke-linejoin:miter;stroke:rgb(11.372549%,30.588235%,84.705882%);stroke-opacity:1;stroke-miterlimit:3.25;" d="M 406.988281 162.863281 L 444.882812 254.5 " transform="matrix(1,0,0,1,-66,-5)"/>
<path style=" stroke:none;fill-rule:evenodd;fill:rgb(11.372549%,30.588235%,84.705882%);fill-opacity:1;" d="M 107.707031 397.769531 C 107.707031 399.421875 107.050781 401.007812 105.878906 402.179688 C 104.710938 403.347656 103.121094 404.007812 101.46875 404.007812 C 99.8125 404.007812 98.226562 403.347656 97.058594 402.179688 C 95.886719 401.007812 95.230469 399.421875 95.230469 397.769531 C 95.230469 396.113281 95.886719 394.527344 97.058594 393.359375 C 98.226562 392.1875 99.8125 391.53125 101.46875 391.53125 C 103.121094 391.53125 104.710938 392.1875 105.878906 393.359375 C 107.050781 394.527344 107.707031 396.113281 107.707031 397.769531 Z M 107.707031 397.769531 "/>
<path style=" stroke:none;fill-rule:evenodd;fill:rgb(11.372549%,30.588235%,84.705882%);fill-opacity:1;" d="M 255.738281 489.402344 C 255.738281 491.058594 255.082031 492.644531 253.910156 493.8125 C 252.742188 494.984375 251.152344 495.640625 249.5 495.640625 C 247.847656 495.640625 246.257812 494.984375 245.089844 493.8125 C 243.917969 492.644531 243.261719 491.058594 243.261719 489.402344 C 243.261719 487.75 243.917969 486.164062 245.089844 484.992188 C 246.257812 483.824219 247.847656 483.167969 249.5 483.167969 C 251.152344 483.167969 252.742188 483.824219 253.910156 484.992188 C 255.082031 486.164062 255.738281 487.75 255.738281 489.402344 Z M 255.738281 489.402344 "/>
<path style=" stroke:none;fill-rule:evenodd;fill:rgb(11.372549%,30.588235%,84.705882%);fill-opacity:1;" d="M 107.707031 341.136719 C 107.707031 342.789062 107.050781 344.375 105.878906 345.546875 C 104.710938 346.714844 103.121094 347.371094 101.46875 347.371094 C 99.8125 347.371094 98.226562 346.714844 97.058594 345.546875 C 95.886719 344.375 95.230469 342.789062 95.230469 341.136719 C 95.230469 339.480469 95.886719 337.894531 97.058594 336.722656 C 98.226562 335.554688 99.8125 334.898438 101.46875 334.898438 C 103.121094 334.898438 104.710938 335.554688 105.878906 336.722656 C 107.050781 337.894531 107.707031 339.480469 107.707031 341.136719 Z M 107.707031 341.136719 "/>
<path style=" stroke:none;fill-rule:evenodd;fill:rgb(11.372549%,30.588235%,84.705882%);fill-opacity:1;" d="M 164.25 397.769531 C 164.25 399.421875 163.59375 401.007812 162.421875 402.179688 C 161.253906 403.347656 159.664062 404.007812 158.011719 404.007812 C 156.355469 404.007812 154.769531 403.347656 153.601562 402.179688 C 152.429688 401.007812 151.773438 399.421875 151.773438 397.769531 C 151.773438 396.113281 152.429688 394.527344 153.601562 393.359375 C 154.769531 392.1875 156.355469 391.53125 158.011719 391.53125 C 159.664062 391.53125 161.253906 392.1875 162.421875 393.359375 C 163.59375 394.527344 164.25 396.113281 164.25 397.769531 Z M 164.25 397.769531 "/>
<path style=" stroke:none;fill-rule:evenodd;fill:rgb(11.372549%,30.588235%,84.705882%);fill-opacity:1;" d="M 16.21875 249.5 C 16.21875 251.152344 15.558594 252.742188 14.390625 253.910156 C 13.222656 255.082031 11.632812 255.738281 9.980469 255.738281 C 8.324219 255.738281 6.738281 255.082031 5.570312 253.910156 C 4.398438 252.742188 3.742188 251.152344 3.742188 249.5 C 3.742188 247.847656 4.398438 246.257812 5.570312 245.089844 C 6.738281 243.917969 8.324219 243.261719 9.980469 243.261719 C 11.632812 243.261719 13.222656 243.917969 14.390625 245.089844 C 15.558594 246.257812 16.21875 247.847656 16.21875 249.5 Z M 16.21875 249.5 "/>
<path style=" stroke:none;fill-rule:evenodd;fill:rgb(11.372549%,30.588235%,84.705882%);fill-opacity:1;" d="M 164.25 341.136719 C 164.25 342.789062 163.59375 344.375 162.421875 345.546875 C 161.253906 346.714844 159.664062 347.371094 158.011719 347.371094 C 156.355469 347.371094 154.769531 346.714844 153.601562 345.546875 C 152.429688 344.375 151.773438 342.789062 151.773438 341.136719 C 151.773438 339.480469 152.429688 337.894531 153.601562 336.722656 C 154.769531 335.554688 156.355469 334.898438 158.011719 334.898438 C 159.664062 334.898438 161.253906 335.554688 162.421875 336.722656 C 163.59375 337.894531 164.25 339.480469 164.25 341.136719 Z M 164.25 341.136719 "/>
<path style=" stroke:none;fill-rule:evenodd;fill:rgb(11.372549%,30.588235%,84.705882%);fill-opacity:1;" d="M 107.707031 101.230469 C 107.707031 102.886719 107.050781 104.472656 105.878906 105.640625 C 104.710938 106.8125 103.121094 107.46875 101.46875 107.46875 C 99.8125 107.46875 98.226562 106.8125 97.058594 105.640625 C 95.886719 104.472656 95.230469 102.886719 95.230469 101.230469 C 95.230469 99.578125 95.886719 97.992188 97.058594 96.820312 C 98.226562 95.652344 99.8125 94.992188 101.46875 94.992188 C 103.121094 94.992188 104.710938 95.652344 105.878906 96.820312 C 107.050781 97.992188 107.707031 99.578125 107.707031 101.230469 Z M 107.707031 101.230469 "/>
<path style=" stroke:none;fill-rule:evenodd;fill:rgb(11.372549%,30.588235%,84.705882%);fill-opacity:1;" d="M 403.769531 397.769531 C 403.769531 399.421875 403.113281 401.007812 401.941406 402.179688 C 400.773438 403.347656 399.1875 404.007812 397.53125 404.007812 C 395.878906 404.007812 394.289062 403.347656 393.121094 402.179688 C 391.949219 401.007812 391.292969 399.421875 391.292969 397.769531 C 391.292969 396.113281 391.949219 394.527344 393.121094 393.359375 C 394.289062 392.1875 395.878906 391.53125 397.53125 391.53125 C 399.1875 391.53125 400.773438 392.1875 401.941406 393.359375 C 403.113281 394.527344 403.769531 396.113281 403.769531 397.769531 Z M 403.769531 397.769531 "/>
<path style=" stroke:none;fill-rule:evenodd;fill:rgb(11.372549%,30.588235%,84.705882%);fill-opacity:1;" d="M 255.738281 192.867188 C 255.738281 194.519531 255.082031 196.105469 253.910156 197.277344 C 252.742188 198.445312 251.152344 199.105469 249.5 199.105469 C 247.847656 199.105469 246.257812 198.445312 245.089844 197.277344 C 243.917969 196.105469 243.261719 194.519531 243.261719 192.867188 C 243.261719 191.210938 243.917969 189.625 245.089844 188.457031 C 246.257812 187.285156 247.847656 186.628906 249.5 186.628906 C 251.152344 186.628906 252.742188 187.285156 253.910156 188.457031 C 255.082031 189.625 255.738281 191.210938 255.738281 192.867188 Z M 255.738281 192.867188 "/>
<path style=" stroke:none;fill-rule:evenodd;fill:rgb(11.372549%,30.588235%,84.705882%);fill-opacity:1;" d="M 403.769531 341.136719 C 403.769531 342.789062 403.113281 344.375 401.941406 345.546875 C 400.773438 346.714844 399.1875 347.371094 397.53125 347.371094 C 395.878906 347.371094 394.289062 346.714844 393.121094 345.546875 C 391.949219 344.375 391.292969 342.789062 391.292969 341.136719 C 391.292969 339.480469 391.949219 337.894531 393.121094 336.722656 C 394.289062 335.554688 395.878906 334.898438 397.53125 334.898438 C 399.1875 334.898438 400.773438 335.554688 401.941406 336.722656 C 403.113281 337.894531 403.769531 339.480469 403.769531 341.136719 Z M 403.769531 341.136719 "/>
<path style=" stroke:none;fill-rule:evenodd;fill:rgb(11.372549%,30.588235%,84.705882%);fill-opacity:1;" d="M 255.738281 306.132812 C 255.738281 307.789062 255.082031 309.375 253.910156 310.542969 C 252.742188 311.714844 251.152344 312.371094 249.5 312.371094 C 247.847656 312.371094 246.257812 311.714844 245.089844 310.542969 C 243.917969 309.375 243.261719 307.789062 243.261719 306.132812 C 243.261719 304.480469 243.917969 302.894531 245.089844 301.722656 C 246.257812 300.554688 247.847656 299.894531 249.5 299.894531 C 251.152344 299.894531 252.742188 300.554688 253.910156 301.722656 C 255.082031 302.894531 255.738281 304.480469 255.738281 306.132812 Z M 255.738281 306.132812 "/>
<path style=" stroke:none;fill-rule:evenodd;fill:rgb(11.372549%,30.588235%,84.705882%);fill-opacity:1;" d="M 107.707031 157.863281 C 107.707031 159.519531 107.050781 161.105469 105.878906 162.277344 C 104.710938 163.445312 103.121094 164.101562 101.46875 164.101562 C 99.8125 164.101562 98.226562 163.445312 97.058594 162.277344 C 95.886719 161.105469 95.230469 159.519531 95.230469 157.863281 C 95.230469 156.210938 95.886719 154.625 97.058594 153.453125 C 98.226562 152.285156 99.8125 151.628906 101.46875 151.628906 C 103.121094 151.628906 104.710938 152.285156 105.878906 153.453125 C 107.050781 154.625 107.707031 156.210938 107.707031 157.863281 Z M 107.707031 157.863281 "/>
<path style=" stroke:none;fill-rule:evenodd;fill:rgb(11.372549%,30.588235%,84.705882%);fill-opacity:1;" d="M 164.25 101.230469 C 164.25 102.886719 163.59375 104.472656 162.421875 105.640625 C 161.253906 106.8125 159.664062 107.46875 158.011719 107.46875 C 156.355469 107.46875 154.769531 106.8125 153.601562 105.640625 C 152.429688 104.472656 151.773438 102.886719 151.773438 101.230469 C 151.773438 99.578125 152.429688 97.992188 153.601562 96.820312 C 154.769531 95.652344 156.355469 94.992188 158.011719 94.992188 C 159.664062 94.992188 161.253906 95.652344 162.421875 96.820312 C 163.59375 97.992188 164.25 99.578125 164.25 101.230469 Z M 164.25 101.230469 "/>
<path style=" stroke:none;fill-rule:evenodd;fill:rgb(11.372549%,30.588235%,84.705882%);fill-opacity:1;" d="M 312.28125 249.5 C 312.28125 251.152344 311.625 252.742188 310.453125 253.910156 C 309.285156 255.082031 307.699219 255.738281 306.042969 255.738281 C 304.390625 255.738281 302.800781 255.082031 301.632812 253.910156 C 300.460938 252.742188 299.804688 251.152344 299.804688 249.5 C 299.804688 247.847656 300.460938 246.257812 301.632812 245.089844 C 302.800781 243.917969 304.390625 243.261719 306.042969 243.261719 C 307.699219 243.261719 309.285156 243.917969 310.453125 245.089844 C 311.625 246.257812 312.28125 247.847656 312.28125 249.5 Z M 312.28125 249.5 "/>
<path style=" stroke:none;fill-rule:evenodd;fill:rgb(11.372549%,30.588235%,84.705882%);fill-opacity:1;" d="M 164.25 157.863281 C 164.25 159.519531 163.59375 161.105469 162.421875 162.277344 C 161.253906 163.445312 159.664062 164.101562 158.011719 164.101562 C 156.355469 164.101562 154.769531 163.445312 153.601562 162.277344 C 152.429688 161.105469 151.773438 159.519531 151.773438 157.863281 C 151.773438 156.210938 152.429688 154.625 153.601562 153.453125 C 154.769531 152.285156 156.355469 151.628906 158.011719 151.628906 C 159.664062 151.628906 161.253906 152.285156 162.421875 153.453125 C 163.59375 154.625 164.25 156.210938 164.25 157.863281 Z M 164.25 157.863281 "/>
<path style=" stroke:none;fill-rule:evenodd;fill:rgb(11.372549%,30.588235%,84.705882%);fill-opacity:1;" d="M 347.226562 397.769531 C 347.226562 399.421875 346.570312 401.007812 345.398438 402.179688 C 344.230469 403.347656 342.644531 404.007812 340.988281 404.007812 C 339.335938 404.007812 337.746094 403.347656 336.578125 402.179688 C 335.40625 401.007812 334.75 399.421875 334.75 397.769531 C 334.75 396.113281 335.40625 394.527344 336.578125 393.359375 C 337.746094 392.1875 339.335938 391.53125 340.988281 391.53125 C 342.644531 391.53125 344.230469 392.1875 345.398438 393.359375 C 346.570312 394.527344 347.226562 396.113281 347.226562 397.769531 Z M 347.226562 397.769531 "/>
<path style=" stroke:none;fill-rule:evenodd;fill:rgb(11.372549%,30.588235%,84.705882%);fill-opacity:1;" d="M 199.195312 249.5 C 199.195312 251.152344 198.539062 252.742188 197.367188 253.910156 C 196.199219 255.082031 194.609375 255.738281 192.957031 255.738281 C 191.300781 255.738281 189.714844 255.082031 188.546875 253.910156 C 187.375 252.742188 186.71875 251.152344 186.71875 249.5 C 186.71875 247.847656 187.375 246.257812 188.546875 245.089844 C 189.714844 243.917969 191.300781 243.261719 192.957031 243.261719 C 194.609375 243.261719 196.199219 243.917969 197.367188 245.089844 C 198.539062 246.257812 199.195312 247.847656 199.195312 249.5 Z M 199.195312 249.5 "/>
<path style=" stroke:none;fill-rule:evenodd;fill:rgb(11.372549%,30.588235%,84.705882%);fill-opacity:1;" d="M 347.226562 341.136719 C 347.226562 342.789062 346.570312 344.375 345.398438 345.546875 C 344.230469 346.714844 342.644531 347.371094 340.988281 347.371094 C 339.335938 347.371094 337.746094 346.714844 336.578125 345.546875 C 335.40625 344.375 334.75 342.789062 334.75 341.136719 C 334.75 339.480469 335.40625 337.894531 336.578125 336.722656 C 337.746094 335.554688 339.335938 334.898438 340.988281 334.898438 C 342.644531 334.898438 344.230469 335.554688 345.398438 336.722656 C 346.570312 337.894531 347.226562 339.480469 347.226562 341.136719 Z M 347.226562 341.136719 "/>
<path style=" stroke:none;fill-rule:evenodd;fill:rgb(11.372549%,30.588235%,84.705882%);fill-opacity:1;" d="M 403.769531 101.230469 C 403.769531 102.886719 403.113281 104.472656 401.941406 105.640625 C 400.773438 106.8125 399.1875 107.46875 397.53125 107.46875 C 395.878906 107.46875 394.289062 106.8125 393.121094 105.640625 C 391.949219 104.472656 391.292969 102.886719 391.292969 101.230469 C 391.292969 99.578125 391.949219 97.992188 393.121094 96.820312 C 394.289062 95.652344 395.878906 94.992188 397.53125 94.992188 C 399.1875 94.992188 400.773438 95.652344 401.941406 96.820312 C 403.113281 97.992188 403.769531 99.578125 403.769531 101.230469 Z M 403.769531 101.230469 "/>
<path style=" stroke:none;fill-rule:evenodd;fill:rgb(11.372549%,30.588235%,84.705882%);fill-opacity:1;" d="M 255.738281 9.597656 C 255.738281 11.25 255.082031 12.835938 253.910156 14.007812 C 252.742188 15.175781 251.152344 15.832031 249.5 15.832031 C 247.847656 15.832031 246.257812 15.175781 245.089844 14.007812 C 243.917969 12.835938 243.261719 11.25 243.261719 9.597656 C 243.261719 7.941406 243.917969 6.355469 245.089844 5.1875 C 246.257812 4.015625 247.847656 3.359375 249.5 3.359375 C 251.152344 3.359375 252.742188 4.015625 253.910156 5.1875 C 255.082031 6.355469 255.738281 7.941406 255.738281 9.597656 Z M 255.738281 9.597656 "/>
<path style=" stroke:none;fill-rule:evenodd;fill:rgb(11.372549%,30.588235%,84.705882%);fill-opacity:1;" d="M 403.769531 157.863281 C 403.769531 159.519531 403.113281 161.105469 401.941406 162.277344 C 400.773438 163.445312 399.1875 164.101562 397.53125 164.101562 C 395.878906 164.101562 394.289062 163.445312 393.121094 162.277344 C 391.949219 161.105469 391.292969 159.519531 391.292969 157.863281 C 391.292969 156.210938 391.949219 154.625 393.121094 153.453125 C 394.289062 152.285156 395.878906 151.628906 397.53125 151.628906 C 399.1875 151.628906 400.773438 152.285156 401.941406 153.453125 C 403.113281 154.625 403.769531 156.210938 403.769531 157.863281 Z M 403.769531 157.863281 "/>
<path style=" stroke:none;fill-rule:evenodd;fill:rgb(11.372549%,30.588235%,84.705882%);fill-opacity:1;" d="M 347.226562 101.230469 C 347.226562 102.886719 346.570312 104.472656 345.398438 105.640625 C 344.230469 106.8125 342.644531 107.46875 340.988281 107.46875 C 339.335938 107.46875 337.746094 106.8125 336.578125 105.640625 C 335.40625 104.472656 334.75 102.886719 334.75 101.230469 C 334.75 99.578125 335.40625 97.992188 336.578125 96.820312 C 337.746094 95.652344 339.335938 94.992188 340.988281 94.992188 C 342.644531 94.992188 344.230469 95.652344 345.398438 96.820312 C 346.570312 97.992188 347.226562 99.578125 347.226562 101.230469 Z M 347.226562 101.230469 "/>
<path style=" stroke:none;fill-rule:evenodd;fill:rgb(11.372549%,30.588235%,84.705882%);fill-opacity:1;" d="M 495.257812 249.5 C 495.257812 251.152344 494.601562 252.742188 493.429688 253.910156 C 492.261719 255.082031 490.675781 255.738281 489.019531 255.738281 C 487.367188 255.738281 485.777344 255.082031 484.609375 253.910156 C 483.441406 252.742188 482.78125 251.152344 482.78125 249.5 C 482.78125 247.847656 483.441406 246.257812 484.609375 245.089844 C 485.777344 243.917969 487.367188 243.261719 489.019531 243.261719 C 490.675781 243.261719 492.261719 243.917969 493.429688 245.089844 C 494.601562 246.257812 495.257812 247.847656 495.257812 249.5 Z M 495.257812 249.5 "/>
<path style=" stroke:none;fill-rule:evenodd;fill:rgb(11.372549%,30.588235%,84.705882%);fill-opacity:1;" d="M 347.226562 157.863281 C 347.226562 159.519531 346.570312 161.105469 345.398438 162.277344 C 344.230469 163.445312 342.644531 164.101562 340.988281 164.101562 C 339.335938 164.101562 337.746094 163.445312 336.578125 162.277344 C 335.40625 161.105469 334.75 159.519531 334.75 157.863281 C 334.75 156.210938 335.40625 154.625 336.578125 153.453125 C 337.746094 152.285156 339.335938 151.628906 340.988281 151.628906 C 342.644531 151.628906 344.230469 152.285156 345.398438 153.453125 C 346.570312 154.625 347.226562 156.210938 347.226562 157.863281 Z M 347.226562 157.863281 "/>
<path style=" stroke:none;fill-rule:evenodd;fill:rgb(11.372549%,30.588235%,84.705882%);fill-opacity:1;" d="M 86.371094 419.136719 C 86.371094 420.792969 85.714844 422.378906 84.542969 423.546875 C 83.375 424.71875 81.789062 425.375 80.132812 425.375 C 78.480469 425.375 76.894531 424.71875 75.722656 423.546875 C 74.554688 422.378906 73.894531 420.792969 73.894531 419.136719 C 73.894531 417.484375 74.554688 415.898438 75.722656 414.726562 C 76.894531 413.558594 78.480469 412.898438 80.132812 412.898438 C 81.789062 412.898438 83.375 413.558594 84.542969 414.726562 C 85.714844 415.898438 86.371094 417.484375 86.371094 419.136719 Z M 86.371094 419.136719 "/>
<path style=" stroke:none;fill-rule:evenodd;fill:rgb(11.372549%,30.588235%,84.705882%);fill-opacity:1;" d="M 86.371094 209.453125 C 86.371094 211.109375 85.714844 212.695312 84.542969 213.863281 C 83.375 215.035156 81.789062 215.691406 80.132812 215.691406 C 78.480469 215.691406 76.894531 215.035156 75.722656 213.863281 C 74.554688 212.695312 73.894531 211.109375 73.894531 209.453125 C 73.894531 207.800781 74.554688 206.214844 75.722656 205.042969 C 76.894531 203.875 78.480469 203.214844 80.132812 203.214844 C 81.789062 203.214844 83.375 203.875 84.542969 205.042969 C 85.714844 206.214844 86.371094 207.800781 86.371094 209.453125 Z M 86.371094 209.453125 "/>
<path style=" stroke:none;fill-rule:evenodd;fill:rgb(11.372549%,30.588235%,84.705882%);fill-opacity:1;" d="M 295.71875 419.136719 C 295.71875 420.792969 295.0625 422.378906 293.890625 423.546875 C 292.722656 424.71875 291.136719 425.375 289.480469 425.375 C 287.828125 425.375 286.242188 424.71875 285.070312 423.546875 C 283.902344 422.378906 283.246094 420.792969 283.246094 419.136719 C 283.246094 417.484375 283.902344 415.898438 285.070312 414.726562 C 286.242188 413.558594 287.828125 412.898438 289.480469 412.898438 C 291.136719 412.898438 292.722656 413.558594 293.890625 414.726562 C 295.0625 415.898438 295.71875 417.484375 295.71875 419.136719 Z M 295.71875 419.136719 "/>
<path style=" stroke:none;fill-rule:evenodd;fill:rgb(11.372549%,30.588235%,84.705882%);fill-opacity:1;" d="M 295.71875 209.453125 C 295.71875 211.109375 295.0625 212.695312 293.890625 213.863281 C 292.722656 215.035156 291.136719 215.691406 289.480469 215.691406 C 287.828125 215.691406 286.242188 215.035156 285.070312 213.863281 C 283.902344 212.695312 283.246094 211.109375 283.246094 209.453125 C 283.246094 207.800781 283.902344 206.214844 285.070312 205.042969 C 286.242188 203.875 287.828125 203.214844 289.480469 203.214844 C 291.136719 203.214844 292.722656 203.875 293.890625 205.042969 C 295.0625 206.214844 295.71875 207.800781 295.71875 209.453125 Z M 295.71875 209.453125 "/>
<path style=" stroke:none;fill-rule:evenodd;fill:rgb(11.372549%,30.588235%,84.705882%);fill-opacity:1;" d="M 86.371094 289.546875 C 86.371094 291.199219 85.714844 292.785156 84.542969 293.957031 C 83.375 295.125 81.789062 295.785156 80.132812 295.785156 C 78.480469 295.785156 76.894531 295.125 75.722656 293.957031 C 74.554688 292.785156 73.894531 291.199219 73.894531 289.546875 C 73.894531 287.890625 74.554688 286.304688 75.722656 285.136719 C 76.894531 283.964844 78.480469 283.308594 80.132812 283.308594 C 81.789062 283.308594 83.375 283.964844 84.542969 285.136719 C 85.714844 286.304688 86.371094 287.890625 86.371094 289.546875 Z M 86.371094 289.546875 "/>
<path style=" stroke:none;fill-rule:evenodd;fill:rgb(11.372549%,30.588235%,84.705882%);fill-opacity:1;" d="M 86.371094 79.863281 C 86.371094 81.515625 85.714844 83.101562 84.542969 84.273438 C 83.375 85.441406 81.789062 86.101562 80.132812 86.101562 C 78.480469 86.101562 76.894531 85.441406 75.722656 84.273438 C 74.554688 83.101562 73.894531 81.515625 73.894531 79.863281 C 73.894531 78.207031 74.554688 76.621094 75.722656 75.453125 C 76.894531 74.28125 78.480469 73.625 80.132812 73.625 C 81.789062 73.625 83.375 74.28125 84.542969 75.453125 C 85.714844 76.621094 86.371094 78.207031 86.371094 79.863281 Z M 86.371094 79.863281 "/>
<path style=" stroke:none;fill-rule:evenodd;fill:rgb(11.372549%,30.588235%,84.705882%);fill-opacity:1;" d="M 295.71875 289.546875 C 295.71875 291.199219 295.0625 292.785156 293.890625 293.957031 C 292.722656 295.125 291.136719 295.785156 289.480469 295.785156 C 287.828125 295.785156 286.242188 295.125 285.070312 293.957031 C 283.902344 292.785156 283.246094 291.199219 283.246094 289.546875 C 283.246094 287.890625 283.902344 286.304688 285.070312 285.136719 C 286.242188 283.964844 287.828125 283.308594 289.480469 283.308594 C 291.136719 283.308594 292.722656 283.964844 293.890625 285.136719 C 295.0625 286.304688 295.71875 287.890625 295.71875 289.546875 Z M 295.71875 289.546875 "/>
<path style=" stroke:none;fill-rule:evenodd;fill:rgb(11.372549%,30.588235%,84.705882%);fill-opacity:1;" d="M 295.71875 79.863281 C 295.71875 81.515625 295.0625 83.101562 293.890625 84.273438 C 292.722656 85.441406 291.136719 86.101562 289.480469 86.101562 C 287.828125 86.101562 286.242188 85.441406 285.070312 84.273438 C 283.902344 83.101562 283.246094 81.515625 283.246094 79.863281 C 283.246094 78.207031 283.902344 76.621094 285.070312 75.453125 C 286.242188 74.28125 287.828125 73.625 289.480469 73.625 C 291.136719 73.625 292.722656 74.28125 293.890625 75.453125 C 295.0625 76.621094 295.71875 78.207031 295.71875 79.863281 Z M 295.71875 79.863281 "/>
<path style=" stroke:none;fill-rule:evenodd;fill:rgb(11.372549%,30.588235%,84.705882%);fill-opacity:1;" d="M 215.753906 419.136719 C 215.753906 420.792969 215.097656 422.378906 213.929688 423.546875 C 212.757812 424.71875 211.171875 425.375 209.519531 425.375 C 207.863281 425.375 206.277344 424.71875 205.109375 423.546875 C 203.9375 422.378906 203.28125 420.792969 203.28125 419.136719 C 203.28125 417.484375 203.9375 415.898438 205.109375 414.726562 C 206.277344 413.558594 207.863281 412.898438 209.519531 412.898438 C 211.171875 412.898438 212.757812 413.558594 213.929688 414.726562 C 215.097656 415.898438 215.753906 417.484375 215.753906 419.136719 Z M 215.753906 419.136719 "/>
<path style=" stroke:none;fill-rule:evenodd;fill:rgb(11.372549%,30.588235%,84.705882%);fill-opacity:1;" d="M 215.753906 209.453125 C 215.753906 211.109375 215.097656 212.695312 213.929688 213.863281 C 212.757812 215.035156 211.171875 215.691406 209.519531 215.691406 C 207.863281 215.691406 206.277344 215.035156 205.109375 213.863281 C 203.9375 212.695312 203.28125 211.109375 203.28125 209.453125 C 203.28125 207.800781 203.9375 206.214844 205.109375 205.042969 C 206.277344 203.875 207.863281 203.214844 209.519531 203.214844 C 211.171875 203.214844 212.757812 203.875 213.929688 205.042969 C 215.097656 206.214844 215.753906 207.800781 215.753906 209.453125 Z M 215.753906 209.453125 "/>
<path style=" stroke:none;fill-rule:evenodd;fill:rgb(11.372549%,30.588235%,84.705882%);fill-opacity:1;" d="M 425.105469 419.136719 C 425.105469 420.792969 424.445312 422.378906 423.277344 423.546875 C 422.105469 424.71875 420.519531 425.375 418.867188 425.375 C 417.210938 425.375 415.625 424.71875 414.457031 423.546875 C 413.285156 422.378906 412.628906 420.792969 412.628906 419.136719 C 412.628906 417.484375 413.285156 415.898438 414.457031 414.726562 C 415.625 413.558594 417.210938 412.898438 418.867188 412.898438 C 420.519531 412.898438 422.105469 413.558594 423.277344 414.726562 C 424.445312 415.898438 425.105469 417.484375 425.105469 419.136719 Z M 425.105469 419.136719 "/>
<path style=" stroke:none;fill-rule:evenodd;fill:rgb(11.372549%,30.588235%,84.705882%);fill-opacity:1;" d="M 425.105469 209.453125 C 425.105469 211.109375 424.445312 212.695312 423.277344 213.863281 C 422.105469 215.035156 420.519531 215.691406 418.867188 215.691406 C 417.210938 215.691406 415.625 215.035156 414.457031 213.863281 C 413.285156 212.695312 412.628906 211.109375 412.628906 209.453125 C 412.628906 207.800781 413.285156 206.214844 414.457031 205.042969 C 415.625 203.875 417.210938 203.214844 418.867188 203.214844 C 420.519531 203.214844 422.105469 203.875 423.277344 205.042969 C 424.445312 206.214844 425.105469 207.800781 425.105469 209.453125 Z M 425.105469 209.453125 "/>
<path style=" stroke:none;fill-rule:evenodd;fill:rgb(11.372549%,30.588235%,84.705882%);fill-opacity:1;" d="M 215.753906 289.546875 C 215.753906 291.199219 215.097656 292.785156 213.929688 293.957031 C 212.757812 295.125 211.171875 295.785156 209.519531 295.785156 C 207.863281 295.785156 206.277344 295.125 205.109375 293.957031 C 203.9375 292.785156 203.28125 291.199219 203.28125 289.546875 C 203.28125 287.890625 203.9375 286.304688 205.109375 285.136719 C 206.277344 283.964844 207.863281 283.308594 209.519531 283.308594 C 211.171875 283.308594 212.757812 283.964844 213.929688 285.136719 C 215.097656 286.304688 215.753906 287.890625 215.753906 289.546875 Z M 215.753906 289.546875 "/>
<path style=" stroke:none;fill-rule:evenodd;fill:rgb(11.372549%,30.588235%,84.705882%);fill-opacity:1;" d="M 215.753906 79.863281 C 215.753906 81.515625 215.097656 83.101562 213.929688 84.273438 C 212.757812 85.441406 211.171875 86.101562 209.519531 86.101562 C 207.863281 86.101562 206.277344 85.441406 205.109375 84.273438 C 203.9375 83.101562 203.28125 81.515625 203.28125 79.863281 C 203.28125 78.207031 203.9375 76.621094 205.109375 75.453125 C 206.277344 74.28125 207.863281 73.625 209.519531 73.625 C 211.171875 73.625 212.757812 74.28125 213.929688 75.453125 C 215.097656 76.621094 215.753906 78.207031 215.753906 79.863281 Z M 215.753906 79.863281 "/>
<path style=" stroke:none;fill-rule:evenodd;fill:rgb(11.372549%,30.588235%,84.705882%);fill-opacity:1;" d="M 425.105469 289.546875 C 425.105469 291.199219 424.445312 292.785156 423.277344 293.957031 C 422.105469 295.125 420.519531 295.785156 418.867188 295.785156 C 417.210938 295.785156 415.625 295.125 414.457031 293.957031 C 413.285156 292.785156 412.628906 291.199219 412.628906 289.546875 C 412.628906 287.890625 413.285156 286.304688 414.457031 285.136719 C 415.625 283.964844 417.210938 283.308594 418.867188 283.308594 C 420.519531 283.308594 422.105469 283.964844 423.277344 285.136719 C 424.445312 286.304688 425.105469 287.890625 425.105469 289.546875 Z M 425.105469 289.546875 "/>
<path style=" stroke:none;fill-rule:evenodd;fill:rgb(11.372549%,30.588235%,84.705882%);fill-opacity:1;" d="M 425.105469 79.863281 C 425.105469 81.515625 424.445312 83.101562 423.277344 84.273438 C 422.105469 85.441406 420.519531 86.101562 418.867188 86.101562 C 417.210938 86.101562 415.625 85.441406 414.457031 84.273438 C 413.285156 83.101562 412.628906 81.515625 412.628906 79.863281 C 412.628906 78.207031 413.285156 76.621094 414.457031 75.453125 C 415.625 74.28125 417.210938 73.625 418.867188 73.625 C 420.519531 73.625 422.105469 74.28125 423.277344 75.453125 C 424.445312 76.621094 425.105469 78.207031 425.105469 79.863281 Z M 425.105469 79.863281 "/>
<path style=" stroke:none;fill-rule:evenodd;fill:rgb(11.372549%,30.588235%,84.705882%);fill-opacity:1;" d="M 255.738281 459.183594 C 255.738281 460.839844 255.082031 462.425781 253.910156 463.59375 C 252.742188 464.765625 251.152344 465.421875 249.5 465.421875 C 247.847656 465.421875 246.257812 464.765625 245.089844 463.59375 C 243.917969 462.425781 243.261719 460.839844 243.261719 459.183594 C 243.261719 457.53125 243.917969 455.941406 245.089844 454.773438 C 246.257812 453.601562 247.847656 452.945312 249.5 452.945312 C 251.152344 452.945312 252.742188 453.601562 253.910156 454.773438 C 255.082031 455.941406 255.738281 457.53125 255.738281 459.183594 Z M 255.738281 459.183594 "/>
<path style=" stroke:none;fill-rule:evenodd;fill:rgb(11.372549%,30.588235%,84.705882%);fill-opacity:1;" d="M 46.390625 249.5 C 46.390625 251.152344 45.730469 252.742188 44.5625 253.910156 C 43.394531 255.082031 41.804688 255.738281 40.152344 255.738281 C 38.496094 255.738281 36.910156 255.082031 35.742188 253.910156 C 34.570312 252.742188 33.914062 251.152344 33.914062 249.5 C 33.914062 247.847656 34.570312 246.257812 35.742188 245.089844 C 36.910156 243.917969 38.496094 243.261719 40.152344 243.261719 C 41.804688 243.261719 43.394531 243.917969 44.5625 245.089844 C 45.730469 246.257812 46.390625 247.847656 46.390625 249.5 Z M 46.390625 249.5 "/>
<path style=" stroke:none;fill-rule:evenodd;fill:rgb(11.372549%,30.588235%,84.705882%);fill-opacity:1;" d="M 255.738281 379.089844 C 255.738281 380.746094 255.082031 382.332031 253.910156 383.503906 C 252.742188 384.671875 251.152344 385.328125 249.5 385.328125 C 247.847656 385.328125 246.257812 384.671875 245.089844 383.503906 C 243.917969 382.332031 243.261719 380.746094 243.261719 379.089844 C 243.261719 377.4375 243.917969 375.851562 245.089844 374.679688 C 246.257812 373.511719 247.847656 372.855469 249.5 372.855469 C 251.152344 372.855469 252.742188 373.511719 253.910156 374.679688 C 255.082031 375.851562 255.738281 377.4375 255.738281 379.089844 Z M 255.738281 379.089844 "/>
<path style=" stroke:none;fill-rule:evenodd;fill:rgb(11.372549%,30.588235%,84.705882%);fill-opacity:1;" d="M 126.351562 249.5 C 126.351562 251.152344 125.695312 252.742188 124.527344 253.910156 C 123.355469 255.082031 121.769531 255.738281 120.117188 255.738281 C 118.460938 255.738281 116.875 255.082031 115.707031 253.910156 C 114.535156 252.742188 113.878906 251.152344 113.878906 249.5 C 113.878906 247.847656 114.535156 246.257812 115.707031 245.089844 C 116.875 243.917969 118.460938 243.261719 120.117188 243.261719 C 121.769531 243.261719 123.355469 243.917969 124.527344 245.089844 C 125.695312 246.257812 126.351562 247.847656 126.351562 249.5 Z M 126.351562 249.5 "/>
<path style=" stroke:none;fill-rule:evenodd;fill:rgb(11.372549%,30.588235%,84.705882%);fill-opacity:1;" d="M 255.738281 39.816406 C 255.738281 41.46875 255.082031 43.058594 253.910156 44.226562 C 252.742188 45.398438 251.152344 46.054688 249.5 46.054688 C 247.847656 46.054688 246.257812 45.398438 245.089844 44.226562 C 243.917969 43.058594 243.261719 41.46875 243.261719 39.816406 C 243.261719 38.160156 243.917969 36.574219 245.089844 35.40625 C 246.257812 34.234375 247.847656 33.578125 249.5 33.578125 C 251.152344 33.578125 252.742188 34.234375 253.910156 35.40625 C 255.082031 36.574219 255.738281 38.160156 255.738281 39.816406 Z M 255.738281 39.816406 "/>
<path style=" stroke:none;fill-rule:evenodd;fill:rgb(11.372549%,30.588235%,84.705882%);fill-opacity:1;" d="M 465.085938 249.5 C 465.085938 251.152344 464.429688 252.742188 463.257812 253.910156 C 462.089844 255.082031 460.503906 255.738281 458.847656 255.738281 C 457.195312 255.738281 455.605469 255.082031 454.4375 253.910156 C 453.269531 252.742188 452.609375 251.152344 452.609375 249.5 C 452.609375 247.847656 453.269531 246.257812 454.4375 245.089844 C 455.605469 243.917969 457.195312 243.261719 458.847656 243.261719 C 460.503906 243.261719 462.089844 243.917969 463.257812 245.089844 C 464.429688 246.257812 465.085938 247.847656 465.085938 249.5 Z M 465.085938 249.5 "/>
<path style=" stroke:none;fill-rule:evenodd;fill:rgb(11.372549%,30.588235%,84.705882%);fill-opacity:1;" d="M 255.738281 119.910156 C 255.738281 121.5625 255.082031 123.148438 253.910156 124.320312 C 252.742188 125.488281 251.152344 126.144531 249.5 126.144531 C 247.847656 126.144531 246.257812 125.488281 245.089844 124.320312 C 243.917969 123.148438 243.261719 121.5625 243.261719 119.910156 C 243.261719 118.253906 243.917969 116.667969 245.089844 115.496094 C 246.257812 114.328125 247.847656 113.671875 249.5 113.671875 C 251.152344 113.671875 252.742188 114.328125 253.910156 115.496094 C 255.082031 116.667969 255.738281 118.253906 255.738281 119.910156 Z M 255.738281 119.910156 "/>
<path style=" stroke:none;fill-rule:evenodd;fill:rgb(11.372549%,30.588235%,84.705882%);fill-opacity:1;" d="M 385.121094 249.5 C 385.121094 251.152344 384.464844 252.742188 383.292969 253.910156 C 382.125 255.082031 380.539062 255.738281 378.882812 255.738281 C 377.230469 255.738281 375.644531 255.082031 374.472656 253.910156 C 373.304688 252.742188 372.648438 251.152344 372.648438 249.5 C 372.648438 247.847656 373.304688 246.257812 374.472656 245.089844 C 375.644531 243.917969 377.230469 243.261719 378.882812 243.261719 C 380.539062 243.261719 382.125 243.917969 383.292969 245.089844 C 384.464844 246.257812 385.121094 247.847656 385.121094 249.5 Z M 385.121094 249.5 "/>
</g>
</svg>
