<?xml version="1.0" encoding="UTF-8"?>
<svg xmlns="http://www.w3.org/2000/svg" xmlns:xlink="http://www.w3.org/1999/xlink" width="360pt" height="377pt" viewBox="0 0 360 377" version="1.1">
<g id="surface11">
<path style="fill:none;stroke-width:3.59;stroke-linecap:butt;stroke-linejoin:miter;stroke:rgb(0%,36.470032%,36.470032%);stroke-opacity:0.7;stroke-miterlimit:3.25;" d="M 409.210938 188.414062 L 288.085938 21.703125 " transform="matrix(1,0,0,1,-66,-5)"/>
<path style="fill:none;stroke-width:3.59;stroke-linecap:butt;stroke-linejoin:miter;stroke:rgb(0%,36.470032%,36.470032%);stroke-opacity:0.7;stroke-miterlimit:3.25;" d="M 409.210938 197.1875 L 288.085938 363.902344 " transform="matrix(1,0,0,1,-66,-5)"/>
<path style="fill:none;stroke-width:3.59;stroke-linecap:butt;stroke-linejoin:miter;stroke:rgb(0%,36.470032%,36.470032%);stroke-opacity:0.7;stroke-miterlimit:3.25;" d="M 279.742188 18.992188 L 83.761719 82.667969 " transform="matrix(1,0,0,1,-66,-5)"/>
<path style="fill:none;stroke-width:3.59;stroke-linecap:butt;stroke-linejoin:miter;stroke:rgb(0%,36.470032%,36.470032%);stroke-opacity:0.7;stroke-miterlimit:3.25;" d="M 78.601562 89.769531 L 78.601562 295.835938 " transform="matrix(1,0,0,1,-66,-5)"/>
<path style="fill:none;stroke-width:3.59;stroke-linecap:butt;stroke-linejoin:miter;stroke:rgb(0%,36.470032%,36.470032%);stroke-opacity:0.7;stroke-miterlimit:3.25;" d="M 83.761719 302.933594 L 279.742188 366.613281 " transform="matrix(1,0,0,1,-66,-5)"/>
<path style="fill:none;stroke-width:3.59;stroke-linecap:square;stroke-linejoin:miter;stroke:rgb(0%,36.470032%,36.470032%);stroke-opacity:0.7;stroke-miterlimit:3.25;" d="M 288.085938 21.703125 Z M 288.085938 21.703125 " transform="matrix(1,0,0,1,-66,-5)"/>
<path style="fill:none;stroke-width:3.59;stroke-linecap:square;stroke-linejoin:miter;stroke:rgb(0%,36.470032%,36.470032%);stroke-opacity:0.7;stroke-miterlimit:3.25;" d="M 288.085938 363.902344 Z M 288.085938 363.902344 " transform="matrix(1,0,0,1,-66,-5)"/>
<path style="fill:none;stroke-width:3.59;stroke-linecap:square;stroke-linejoin:miter;stroke:rgb(0%,36.470032%,36.470032%);stroke-opacity:0.7;stroke-miterlimit:3.25;" d="M 83.761719 82.667969 Z M 83.761719 82.667969 " transform="matrix(1,0,0,1,-66,-5)"/>
<path style="fill:none;stroke-width:3.59;stroke-linecap:square;stroke-linejoin:miter;stroke:rgb(0%,36.470032%,36.470032%);stroke-opacity:0.7;stroke-miterlimit:3.25;" d="M 78.601562 295.835938 Z M 78.601562 295.835938 " transform="matrix(1,0,0,1,-66,-5)"/>
<path style="fill:none;stroke-width:3.59;stroke-linecap:square;stroke-linejoin:miter;stroke:rgb(0%,36.470032%,36.470032%);stroke-opacity:0.7;stroke-miterlimit:3.25;" d="M 279.742188 366.613281 Z M 279.742188 366.613281 " transform="matrix(1,0,0,1,-66,-5)"/>
<path style="fill-rule:evenodd;fill:rgb(0%,36.470032%,36.470032%);fill-opacity:1;stroke-width:1;stroke-linecap:square;stroke-linejoin:miter;stroke:rgb(0%,0%,0%);stroke-opacity:0.7;stroke-miterlimit:3.25;" d="M 417.820312 192.800781 C 417.820312 191.363281 417.25 189.984375 416.230469 188.96875 C 415.214844 187.949219 413.835938 187.378906 412.398438 187.378906 C 410.957031 187.378906 409.578125 187.949219 408.5625 188.96875 C 407.546875 189.984375 406.972656 191.363281 406.972656 192.800781 C 406.972656 194.238281 407.546875 195.621094 408.5625 196.636719 C 409.578125 197.652344 410.957031 198.222656 412.398438 198.222656 C 413.835938 198.222656 415.214844 197.652344 416.230469 196.636719 C 417.25 195.621094 417.820312 194.238281 417.820312 192.800781 Z M 417.820312 192.800781 " transform="matrix(1,0,0,1,-66,-5)"/>
<path style="fill-rule:evenodd;fill:rgb(0%,36.470032%,36.470032%);fill-opacity:1;stroke-width:1;stroke-linecap:square;stroke-linejoin:miter;stroke:rgb(0%,0%,0%);stroke-opacity:0.7;stroke-miterlimit:3.25;" d="M 290.320312 17.316406 C 290.320312 15.878906 289.75 14.5 288.734375 13.480469 C 287.714844 12.464844 286.335938 11.894531 284.898438 11.894531 C 283.460938 11.894531 282.082031 12.464844 281.066406 13.480469 C 280.046875 14.5 279.476562 15.878906 279.476562 17.316406 C 279.476562 18.753906 280.046875 20.132812 281.066406 21.148438 C 282.082031 22.167969 283.460938 22.738281 284.898438 22.738281 C 286.335938 22.738281 287.714844 22.167969 288.734375 21.148438 C 289.75 20.132812 290.320312 18.753906 290.320312 17.316406 Z M 290.320312 17.316406 " transform="matrix(1,0,0,1,-66,-5)"/>
<path style="fill-rule:evenodd;fill:rgb(0%,36.470032%,36.470032%);fill-opacity:1;stroke-width:1;stroke-linecap:square;stroke-linejoin:miter;stroke:rgb(0%,0%,0%);stroke-opacity:0.7;stroke-miterlimit:3.25;" d="M 84.027344 84.34375 C 84.027344 82.90625 83.453125 81.527344 82.4375 80.511719 C 81.421875 79.492188 80.042969 78.921875 78.601562 78.921875 C 77.164062 78.921875 75.785156 79.492188 74.769531 80.511719 C 73.75 81.527344 73.179688 82.90625 73.179688 84.34375 C 73.179688 85.785156 73.75 87.164062 74.769531 88.179688 C 75.785156 89.195312 77.164062 89.769531 78.601562 89.769531 C 80.042969 89.769531 81.421875 89.195312 82.4375 88.179688 C 83.453125 87.164062 84.027344 85.785156 84.027344 84.34375 Z M 84.027344 84.34375 " transform="matrix(1,0,0,1,-66,-5)"/>
<path style="fill-rule:evenodd;fill:rgb(0%,36.470032%,36.470032%);fill-opacity:1;stroke-width:1;stroke-linecap:square;stroke-linejoin:miter;stroke:rgb(0%,0%,0%);stroke-opacity:0.7;stroke-miterlimit:3.25;" d="M 84.027344 301.257812 C 84.027344 299.820312 83.453125 298.441406 82.4375 297.421875 C 81.421875 296.40625 80.042969 295.835938 78.601562 295.835938 C 77.164062 295.835938 75.785156 296.40625 74.769531 297.421875 C 73.75 298.441406 73.179688 299.820312 73.179688 301.257812 C 73.179688 302.695312 73.75 304.074219 74.769531 305.09375 C 75.785156 306.109375 77.164062 306.679688 78.601562 306.679688 C 80.042969 306.679688 81.421875 306.109375 82.4375 305.09375 C 83.453125 304.074219 84.027344 302.695312 84.027344 301.257812 Z M 84.027344 301.257812 " transform="matrix(1,0,0,1,-66,-5)"/>
<path style="fill-rule:evenodd;fill:rgb(0%,36.470032%,36.470032%);fill-opacity:1;stroke-width:1;stroke-linecap:square;stroke-linejoin:miter;stroke:rgb(0%,0%,0%);stroke-opacity:0.7;stroke-miterlimit:3.25;" d="M 290.320312 368.289062 C 290.320312 366.847656 289.75 365.46875 288.734375 364.453125 C 287.714844 363.4375 286.335938 362.863281 284.898438 362.863281 C 283.460938 362.863281 282.082031 363.4375 281.066406 364.453125 C 280.046875 365.46875 279.476562 366.847656 279.476562 368.289062 C 279.476562 369.726562 280.046875 371.105469 281.066406 372.121094 C 282.082031 373.140625 283.460938 373.710938 284.898438 373.710938 C 286.335938 373.710938 287.714844 373.140625 288.734375 372.121094 C 289.75 371.105469 290.320312 369.726562 290.320312 368.289062 Z M 290.320312 368.289062 " transform="matrix(1,0,0,1,-66,-5)"/>
</g>
</svg>
