<?xml version="1.0" encoding="UTF-8"?>
<svg xmlns="http://www.w3.org/2000/svg" xmlns:xlink="http://www.w3.org/1999/xlink" width="360pt" height="359pt" viewBox="0 0 360 359" version="1.1">
<g id="surface22">
<path style="fill:none;stroke-width:1.795;stroke-linecap:butt;stroke-linejoin:miter;stroke:rgb(0%,36.470032%,36.470032%);stroke-opacity:0.7;stroke-miterlimit:3.25;" d="M 384.125 182.3125 L 247.402344 45.585938 " transform="matrix(1,0,0,1,-66,-5)"/>
<path style="fill:none;stroke-width:1.795;stroke-linecap:butt;stroke-linejoin:miter;stroke:rgb(0%,36.470032%,36.470032%);stroke-opacity:0.7;stroke-miterlimit:3.25;" d="M 384.996094 186.695312 L 345.898438 281.097656 " transform="matrix(1,0,0,1,-66,-5)"/>
<path style="fill:none;stroke-width:1.795;stroke-linecap:butt;stroke-linejoin:miter;stroke:rgb(0%,36.470032%,36.470032%);stroke-opacity:0.7;stroke-miterlimit:3.25;" d="M 384.996094 181.730469 L 345.898438 87.328125 " transform="matrix(1,0,0,1,-66,-5)"/>
<path style="fill:none;stroke-width:1.795;stroke-linecap:butt;stroke-linejoin:miter;stroke:rgb(0%,36.470032%,36.470032%);stroke-opacity:0.7;stroke-miterlimit:3.25;" d="M 383.339844 184.210938 L 107.660156 184.210938 " transform="matrix(1,0,0,1,-66,-5)"/>
<path style="fill:none;stroke-width:1.795;stroke-linecap:butt;stroke-linejoin:miter;stroke:rgb(0%,36.470032%,36.470032%);stroke-opacity:0.7;stroke-miterlimit:3.25;" d="M 384.125 186.113281 L 247.402344 322.839844 " transform="matrix(1,0,0,1,-66,-5)"/>
<path style="fill:none;stroke-width:1.795;stroke-linecap:butt;stroke-linejoin:miter;stroke:rgb(0%,36.470032%,36.470032%);stroke-opacity:0.7;stroke-miterlimit:3.25;" d="M 383.542969 183.183594 L 148.617188 85.875 " transform="matrix(1,0,0,1,-66,-5)"/>
<path style="fill:none;stroke-width:1.795;stroke-linecap:butt;stroke-linejoin:miter;stroke:rgb(0%,36.470032%,36.470032%);stroke-opacity:0.7;stroke-miterlimit:3.25;" d="M 383.542969 185.242188 L 148.617188 282.550781 " transform="matrix(1,0,0,1,-66,-5)"/>
<path style="fill:none;stroke-width:1.795;stroke-linecap:butt;stroke-linejoin:miter;stroke:rgb(0%,36.470032%,36.470032%);stroke-opacity:0.7;stroke-miterlimit:3.25;" d="M 246.527344 46.171875 L 343.839844 281.097656 " transform="matrix(1,0,0,1,-66,-5)"/>
<path style="fill:none;stroke-width:1.795;stroke-linecap:butt;stroke-linejoin:miter;stroke:rgb(0%,36.470032%,36.470032%);stroke-opacity:0.7;stroke-miterlimit:3.25;" d="M 247.984375 44.714844 L 342.382812 83.816406 " transform="matrix(1,0,0,1,-66,-5)"/>
<path style="fill:none;stroke-width:1.795;stroke-linecap:butt;stroke-linejoin:miter;stroke:rgb(0%,36.470032%,36.470032%);stroke-opacity:0.7;stroke-miterlimit:3.25;" d="M 243.597656 45.585938 L 106.875 182.3125 " transform="matrix(1,0,0,1,-66,-5)"/>
<path style="fill:none;stroke-width:1.795;stroke-linecap:butt;stroke-linejoin:miter;stroke:rgb(0%,36.470032%,36.470032%);stroke-opacity:0.7;stroke-miterlimit:3.25;" d="M 245.5 46.375 L 245.5 322.050781 " transform="matrix(1,0,0,1,-66,-5)"/>
<path style="fill:none;stroke-width:1.795;stroke-linecap:butt;stroke-linejoin:miter;stroke:rgb(0%,36.470032%,36.470032%);stroke-opacity:0.7;stroke-miterlimit:3.25;" d="M 243.015625 44.714844 L 148.617188 83.816406 " transform="matrix(1,0,0,1,-66,-5)"/>
<path style="fill:none;stroke-width:1.795;stroke-linecap:butt;stroke-linejoin:miter;stroke:rgb(0%,36.470032%,36.470032%);stroke-opacity:0.7;stroke-miterlimit:3.25;" d="M 244.472656 46.171875 L 147.160156 281.097656 " transform="matrix(1,0,0,1,-66,-5)"/>
<path style="fill:none;stroke-width:1.795;stroke-linecap:butt;stroke-linejoin:miter;stroke:rgb(0%,36.470032%,36.470032%);stroke-opacity:0.7;stroke-miterlimit:3.25;" d="M 344.867188 280.890625 L 344.867188 87.535156 " transform="matrix(1,0,0,1,-66,-5)"/>
<path style="fill:none;stroke-width:1.795;stroke-linecap:butt;stroke-linejoin:miter;stroke:rgb(0%,36.470032%,36.470032%);stroke-opacity:0.7;stroke-miterlimit:3.25;" d="M 342.382812 282.550781 L 107.457031 185.242188 " transform="matrix(1,0,0,1,-66,-5)"/>
<path style="fill:none;stroke-width:1.795;stroke-linecap:butt;stroke-linejoin:miter;stroke:rgb(0%,36.470032%,36.470032%);stroke-opacity:0.7;stroke-miterlimit:3.25;" d="M 342.382812 284.609375 L 247.984375 323.710938 " transform="matrix(1,0,0,1,-66,-5)"/>
<path style="fill:none;stroke-width:1.795;stroke-linecap:butt;stroke-linejoin:miter;stroke:rgb(0%,36.470032%,36.470032%);stroke-opacity:0.7;stroke-miterlimit:3.25;" d="M 342.964844 281.679688 L 148.035156 86.746094 " transform="matrix(1,0,0,1,-66,-5)"/>
<path style="fill:none;stroke-width:1.795;stroke-linecap:butt;stroke-linejoin:miter;stroke:rgb(0%,36.470032%,36.470032%);stroke-opacity:0.7;stroke-miterlimit:3.25;" d="M 342.179688 283.582031 L 148.820312 283.582031 " transform="matrix(1,0,0,1,-66,-5)"/>
<path style="fill:none;stroke-width:1.795;stroke-linecap:butt;stroke-linejoin:miter;stroke:rgb(0%,36.470032%,36.470032%);stroke-opacity:0.7;stroke-miterlimit:3.25;" d="M 342.382812 85.875 L 107.457031 183.183594 " transform="matrix(1,0,0,1,-66,-5)"/>
<path style="fill:none;stroke-width:1.795;stroke-linecap:butt;stroke-linejoin:miter;stroke:rgb(0%,36.470032%,36.470032%);stroke-opacity:0.7;stroke-miterlimit:3.25;" d="M 343.839844 87.328125 L 246.527344 322.253906 " transform="matrix(1,0,0,1,-66,-5)"/>
<path style="fill:none;stroke-width:1.795;stroke-linecap:butt;stroke-linejoin:miter;stroke:rgb(0%,36.470032%,36.470032%);stroke-opacity:0.7;stroke-miterlimit:3.25;" d="M 342.179688 84.84375 L 148.820312 84.84375 " transform="matrix(1,0,0,1,-66,-5)"/>
<path style="fill:none;stroke-width:1.795;stroke-linecap:butt;stroke-linejoin:miter;stroke:rgb(0%,36.470032%,36.470032%);stroke-opacity:0.7;stroke-miterlimit:3.25;" d="M 342.964844 86.746094 L 148.035156 281.679688 " transform="matrix(1,0,0,1,-66,-5)"/>
<path style="fill:none;stroke-width:1.795;stroke-linecap:butt;stroke-linejoin:miter;stroke:rgb(0%,36.470032%,36.470032%);stroke-opacity:0.7;stroke-miterlimit:3.25;" d="M 106.875 186.113281 L 243.597656 322.839844 " transform="matrix(1,0,0,1,-66,-5)"/>
<path style="fill:none;stroke-width:1.795;stroke-linecap:butt;stroke-linejoin:miter;stroke:rgb(0%,36.470032%,36.470032%);stroke-opacity:0.7;stroke-miterlimit:3.25;" d="M 106.003906 181.730469 L 145.101562 87.328125 " transform="matrix(1,0,0,1,-66,-5)"/>
<path style="fill:none;stroke-width:1.795;stroke-linecap:butt;stroke-linejoin:miter;stroke:rgb(0%,36.470032%,36.470032%);stroke-opacity:0.7;stroke-miterlimit:3.25;" d="M 106.003906 186.695312 L 145.101562 281.097656 " transform="matrix(1,0,0,1,-66,-5)"/>
<path style="fill:none;stroke-width:1.795;stroke-linecap:butt;stroke-linejoin:miter;stroke:rgb(0%,36.470032%,36.470032%);stroke-opacity:0.7;stroke-miterlimit:3.25;" d="M 244.472656 322.253906 L 147.160156 87.328125 " transform="matrix(1,0,0,1,-66,-5)"/>
<path style="fill:none;stroke-width:1.795;stroke-linecap:butt;stroke-linejoin:miter;stroke:rgb(0%,36.470032%,36.470032%);stroke-opacity:0.7;stroke-miterlimit:3.25;" d="M 243.015625 323.710938 L 148.617188 284.609375 " transform="matrix(1,0,0,1,-66,-5)"/>
<path style="fill:none;stroke-width:1.795;stroke-linecap:butt;stroke-linejoin:miter;stroke:rgb(0%,36.470032%,36.470032%);stroke-opacity:0.7;stroke-miterlimit:3.25;" d="M 146.132812 87.535156 L 146.132812 280.890625 " transform="matrix(1,0,0,1,-66,-5)"/>
<path style="fill:none;stroke-width:1.795;stroke-linecap:square;stroke-linejoin:miter;stroke:rgb(0%,36.470032%,36.470032%);stroke-opacity:0.7;stroke-miterlimit:3.25;" d="M 247.402344 45.585938 Z M 247.402344 45.585938 " transform="matrix(1,0,0,1,-66,-5)"/>
<path style="fill:none;stroke-width:1.795;stroke-linecap:square;stroke-linejoin:miter;stroke:rgb(0%,36.470032%,36.470032%);stroke-opacity:0.7;stroke-miterlimit:3.25;" d="M 345.898438 281.097656 Z M 345.898438 281.097656 " transform="matrix(1,0,0,1,-66,-5)"/>
<path style="fill:none;stroke-width:1.795;stroke-linecap:square;stroke-linejoin:miter;stroke:rgb(0%,36.470032%,36.470032%);stroke-opacity:0.7;stroke-miterlimit:3.25;" d="M 345.898438 87.328125 Z M 345.898438 87.328125 " transform="matrix(1,0,0,1,-66,-5)"/>
<path style="fill:none;stroke-width:1.795;stroke-linecap:square;stroke-linejoin:miter;stroke:rgb(0%,36.470032%,36.470032%);stroke-opacity:0.7;stroke-miterlimit:3.25;" d="M 107.660156 184.210938 Z M 107.660156 184.210938 " transform="matrix(1,0,0,1,-66,-5)"/>
<path style="fill:none;stroke-width:1.795;stroke-linecap:square;stroke-linejoin:miter;stroke:rgb(0%,36.470032%,36.470032%);stroke-opacity:0.7;stroke-miterlimit:3.25;" d="M 247.402344 322.839844 Z M 247.402344 322.839844 " transform="matrix(1,0,0,1,-66,-5)"/>
<path style="fill:none;stroke-width:1.795;stroke-linecap:square;stroke-linejoin:miter;stroke:rgb(0%,36.470032%,36.470032%);stroke-opacity:0.7;stroke-miterlimit:3.25;" d="M 148.617188 85.875 Z M 148.617188 85.875 " transform="matrix(1,0,0,1,-66,-5)"/>
<path style="fill:none;stroke-width:1.795;stroke-linecap:square;stroke-linejoin:miter;stroke:rgb(0%,36.470032%,36.470032%);stroke-opacity:0.7;stroke-miterlimit:3.25;" d="M 148.617188 282.550781 Z M 148.617188 282.550781 " transform="matrix(1,0,0,1,-66,-5)"/>
<path style="fill:none;stroke-width:1.795;stroke-linecap:square;stroke-linejoin:miter;stroke:rgb(0%,36.470032%,36.470032%);stroke-opacity:0.7;stroke-miterlimit:3.25;" d="M 343.839844 281.097656 Z M 343.839844 281.097656 " transform="matrix(1,0,0,1,-66,-5)"/>
<path style="fill:none;stroke-width:1.795;stroke-linecap:square;stroke-linejoin:miter;stroke:rgb(0%,36.470032%,36.470032%);stroke-opacity:0.7;stroke-miterlimit:3.25;" d="M 342.382812 83.816406 Z M 342.382812 83.816406 " transform="matrix(1,0,0,1,-66,-5)"/>
<path style="fill:none;stroke-width:1.795;stroke-linecap:square;stroke-linejoin:miter;stroke:rgb(0%,36.470032%,36.470032%);stroke-opacity:0.7;stroke-miterlimit:3.25;" d="M 106.875 182.3125 Z M 106.875 182.3125 " transform="matrix(1,0,0,1,-66,-5)"/>
<path style="fill:none;stroke-width:1.795;stroke-linecap:square;stroke-linejoin:miter;stroke:rgb(0%,36.470032%,36.470032%);stroke-opacity:0.7;stroke-miterlimit:3.25;" d="M 245.5 322.050781 Z M 245.5 322.050781 " transform="matrix(1,0,0,1,-66,-5)"/>
<path style="fill:none;stroke-width:1.795;stroke-linecap:square;stroke-linejoin:miter;stroke:rgb(0%,36.470032%,36.470032%);stroke-opacity:0.7;stroke-miterlimit:3.25;" d="M 148.617188 83.816406 Z M 148.617188 83.816406 " transform="matrix(1,0,0,1,-66,-5)"/>
<path style="fill:none;stroke-width:1.795;stroke-linecap:square;stroke-linejoin:miter;stroke:rgb(0%,36.470032%,36.470032%);stroke-opacity:0.7;stroke-miterlimit:3.25;" d="M 147.160156 281.097656 Z M 147.160156 281.097656 " transform="matrix(1,0,0,1,-66,-5)"/>
<path style="fill:none;stroke-width:1.795;stroke-linecap:square;stroke-linejoin:miter;stroke:rgb(0%,36.470032%,36.470032%);stroke-opacity:0.7;stroke-miterlimit:3.25;" d="M 344.867188 87.535156 Z M 344.867188 87.535156 " transform="matrix(1,0,0,1,-66,-5)"/>
<path style="fill:none;stroke-width:1.795;stroke-linecap:square;stroke-linejoin:miter;stroke:rgb(0%,36.470032%,36.470032%);stroke-opacity:0.7;stroke-miterlimit:3.25;" d="M 107.457031 185.242188 Z M 107.457031 185.242188 " transform="matrix(1,0,0,1,-66,-5)"/>
<path style="fill:none;stroke-width:1.795;stroke-linecap:square;stroke-linejoin:miter;stroke:rgb(0%,36.470032%,36.470032%);stroke-opacity:0.7;stroke-miterlimit:3.25;" d="M 247.984375 323.710938 Z M 247.984375 323.710938 " transform="matrix(1,0,0,1,-66,-5)"/>
<path style="fill:none;stroke-width:1.795;stroke-linecap:square;stroke-linejoin:miter;stroke:rgb(0%,36.470032%,36.470032%);stroke-opacity:0.7;stroke-miterlimit:3.25;" d="M 148.035156 86.746094 Z M 148.035156 86.746094 " transform="matrix(1,0,0,1,-66,-5)"/>
<path style="fill:none;stroke-width:1.795;stroke-linecap:square;stroke-linejoin:miter;stroke:rgb(0%,36.470032%,36.470032%);stroke-opacity:0.7;stroke-miterlimit:3.25;" d="M 148.820312 283.582031 Z M 148.820312 283.582031 " transform="matrix(1,0,0,1,-66,-5)"/>
<path style="fill:none;stroke-width:1.795;stroke-linecap:square;stroke-linejoin:miter;stroke:rgb(0%,36.470032%,36.470032%);stroke-opacity:0.7;stroke-miterlimit:3.25;" d="M 107.457031 183.183594 Z M 107.457031 183.183594 " transform="matrix(1,0,0,1,-66,-5)"/>
<path style="fill:none;stroke-width:1.795;stroke-linecap:square;stroke-linejoin:miter;stroke:rgb(0%,36.470032%,36.470032%);stroke-opacity:0.7;stroke-miterlimit:3.25;" d="M 246.527344 322.253906 Z M 246.527344 322.253906 " transform="matrix(1,0,0,1,-66,-5)"/>
<path style="fill:none;stroke-width:1.795;stroke-linecap:square;stroke-linejoin:miter;stroke:rgb(0%,36.470032%,36.470032%);stroke-opacity:0.7;stroke-miterlimit:3.25;" d="M 148.820312 84.84375 Z M 148.820312 84.84375 " transform="matrix(1,0,0,1,-66,-5)"/>
<path style="fill:none;stroke-width:1.795;stroke-linecap:square;stroke-linejoin:miter;stroke:rgb(0%,36.470032%,36.470032%);stroke-opacity:0.7;stroke-miterlimit:3.25;" d="M 148.035156 281.679688 Z M 148.035156 281.679688 " transform="matrix(1,0,0,1,-66,-5)"/>
<path style="fill:none;stroke-width:1.795;stroke-linecap:square;stroke-linejoin:miter;stroke:rgb(0%,36.470032%,36.470032%);stroke-opacity:0.7;stroke-miterlimit:3.25;" d="M 243.597656 322.839844 Z M 243.597656 322.839844 " transform="matrix(1,0,0,1,-66,-5)"/>
<path style="fill:none;stroke-width:1.795;stroke-linecap:square;stroke-linejoin:miter;stroke:rgb(0%,36.470032%,36.470032%);stroke-opacity:0.7;stroke-miterlimit:3.25;" d="M 145.101562 87.328125 Z M 145.101562 87.328125 " transform="matrix(1,0,0,1,-66,-5)"/>
<path style="fill:none;stroke-width:1.795;stroke-linecap:square;stroke-linejoin:miter;stroke:rgb(0%,36.470032%,36.470032%);stroke-opacity:0.7;stroke-miterlimit:3.25;" d="M 145.101562 281.097656 Z M 145.101562 281.097656 " transform="matrix(1,0,0,1,-66,-5)"/>
<path style="fill:none;stroke-width:1.795;stroke-linecap:square;stroke-linejoin:miter;stroke:rgb(0%,36.470032%,36.470032%);stroke-opacity:0.7;stroke-miterlimit:3.25;" d="M 147.160156 87.328125 Z M 147.160156 87.328125 " transform="matrix(1,0,0,1,-66,-5)"/>
<path style="fill:none;stroke-width:1.795;stroke-linecap:square;stroke-linejoin:miter;stroke:rgb(0%,36.470032%,36.470032%);stroke-opacity:0.7;stroke-miterlimit:3.25;" d="M 148.617188 284.609375 Z M 148.617188 284.609375 " transform="matrix(1,0,0,1,-66,-5)"/>
<path style="fill:none;stroke-width:1.795;stroke-linecap:square;stroke-linejoin:miter;stroke:rgb(0%,36.470032%,36.470032%);stroke-opacity:0.7;stroke-miterlimit:3.25;" d="M 146.132812 280.890625 Z M 146.132812 280.890625 " transform="matrix(1,0,0,1,-66,-5)"/>
<path style="fill-rule:evenodd;fill:rgb(0%,36.470032%,36.470032%);fill-opacity:1;stroke-width:1;stroke-linecap:square;stroke-linejoin:miter;stroke:rgb(0%,0%,0%);stroke-opacity:0.7;stroke-miterlimit:3.25;" d="M 388.714844 184.210938 C 388.714844 183.5 388.433594 182.816406 387.929688 182.3125 C 387.425781 181.808594 386.738281 181.523438 386.027344 181.523438 C 385.3125 181.523438 384.628906 181.808594 384.125 182.3125 C 383.621094 182.816406 383.339844 183.5 383.339844 184.210938 C 383.339844 184.925781 383.621094 185.609375 384.125 186.113281 C 384.628906 186.617188 385.3125 186.902344 386.027344 186.902344 C 386.738281 186.902344 387.425781 186.617188 387.929688 186.113281 C 388.433594 185.609375 388.714844 184.925781 388.714844 184.210938 Z M 388.714844 184.210938 " transform="matrix(1,0,0,1,-66,-5)"/>
<path style="fill-rule:evenodd;fill:rgb(0%,36.470032%,36.470032%);fill-opacity:1;stroke-width:1;stroke-linecap:square;stroke-linejoin:miter;stroke:rgb(0%,0%,0%);stroke-opacity:0.7;stroke-miterlimit:3.25;" d="M 248.1875 43.6875 C 248.1875 42.972656 247.90625 42.289062 247.402344 41.785156 C 246.898438 41.28125 246.214844 40.996094 245.5 40.996094 C 244.785156 40.996094 244.101562 41.28125 243.597656 41.785156 C 243.09375 42.289062 242.8125 42.972656 242.8125 43.6875 C 242.8125 44.398438 243.09375 45.082031 243.597656 45.585938 C 244.101562 46.089844 244.785156 46.375 245.5 46.375 C 246.214844 46.375 246.898438 46.089844 247.402344 45.585938 C 247.90625 45.082031 248.1875 44.398438 248.1875 43.6875 Z M 248.1875 43.6875 " transform="matrix(1,0,0,1,-66,-5)"/>
<path style="fill-rule:evenodd;fill:rgb(0%,36.470032%,36.470032%);fill-opacity:1;stroke-width:1;stroke-linecap:square;stroke-linejoin:miter;stroke:rgb(0%,0%,0%);stroke-opacity:0.7;stroke-miterlimit:3.25;" d="M 347.554688 283.582031 C 347.554688 282.867188 347.273438 282.183594 346.769531 281.679688 C 346.265625 281.175781 345.582031 280.890625 344.867188 280.890625 C 344.15625 280.890625 343.46875 281.175781 342.964844 281.679688 C 342.460938 282.183594 342.179688 282.867188 342.179688 283.582031 C 342.179688 284.292969 342.460938 284.976562 342.964844 285.480469 C 343.46875 285.984375 344.15625 286.269531 344.867188 286.269531 C 345.582031 286.269531 346.265625 285.984375 346.769531 285.480469 C 347.273438 284.976562 347.554688 284.292969 347.554688 283.582031 Z M 347.554688 283.582031 " transform="matrix(1,0,0,1,-66,-5)"/>
<path style="fill-rule:evenodd;fill:rgb(0%,36.470032%,36.470032%);fill-opacity:1;stroke-width:1;stroke-linecap:square;stroke-linejoin:miter;stroke:rgb(0%,0%,0%);stroke-opacity:0.7;stroke-miterlimit:3.25;" d="M 347.554688 84.84375 C 347.554688 84.132812 347.273438 83.449219 346.769531 82.945312 C 346.265625 82.441406 345.582031 82.15625 344.867188 82.15625 C 344.15625 82.15625 343.46875 82.441406 342.964844 82.945312 C 342.460938 83.449219 342.179688 84.132812 342.179688 84.84375 C 342.179688 85.558594 342.460938 86.242188 342.964844 86.746094 C 343.46875 87.25 344.15625 87.535156 344.867188 87.535156 C 345.582031 87.535156 346.265625 87.25 346.769531 86.746094 C 347.273438 86.242188 347.554688 85.558594 347.554688 84.84375 Z M 347.554688 84.84375 " transform="matrix(1,0,0,1,-66,-5)"/>
<path style="fill-rule:evenodd;fill:rgb(0%,36.470032%,36.470032%);fill-opacity:1;stroke-width:1;stroke-linecap:square;stroke-linejoin:miter;stroke:rgb(0%,0%,0%);stroke-opacity:0.7;stroke-miterlimit:3.25;" d="M 107.660156 184.210938 C 107.660156 183.5 107.378906 182.816406 106.875 182.3125 C 106.371094 181.808594 105.6875 181.523438 104.972656 181.523438 C 104.261719 181.523438 103.574219 181.808594 103.070312 182.3125 C 102.566406 182.816406 102.285156 183.5 102.285156 184.210938 C 102.285156 184.925781 102.566406 185.609375 103.070312 186.113281 C 103.574219 186.617188 104.261719 186.902344 104.972656 186.902344 C 105.6875 186.902344 106.371094 186.617188 106.875 186.113281 C 107.378906 185.609375 107.660156 184.925781 107.660156 184.210938 Z M 107.660156 184.210938 " transform="matrix(1,0,0,1,-66,-5)"/>
<path style="fill-rule:evenodd;fill:rgb(0%,36.470032%,36.470032%);fill-opacity:1;stroke-width:1;stroke-linecap:square;stroke-linejoin:miter;stroke:rgb(0%,0%,0%);stroke-opacity:0.7;stroke-miterlimit:3.25;" d="M 248.1875 324.738281 C 248.1875 324.027344 247.90625 323.34375 247.402344 322.839844 C 246.898438 322.335938 246.214844 322.050781 245.5 322.050781 C 244.785156 322.050781 244.101562 322.335938 243.597656 322.839844 C 243.09375 323.34375 242.8125 324.027344 242.8125 324.738281 C 242.8125 325.453125 243.09375 326.136719 243.597656 326.640625 C 244.101562 327.144531 244.785156 327.429688 245.5 327.429688 C 246.214844 327.429688 246.898438 327.144531 247.402344 326.640625 C 247.90625 326.136719 248.1875 325.453125 248.1875 324.738281 Z M 248.1875 324.738281 " transform="matrix(1,0,0,1,-66,-5)"/>
<path style="fill-rule:evenodd;fill:rgb(0%,36.470032%,36.470032%);fill-opacity:1;stroke-width:1;stroke-linecap:square;stroke-linejoin:miter;stroke:rgb(0%,0%,0%);stroke-opacity:0.7;stroke-miterlimit:3.25;" d="M 148.820312 84.84375 C 148.820312 84.132812 148.539062 83.449219 148.035156 82.945312 C 147.53125 82.441406 146.84375 82.15625 146.132812 82.15625 C 145.417969 82.15625 144.734375 82.441406 144.230469 82.945312 C 143.726562 83.449219 143.445312 84.132812 143.445312 84.84375 C 143.445312 85.558594 143.726562 86.242188 144.230469 86.746094 C 144.734375 87.25 145.417969 87.535156 146.132812 87.535156 C 146.84375 87.535156 147.53125 87.25 148.035156 86.746094 C 148.539062 86.242188 148.820312 85.558594 148.820312 84.84375 Z M 148.820312 84.84375 " transform="matrix(1,0,0,1,-66,-5)"/>
<path style="fill-rule:evenodd;fill:rgb(0%,36.470032%,36.470032%);fill-opacity:1;stroke-width:1;stroke-linecap:square;stroke-linejoin:miter;stroke:rgb(0%,0%,0%);stroke-opacity:0.7;stroke-miterlimit:3.25;" d="M 148.820312 283.582031 C 148.820312 282.867188 148.539062 282.183594 148.035156 281.679688 C 147.53125 281.175781 146.84375 280.890625 146.132812 280.890625 C 145.417969 280.890625 144.734375 281.175781 144.230469 281.679688 C 143.726562 282.183594 143.445312 282.867188 143.445312 283.582031 C 143.445312 284.292969 143.726562 284.976562 144.230469 285.480469 C 144.734375 285.984375 145.417969 286.269531 146.132812 286.269531 C 146.84375 286.269531 147.53125 285.984375 148.035156 285.480469 C 148.539062 284.976562 148.820312 284.292969 148.820312 283.582031 Z M 148.820312 283.582031 " transform="matrix(1,0,0,1,-66,-5)"/>
<path style="fill:none;stroke-width:1.795;stroke-linecap:butt;stroke-linejoin:miter;stroke:rgb(85.488892%,11.764526%,15.686035%);stroke-opacity:0.7;stroke-miterlimit:3.25;" d="M 217.425781 116.433594 L 314.734375 351.359375 " transform="matrix(1,0,0,1,-66,-5)"/>
<path style="fill:none;stroke-width:1.795;stroke-linecap:butt;stroke-linejoin:miter;stroke:rgb(85.488892%,11.764526%,15.686035%);stroke-opacity:0.7;stroke-miterlimit:3.25;" d="M 218.878906 114.976562 L 313.28125 154.078125 " transform="matrix(1,0,0,1,-66,-5)"/>
<path style="fill:none;stroke-width:1.795;stroke-linecap:butt;stroke-linejoin:miter;stroke:rgb(85.488892%,11.764526%,15.686035%);stroke-opacity:0.7;stroke-miterlimit:3.25;" d="M 215.367188 116.433594 L 176.265625 210.832031 " transform="matrix(1,0,0,1,-66,-5)"/>
<path style="fill:none;stroke-width:1.795;stroke-linecap:butt;stroke-linejoin:miter;stroke:rgb(85.488892%,11.764526%,15.686035%);stroke-opacity:0.7;stroke-miterlimit:3.25;" d="M 215.367188 111.464844 L 176.265625 17.066406 " transform="matrix(1,0,0,1,-66,-5)"/>
<path style="fill:none;stroke-width:1.795;stroke-linecap:butt;stroke-linejoin:miter;stroke:rgb(85.488892%,11.764526%,15.686035%);stroke-opacity:0.7;stroke-miterlimit:3.25;" d="M 217.425781 116.433594 L 273.574219 251.992188 " transform="matrix(1,0,0,1,-66,-5)"/>
<path style="fill:none;stroke-width:1.795;stroke-linecap:butt;stroke-linejoin:miter;stroke:rgb(85.488892%,11.764526%,15.686035%);stroke-opacity:0.7;stroke-miterlimit:3.25;" d="M 219.085938 113.949219 L 412.441406 113.949219 " transform="matrix(1,0,0,1,-66,-5)"/>
<path style="fill:none;stroke-width:1.795;stroke-linecap:butt;stroke-linejoin:miter;stroke:rgb(85.488892%,11.764526%,15.686035%);stroke-opacity:0.7;stroke-miterlimit:3.25;" d="M 214.496094 115.851562 L 77.769531 252.574219 " transform="matrix(1,0,0,1,-66,-5)"/>
<path style="fill:none;stroke-width:1.795;stroke-linecap:butt;stroke-linejoin:miter;stroke:rgb(85.488892%,11.764526%,15.686035%);stroke-opacity:0.7;stroke-miterlimit:3.25;" d="M 315.761719 351.15625 L 315.761719 157.796875 " transform="matrix(1,0,0,1,-66,-5)"/>
<path style="fill:none;stroke-width:1.795;stroke-linecap:butt;stroke-linejoin:miter;stroke:rgb(85.488892%,11.764526%,15.686035%);stroke-opacity:0.7;stroke-miterlimit:3.25;" d="M 313.863281 351.941406 L 177.136719 215.21875 " transform="matrix(1,0,0,1,-66,-5)"/>
<path style="fill:none;stroke-width:1.795;stroke-linecap:butt;stroke-linejoin:miter;stroke:rgb(85.488892%,11.764526%,15.686035%);stroke-opacity:0.7;stroke-miterlimit:3.25;" d="M 314.734375 351.359375 L 176.265625 17.066406 " transform="matrix(1,0,0,1,-66,-5)"/>
<path style="fill:none;stroke-width:1.795;stroke-linecap:butt;stroke-linejoin:miter;stroke:rgb(85.488892%,11.764526%,15.686035%);stroke-opacity:0.7;stroke-miterlimit:3.25;" d="M 314.734375 351.359375 L 275.632812 256.960938 " transform="matrix(1,0,0,1,-66,-5)"/>
<path style="fill:none;stroke-width:1.795;stroke-linecap:butt;stroke-linejoin:miter;stroke:rgb(85.488892%,11.764526%,15.686035%);stroke-opacity:0.7;stroke-miterlimit:3.25;" d="M 316.792969 351.359375 L 414.101562 116.433594 " transform="matrix(1,0,0,1,-66,-5)"/>
<path style="fill:none;stroke-width:1.795;stroke-linecap:butt;stroke-linejoin:miter;stroke:rgb(85.488892%,11.764526%,15.686035%);stroke-opacity:0.7;stroke-miterlimit:3.25;" d="M 313.28125 352.816406 L 78.351562 255.503906 " transform="matrix(1,0,0,1,-66,-5)"/>
<path style="fill:none;stroke-width:1.795;stroke-linecap:butt;stroke-linejoin:miter;stroke:rgb(85.488892%,11.764526%,15.686035%);stroke-opacity:0.7;stroke-miterlimit:3.25;" d="M 313.28125 156.136719 L 177.71875 212.289062 " transform="matrix(1,0,0,1,-66,-5)"/>
<path style="fill:none;stroke-width:1.795;stroke-linecap:butt;stroke-linejoin:miter;stroke:rgb(85.488892%,11.764526%,15.686035%);stroke-opacity:0.7;stroke-miterlimit:3.25;" d="M 313.863281 153.207031 L 177.136719 16.484375 " transform="matrix(1,0,0,1,-66,-5)"/>
<path style="fill:none;stroke-width:1.795;stroke-linecap:butt;stroke-linejoin:miter;stroke:rgb(85.488892%,11.764526%,15.686035%);stroke-opacity:0.7;stroke-miterlimit:3.25;" d="M 314.734375 157.59375 L 275.632812 251.992188 " transform="matrix(1,0,0,1,-66,-5)"/>
<path style="fill:none;stroke-width:1.795;stroke-linecap:butt;stroke-linejoin:miter;stroke:rgb(85.488892%,11.764526%,15.686035%);stroke-opacity:0.7;stroke-miterlimit:3.25;" d="M 318.246094 154.078125 L 412.648438 114.976562 " transform="matrix(1,0,0,1,-66,-5)"/>
<path style="fill:none;stroke-width:1.795;stroke-linecap:butt;stroke-linejoin:miter;stroke:rgb(85.488892%,11.764526%,15.686035%);stroke-opacity:0.7;stroke-miterlimit:3.25;" d="M 313.28125 156.136719 L 78.351562 253.449219 " transform="matrix(1,0,0,1,-66,-5)"/>
<path style="fill:none;stroke-width:1.795;stroke-linecap:butt;stroke-linejoin:miter;stroke:rgb(85.488892%,11.764526%,15.686035%);stroke-opacity:0.7;stroke-miterlimit:3.25;" d="M 175.238281 210.628906 L 175.238281 17.269531 " transform="matrix(1,0,0,1,-66,-5)"/>
<path style="fill:none;stroke-width:1.795;stroke-linecap:butt;stroke-linejoin:miter;stroke:rgb(85.488892%,11.764526%,15.686035%);stroke-opacity:0.7;stroke-miterlimit:3.25;" d="M 177.71875 214.347656 L 272.121094 253.449219 " transform="matrix(1,0,0,1,-66,-5)"/>
<path style="fill:none;stroke-width:1.795;stroke-linecap:butt;stroke-linejoin:miter;stroke:rgb(85.488892%,11.764526%,15.686035%);stroke-opacity:0.7;stroke-miterlimit:3.25;" d="M 177.71875 212.289062 L 412.648438 114.976562 " transform="matrix(1,0,0,1,-66,-5)"/>
<path style="fill:none;stroke-width:1.795;stroke-linecap:butt;stroke-linejoin:miter;stroke:rgb(85.488892%,11.764526%,15.686035%);stroke-opacity:0.7;stroke-miterlimit:3.25;" d="M 172.753906 214.347656 L 78.351562 253.449219 " transform="matrix(1,0,0,1,-66,-5)"/>
<path style="fill:none;stroke-width:1.795;stroke-linecap:butt;stroke-linejoin:miter;stroke:rgb(85.488892%,11.764526%,15.686035%);stroke-opacity:0.7;stroke-miterlimit:3.25;" d="M 176.265625 17.066406 L 273.574219 251.992188 " transform="matrix(1,0,0,1,-66,-5)"/>
<path style="fill:none;stroke-width:1.795;stroke-linecap:butt;stroke-linejoin:miter;stroke:rgb(85.488892%,11.764526%,15.686035%);stroke-opacity:0.7;stroke-miterlimit:3.25;" d="M 177.71875 15.609375 L 412.648438 112.921875 " transform="matrix(1,0,0,1,-66,-5)"/>
<path style="fill:none;stroke-width:1.795;stroke-linecap:butt;stroke-linejoin:miter;stroke:rgb(85.488892%,11.764526%,15.686035%);stroke-opacity:0.7;stroke-miterlimit:3.25;" d="M 174.207031 17.066406 L 76.898438 251.992188 " transform="matrix(1,0,0,1,-66,-5)"/>
<path style="fill:none;stroke-width:1.795;stroke-linecap:butt;stroke-linejoin:miter;stroke:rgb(85.488892%,11.764526%,15.686035%);stroke-opacity:0.7;stroke-miterlimit:3.25;" d="M 276.503906 252.574219 L 413.230469 115.851562 " transform="matrix(1,0,0,1,-66,-5)"/>
<path style="fill:none;stroke-width:1.795;stroke-linecap:butt;stroke-linejoin:miter;stroke:rgb(85.488892%,11.764526%,15.686035%);stroke-opacity:0.7;stroke-miterlimit:3.25;" d="M 271.914062 254.476562 L 78.558594 254.476562 " transform="matrix(1,0,0,1,-66,-5)"/>
<path style="fill:none;stroke-width:1.795;stroke-linecap:butt;stroke-linejoin:miter;stroke:rgb(85.488892%,11.764526%,15.686035%);stroke-opacity:0.7;stroke-miterlimit:3.25;" d="M 412.648438 114.976562 L 78.351562 253.449219 " transform="matrix(1,0,0,1,-66,-5)"/>
<path style="fill:none;stroke-width:1.795;stroke-linecap:square;stroke-linejoin:miter;stroke:rgb(85.488892%,11.764526%,15.686035%);stroke-opacity:0.7;stroke-miterlimit:3.25;" d="M 314.734375 351.359375 Z M 314.734375 351.359375 " transform="matrix(1,0,0,1,-66,-5)"/>
<path style="fill:none;stroke-width:1.795;stroke-linecap:square;stroke-linejoin:miter;stroke:rgb(85.488892%,11.764526%,15.686035%);stroke-opacity:0.7;stroke-miterlimit:3.25;" d="M 313.28125 154.078125 Z M 313.28125 154.078125 " transform="matrix(1,0,0,1,-66,-5)"/>
<path style="fill:none;stroke-width:1.795;stroke-linecap:square;stroke-linejoin:miter;stroke:rgb(85.488892%,11.764526%,15.686035%);stroke-opacity:0.7;stroke-miterlimit:3.25;" d="M 176.265625 210.832031 Z M 176.265625 210.832031 " transform="matrix(1,0,0,1,-66,-5)"/>
<path style="fill:none;stroke-width:1.795;stroke-linecap:square;stroke-linejoin:miter;stroke:rgb(85.488892%,11.764526%,15.686035%);stroke-opacity:0.7;stroke-miterlimit:3.25;" d="M 176.265625 17.066406 Z M 176.265625 17.066406 " transform="matrix(1,0,0,1,-66,-5)"/>
<path style="fill:none;stroke-width:1.795;stroke-linecap:square;stroke-linejoin:miter;stroke:rgb(85.488892%,11.764526%,15.686035%);stroke-opacity:0.7;stroke-miterlimit:3.25;" d="M 273.574219 251.992188 Z M 273.574219 251.992188 " transform="matrix(1,0,0,1,-66,-5)"/>
<path style="fill:none;stroke-width:1.795;stroke-linecap:square;stroke-linejoin:miter;stroke:rgb(85.488892%,11.764526%,15.686035%);stroke-opacity:0.7;stroke-miterlimit:3.25;" d="M 412.441406 113.949219 Z M 412.441406 113.949219 " transform="matrix(1,0,0,1,-66,-5)"/>
<path style="fill:none;stroke-width:1.795;stroke-linecap:square;stroke-linejoin:miter;stroke:rgb(85.488892%,11.764526%,15.686035%);stroke-opacity:0.7;stroke-miterlimit:3.25;" d="M 77.769531 252.574219 Z M 77.769531 252.574219 " transform="matrix(1,0,0,1,-66,-5)"/>
<path style="fill:none;stroke-width:1.795;stroke-linecap:square;stroke-linejoin:miter;stroke:rgb(85.488892%,11.764526%,15.686035%);stroke-opacity:0.7;stroke-miterlimit:3.25;" d="M 315.761719 157.796875 Z M 315.761719 157.796875 " transform="matrix(1,0,0,1,-66,-5)"/>
<path style="fill:none;stroke-width:1.795;stroke-linecap:square;stroke-linejoin:miter;stroke:rgb(85.488892%,11.764526%,15.686035%);stroke-opacity:0.7;stroke-miterlimit:3.25;" d="M 177.136719 215.21875 Z M 177.136719 215.21875 " transform="matrix(1,0,0,1,-66,-5)"/>
<path style="fill:none;stroke-width:1.795;stroke-linecap:square;stroke-linejoin:miter;stroke:rgb(85.488892%,11.764526%,15.686035%);stroke-opacity:0.7;stroke-miterlimit:3.25;" d="M 176.265625 17.066406 Z M 176.265625 17.066406 " transform="matrix(1,0,0,1,-66,-5)"/>
<path style="fill:none;stroke-width:1.795;stroke-linecap:square;stroke-linejoin:miter;stroke:rgb(85.488892%,11.764526%,15.686035%);stroke-opacity:0.7;stroke-miterlimit:3.25;" d="M 275.632812 256.960938 Z M 275.632812 256.960938 " transform="matrix(1,0,0,1,-66,-5)"/>
<path style="fill:none;stroke-width:1.795;stroke-linecap:square;stroke-linejoin:miter;stroke:rgb(85.488892%,11.764526%,15.686035%);stroke-opacity:0.7;stroke-miterlimit:3.25;" d="M 414.101562 116.433594 Z M 414.101562 116.433594 " transform="matrix(1,0,0,1,-66,-5)"/>
<path style="fill:none;stroke-width:1.795;stroke-linecap:square;stroke-linejoin:miter;stroke:rgb(85.488892%,11.764526%,15.686035%);stroke-opacity:0.7;stroke-miterlimit:3.25;" d="M 78.351562 255.503906 Z M 78.351562 255.503906 " transform="matrix(1,0,0,1,-66,-5)"/>
<path style="fill:none;stroke-width:1.795;stroke-linecap:square;stroke-linejoin:miter;stroke:rgb(85.488892%,11.764526%,15.686035%);stroke-opacity:0.7;stroke-miterlimit:3.25;" d="M 177.71875 212.289062 Z M 177.71875 212.289062 " transform="matrix(1,0,0,1,-66,-5)"/>
<path style="fill:none;stroke-width:1.795;stroke-linecap:square;stroke-linejoin:miter;stroke:rgb(85.488892%,11.764526%,15.686035%);stroke-opacity:0.7;stroke-miterlimit:3.25;" d="M 177.136719 16.484375 Z M 177.136719 16.484375 " transform="matrix(1,0,0,1,-66,-5)"/>
<path style="fill:none;stroke-width:1.795;stroke-linecap:square;stroke-linejoin:miter;stroke:rgb(85.488892%,11.764526%,15.686035%);stroke-opacity:0.7;stroke-miterlimit:3.25;" d="M 275.632812 251.992188 Z M 275.632812 251.992188 " transform="matrix(1,0,0,1,-66,-5)"/>
<path style="fill:none;stroke-width:1.795;stroke-linecap:square;stroke-linejoin:miter;stroke:rgb(85.488892%,11.764526%,15.686035%);stroke-opacity:0.7;stroke-miterlimit:3.25;" d="M 412.648438 114.976562 Z M 412.648438 114.976562 " transform="matrix(1,0,0,1,-66,-5)"/>
<path style="fill:none;stroke-width:1.795;stroke-linecap:square;stroke-linejoin:miter;stroke:rgb(85.488892%,11.764526%,15.686035%);stroke-opacity:0.7;stroke-miterlimit:3.25;" d="M 78.351562 253.449219 Z M 78.351562 253.449219 " transform="matrix(1,0,0,1,-66,-5)"/>
<path style="fill:none;stroke-width:1.795;stroke-linecap:square;stroke-linejoin:miter;stroke:rgb(85.488892%,11.764526%,15.686035%);stroke-opacity:0.7;stroke-miterlimit:3.25;" d="M 175.238281 17.269531 Z M 175.238281 17.269531 " transform="matrix(1,0,0,1,-66,-5)"/>
<path style="fill:none;stroke-width:1.795;stroke-linecap:square;stroke-linejoin:miter;stroke:rgb(85.488892%,11.764526%,15.686035%);stroke-opacity:0.7;stroke-miterlimit:3.25;" d="M 272.121094 253.449219 Z M 272.121094 253.449219 " transform="matrix(1,0,0,1,-66,-5)"/>
<path style="fill:none;stroke-width:1.795;stroke-linecap:square;stroke-linejoin:miter;stroke:rgb(85.488892%,11.764526%,15.686035%);stroke-opacity:0.7;stroke-miterlimit:3.25;" d="M 412.648438 114.976562 Z M 412.648438 114.976562 " transform="matrix(1,0,0,1,-66,-5)"/>
<path style="fill:none;stroke-width:1.795;stroke-linecap:square;stroke-linejoin:miter;stroke:rgb(85.488892%,11.764526%,15.686035%);stroke-opacity:0.7;stroke-miterlimit:3.25;" d="M 78.351562 253.449219 Z M 78.351562 253.449219 " transform="matrix(1,0,0,1,-66,-5)"/>
<path style="fill:none;stroke-width:1.795;stroke-linecap:square;stroke-linejoin:miter;stroke:rgb(85.488892%,11.764526%,15.686035%);stroke-opacity:0.7;stroke-miterlimit:3.25;" d="M 273.574219 251.992188 Z M 273.574219 251.992188 " transform="matrix(1,0,0,1,-66,-5)"/>
<path style="fill:none;stroke-width:1.795;stroke-linecap:square;stroke-linejoin:miter;stroke:rgb(85.488892%,11.764526%,15.686035%);stroke-opacity:0.7;stroke-miterlimit:3.25;" d="M 412.648438 112.921875 Z M 412.648438 112.921875 " transform="matrix(1,0,0,1,-66,-5)"/>
<path style="fill:none;stroke-width:1.795;stroke-linecap:square;stroke-linejoin:miter;stroke:rgb(85.488892%,11.764526%,15.686035%);stroke-opacity:0.7;stroke-miterlimit:3.25;" d="M 76.898438 251.992188 Z M 76.898438 251.992188 " transform="matrix(1,0,0,1,-66,-5)"/>
<path style="fill:none;stroke-width:1.795;stroke-linecap:square;stroke-linejoin:miter;stroke:rgb(85.488892%,11.764526%,15.686035%);stroke-opacity:0.7;stroke-miterlimit:3.25;" d="M 413.230469 115.851562 Z M 413.230469 115.851562 " transform="matrix(1,0,0,1,-66,-5)"/>
<path style="fill:none;stroke-width:1.795;stroke-linecap:square;stroke-linejoin:miter;stroke:rgb(85.488892%,11.764526%,15.686035%);stroke-opacity:0.7;stroke-miterlimit:3.25;" d="M 78.558594 254.476562 Z M 78.558594 254.476562 " transform="matrix(1,0,0,1,-66,-5)"/>
<path style="fill:none;stroke-width:1.795;stroke-linecap:square;stroke-linejoin:miter;stroke:rgb(85.488892%,11.764526%,15.686035%);stroke-opacity:0.7;stroke-miterlimit:3.25;" d="M 78.351562 253.449219 Z M 78.351562 253.449219 " transform="matrix(1,0,0,1,-66,-5)"/>
<path style="fill-rule:evenodd;fill:rgb(85.488892%,11.764526%,15.686035%);fill-opacity:1;stroke-width:1;stroke-linecap:square;stroke-linejoin:miter;stroke:rgb(0%,0%,0%);stroke-opacity:0.7;stroke-miterlimit:3.25;" d="M 219.085938 113.949219 C 219.085938 113.234375 218.800781 112.550781 218.296875 112.046875 C 217.792969 111.542969 217.109375 111.261719 216.394531 111.261719 C 215.683594 111.261719 215 111.542969 214.496094 112.046875 C 213.992188 112.550781 213.707031 113.234375 213.707031 113.949219 C 213.707031 114.664062 213.992188 115.347656 214.496094 115.851562 C 215 116.355469 215.683594 116.636719 216.394531 116.636719 C 217.109375 116.636719 217.792969 116.355469 218.296875 115.851562 C 218.800781 115.347656 219.085938 114.664062 219.085938 113.949219 Z M 219.085938 113.949219 " transform="matrix(1,0,0,1,-66,-5)"/>
<path style="fill-rule:evenodd;fill:rgb(85.488892%,11.764526%,15.686035%);fill-opacity:1;stroke-width:1;stroke-linecap:square;stroke-linejoin:miter;stroke:rgb(0%,0%,0%);stroke-opacity:0.7;stroke-miterlimit:3.25;" d="M 318.453125 353.84375 C 318.453125 353.128906 318.167969 352.445312 317.664062 351.941406 C 317.160156 351.4375 316.476562 351.15625 315.761719 351.15625 C 315.050781 351.15625 314.367188 351.4375 313.863281 351.941406 C 313.359375 352.445312 313.074219 353.128906 313.074219 353.84375 C 313.074219 354.558594 313.359375 355.242188 313.863281 355.746094 C 314.367188 356.25 315.050781 356.53125 315.761719 356.53125 C 316.476562 356.53125 317.160156 356.25 317.664062 355.746094 C 318.167969 355.242188 318.453125 354.558594 318.453125 353.84375 Z M 318.453125 353.84375 " transform="matrix(1,0,0,1,-66,-5)"/>
<path style="fill-rule:evenodd;fill:rgb(85.488892%,11.764526%,15.686035%);fill-opacity:1;stroke-width:1;stroke-linecap:square;stroke-linejoin:miter;stroke:rgb(0%,0%,0%);stroke-opacity:0.7;stroke-miterlimit:3.25;" d="M 318.453125 155.109375 C 318.453125 154.394531 318.167969 153.710938 317.664062 153.207031 C 317.160156 152.703125 316.476562 152.417969 315.761719 152.417969 C 315.050781 152.417969 314.367188 152.703125 313.863281 153.207031 C 313.359375 153.710938 313.074219 154.394531 313.074219 155.109375 C 313.074219 155.820312 313.359375 156.503906 313.863281 157.011719 C 314.367188 157.515625 315.050781 157.796875 315.761719 157.796875 C 316.476562 157.796875 317.160156 157.515625 317.664062 157.011719 C 318.167969 156.503906 318.453125 155.820312 318.453125 155.109375 Z M 318.453125 155.109375 " transform="matrix(1,0,0,1,-66,-5)"/>
<path style="fill-rule:evenodd;fill:rgb(85.488892%,11.764526%,15.686035%);fill-opacity:1;stroke-width:1;stroke-linecap:square;stroke-linejoin:miter;stroke:rgb(0%,0%,0%);stroke-opacity:0.7;stroke-miterlimit:3.25;" d="M 177.925781 213.316406 C 177.925781 212.605469 177.640625 211.917969 177.136719 211.414062 C 176.632812 210.910156 175.949219 210.628906 175.238281 210.628906 C 174.523438 210.628906 173.839844 210.910156 173.335938 211.414062 C 172.832031 211.917969 172.546875 212.605469 172.546875 213.316406 C 172.546875 214.03125 172.832031 214.714844 173.335938 215.21875 C 173.839844 215.722656 174.523438 216.003906 175.238281 216.003906 C 175.949219 216.003906 176.632812 215.722656 177.136719 215.21875 C 177.640625 214.714844 177.925781 214.03125 177.925781 213.316406 Z M 177.925781 213.316406 " transform="matrix(1,0,0,1,-66,-5)"/>
<path style="fill-rule:evenodd;fill:rgb(85.488892%,11.764526%,15.686035%);fill-opacity:1;stroke-width:1;stroke-linecap:square;stroke-linejoin:miter;stroke:rgb(0%,0%,0%);stroke-opacity:0.7;stroke-miterlimit:3.25;" d="M 177.925781 14.582031 C 177.925781 13.867188 177.640625 13.183594 177.136719 12.679688 C 176.632812 12.175781 175.949219 11.894531 175.238281 11.894531 C 174.523438 11.894531 173.839844 12.175781 173.335938 12.679688 C 172.832031 13.183594 172.546875 13.867188 172.546875 14.582031 C 172.546875 15.292969 172.832031 15.980469 173.335938 16.484375 C 173.839844 16.988281 174.523438 17.269531 175.238281 17.269531 C 175.949219 17.269531 176.632812 16.988281 177.136719 16.484375 C 177.640625 15.980469 177.925781 15.292969 177.925781 14.582031 Z M 177.925781 14.582031 " transform="matrix(1,0,0,1,-66,-5)"/>
<path style="fill-rule:evenodd;fill:rgb(85.488892%,11.764526%,15.686035%);fill-opacity:1;stroke-width:1;stroke-linecap:square;stroke-linejoin:miter;stroke:rgb(0%,0%,0%);stroke-opacity:0.7;stroke-miterlimit:3.25;" d="M 277.292969 254.476562 C 277.292969 253.761719 277.007812 253.078125 276.503906 252.574219 C 276 252.070312 275.316406 251.789062 274.605469 251.789062 C 273.890625 251.789062 273.207031 252.070312 272.703125 252.574219 C 272.199219 253.078125 271.914062 253.761719 271.914062 254.476562 C 271.914062 255.1875 272.199219 255.875 272.703125 256.378906 C 273.207031 256.882812 273.890625 257.164062 274.605469 257.164062 C 275.316406 257.164062 276 256.882812 276.503906 256.378906 C 277.007812 255.875 277.292969 255.1875 277.292969 254.476562 Z M 277.292969 254.476562 " transform="matrix(1,0,0,1,-66,-5)"/>
<path style="fill-rule:evenodd;fill:rgb(85.488892%,11.764526%,15.686035%);fill-opacity:1;stroke-width:1;stroke-linecap:square;stroke-linejoin:miter;stroke:rgb(0%,0%,0%);stroke-opacity:0.7;stroke-miterlimit:3.25;" d="M 417.820312 113.949219 C 417.820312 113.234375 417.535156 112.550781 417.03125 112.046875 C 416.527344 111.542969 415.84375 111.261719 415.132812 111.261719 C 414.417969 111.261719 413.734375 111.542969 413.230469 112.046875 C 412.726562 112.550781 412.441406 113.234375 412.441406 113.949219 C 412.441406 114.664062 412.726562 115.347656 413.230469 115.851562 C 413.734375 116.355469 414.417969 116.636719 415.132812 116.636719 C 415.84375 116.636719 416.527344 116.355469 417.03125 115.851562 C 417.535156 115.347656 417.820312 114.664062 417.820312 113.949219 Z M 417.820312 113.949219 " transform="matrix(1,0,0,1,-66,-5)"/>
<path style="fill-rule:evenodd;fill:rgb(85.488892%,11.764526%,15.686035%);fill-opacity:1;stroke-width:1;stroke-linecap:square;stroke-linejoin:miter;stroke:rgb(0%,0%,0%);stroke-opacity:0.7;stroke-miterlimit:3.25;" d="M 78.558594 254.476562 C 78.558594 253.761719 78.273438 253.078125 77.769531 252.574219 C 77.265625 252.070312 76.582031 251.789062 75.867188 251.789062 C 75.15625 251.789062 74.472656 252.070312 73.96875 252.574219 C 73.464844 253.078125 73.179688 253.761719 73.179688 254.476562 C 73.179688 255.1875 73.464844 255.875 73.96875 256.378906 C 74.472656 256.882812 75.15625 257.164062 75.867188 257.164062 C 76.582031 257.164062 77.265625 256.882812 77.769531 256.378906 C 78.273438 255.875 78.558594 255.1875 78.558594 254.476562 Z M 78.558594 254.476562 " transform="matrix(1,0,0,1,-66,-5)"/>
<path style="fill:none;stroke-width:1.795;stroke-linecap:butt;stroke-linejoin:miter;stroke:rgb(64.704895%,43.136597%,99.998474%);stroke-opacity:0.7;stroke-miterlimit:3.25;" d="M 315.761719 210.628906 L 315.761719 17.269531 " transform="matrix(1,0,0,1,-66,-5)"/>
<path style="fill:none;stroke-width:1.795;stroke-linecap:butt;stroke-linejoin:miter;stroke:rgb(64.704895%,43.136597%,99.998474%);stroke-opacity:0.7;stroke-miterlimit:3.25;" d="M 318.246094 214.347656 L 412.648438 253.449219 " transform="matrix(1,0,0,1,-66,-5)"/>
<path style="fill:none;stroke-width:1.795;stroke-linecap:butt;stroke-linejoin:miter;stroke:rgb(64.704895%,43.136597%,99.998474%);stroke-opacity:0.7;stroke-miterlimit:3.25;" d="M 314.734375 210.832031 L 275.632812 116.433594 " transform="matrix(1,0,0,1,-66,-5)"/>
<path style="fill:none;stroke-width:1.795;stroke-linecap:butt;stroke-linejoin:miter;stroke:rgb(64.704895%,43.136597%,99.998474%);stroke-opacity:0.7;stroke-miterlimit:3.25;" d="M 313.28125 214.347656 L 218.878906 253.449219 " transform="matrix(1,0,0,1,-66,-5)"/>
<path style="fill:none;stroke-width:1.795;stroke-linecap:butt;stroke-linejoin:miter;stroke:rgb(64.704895%,43.136597%,99.998474%);stroke-opacity:0.7;stroke-miterlimit:3.25;" d="M 313.28125 212.289062 L 78.351562 114.976562 " transform="matrix(1,0,0,1,-66,-5)"/>
<path style="fill:none;stroke-width:1.795;stroke-linecap:butt;stroke-linejoin:miter;stroke:rgb(64.704895%,43.136597%,99.998474%);stroke-opacity:0.7;stroke-miterlimit:3.25;" d="M 313.863281 215.21875 L 177.136719 351.941406 " transform="matrix(1,0,0,1,-66,-5)"/>
<path style="fill:none;stroke-width:1.795;stroke-linecap:butt;stroke-linejoin:miter;stroke:rgb(64.704895%,43.136597%,99.998474%);stroke-opacity:0.7;stroke-miterlimit:3.25;" d="M 313.28125 212.289062 L 177.71875 156.136719 " transform="matrix(1,0,0,1,-66,-5)"/>
<path style="fill:none;stroke-width:1.795;stroke-linecap:butt;stroke-linejoin:miter;stroke:rgb(64.704895%,43.136597%,99.998474%);stroke-opacity:0.7;stroke-miterlimit:3.25;" d="M 316.792969 17.066406 L 414.101562 251.992188 " transform="matrix(1,0,0,1,-66,-5)"/>
<path style="fill:none;stroke-width:1.795;stroke-linecap:butt;stroke-linejoin:miter;stroke:rgb(64.704895%,43.136597%,99.998474%);stroke-opacity:0.7;stroke-miterlimit:3.25;" d="M 314.734375 17.066406 L 275.632812 111.464844 " transform="matrix(1,0,0,1,-66,-5)"/>
<path style="fill:none;stroke-width:1.795;stroke-linecap:butt;stroke-linejoin:miter;stroke:rgb(64.704895%,43.136597%,99.998474%);stroke-opacity:0.7;stroke-miterlimit:3.25;" d="M 314.734375 17.066406 L 217.425781 251.992188 " transform="matrix(1,0,0,1,-66,-5)"/>
<path style="fill:none;stroke-width:1.795;stroke-linecap:butt;stroke-linejoin:miter;stroke:rgb(64.704895%,43.136597%,99.998474%);stroke-opacity:0.7;stroke-miterlimit:3.25;" d="M 313.28125 15.609375 L 78.351562 112.921875 " transform="matrix(1,0,0,1,-66,-5)"/>
<path style="fill:none;stroke-width:1.795;stroke-linecap:butt;stroke-linejoin:miter;stroke:rgb(64.704895%,43.136597%,99.998474%);stroke-opacity:0.7;stroke-miterlimit:3.25;" d="M 314.734375 17.066406 L 176.265625 351.359375 " transform="matrix(1,0,0,1,-66,-5)"/>
<path style="fill:none;stroke-width:1.795;stroke-linecap:butt;stroke-linejoin:miter;stroke:rgb(64.704895%,43.136597%,99.998474%);stroke-opacity:0.7;stroke-miterlimit:3.25;" d="M 313.863281 16.484375 L 177.136719 153.207031 " transform="matrix(1,0,0,1,-66,-5)"/>
<path style="fill:none;stroke-width:1.795;stroke-linecap:butt;stroke-linejoin:miter;stroke:rgb(64.704895%,43.136597%,99.998474%);stroke-opacity:0.7;stroke-miterlimit:3.25;" d="M 413.230469 252.574219 L 276.503906 115.851562 " transform="matrix(1,0,0,1,-66,-5)"/>
<path style="fill:none;stroke-width:1.795;stroke-linecap:butt;stroke-linejoin:miter;stroke:rgb(64.704895%,43.136597%,99.998474%);stroke-opacity:0.7;stroke-miterlimit:3.25;" d="M 412.441406 254.476562 L 219.085938 254.476562 " transform="matrix(1,0,0,1,-66,-5)"/>
<path style="fill:none;stroke-width:1.795;stroke-linecap:butt;stroke-linejoin:miter;stroke:rgb(64.704895%,43.136597%,99.998474%);stroke-opacity:0.7;stroke-miterlimit:3.25;" d="M 412.648438 253.449219 L 78.351562 114.976562 " transform="matrix(1,0,0,1,-66,-5)"/>
<path style="fill:none;stroke-width:1.795;stroke-linecap:butt;stroke-linejoin:miter;stroke:rgb(64.704895%,43.136597%,99.998474%);stroke-opacity:0.7;stroke-miterlimit:3.25;" d="M 412.648438 255.503906 L 177.71875 352.816406 " transform="matrix(1,0,0,1,-66,-5)"/>
<path style="fill:none;stroke-width:1.795;stroke-linecap:butt;stroke-linejoin:miter;stroke:rgb(64.704895%,43.136597%,99.998474%);stroke-opacity:0.7;stroke-miterlimit:3.25;" d="M 412.648438 253.449219 L 177.71875 156.136719 " transform="matrix(1,0,0,1,-66,-5)"/>
<path style="fill:none;stroke-width:1.795;stroke-linecap:butt;stroke-linejoin:miter;stroke:rgb(64.704895%,43.136597%,99.998474%);stroke-opacity:0.7;stroke-miterlimit:3.25;" d="M 273.574219 116.433594 L 217.425781 251.992188 " transform="matrix(1,0,0,1,-66,-5)"/>
<path style="fill:none;stroke-width:1.795;stroke-linecap:butt;stroke-linejoin:miter;stroke:rgb(64.704895%,43.136597%,99.998474%);stroke-opacity:0.7;stroke-miterlimit:3.25;" d="M 271.914062 113.949219 L 78.558594 113.949219 " transform="matrix(1,0,0,1,-66,-5)"/>
<path style="fill:none;stroke-width:1.795;stroke-linecap:butt;stroke-linejoin:miter;stroke:rgb(64.704895%,43.136597%,99.998474%);stroke-opacity:0.7;stroke-miterlimit:3.25;" d="M 273.574219 116.433594 L 176.265625 351.359375 " transform="matrix(1,0,0,1,-66,-5)"/>
<path style="fill:none;stroke-width:1.795;stroke-linecap:butt;stroke-linejoin:miter;stroke:rgb(64.704895%,43.136597%,99.998474%);stroke-opacity:0.7;stroke-miterlimit:3.25;" d="M 272.121094 114.976562 L 177.71875 154.078125 " transform="matrix(1,0,0,1,-66,-5)"/>
<path style="fill:none;stroke-width:1.795;stroke-linecap:butt;stroke-linejoin:miter;stroke:rgb(64.704895%,43.136597%,99.998474%);stroke-opacity:0.7;stroke-miterlimit:3.25;" d="M 214.496094 252.574219 L 77.769531 115.851562 " transform="matrix(1,0,0,1,-66,-5)"/>
<path style="fill:none;stroke-width:1.795;stroke-linecap:butt;stroke-linejoin:miter;stroke:rgb(64.704895%,43.136597%,99.998474%);stroke-opacity:0.7;stroke-miterlimit:3.25;" d="M 215.367188 256.960938 L 176.265625 351.359375 " transform="matrix(1,0,0,1,-66,-5)"/>
<path style="fill:none;stroke-width:1.795;stroke-linecap:butt;stroke-linejoin:miter;stroke:rgb(64.704895%,43.136597%,99.998474%);stroke-opacity:0.7;stroke-miterlimit:3.25;" d="M 215.367188 251.992188 L 176.265625 157.59375 " transform="matrix(1,0,0,1,-66,-5)"/>
<path style="fill:none;stroke-width:1.795;stroke-linecap:butt;stroke-linejoin:miter;stroke:rgb(64.704895%,43.136597%,99.998474%);stroke-opacity:0.7;stroke-miterlimit:3.25;" d="M 76.898438 116.433594 L 174.207031 351.359375 " transform="matrix(1,0,0,1,-66,-5)"/>
<path style="fill:none;stroke-width:1.795;stroke-linecap:butt;stroke-linejoin:miter;stroke:rgb(64.704895%,43.136597%,99.998474%);stroke-opacity:0.7;stroke-miterlimit:3.25;" d="M 78.351562 114.976562 L 172.753906 154.078125 " transform="matrix(1,0,0,1,-66,-5)"/>
<path style="fill:none;stroke-width:1.795;stroke-linecap:butt;stroke-linejoin:miter;stroke:rgb(64.704895%,43.136597%,99.998474%);stroke-opacity:0.7;stroke-miterlimit:3.25;" d="M 175.238281 351.15625 L 175.238281 157.796875 " transform="matrix(1,0,0,1,-66,-5)"/>
<path style="fill:none;stroke-width:1.795;stroke-linecap:square;stroke-linejoin:miter;stroke:rgb(64.704895%,43.136597%,99.998474%);stroke-opacity:0.7;stroke-miterlimit:3.25;" d="M 315.761719 17.269531 Z M 315.761719 17.269531 " transform="matrix(1,0,0,1,-66,-5)"/>
<path style="fill:none;stroke-width:1.795;stroke-linecap:square;stroke-linejoin:miter;stroke:rgb(64.704895%,43.136597%,99.998474%);stroke-opacity:0.7;stroke-miterlimit:3.25;" d="M 412.648438 253.449219 Z M 412.648438 253.449219 " transform="matrix(1,0,0,1,-66,-5)"/>
<path style="fill:none;stroke-width:1.795;stroke-linecap:square;stroke-linejoin:miter;stroke:rgb(64.704895%,43.136597%,99.998474%);stroke-opacity:0.7;stroke-miterlimit:3.25;" d="M 275.632812 116.433594 Z M 275.632812 116.433594 " transform="matrix(1,0,0,1,-66,-5)"/>
<path style="fill:none;stroke-width:1.795;stroke-linecap:square;stroke-linejoin:miter;stroke:rgb(64.704895%,43.136597%,99.998474%);stroke-opacity:0.7;stroke-miterlimit:3.25;" d="M 218.878906 253.449219 Z M 218.878906 253.449219 " transform="matrix(1,0,0,1,-66,-5)"/>
<path style="fill:none;stroke-width:1.795;stroke-linecap:square;stroke-linejoin:miter;stroke:rgb(64.704895%,43.136597%,99.998474%);stroke-opacity:0.7;stroke-miterlimit:3.25;" d="M 78.351562 114.976562 Z M 78.351562 114.976562 " transform="matrix(1,0,0,1,-66,-5)"/>
<path style="fill:none;stroke-width:1.795;stroke-linecap:square;stroke-linejoin:miter;stroke:rgb(64.704895%,43.136597%,99.998474%);stroke-opacity:0.7;stroke-miterlimit:3.25;" d="M 177.136719 351.941406 Z M 177.136719 351.941406 " transform="matrix(1,0,0,1,-66,-5)"/>
<path style="fill:none;stroke-width:1.795;stroke-linecap:square;stroke-linejoin:miter;stroke:rgb(64.704895%,43.136597%,99.998474%);stroke-opacity:0.7;stroke-miterlimit:3.25;" d="M 177.71875 156.136719 Z M 177.71875 156.136719 " transform="matrix(1,0,0,1,-66,-5)"/>
<path style="fill:none;stroke-width:1.795;stroke-linecap:square;stroke-linejoin:miter;stroke:rgb(64.704895%,43.136597%,99.998474%);stroke-opacity:0.7;stroke-miterlimit:3.25;" d="M 414.101562 251.992188 Z M 414.101562 251.992188 " transform="matrix(1,0,0,1,-66,-5)"/>
<path style="fill:none;stroke-width:1.795;stroke-linecap:square;stroke-linejoin:miter;stroke:rgb(64.704895%,43.136597%,99.998474%);stroke-opacity:0.7;stroke-miterlimit:3.25;" d="M 275.632812 111.464844 Z M 275.632812 111.464844 " transform="matrix(1,0,0,1,-66,-5)"/>
<path style="fill:none;stroke-width:1.795;stroke-linecap:square;stroke-linejoin:miter;stroke:rgb(64.704895%,43.136597%,99.998474%);stroke-opacity:0.7;stroke-miterlimit:3.25;" d="M 217.425781 251.992188 Z M 217.425781 251.992188 " transform="matrix(1,0,0,1,-66,-5)"/>
<path style="fill:none;stroke-width:1.795;stroke-linecap:square;stroke-linejoin:miter;stroke:rgb(64.704895%,43.136597%,99.998474%);stroke-opacity:0.7;stroke-miterlimit:3.25;" d="M 78.351562 112.921875 Z M 78.351562 112.921875 " transform="matrix(1,0,0,1,-66,-5)"/>
<path style="fill:none;stroke-width:1.795;stroke-linecap:square;stroke-linejoin:miter;stroke:rgb(64.704895%,43.136597%,99.998474%);stroke-opacity:0.7;stroke-miterlimit:3.25;" d="M 176.265625 351.359375 Z M 176.265625 351.359375 " transform="matrix(1,0,0,1,-66,-5)"/>
<path style="fill:none;stroke-width:1.795;stroke-linecap:square;stroke-linejoin:miter;stroke:rgb(64.704895%,43.136597%,99.998474%);stroke-opacity:0.7;stroke-miterlimit:3.25;" d="M 177.136719 153.207031 Z M 177.136719 153.207031 " transform="matrix(1,0,0,1,-66,-5)"/>
<path style="fill:none;stroke-width:1.795;stroke-linecap:square;stroke-linejoin:miter;stroke:rgb(64.704895%,43.136597%,99.998474%);stroke-opacity:0.7;stroke-miterlimit:3.25;" d="M 276.503906 115.851562 Z M 276.503906 115.851562 " transform="matrix(1,0,0,1,-66,-5)"/>
<path style="fill:none;stroke-width:1.795;stroke-linecap:square;stroke-linejoin:miter;stroke:rgb(64.704895%,43.136597%,99.998474%);stroke-opacity:0.7;stroke-miterlimit:3.25;" d="M 219.085938 254.476562 Z M 219.085938 254.476562 " transform="matrix(1,0,0,1,-66,-5)"/>
<path style="fill:none;stroke-width:1.795;stroke-linecap:square;stroke-linejoin:miter;stroke:rgb(64.704895%,43.136597%,99.998474%);stroke-opacity:0.7;stroke-miterlimit:3.25;" d="M 78.351562 114.976562 Z M 78.351562 114.976562 " transform="matrix(1,0,0,1,-66,-5)"/>
<path style="fill:none;stroke-width:1.795;stroke-linecap:square;stroke-linejoin:miter;stroke:rgb(64.704895%,43.136597%,99.998474%);stroke-opacity:0.7;stroke-miterlimit:3.25;" d="M 177.71875 352.816406 Z M 177.71875 352.816406 " transform="matrix(1,0,0,1,-66,-5)"/>
<path style="fill:none;stroke-width:1.795;stroke-linecap:square;stroke-linejoin:miter;stroke:rgb(64.704895%,43.136597%,99.998474%);stroke-opacity:0.7;stroke-miterlimit:3.25;" d="M 177.71875 156.136719 Z M 177.71875 156.136719 " transform="matrix(1,0,0,1,-66,-5)"/>
<path style="fill:none;stroke-width:1.795;stroke-linecap:square;stroke-linejoin:miter;stroke:rgb(64.704895%,43.136597%,99.998474%);stroke-opacity:0.7;stroke-miterlimit:3.25;" d="M 217.425781 251.992188 Z M 217.425781 251.992188 " transform="matrix(1,0,0,1,-66,-5)"/>
<path style="fill:none;stroke-width:1.795;stroke-linecap:square;stroke-linejoin:miter;stroke:rgb(64.704895%,43.136597%,99.998474%);stroke-opacity:0.7;stroke-miterlimit:3.25;" d="M 78.558594 113.949219 Z M 78.558594 113.949219 " transform="matrix(1,0,0,1,-66,-5)"/>
<path style="fill:none;stroke-width:1.795;stroke-linecap:square;stroke-linejoin:miter;stroke:rgb(64.704895%,43.136597%,99.998474%);stroke-opacity:0.7;stroke-miterlimit:3.25;" d="M 176.265625 351.359375 Z M 176.265625 351.359375 " transform="matrix(1,0,0,1,-66,-5)"/>
<path style="fill:none;stroke-width:1.795;stroke-linecap:square;stroke-linejoin:miter;stroke:rgb(64.704895%,43.136597%,99.998474%);stroke-opacity:0.7;stroke-miterlimit:3.25;" d="M 177.71875 154.078125 Z M 177.71875 154.078125 " transform="matrix(1,0,0,1,-66,-5)"/>
<path style="fill:none;stroke-width:1.795;stroke-linecap:square;stroke-linejoin:miter;stroke:rgb(64.704895%,43.136597%,99.998474%);stroke-opacity:0.7;stroke-miterlimit:3.25;" d="M 77.769531 115.851562 Z M 77.769531 115.851562 " transform="matrix(1,0,0,1,-66,-5)"/>
<path style="fill:none;stroke-width:1.795;stroke-linecap:square;stroke-linejoin:miter;stroke:rgb(64.704895%,43.136597%,99.998474%);stroke-opacity:0.7;stroke-miterlimit:3.25;" d="M 176.265625 351.359375 Z M 176.265625 351.359375 " transform="matrix(1,0,0,1,-66,-5)"/>
<path style="fill:none;stroke-width:1.795;stroke-linecap:square;stroke-linejoin:miter;stroke:rgb(64.704895%,43.136597%,99.998474%);stroke-opacity:0.7;stroke-miterlimit:3.25;" d="M 176.265625 157.59375 Z M 176.265625 157.59375 " transform="matrix(1,0,0,1,-66,-5)"/>
<path style="fill:none;stroke-width:1.795;stroke-linecap:square;stroke-linejoin:miter;stroke:rgb(64.704895%,43.136597%,99.998474%);stroke-opacity:0.7;stroke-miterlimit:3.25;" d="M 174.207031 351.359375 Z M 174.207031 351.359375 " transform="matrix(1,0,0,1,-66,-5)"/>
<path style="fill:none;stroke-width:1.795;stroke-linecap:square;stroke-linejoin:miter;stroke:rgb(64.704895%,43.136597%,99.998474%);stroke-opacity:0.7;stroke-miterlimit:3.25;" d="M 172.753906 154.078125 Z M 172.753906 154.078125 " transform="matrix(1,0,0,1,-66,-5)"/>
<path style="fill:none;stroke-width:1.795;stroke-linecap:square;stroke-linejoin:miter;stroke:rgb(64.704895%,43.136597%,99.998474%);stroke-opacity:0.7;stroke-miterlimit:3.25;" d="M 175.238281 157.796875 Z M 175.238281 157.796875 " transform="matrix(1,0,0,1,-66,-5)"/>
<path style="fill-rule:evenodd;fill:rgb(64.704895%,43.136597%,99.998474%);fill-opacity:1;stroke-width:1;stroke-linecap:square;stroke-linejoin:miter;stroke:rgb(0%,0%,0%);stroke-opacity:0.7;stroke-miterlimit:3.25;" d="M 318.453125 213.316406 C 318.453125 212.605469 318.167969 211.917969 317.664062 211.414062 C 317.160156 210.910156 316.476562 210.628906 315.761719 210.628906 C 315.050781 210.628906 314.367188 210.910156 313.863281 211.414062 C 313.359375 211.917969 313.074219 212.605469 313.074219 213.316406 C 313.074219 214.03125 313.359375 214.714844 313.863281 215.21875 C 314.367188 215.722656 315.050781 216.003906 315.761719 216.003906 C 316.476562 216.003906 317.160156 215.722656 317.664062 215.21875 C 318.167969 214.714844 318.453125 214.03125 318.453125 213.316406 Z M 318.453125 213.316406 " transform="matrix(1,0,0,1,-66,-5)"/>
<path style="fill-rule:evenodd;fill:rgb(64.704895%,43.136597%,99.998474%);fill-opacity:1;stroke-width:1;stroke-linecap:square;stroke-linejoin:miter;stroke:rgb(0%,0%,0%);stroke-opacity:0.7;stroke-miterlimit:3.25;" d="M 318.453125 14.582031 C 318.453125 13.867188 318.167969 13.183594 317.664062 12.679688 C 317.160156 12.175781 316.476562 11.894531 315.761719 11.894531 C 315.050781 11.894531 314.367188 12.175781 313.863281 12.679688 C 313.359375 13.183594 313.074219 13.867188 313.074219 14.582031 C 313.074219 15.292969 313.359375 15.980469 313.863281 16.484375 C 314.367188 16.988281 315.050781 17.269531 315.761719 17.269531 C 316.476562 17.269531 317.160156 16.988281 317.664062 16.484375 C 318.167969 15.980469 318.453125 15.292969 318.453125 14.582031 Z M 318.453125 14.582031 " transform="matrix(1,0,0,1,-66,-5)"/>
<path style="fill-rule:evenodd;fill:rgb(64.704895%,43.136597%,99.998474%);fill-opacity:1;stroke-width:1;stroke-linecap:square;stroke-linejoin:miter;stroke:rgb(0%,0%,0%);stroke-opacity:0.7;stroke-miterlimit:3.25;" d="M 417.820312 254.476562 C 417.820312 253.761719 417.535156 253.078125 417.03125 252.574219 C 416.527344 252.070312 415.84375 251.789062 415.132812 251.789062 C 414.417969 251.789062 413.734375 252.070312 413.230469 252.574219 C 412.726562 253.078125 412.441406 253.761719 412.441406 254.476562 C 412.441406 255.1875 412.726562 255.875 413.230469 256.378906 C 413.734375 256.882812 414.417969 257.164062 415.132812 257.164062 C 415.84375 257.164062 416.527344 256.882812 417.03125 256.378906 C 417.535156 255.875 417.820312 255.1875 417.820312 254.476562 Z M 417.820312 254.476562 " transform="matrix(1,0,0,1,-66,-5)"/>
<path style="fill-rule:evenodd;fill:rgb(64.704895%,43.136597%,99.998474%);fill-opacity:1;stroke-width:1;stroke-linecap:square;stroke-linejoin:miter;stroke:rgb(0%,0%,0%);stroke-opacity:0.7;stroke-miterlimit:3.25;" d="M 277.292969 113.949219 C 277.292969 113.234375 277.007812 112.550781 276.503906 112.046875 C 276 111.542969 275.316406 111.261719 274.605469 111.261719 C 273.890625 111.261719 273.207031 111.542969 272.703125 112.046875 C 272.199219 112.550781 271.914062 113.234375 271.914062 113.949219 C 271.914062 114.664062 272.199219 115.347656 272.703125 115.851562 C 273.207031 116.355469 273.890625 116.636719 274.605469 116.636719 C 275.316406 116.636719 276 116.355469 276.503906 115.851562 C 277.007812 115.347656 277.292969 114.664062 277.292969 113.949219 Z M 277.292969 113.949219 " transform="matrix(1,0,0,1,-66,-5)"/>
<path style="fill-rule:evenodd;fill:rgb(64.704895%,43.136597%,99.998474%);fill-opacity:1;stroke-width:1;stroke-linecap:square;stroke-linejoin:miter;stroke:rgb(0%,0%,0%);stroke-opacity:0.7;stroke-miterlimit:3.25;" d="M 219.085938 254.476562 C 219.085938 253.761719 218.800781 253.078125 218.296875 252.574219 C 217.792969 252.070312 217.109375 251.789062 216.394531 251.789062 C 215.683594 251.789062 215 252.070312 214.496094 252.574219 C 213.992188 253.078125 213.707031 253.761719 213.707031 254.476562 C 213.707031 255.1875 213.992188 255.875 214.496094 256.378906 C 215 256.882812 215.683594 257.164062 216.394531 257.164062 C 217.109375 257.164062 217.792969 256.882812 218.296875 256.378906 C 218.800781 255.875 219.085938 255.1875 219.085938 254.476562 Z M 219.085938 254.476562 " transform="matrix(1,0,0,1,-66,-5)"/>
<path style="fill-rule:evenodd;fill:rgb(64.704895%,43.136597%,99.998474%);fill-opacity:1;stroke-width:1;stroke-linecap:square;stroke-linejoin:miter;stroke:rgb(0%,0%,0%);stroke-opacity:0.7;stroke-miterlimit:3.25;" d="M 78.558594 113.949219 C 78.558594 113.234375 78.273438 112.550781 77.769531 112.046875 C 77.265625 111.542969 76.582031 111.261719 75.867188 111.261719 C 75.15625 111.261719 74.472656 111.542969 73.96875 112.046875 C 73.464844 112.550781 73.179688 113.234375 73.179688 113.949219 C 73.179688 114.664062 73.464844 115.347656 73.96875 115.851562 C 74.472656 116.355469 75.15625 116.636719 75.867188 116.636719 C 76.582031 116.636719 77.265625 116.355469 77.769531 115.851562 C 78.273438 115.347656 78.558594 114.664062 78.558594 113.949219 Z M 78.558594 113.949219 " transform="matrix(1,0,0,1,-66,-5)"/>
<path style="fill-rule:evenodd;fill:rgb(64.704895%,43.136597%,99.998474%);fill-opacity:1;stroke-width:1;stroke-linecap:square;stroke-linejoin:miter;stroke:rgb(0%,0%,0%);stroke-opacity:0.7;stroke-miterlimit:3.25;" d="M 177.925781 353.84375 C 177.925781 353.128906 177.640625 352.445312 177.136719 351.941406 C 176.632812 351.4375 175.949219 351.15625 175.238281 351.15625 C 174.523438 351.15625 173.839844 351.4375 173.335938 351.941406 C 172.832031 352.445312 172.546875 353.128906 172.546875 353.84375 C 172.546875 354.558594 172.832031 355.242188 173.335938 355.746094 C 173.839844 356.25 174.523438 356.53125 175.238281 356.53125 C 175.949219 356.53125 176.632812 356.25 177.136719 355.746094 C 177.640625 355.242188 177.925781 354.558594 177.925781 353.84375 Z M 177.925781 353.84375 " transform="matrix(1,0,0,1,-66,-5)"/>
<path style="fill-rule:evenodd;fill:rgb(64.704895%,43.136597%,99.998474%);fill-opacity:1;stroke-width:1;stroke-linecap:square;stroke-linejoin:miter;stroke:rgb(0%,0%,0%);stroke-opacity:0.7;stroke-miterlimit:3.25;" d="M 177.925781 155.109375 C 177.925781 154.394531 177.640625 153.710938 177.136719 153.207031 C 176.632812 152.703125 175.949219 152.417969 175.238281 152.417969 C 174.523438 152.417969 173.839844 152.703125 173.335938 153.207031 C 172.832031 153.710938 172.546875 154.394531 172.546875 155.109375 C 172.546875 155.820312 172.832031 156.503906 173.335938 157.011719 C 173.839844 157.515625 174.523438 157.796875 175.238281 157.796875 C 175.949219 157.796875 176.632812 157.515625 177.136719 157.011719 C 177.640625 156.503906 177.925781 155.820312 177.925781 155.109375 Z M 177.925781 155.109375 " transform="matrix(1,0,0,1,-66,-5)"/>
</g>
</svg>
