<?xml version="1.0" encoding="UTF-8"?>
<svg xmlns="http://www.w3.org/2000/svg" xmlns:xlink="http://www.w3.org/1999/xlink" width="360pt" height="359pt" viewBox="0 0 360 359" version="1.1">
<g id="surface17">
<path style="fill:none;stroke-width:1.795;stroke-linecap:butt;stroke-linejoin:miter;stroke:rgb(0%,36.470032%,36.470032%);stroke-opacity:0.7;stroke-miterlimit:3.25;" d="M 406.078125 225.554688 L 206.460938 110.304688 " transform="matrix(1,0,0,1,-66,-5)"/>
<path style="fill:none;stroke-width:1.795;stroke-linecap:butt;stroke-linejoin:miter;stroke:rgb(0%,36.470032%,36.470032%);stroke-opacity:0.7;stroke-miterlimit:3.25;" d="M 405.453125 227.070312 L 85.546875 141.355469 " transform="matrix(1,0,0,1,-66,-5)"/>
<path style="fill:none;stroke-width:1.795;stroke-linecap:butt;stroke-linejoin:miter;stroke:rgb(0%,36.470032%,36.470032%);stroke-opacity:0.7;stroke-miterlimit:3.25;" d="M 405.453125 230.328125 L 296.0625 259.636719 " transform="matrix(1,0,0,1,-66,-5)"/>
<path style="fill:none;stroke-width:1.795;stroke-linecap:butt;stroke-linejoin:miter;stroke:rgb(0%,36.470032%,36.470032%);stroke-opacity:0.7;stroke-miterlimit:3.25;" d="M 408.382812 223.25 L 293.132812 23.632812 " transform="matrix(1,0,0,1,-66,-5)"/>
<path style="fill:none;stroke-width:1.795;stroke-linecap:butt;stroke-linejoin:miter;stroke:rgb(0%,36.470032%,36.470032%);stroke-opacity:0.7;stroke-miterlimit:3.25;" d="M 407.078125 224.25 L 327.003906 144.175781 " transform="matrix(1,0,0,1,-66,-5)"/>
<path style="fill:none;stroke-width:1.795;stroke-linecap:butt;stroke-linejoin:miter;stroke:rgb(0%,36.470032%,36.470032%);stroke-opacity:0.7;stroke-miterlimit:3.25;" d="M 406.078125 231.847656 L 206.460938 347.09375 " transform="matrix(1,0,0,1,-66,-5)"/>
<path style="fill:none;stroke-width:1.795;stroke-linecap:butt;stroke-linejoin:miter;stroke:rgb(0%,36.470032%,36.470032%);stroke-opacity:0.7;stroke-miterlimit:3.25;" d="M 405.238281 228.699219 L 174.738281 228.699219 " transform="matrix(1,0,0,1,-66,-5)"/>
<path style="fill:none;stroke-width:1.795;stroke-linecap:butt;stroke-linejoin:miter;stroke:rgb(0%,36.470032%,36.470032%);stroke-opacity:0.7;stroke-miterlimit:3.25;" d="M 194.9375 108.785156 L 85.546875 138.097656 " transform="matrix(1,0,0,1,-66,-5)"/>
<path style="fill:none;stroke-width:1.795;stroke-linecap:butt;stroke-linejoin:miter;stroke:rgb(0%,36.470032%,36.470032%);stroke-opacity:0.7;stroke-miterlimit:3.25;" d="M 204.160156 112.605469 L 286.839844 255.820312 " transform="matrix(1,0,0,1,-66,-5)"/>
<path style="fill:none;stroke-width:1.795;stroke-linecap:butt;stroke-linejoin:miter;stroke:rgb(0%,36.470032%,36.470032%);stroke-opacity:0.7;stroke-miterlimit:3.25;" d="M 205.460938 102.710938 L 285.539062 22.632812 " transform="matrix(1,0,0,1,-66,-5)"/>
<path style="fill:none;stroke-width:1.795;stroke-linecap:butt;stroke-linejoin:miter;stroke:rgb(0%,36.470032%,36.470032%);stroke-opacity:0.7;stroke-miterlimit:3.25;" d="M 207.089844 108.785156 L 316.476562 138.097656 " transform="matrix(1,0,0,1,-66,-5)"/>
<path style="fill:none;stroke-width:1.795;stroke-linecap:butt;stroke-linejoin:miter;stroke:rgb(0%,36.470032%,36.470032%);stroke-opacity:0.7;stroke-miterlimit:3.25;" d="M 201.011719 113.449219 L 201.011719 343.949219 " transform="matrix(1,0,0,1,-66,-5)"/>
<path style="fill:none;stroke-width:1.795;stroke-linecap:butt;stroke-linejoin:miter;stroke:rgb(0%,36.470032%,36.470032%);stroke-opacity:0.7;stroke-miterlimit:3.25;" d="M 199.382812 113.234375 L 170.074219 222.621094 " transform="matrix(1,0,0,1,-66,-5)"/>
<path style="fill:none;stroke-width:1.795;stroke-linecap:butt;stroke-linejoin:miter;stroke:rgb(0%,36.470032%,36.470032%);stroke-opacity:0.7;stroke-miterlimit:3.25;" d="M 84.921875 142.871094 L 284.539062 258.121094 " transform="matrix(1,0,0,1,-66,-5)"/>
<path style="fill:none;stroke-width:1.795;stroke-linecap:butt;stroke-linejoin:miter;stroke:rgb(0%,36.470032%,36.470032%);stroke-opacity:0.7;stroke-miterlimit:3.25;" d="M 84.921875 136.578125 L 284.539062 21.328125 " transform="matrix(1,0,0,1,-66,-5)"/>
<path style="fill:none;stroke-width:1.795;stroke-linecap:butt;stroke-linejoin:miter;stroke:rgb(0%,36.470032%,36.470032%);stroke-opacity:0.7;stroke-miterlimit:3.25;" d="M 85.761719 139.726562 L 316.261719 139.726562 " transform="matrix(1,0,0,1,-66,-5)"/>
<path style="fill:none;stroke-width:1.795;stroke-linecap:butt;stroke-linejoin:miter;stroke:rgb(0%,36.470032%,36.470032%);stroke-opacity:0.7;stroke-miterlimit:3.25;" d="M 82.617188 145.175781 L 197.867188 344.792969 " transform="matrix(1,0,0,1,-66,-5)"/>
<path style="fill:none;stroke-width:1.795;stroke-linecap:butt;stroke-linejoin:miter;stroke:rgb(0%,36.470032%,36.470032%);stroke-opacity:0.7;stroke-miterlimit:3.25;" d="M 83.921875 144.175781 L 163.996094 224.25 " transform="matrix(1,0,0,1,-66,-5)"/>
<path style="fill:none;stroke-width:1.795;stroke-linecap:butt;stroke-linejoin:miter;stroke:rgb(0%,36.470032%,36.470032%);stroke-opacity:0.7;stroke-miterlimit:3.25;" d="M 289.988281 254.976562 L 289.988281 24.476562 " transform="matrix(1,0,0,1,-66,-5)"/>
<path style="fill:none;stroke-width:1.795;stroke-linecap:butt;stroke-linejoin:miter;stroke:rgb(0%,36.470032%,36.470032%);stroke-opacity:0.7;stroke-miterlimit:3.25;" d="M 291.617188 255.191406 L 320.925781 145.800781 " transform="matrix(1,0,0,1,-66,-5)"/>
<path style="fill:none;stroke-width:1.795;stroke-linecap:butt;stroke-linejoin:miter;stroke:rgb(0%,36.470032%,36.470032%);stroke-opacity:0.7;stroke-miterlimit:3.25;" d="M 285.539062 265.714844 L 205.460938 345.792969 " transform="matrix(1,0,0,1,-66,-5)"/>
<path style="fill:none;stroke-width:1.795;stroke-linecap:butt;stroke-linejoin:miter;stroke:rgb(0%,36.470032%,36.470032%);stroke-opacity:0.7;stroke-miterlimit:3.25;" d="M 283.910156 259.636719 L 174.523438 230.328125 " transform="matrix(1,0,0,1,-66,-5)"/>
<path style="fill:none;stroke-width:1.795;stroke-linecap:butt;stroke-linejoin:miter;stroke:rgb(0%,36.470032%,36.470032%);stroke-opacity:0.7;stroke-miterlimit:3.25;" d="M 291.617188 24.261719 L 320.925781 133.648438 " transform="matrix(1,0,0,1,-66,-5)"/>
<path style="fill:none;stroke-width:1.795;stroke-linecap:butt;stroke-linejoin:miter;stroke:rgb(0%,36.470032%,36.470032%);stroke-opacity:0.7;stroke-miterlimit:3.25;" d="M 288.359375 24.261719 L 202.640625 344.164062 " transform="matrix(1,0,0,1,-66,-5)"/>
<path style="fill:none;stroke-width:1.795;stroke-linecap:butt;stroke-linejoin:miter;stroke:rgb(0%,36.470032%,36.470032%);stroke-opacity:0.7;stroke-miterlimit:3.25;" d="M 286.839844 23.632812 L 171.589844 223.25 " transform="matrix(1,0,0,1,-66,-5)"/>
<path style="fill:none;stroke-width:1.795;stroke-linecap:butt;stroke-linejoin:miter;stroke:rgb(0%,36.470032%,36.470032%);stroke-opacity:0.7;stroke-miterlimit:3.25;" d="M 319.410156 145.175781 L 204.160156 344.792969 " transform="matrix(1,0,0,1,-66,-5)"/>
<path style="fill:none;stroke-width:1.795;stroke-linecap:butt;stroke-linejoin:miter;stroke:rgb(0%,36.470032%,36.470032%);stroke-opacity:0.7;stroke-miterlimit:3.25;" d="M 317.105469 142.871094 L 173.894531 225.554688 " transform="matrix(1,0,0,1,-66,-5)"/>
<path style="fill:none;stroke-width:1.795;stroke-linecap:butt;stroke-linejoin:miter;stroke:rgb(0%,36.470032%,36.470032%);stroke-opacity:0.7;stroke-miterlimit:3.25;" d="M 199.382812 344.164062 L 170.074219 234.777344 " transform="matrix(1,0,0,1,-66,-5)"/>
<path style="fill:none;stroke-width:1.795;stroke-linecap:square;stroke-linejoin:miter;stroke:rgb(0%,36.470032%,36.470032%);stroke-opacity:0.7;stroke-miterlimit:3.25;" d="M 206.460938 110.304688 Z M 206.460938 110.304688 " transform="matrix(1,0,0,1,-66,-5)"/>
<path style="fill:none;stroke-width:1.795;stroke-linecap:square;stroke-linejoin:miter;stroke:rgb(0%,36.470032%,36.470032%);stroke-opacity:0.7;stroke-miterlimit:3.25;" d="M 85.546875 141.355469 Z M 85.546875 141.355469 " transform="matrix(1,0,0,1,-66,-5)"/>
<path style="fill:none;stroke-width:1.795;stroke-linecap:square;stroke-linejoin:miter;stroke:rgb(0%,36.470032%,36.470032%);stroke-opacity:0.7;stroke-miterlimit:3.25;" d="M 296.0625 259.636719 Z M 296.0625 259.636719 " transform="matrix(1,0,0,1,-66,-5)"/>
<path style="fill:none;stroke-width:1.795;stroke-linecap:square;stroke-linejoin:miter;stroke:rgb(0%,36.470032%,36.470032%);stroke-opacity:0.7;stroke-miterlimit:3.25;" d="M 293.132812 23.632812 Z M 293.132812 23.632812 " transform="matrix(1,0,0,1,-66,-5)"/>
<path style="fill:none;stroke-width:1.795;stroke-linecap:square;stroke-linejoin:miter;stroke:rgb(0%,36.470032%,36.470032%);stroke-opacity:0.7;stroke-miterlimit:3.25;" d="M 327.003906 144.175781 Z M 327.003906 144.175781 " transform="matrix(1,0,0,1,-66,-5)"/>
<path style="fill:none;stroke-width:1.795;stroke-linecap:square;stroke-linejoin:miter;stroke:rgb(0%,36.470032%,36.470032%);stroke-opacity:0.7;stroke-miterlimit:3.25;" d="M 206.460938 347.09375 Z M 206.460938 347.09375 " transform="matrix(1,0,0,1,-66,-5)"/>
<path style="fill:none;stroke-width:1.795;stroke-linecap:square;stroke-linejoin:miter;stroke:rgb(0%,36.470032%,36.470032%);stroke-opacity:0.7;stroke-miterlimit:3.25;" d="M 174.738281 228.699219 Z M 174.738281 228.699219 " transform="matrix(1,0,0,1,-66,-5)"/>
<path style="fill:none;stroke-width:1.795;stroke-linecap:square;stroke-linejoin:miter;stroke:rgb(0%,36.470032%,36.470032%);stroke-opacity:0.7;stroke-miterlimit:3.25;" d="M 85.546875 138.097656 Z M 85.546875 138.097656 " transform="matrix(1,0,0,1,-66,-5)"/>
<path style="fill:none;stroke-width:1.795;stroke-linecap:square;stroke-linejoin:miter;stroke:rgb(0%,36.470032%,36.470032%);stroke-opacity:0.7;stroke-miterlimit:3.25;" d="M 286.839844 255.820312 Z M 286.839844 255.820312 " transform="matrix(1,0,0,1,-66,-5)"/>
<path style="fill:none;stroke-width:1.795;stroke-linecap:square;stroke-linejoin:miter;stroke:rgb(0%,36.470032%,36.470032%);stroke-opacity:0.7;stroke-miterlimit:3.25;" d="M 285.539062 22.632812 Z M 285.539062 22.632812 " transform="matrix(1,0,0,1,-66,-5)"/>
<path style="fill:none;stroke-width:1.795;stroke-linecap:square;stroke-linejoin:miter;stroke:rgb(0%,36.470032%,36.470032%);stroke-opacity:0.7;stroke-miterlimit:3.25;" d="M 316.476562 138.097656 Z M 316.476562 138.097656 " transform="matrix(1,0,0,1,-66,-5)"/>
<path style="fill:none;stroke-width:1.795;stroke-linecap:square;stroke-linejoin:miter;stroke:rgb(0%,36.470032%,36.470032%);stroke-opacity:0.7;stroke-miterlimit:3.25;" d="M 201.011719 343.949219 Z M 201.011719 343.949219 " transform="matrix(1,0,0,1,-66,-5)"/>
<path style="fill:none;stroke-width:1.795;stroke-linecap:square;stroke-linejoin:miter;stroke:rgb(0%,36.470032%,36.470032%);stroke-opacity:0.7;stroke-miterlimit:3.25;" d="M 170.074219 222.621094 Z M 170.074219 222.621094 " transform="matrix(1,0,0,1,-66,-5)"/>
<path style="fill:none;stroke-width:1.795;stroke-linecap:square;stroke-linejoin:miter;stroke:rgb(0%,36.470032%,36.470032%);stroke-opacity:0.7;stroke-miterlimit:3.25;" d="M 284.539062 258.121094 Z M 284.539062 258.121094 " transform="matrix(1,0,0,1,-66,-5)"/>
<path style="fill:none;stroke-width:1.795;stroke-linecap:square;stroke-linejoin:miter;stroke:rgb(0%,36.470032%,36.470032%);stroke-opacity:0.7;stroke-miterlimit:3.25;" d="M 284.539062 21.328125 Z M 284.539062 21.328125 " transform="matrix(1,0,0,1,-66,-5)"/>
<path style="fill:none;stroke-width:1.795;stroke-linecap:square;stroke-linejoin:miter;stroke:rgb(0%,36.470032%,36.470032%);stroke-opacity:0.7;stroke-miterlimit:3.25;" d="M 316.261719 139.726562 Z M 316.261719 139.726562 " transform="matrix(1,0,0,1,-66,-5)"/>
<path style="fill:none;stroke-width:1.795;stroke-linecap:square;stroke-linejoin:miter;stroke:rgb(0%,36.470032%,36.470032%);stroke-opacity:0.7;stroke-miterlimit:3.25;" d="M 197.867188 344.792969 Z M 197.867188 344.792969 " transform="matrix(1,0,0,1,-66,-5)"/>
<path style="fill:none;stroke-width:1.795;stroke-linecap:square;stroke-linejoin:miter;stroke:rgb(0%,36.470032%,36.470032%);stroke-opacity:0.7;stroke-miterlimit:3.25;" d="M 163.996094 224.25 Z M 163.996094 224.25 " transform="matrix(1,0,0,1,-66,-5)"/>
<path style="fill:none;stroke-width:1.795;stroke-linecap:square;stroke-linejoin:miter;stroke:rgb(0%,36.470032%,36.470032%);stroke-opacity:0.7;stroke-miterlimit:3.25;" d="M 289.988281 24.476562 Z M 289.988281 24.476562 " transform="matrix(1,0,0,1,-66,-5)"/>
<path style="fill:none;stroke-width:1.795;stroke-linecap:square;stroke-linejoin:miter;stroke:rgb(0%,36.470032%,36.470032%);stroke-opacity:0.7;stroke-miterlimit:3.25;" d="M 320.925781 145.800781 Z M 320.925781 145.800781 " transform="matrix(1,0,0,1,-66,-5)"/>
<path style="fill:none;stroke-width:1.795;stroke-linecap:square;stroke-linejoin:miter;stroke:rgb(0%,36.470032%,36.470032%);stroke-opacity:0.7;stroke-miterlimit:3.25;" d="M 205.460938 345.792969 Z M 205.460938 345.792969 " transform="matrix(1,0,0,1,-66,-5)"/>
<path style="fill:none;stroke-width:1.795;stroke-linecap:square;stroke-linejoin:miter;stroke:rgb(0%,36.470032%,36.470032%);stroke-opacity:0.7;stroke-miterlimit:3.25;" d="M 174.523438 230.328125 Z M 174.523438 230.328125 " transform="matrix(1,0,0,1,-66,-5)"/>
<path style="fill:none;stroke-width:1.795;stroke-linecap:square;stroke-linejoin:miter;stroke:rgb(0%,36.470032%,36.470032%);stroke-opacity:0.7;stroke-miterlimit:3.25;" d="M 320.925781 133.648438 Z M 320.925781 133.648438 " transform="matrix(1,0,0,1,-66,-5)"/>
<path style="fill:none;stroke-width:1.795;stroke-linecap:square;stroke-linejoin:miter;stroke:rgb(0%,36.470032%,36.470032%);stroke-opacity:0.7;stroke-miterlimit:3.25;" d="M 202.640625 344.164062 Z M 202.640625 344.164062 " transform="matrix(1,0,0,1,-66,-5)"/>
<path style="fill:none;stroke-width:1.795;stroke-linecap:square;stroke-linejoin:miter;stroke:rgb(0%,36.470032%,36.470032%);stroke-opacity:0.7;stroke-miterlimit:3.25;" d="M 171.589844 223.25 Z M 171.589844 223.25 " transform="matrix(1,0,0,1,-66,-5)"/>
<path style="fill:none;stroke-width:1.795;stroke-linecap:square;stroke-linejoin:miter;stroke:rgb(0%,36.470032%,36.470032%);stroke-opacity:0.7;stroke-miterlimit:3.25;" d="M 204.160156 344.792969 Z M 204.160156 344.792969 " transform="matrix(1,0,0,1,-66,-5)"/>
<path style="fill:none;stroke-width:1.795;stroke-linecap:square;stroke-linejoin:miter;stroke:rgb(0%,36.470032%,36.470032%);stroke-opacity:0.7;stroke-miterlimit:3.25;" d="M 173.894531 225.554688 Z M 173.894531 225.554688 " transform="matrix(1,0,0,1,-66,-5)"/>
<path style="fill:none;stroke-width:1.795;stroke-linecap:square;stroke-linejoin:miter;stroke:rgb(0%,36.470032%,36.470032%);stroke-opacity:0.7;stroke-miterlimit:3.25;" d="M 170.074219 234.777344 Z M 170.074219 234.777344 " transform="matrix(1,0,0,1,-66,-5)"/>
<path style="fill-rule:evenodd;fill:rgb(0%,36.470032%,36.470032%);fill-opacity:1;stroke-width:1;stroke-linecap:square;stroke-linejoin:miter;stroke:rgb(0%,0%,0%);stroke-opacity:0.7;stroke-miterlimit:3.25;" d="M 417.820312 228.699219 C 417.820312 227.03125 417.15625 225.429688 415.976562 224.25 C 414.796875 223.070312 413.195312 222.410156 411.527344 222.410156 C 409.859375 222.410156 408.257812 223.070312 407.078125 224.25 C 405.898438 225.429688 405.238281 227.03125 405.238281 228.699219 C 405.238281 230.367188 405.898438 231.96875 407.078125 233.148438 C 408.257812 234.328125 409.859375 234.992188 411.527344 234.992188 C 413.195312 234.992188 414.796875 234.328125 415.976562 233.148438 C 417.15625 231.96875 417.820312 230.367188 417.820312 228.699219 Z M 417.820312 228.699219 " transform="matrix(1,0,0,1,-66,-5)"/>
<path style="fill-rule:evenodd;fill:rgb(0%,36.470032%,36.470032%);fill-opacity:1;stroke-width:1;stroke-linecap:square;stroke-linejoin:miter;stroke:rgb(0%,0%,0%);stroke-opacity:0.7;stroke-miterlimit:3.25;" d="M 207.304688 107.160156 C 207.304688 105.488281 206.640625 103.890625 205.460938 102.710938 C 204.28125 101.53125 202.679688 100.867188 201.011719 100.867188 C 199.34375 100.867188 197.742188 101.53125 196.5625 102.710938 C 195.382812 103.890625 194.722656 105.488281 194.722656 107.160156 C 194.722656 108.828125 195.382812 110.425781 196.5625 111.605469 C 197.742188 112.789062 199.34375 113.449219 201.011719 113.449219 C 202.679688 113.449219 204.28125 112.789062 205.460938 111.605469 C 206.640625 110.425781 207.304688 108.828125 207.304688 107.160156 Z M 207.304688 107.160156 " transform="matrix(1,0,0,1,-66,-5)"/>
<path style="fill-rule:evenodd;fill:rgb(0%,36.470032%,36.470032%);fill-opacity:1;stroke-width:1;stroke-linecap:square;stroke-linejoin:miter;stroke:rgb(0%,0%,0%);stroke-opacity:0.7;stroke-miterlimit:3.25;" d="M 85.761719 139.726562 C 85.761719 138.058594 85.101562 136.457031 83.921875 135.277344 C 82.742188 134.097656 81.140625 133.433594 79.472656 133.433594 C 77.804688 133.433594 76.203125 134.097656 75.023438 135.277344 C 73.84375 136.457031 73.179688 138.058594 73.179688 139.726562 C 73.179688 141.394531 73.84375 142.996094 75.023438 144.175781 C 76.203125 145.355469 77.804688 146.015625 79.472656 146.015625 C 81.140625 146.015625 82.742188 145.355469 83.921875 144.175781 C 85.101562 142.996094 85.761719 141.394531 85.761719 139.726562 Z M 85.761719 139.726562 " transform="matrix(1,0,0,1,-66,-5)"/>
<path style="fill-rule:evenodd;fill:rgb(0%,36.470032%,36.470032%);fill-opacity:1;stroke-width:1;stroke-linecap:square;stroke-linejoin:miter;stroke:rgb(0%,0%,0%);stroke-opacity:0.7;stroke-miterlimit:3.25;" d="M 296.277344 261.265625 C 296.277344 259.597656 295.617188 258 294.4375 256.816406 C 293.257812 255.636719 291.65625 254.976562 289.988281 254.976562 C 288.320312 254.976562 286.71875 255.636719 285.539062 256.816406 C 284.359375 258 283.695312 259.597656 283.695312 261.265625 C 283.695312 262.933594 284.359375 264.535156 285.539062 265.714844 C 286.71875 266.894531 288.320312 267.558594 289.988281 267.558594 C 291.65625 267.558594 293.257812 266.894531 294.4375 265.714844 C 295.617188 264.535156 296.277344 262.933594 296.277344 261.265625 Z M 296.277344 261.265625 " transform="matrix(1,0,0,1,-66,-5)"/>
<path style="fill-rule:evenodd;fill:rgb(0%,36.470032%,36.470032%);fill-opacity:1;stroke-width:1;stroke-linecap:square;stroke-linejoin:miter;stroke:rgb(0%,0%,0%);stroke-opacity:0.7;stroke-miterlimit:3.25;" d="M 296.277344 18.183594 C 296.277344 16.515625 295.617188 14.914062 294.4375 13.734375 C 293.257812 12.554688 291.65625 11.894531 289.988281 11.894531 C 288.320312 11.894531 286.71875 12.554688 285.539062 13.734375 C 284.359375 14.914062 283.695312 16.515625 283.695312 18.183594 C 283.695312 19.851562 284.359375 21.453125 285.539062 22.632812 C 286.71875 23.8125 288.320312 24.476562 289.988281 24.476562 C 291.65625 24.476562 293.257812 23.8125 294.4375 22.632812 C 295.617188 21.453125 296.277344 19.851562 296.277344 18.183594 Z M 296.277344 18.183594 " transform="matrix(1,0,0,1,-66,-5)"/>
<path style="fill-rule:evenodd;fill:rgb(0%,36.470032%,36.470032%);fill-opacity:1;stroke-width:1;stroke-linecap:square;stroke-linejoin:miter;stroke:rgb(0%,0%,0%);stroke-opacity:0.7;stroke-miterlimit:3.25;" d="M 328.84375 139.726562 C 328.84375 138.058594 328.183594 136.457031 327.003906 135.277344 C 325.824219 134.097656 324.222656 133.433594 322.554688 133.433594 C 320.886719 133.433594 319.285156 134.097656 318.105469 135.277344 C 316.925781 136.457031 316.261719 138.058594 316.261719 139.726562 C 316.261719 141.394531 316.925781 142.996094 318.105469 144.175781 C 319.285156 145.355469 320.886719 146.015625 322.554688 146.015625 C 324.222656 146.015625 325.824219 145.355469 327.003906 144.175781 C 328.183594 142.996094 328.84375 141.394531 328.84375 139.726562 Z M 328.84375 139.726562 " transform="matrix(1,0,0,1,-66,-5)"/>
<path style="fill-rule:evenodd;fill:rgb(0%,36.470032%,36.470032%);fill-opacity:1;stroke-width:1;stroke-linecap:square;stroke-linejoin:miter;stroke:rgb(0%,0%,0%);stroke-opacity:0.7;stroke-miterlimit:3.25;" d="M 207.304688 350.242188 C 207.304688 348.574219 206.640625 346.972656 205.460938 345.792969 C 204.28125 344.613281 202.679688 343.949219 201.011719 343.949219 C 199.34375 343.949219 197.742188 344.613281 196.5625 345.792969 C 195.382812 346.972656 194.722656 348.574219 194.722656 350.242188 C 194.722656 351.910156 195.382812 353.511719 196.5625 354.691406 C 197.742188 355.871094 199.34375 356.53125 201.011719 356.53125 C 202.679688 356.53125 204.28125 355.871094 205.460938 354.691406 C 206.640625 353.511719 207.304688 351.910156 207.304688 350.242188 Z M 207.304688 350.242188 " transform="matrix(1,0,0,1,-66,-5)"/>
<path style="fill-rule:evenodd;fill:rgb(0%,36.470032%,36.470032%);fill-opacity:1;stroke-width:1;stroke-linecap:square;stroke-linejoin:miter;stroke:rgb(0%,0%,0%);stroke-opacity:0.7;stroke-miterlimit:3.25;" d="M 174.738281 228.699219 C 174.738281 227.03125 174.074219 225.429688 172.894531 224.25 C 171.714844 223.070312 170.113281 222.410156 168.445312 222.410156 C 166.777344 222.410156 165.175781 223.070312 163.996094 224.25 C 162.816406 225.429688 162.15625 227.03125 162.15625 228.699219 C 162.15625 230.367188 162.816406 231.96875 163.996094 233.148438 C 165.175781 234.328125 166.777344 234.992188 168.445312 234.992188 C 170.113281 234.992188 171.714844 234.328125 172.894531 233.148438 C 174.074219 231.96875 174.738281 230.367188 174.738281 228.699219 Z M 174.738281 228.699219 " transform="matrix(1,0,0,1,-66,-5)"/>
<path style="fill:none;stroke-width:1.795;stroke-linecap:butt;stroke-linejoin:miter;stroke:rgb(85.488892%,11.764526%,15.686035%);stroke-opacity:0.7;stroke-miterlimit:3.25;" d="M 285.539062 102.710938 L 205.460938 22.632812 " transform="matrix(1,0,0,1,-66,-5)"/>
<path style="fill:none;stroke-width:1.795;stroke-linecap:butt;stroke-linejoin:miter;stroke:rgb(85.488892%,11.764526%,15.686035%);stroke-opacity:0.7;stroke-miterlimit:3.25;" d="M 286.839844 112.605469 L 204.160156 255.820312 " transform="matrix(1,0,0,1,-66,-5)"/>
<path style="fill:none;stroke-width:1.795;stroke-linecap:butt;stroke-linejoin:miter;stroke:rgb(85.488892%,11.764526%,15.686035%);stroke-opacity:0.7;stroke-miterlimit:3.25;" d="M 289.988281 113.449219 L 289.988281 343.949219 " transform="matrix(1,0,0,1,-66,-5)"/>
<path style="fill:none;stroke-width:1.795;stroke-linecap:butt;stroke-linejoin:miter;stroke:rgb(85.488892%,11.764526%,15.686035%);stroke-opacity:0.7;stroke-miterlimit:3.25;" d="M 291.617188 113.234375 L 320.925781 222.621094 " transform="matrix(1,0,0,1,-66,-5)"/>
<path style="fill:none;stroke-width:1.795;stroke-linecap:butt;stroke-linejoin:miter;stroke:rgb(85.488892%,11.764526%,15.686035%);stroke-opacity:0.7;stroke-miterlimit:3.25;" d="M 284.539062 110.304688 L 84.921875 225.554688 " transform="matrix(1,0,0,1,-66,-5)"/>
<path style="fill:none;stroke-width:1.795;stroke-linecap:butt;stroke-linejoin:miter;stroke:rgb(85.488892%,11.764526%,15.686035%);stroke-opacity:0.7;stroke-miterlimit:3.25;" d="M 283.910156 108.785156 L 174.523438 138.097656 " transform="matrix(1,0,0,1,-66,-5)"/>
<path style="fill:none;stroke-width:1.795;stroke-linecap:butt;stroke-linejoin:miter;stroke:rgb(85.488892%,11.764526%,15.686035%);stroke-opacity:0.7;stroke-miterlimit:3.25;" d="M 296.0625 108.785156 L 405.453125 138.097656 " transform="matrix(1,0,0,1,-66,-5)"/>
<path style="fill:none;stroke-width:1.795;stroke-linecap:butt;stroke-linejoin:miter;stroke:rgb(85.488892%,11.764526%,15.686035%);stroke-opacity:0.7;stroke-miterlimit:3.25;" d="M 201.011719 24.476562 L 201.011719 254.976562 " transform="matrix(1,0,0,1,-66,-5)"/>
<path style="fill:none;stroke-width:1.795;stroke-linecap:butt;stroke-linejoin:miter;stroke:rgb(85.488892%,11.764526%,15.686035%);stroke-opacity:0.7;stroke-miterlimit:3.25;" d="M 202.640625 24.261719 L 288.359375 344.164062 " transform="matrix(1,0,0,1,-66,-5)"/>
<path style="fill:none;stroke-width:1.795;stroke-linecap:butt;stroke-linejoin:miter;stroke:rgb(85.488892%,11.764526%,15.686035%);stroke-opacity:0.7;stroke-miterlimit:3.25;" d="M 204.160156 23.632812 L 319.410156 223.25 " transform="matrix(1,0,0,1,-66,-5)"/>
<path style="fill:none;stroke-width:1.795;stroke-linecap:butt;stroke-linejoin:miter;stroke:rgb(85.488892%,11.764526%,15.686035%);stroke-opacity:0.7;stroke-miterlimit:3.25;" d="M 197.867188 23.632812 L 82.617188 223.25 " transform="matrix(1,0,0,1,-66,-5)"/>
<path style="fill:none;stroke-width:1.795;stroke-linecap:butt;stroke-linejoin:miter;stroke:rgb(85.488892%,11.764526%,15.686035%);stroke-opacity:0.7;stroke-miterlimit:3.25;" d="M 199.382812 24.261719 L 170.074219 133.648438 " transform="matrix(1,0,0,1,-66,-5)"/>
<path style="fill:none;stroke-width:1.795;stroke-linecap:butt;stroke-linejoin:miter;stroke:rgb(85.488892%,11.764526%,15.686035%);stroke-opacity:0.7;stroke-miterlimit:3.25;" d="M 206.460938 21.328125 L 406.078125 136.578125 " transform="matrix(1,0,0,1,-66,-5)"/>
<path style="fill:none;stroke-width:1.795;stroke-linecap:butt;stroke-linejoin:miter;stroke:rgb(85.488892%,11.764526%,15.686035%);stroke-opacity:0.7;stroke-miterlimit:3.25;" d="M 205.460938 265.714844 L 285.539062 345.792969 " transform="matrix(1,0,0,1,-66,-5)"/>
<path style="fill:none;stroke-width:1.795;stroke-linecap:butt;stroke-linejoin:miter;stroke:rgb(85.488892%,11.764526%,15.686035%);stroke-opacity:0.7;stroke-miterlimit:3.25;" d="M 207.089844 259.636719 L 316.476562 230.328125 " transform="matrix(1,0,0,1,-66,-5)"/>
<path style="fill:none;stroke-width:1.795;stroke-linecap:butt;stroke-linejoin:miter;stroke:rgb(85.488892%,11.764526%,15.686035%);stroke-opacity:0.7;stroke-miterlimit:3.25;" d="M 194.9375 259.636719 L 85.546875 230.328125 " transform="matrix(1,0,0,1,-66,-5)"/>
<path style="fill:none;stroke-width:1.795;stroke-linecap:butt;stroke-linejoin:miter;stroke:rgb(85.488892%,11.764526%,15.686035%);stroke-opacity:0.7;stroke-miterlimit:3.25;" d="M 199.382812 255.191406 L 170.074219 145.800781 " transform="matrix(1,0,0,1,-66,-5)"/>
<path style="fill:none;stroke-width:1.795;stroke-linecap:butt;stroke-linejoin:miter;stroke:rgb(85.488892%,11.764526%,15.686035%);stroke-opacity:0.7;stroke-miterlimit:3.25;" d="M 206.460938 258.121094 L 406.078125 142.871094 " transform="matrix(1,0,0,1,-66,-5)"/>
<path style="fill:none;stroke-width:1.795;stroke-linecap:butt;stroke-linejoin:miter;stroke:rgb(85.488892%,11.764526%,15.686035%);stroke-opacity:0.7;stroke-miterlimit:3.25;" d="M 291.617188 344.164062 L 320.925781 234.777344 " transform="matrix(1,0,0,1,-66,-5)"/>
<path style="fill:none;stroke-width:1.795;stroke-linecap:butt;stroke-linejoin:miter;stroke:rgb(85.488892%,11.764526%,15.686035%);stroke-opacity:0.7;stroke-miterlimit:3.25;" d="M 284.539062 347.09375 L 84.921875 231.847656 " transform="matrix(1,0,0,1,-66,-5)"/>
<path style="fill:none;stroke-width:1.795;stroke-linecap:butt;stroke-linejoin:miter;stroke:rgb(85.488892%,11.764526%,15.686035%);stroke-opacity:0.7;stroke-miterlimit:3.25;" d="M 286.839844 344.792969 L 171.589844 145.175781 " transform="matrix(1,0,0,1,-66,-5)"/>
<path style="fill:none;stroke-width:1.795;stroke-linecap:butt;stroke-linejoin:miter;stroke:rgb(85.488892%,11.764526%,15.686035%);stroke-opacity:0.7;stroke-miterlimit:3.25;" d="M 293.132812 344.792969 L 408.382812 145.175781 " transform="matrix(1,0,0,1,-66,-5)"/>
<path style="fill:none;stroke-width:1.795;stroke-linecap:butt;stroke-linejoin:miter;stroke:rgb(85.488892%,11.764526%,15.686035%);stroke-opacity:0.7;stroke-miterlimit:3.25;" d="M 316.261719 228.699219 L 85.761719 228.699219 " transform="matrix(1,0,0,1,-66,-5)"/>
<path style="fill:none;stroke-width:1.795;stroke-linecap:butt;stroke-linejoin:miter;stroke:rgb(85.488892%,11.764526%,15.686035%);stroke-opacity:0.7;stroke-miterlimit:3.25;" d="M 317.105469 225.554688 L 173.894531 142.871094 " transform="matrix(1,0,0,1,-66,-5)"/>
<path style="fill:none;stroke-width:1.795;stroke-linecap:butt;stroke-linejoin:miter;stroke:rgb(85.488892%,11.764526%,15.686035%);stroke-opacity:0.7;stroke-miterlimit:3.25;" d="M 327.003906 224.25 L 407.078125 144.175781 " transform="matrix(1,0,0,1,-66,-5)"/>
<path style="fill:none;stroke-width:1.795;stroke-linecap:butt;stroke-linejoin:miter;stroke:rgb(85.488892%,11.764526%,15.686035%);stroke-opacity:0.7;stroke-miterlimit:3.25;" d="M 83.921875 224.25 L 163.996094 144.175781 " transform="matrix(1,0,0,1,-66,-5)"/>
<path style="fill:none;stroke-width:1.795;stroke-linecap:butt;stroke-linejoin:miter;stroke:rgb(85.488892%,11.764526%,15.686035%);stroke-opacity:0.7;stroke-miterlimit:3.25;" d="M 85.546875 227.070312 L 405.453125 141.355469 " transform="matrix(1,0,0,1,-66,-5)"/>
<path style="fill:none;stroke-width:1.795;stroke-linecap:butt;stroke-linejoin:miter;stroke:rgb(85.488892%,11.764526%,15.686035%);stroke-opacity:0.7;stroke-miterlimit:3.25;" d="M 174.738281 139.726562 L 405.238281 139.726562 " transform="matrix(1,0,0,1,-66,-5)"/>
<path style="fill:none;stroke-width:1.795;stroke-linecap:square;stroke-linejoin:miter;stroke:rgb(85.488892%,11.764526%,15.686035%);stroke-opacity:0.7;stroke-miterlimit:3.25;" d="M 205.460938 22.632812 Z M 205.460938 22.632812 " transform="matrix(1,0,0,1,-66,-5)"/>
<path style="fill:none;stroke-width:1.795;stroke-linecap:square;stroke-linejoin:miter;stroke:rgb(85.488892%,11.764526%,15.686035%);stroke-opacity:0.7;stroke-miterlimit:3.25;" d="M 204.160156 255.820312 Z M 204.160156 255.820312 " transform="matrix(1,0,0,1,-66,-5)"/>
<path style="fill:none;stroke-width:1.795;stroke-linecap:square;stroke-linejoin:miter;stroke:rgb(85.488892%,11.764526%,15.686035%);stroke-opacity:0.7;stroke-miterlimit:3.25;" d="M 289.988281 343.949219 Z M 289.988281 343.949219 " transform="matrix(1,0,0,1,-66,-5)"/>
<path style="fill:none;stroke-width:1.795;stroke-linecap:square;stroke-linejoin:miter;stroke:rgb(85.488892%,11.764526%,15.686035%);stroke-opacity:0.7;stroke-miterlimit:3.25;" d="M 320.925781 222.621094 Z M 320.925781 222.621094 " transform="matrix(1,0,0,1,-66,-5)"/>
<path style="fill:none;stroke-width:1.795;stroke-linecap:square;stroke-linejoin:miter;stroke:rgb(85.488892%,11.764526%,15.686035%);stroke-opacity:0.7;stroke-miterlimit:3.25;" d="M 84.921875 225.554688 Z M 84.921875 225.554688 " transform="matrix(1,0,0,1,-66,-5)"/>
<path style="fill:none;stroke-width:1.795;stroke-linecap:square;stroke-linejoin:miter;stroke:rgb(85.488892%,11.764526%,15.686035%);stroke-opacity:0.7;stroke-miterlimit:3.25;" d="M 174.523438 138.097656 Z M 174.523438 138.097656 " transform="matrix(1,0,0,1,-66,-5)"/>
<path style="fill:none;stroke-width:1.795;stroke-linecap:square;stroke-linejoin:miter;stroke:rgb(85.488892%,11.764526%,15.686035%);stroke-opacity:0.7;stroke-miterlimit:3.25;" d="M 405.453125 138.097656 Z M 405.453125 138.097656 " transform="matrix(1,0,0,1,-66,-5)"/>
<path style="fill:none;stroke-width:1.795;stroke-linecap:square;stroke-linejoin:miter;stroke:rgb(85.488892%,11.764526%,15.686035%);stroke-opacity:0.7;stroke-miterlimit:3.25;" d="M 201.011719 254.976562 Z M 201.011719 254.976562 " transform="matrix(1,0,0,1,-66,-5)"/>
<path style="fill:none;stroke-width:1.795;stroke-linecap:square;stroke-linejoin:miter;stroke:rgb(85.488892%,11.764526%,15.686035%);stroke-opacity:0.7;stroke-miterlimit:3.25;" d="M 288.359375 344.164062 Z M 288.359375 344.164062 " transform="matrix(1,0,0,1,-66,-5)"/>
<path style="fill:none;stroke-width:1.795;stroke-linecap:square;stroke-linejoin:miter;stroke:rgb(85.488892%,11.764526%,15.686035%);stroke-opacity:0.7;stroke-miterlimit:3.25;" d="M 319.410156 223.25 Z M 319.410156 223.25 " transform="matrix(1,0,0,1,-66,-5)"/>
<path style="fill:none;stroke-width:1.795;stroke-linecap:square;stroke-linejoin:miter;stroke:rgb(85.488892%,11.764526%,15.686035%);stroke-opacity:0.7;stroke-miterlimit:3.25;" d="M 82.617188 223.25 Z M 82.617188 223.25 " transform="matrix(1,0,0,1,-66,-5)"/>
<path style="fill:none;stroke-width:1.795;stroke-linecap:square;stroke-linejoin:miter;stroke:rgb(85.488892%,11.764526%,15.686035%);stroke-opacity:0.7;stroke-miterlimit:3.25;" d="M 170.074219 133.648438 Z M 170.074219 133.648438 " transform="matrix(1,0,0,1,-66,-5)"/>
<path style="fill:none;stroke-width:1.795;stroke-linecap:square;stroke-linejoin:miter;stroke:rgb(85.488892%,11.764526%,15.686035%);stroke-opacity:0.7;stroke-miterlimit:3.25;" d="M 406.078125 136.578125 Z M 406.078125 136.578125 " transform="matrix(1,0,0,1,-66,-5)"/>
<path style="fill:none;stroke-width:1.795;stroke-linecap:square;stroke-linejoin:miter;stroke:rgb(85.488892%,11.764526%,15.686035%);stroke-opacity:0.7;stroke-miterlimit:3.25;" d="M 285.539062 345.792969 Z M 285.539062 345.792969 " transform="matrix(1,0,0,1,-66,-5)"/>
<path style="fill:none;stroke-width:1.795;stroke-linecap:square;stroke-linejoin:miter;stroke:rgb(85.488892%,11.764526%,15.686035%);stroke-opacity:0.7;stroke-miterlimit:3.25;" d="M 316.476562 230.328125 Z M 316.476562 230.328125 " transform="matrix(1,0,0,1,-66,-5)"/>
<path style="fill:none;stroke-width:1.795;stroke-linecap:square;stroke-linejoin:miter;stroke:rgb(85.488892%,11.764526%,15.686035%);stroke-opacity:0.7;stroke-miterlimit:3.25;" d="M 85.546875 230.328125 Z M 85.546875 230.328125 " transform="matrix(1,0,0,1,-66,-5)"/>
<path style="fill:none;stroke-width:1.795;stroke-linecap:square;stroke-linejoin:miter;stroke:rgb(85.488892%,11.764526%,15.686035%);stroke-opacity:0.7;stroke-miterlimit:3.25;" d="M 170.074219 145.800781 Z M 170.074219 145.800781 " transform="matrix(1,0,0,1,-66,-5)"/>
<path style="fill:none;stroke-width:1.795;stroke-linecap:square;stroke-linejoin:miter;stroke:rgb(85.488892%,11.764526%,15.686035%);stroke-opacity:0.7;stroke-miterlimit:3.25;" d="M 406.078125 142.871094 Z M 406.078125 142.871094 " transform="matrix(1,0,0,1,-66,-5)"/>
<path style="fill:none;stroke-width:1.795;stroke-linecap:square;stroke-linejoin:miter;stroke:rgb(85.488892%,11.764526%,15.686035%);stroke-opacity:0.7;stroke-miterlimit:3.25;" d="M 320.925781 234.777344 Z M 320.925781 234.777344 " transform="matrix(1,0,0,1,-66,-5)"/>
<path style="fill:none;stroke-width:1.795;stroke-linecap:square;stroke-linejoin:miter;stroke:rgb(85.488892%,11.764526%,15.686035%);stroke-opacity:0.7;stroke-miterlimit:3.25;" d="M 84.921875 231.847656 Z M 84.921875 231.847656 " transform="matrix(1,0,0,1,-66,-5)"/>
<path style="fill:none;stroke-width:1.795;stroke-linecap:square;stroke-linejoin:miter;stroke:rgb(85.488892%,11.764526%,15.686035%);stroke-opacity:0.7;stroke-miterlimit:3.25;" d="M 171.589844 145.175781 Z M 171.589844 145.175781 " transform="matrix(1,0,0,1,-66,-5)"/>
<path style="fill:none;stroke-width:1.795;stroke-linecap:square;stroke-linejoin:miter;stroke:rgb(85.488892%,11.764526%,15.686035%);stroke-opacity:0.7;stroke-miterlimit:3.25;" d="M 408.382812 145.175781 Z M 408.382812 145.175781 " transform="matrix(1,0,0,1,-66,-5)"/>
<path style="fill:none;stroke-width:1.795;stroke-linecap:square;stroke-linejoin:miter;stroke:rgb(85.488892%,11.764526%,15.686035%);stroke-opacity:0.7;stroke-miterlimit:3.25;" d="M 85.761719 228.699219 Z M 85.761719 228.699219 " transform="matrix(1,0,0,1,-66,-5)"/>
<path style="fill:none;stroke-width:1.795;stroke-linecap:square;stroke-linejoin:miter;stroke:rgb(85.488892%,11.764526%,15.686035%);stroke-opacity:0.7;stroke-miterlimit:3.25;" d="M 173.894531 142.871094 Z M 173.894531 142.871094 " transform="matrix(1,0,0,1,-66,-5)"/>
<path style="fill:none;stroke-width:1.795;stroke-linecap:square;stroke-linejoin:miter;stroke:rgb(85.488892%,11.764526%,15.686035%);stroke-opacity:0.7;stroke-miterlimit:3.25;" d="M 407.078125 144.175781 Z M 407.078125 144.175781 " transform="matrix(1,0,0,1,-66,-5)"/>
<path style="fill:none;stroke-width:1.795;stroke-linecap:square;stroke-linejoin:miter;stroke:rgb(85.488892%,11.764526%,15.686035%);stroke-opacity:0.7;stroke-miterlimit:3.25;" d="M 163.996094 144.175781 Z M 163.996094 144.175781 " transform="matrix(1,0,0,1,-66,-5)"/>
<path style="fill:none;stroke-width:1.795;stroke-linecap:square;stroke-linejoin:miter;stroke:rgb(85.488892%,11.764526%,15.686035%);stroke-opacity:0.7;stroke-miterlimit:3.25;" d="M 405.453125 141.355469 Z M 405.453125 141.355469 " transform="matrix(1,0,0,1,-66,-5)"/>
<path style="fill:none;stroke-width:1.795;stroke-linecap:square;stroke-linejoin:miter;stroke:rgb(85.488892%,11.764526%,15.686035%);stroke-opacity:0.7;stroke-miterlimit:3.25;" d="M 405.238281 139.726562 Z M 405.238281 139.726562 " transform="matrix(1,0,0,1,-66,-5)"/>
<path style="fill-rule:evenodd;fill:rgb(85.488892%,11.764526%,15.686035%);fill-opacity:1;stroke-width:1;stroke-linecap:square;stroke-linejoin:miter;stroke:rgb(0%,0%,0%);stroke-opacity:0.7;stroke-miterlimit:3.25;" d="M 296.277344 107.160156 C 296.277344 105.488281 295.617188 103.890625 294.4375 102.710938 C 293.257812 101.53125 291.65625 100.867188 289.988281 100.867188 C 288.320312 100.867188 286.71875 101.53125 285.539062 102.710938 C 284.359375 103.890625 283.695312 105.488281 283.695312 107.160156 C 283.695312 108.828125 284.359375 110.425781 285.539062 111.605469 C 286.71875 112.789062 288.320312 113.449219 289.988281 113.449219 C 291.65625 113.449219 293.257812 112.789062 294.4375 111.605469 C 295.617188 110.425781 296.277344 108.828125 296.277344 107.160156 Z M 296.277344 107.160156 " transform="matrix(1,0,0,1,-66,-5)"/>
<path style="fill-rule:evenodd;fill:rgb(85.488892%,11.764526%,15.686035%);fill-opacity:1;stroke-width:1;stroke-linecap:square;stroke-linejoin:miter;stroke:rgb(0%,0%,0%);stroke-opacity:0.7;stroke-miterlimit:3.25;" d="M 207.304688 18.183594 C 207.304688 16.515625 206.640625 14.914062 205.460938 13.734375 C 204.28125 12.554688 202.679688 11.894531 201.011719 11.894531 C 199.34375 11.894531 197.742188 12.554688 196.5625 13.734375 C 195.382812 14.914062 194.722656 16.515625 194.722656 18.183594 C 194.722656 19.851562 195.382812 21.453125 196.5625 22.632812 C 197.742188 23.8125 199.34375 24.476562 201.011719 24.476562 C 202.679688 24.476562 204.28125 23.8125 205.460938 22.632812 C 206.640625 21.453125 207.304688 19.851562 207.304688 18.183594 Z M 207.304688 18.183594 " transform="matrix(1,0,0,1,-66,-5)"/>
<path style="fill-rule:evenodd;fill:rgb(85.488892%,11.764526%,15.686035%);fill-opacity:1;stroke-width:1;stroke-linecap:square;stroke-linejoin:miter;stroke:rgb(0%,0%,0%);stroke-opacity:0.7;stroke-miterlimit:3.25;" d="M 207.304688 261.265625 C 207.304688 259.597656 206.640625 258 205.460938 256.816406 C 204.28125 255.636719 202.679688 254.976562 201.011719 254.976562 C 199.34375 254.976562 197.742188 255.636719 196.5625 256.816406 C 195.382812 258 194.722656 259.597656 194.722656 261.265625 C 194.722656 262.933594 195.382812 264.535156 196.5625 265.714844 C 197.742188 266.894531 199.34375 267.558594 201.011719 267.558594 C 202.679688 267.558594 204.28125 266.894531 205.460938 265.714844 C 206.640625 264.535156 207.304688 262.933594 207.304688 261.265625 Z M 207.304688 261.265625 " transform="matrix(1,0,0,1,-66,-5)"/>
<path style="fill-rule:evenodd;fill:rgb(85.488892%,11.764526%,15.686035%);fill-opacity:1;stroke-width:1;stroke-linecap:square;stroke-linejoin:miter;stroke:rgb(0%,0%,0%);stroke-opacity:0.7;stroke-miterlimit:3.25;" d="M 296.277344 350.242188 C 296.277344 348.574219 295.617188 346.972656 294.4375 345.792969 C 293.257812 344.613281 291.65625 343.949219 289.988281 343.949219 C 288.320312 343.949219 286.71875 344.613281 285.539062 345.792969 C 284.359375 346.972656 283.695312 348.574219 283.695312 350.242188 C 283.695312 351.910156 284.359375 353.511719 285.539062 354.691406 C 286.71875 355.871094 288.320312 356.53125 289.988281 356.53125 C 291.65625 356.53125 293.257812 355.871094 294.4375 354.691406 C 295.617188 353.511719 296.277344 351.910156 296.277344 350.242188 Z M 296.277344 350.242188 " transform="matrix(1,0,0,1,-66,-5)"/>
<path style="fill-rule:evenodd;fill:rgb(85.488892%,11.764526%,15.686035%);fill-opacity:1;stroke-width:1;stroke-linecap:square;stroke-linejoin:miter;stroke:rgb(0%,0%,0%);stroke-opacity:0.7;stroke-miterlimit:3.25;" d="M 328.84375 228.699219 C 328.84375 227.03125 328.183594 225.429688 327.003906 224.25 C 325.824219 223.070312 324.222656 222.410156 322.554688 222.410156 C 320.886719 222.410156 319.285156 223.070312 318.105469 224.25 C 316.925781 225.429688 316.261719 227.03125 316.261719 228.699219 C 316.261719 230.367188 316.925781 231.96875 318.105469 233.148438 C 319.285156 234.328125 320.886719 234.992188 322.554688 234.992188 C 324.222656 234.992188 325.824219 234.328125 327.003906 233.148438 C 328.183594 231.96875 328.84375 230.367188 328.84375 228.699219 Z M 328.84375 228.699219 " transform="matrix(1,0,0,1,-66,-5)"/>
<path style="fill-rule:evenodd;fill:rgb(85.488892%,11.764526%,15.686035%);fill-opacity:1;stroke-width:1;stroke-linecap:square;stroke-linejoin:miter;stroke:rgb(0%,0%,0%);stroke-opacity:0.7;stroke-miterlimit:3.25;" d="M 85.761719 228.699219 C 85.761719 227.03125 85.101562 225.429688 83.921875 224.25 C 82.742188 223.070312 81.140625 222.410156 79.472656 222.410156 C 77.804688 222.410156 76.203125 223.070312 75.023438 224.25 C 73.84375 225.429688 73.179688 227.03125 73.179688 228.699219 C 73.179688 230.367188 73.84375 231.96875 75.023438 233.148438 C 76.203125 234.328125 77.804688 234.992188 79.472656 234.992188 C 81.140625 234.992188 82.742188 234.328125 83.921875 233.148438 C 85.101562 231.96875 85.761719 230.367188 85.761719 228.699219 Z M 85.761719 228.699219 " transform="matrix(1,0,0,1,-66,-5)"/>
<path style="fill-rule:evenodd;fill:rgb(85.488892%,11.764526%,15.686035%);fill-opacity:1;stroke-width:1;stroke-linecap:square;stroke-linejoin:miter;stroke:rgb(0%,0%,0%);stroke-opacity:0.7;stroke-miterlimit:3.25;" d="M 174.738281 139.726562 C 174.738281 138.058594 174.074219 136.457031 172.894531 135.277344 C 171.714844 134.097656 170.113281 133.433594 168.445312 133.433594 C 166.777344 133.433594 165.175781 134.097656 163.996094 135.277344 C 162.816406 136.457031 162.15625 138.058594 162.15625 139.726562 C 162.15625 141.394531 162.816406 142.996094 163.996094 144.175781 C 165.175781 145.355469 166.777344 146.015625 168.445312 146.015625 C 170.113281 146.015625 171.714844 145.355469 172.894531 144.175781 C 174.074219 142.996094 174.738281 141.394531 174.738281 139.726562 Z M 174.738281 139.726562 " transform="matrix(1,0,0,1,-66,-5)"/>
<path style="fill-rule:evenodd;fill:rgb(85.488892%,11.764526%,15.686035%);fill-opacity:1;stroke-width:1;stroke-linecap:square;stroke-linejoin:miter;stroke:rgb(0%,0%,0%);stroke-opacity:0.7;stroke-miterlimit:3.25;" d="M 417.820312 139.726562 C 417.820312 138.058594 417.15625 136.457031 415.976562 135.277344 C 414.796875 134.097656 413.195312 133.433594 411.527344 133.433594 C 409.859375 133.433594 408.257812 134.097656 407.078125 135.277344 C 405.898438 136.457031 405.238281 138.058594 405.238281 139.726562 C 405.238281 141.394531 405.898438 142.996094 407.078125 144.175781 C 408.257812 145.355469 409.859375 146.015625 411.527344 146.015625 C 413.195312 146.015625 414.796875 145.355469 415.976562 144.175781 C 417.15625 142.996094 417.820312 141.394531 417.820312 139.726562 Z M 417.820312 139.726562 " transform="matrix(1,0,0,1,-66,-5)"/>
<path style="fill:none;stroke-width:1.795;stroke-linecap:butt;stroke-linejoin:miter;stroke:rgb(64.704895%,43.136597%,99.998474%);stroke-opacity:0.7;stroke-miterlimit:3.25;" d="M 361.59375 65.816406 L 161.972656 181.066406 " transform="matrix(1,0,0,1,-66,-5)"/>
<path style="fill:none;stroke-width:1.795;stroke-linecap:butt;stroke-linejoin:miter;stroke:rgb(64.704895%,43.136597%,99.998474%);stroke-opacity:0.7;stroke-miterlimit:3.25;" d="M 362.59375 67.121094 L 128.40625 301.304688 " transform="matrix(1,0,0,1,-66,-5)"/>
<path style="fill:none;stroke-width:1.795;stroke-linecap:butt;stroke-linejoin:miter;stroke:rgb(64.704895%,43.136597%,99.998474%);stroke-opacity:0.7;stroke-miterlimit:3.25;" d="M 365.414062 68.75 L 336.101562 178.136719 " transform="matrix(1,0,0,1,-66,-5)"/>
<path style="fill:none;stroke-width:1.795;stroke-linecap:butt;stroke-linejoin:miter;stroke:rgb(64.704895%,43.136597%,99.998474%);stroke-opacity:0.7;stroke-miterlimit:3.25;" d="M 363.894531 68.121094 L 248.644531 267.738281 " transform="matrix(1,0,0,1,-66,-5)"/>
<path style="fill:none;stroke-width:1.795;stroke-linecap:butt;stroke-linejoin:miter;stroke:rgb(64.704895%,43.136597%,99.998474%);stroke-opacity:0.7;stroke-miterlimit:3.25;" d="M 360.75 62.671875 L 130.25 62.671875 " transform="matrix(1,0,0,1,-66,-5)"/>
<path style="fill:none;stroke-width:1.795;stroke-linecap:butt;stroke-linejoin:miter;stroke:rgb(64.704895%,43.136597%,99.998474%);stroke-opacity:0.7;stroke-miterlimit:3.25;" d="M 360.964844 64.300781 L 251.578125 93.609375 " transform="matrix(1,0,0,1,-66,-5)"/>
<path style="fill:none;stroke-width:1.795;stroke-linecap:butt;stroke-linejoin:miter;stroke:rgb(64.704895%,43.136597%,99.998474%);stroke-opacity:0.7;stroke-miterlimit:3.25;" d="M 367.042969 68.964844 L 367.042969 299.460938 " transform="matrix(1,0,0,1,-66,-5)"/>
<path style="fill:none;stroke-width:1.795;stroke-linecap:butt;stroke-linejoin:miter;stroke:rgb(64.704895%,43.136597%,99.998474%);stroke-opacity:0.7;stroke-miterlimit:3.25;" d="M 154.898438 190.289062 L 125.585938 299.675781 " transform="matrix(1,0,0,1,-66,-5)"/>
<path style="fill:none;stroke-width:1.795;stroke-linecap:butt;stroke-linejoin:miter;stroke:rgb(64.704895%,43.136597%,99.998474%);stroke-opacity:0.7;stroke-miterlimit:3.25;" d="M 162.816406 184.210938 L 328.183594 184.210938 " transform="matrix(1,0,0,1,-66,-5)"/>
<path style="fill:none;stroke-width:1.795;stroke-linecap:butt;stroke-linejoin:miter;stroke:rgb(64.704895%,43.136597%,99.998474%);stroke-opacity:0.7;stroke-miterlimit:3.25;" d="M 160.972656 188.660156 L 241.050781 268.738281 " transform="matrix(1,0,0,1,-66,-5)"/>
<path style="fill:none;stroke-width:1.795;stroke-linecap:butt;stroke-linejoin:miter;stroke:rgb(64.704895%,43.136597%,99.998474%);stroke-opacity:0.7;stroke-miterlimit:3.25;" d="M 154.898438 178.136719 L 125.585938 68.75 " transform="matrix(1,0,0,1,-66,-5)"/>
<path style="fill:none;stroke-width:1.795;stroke-linecap:butt;stroke-linejoin:miter;stroke:rgb(64.704895%,43.136597%,99.998474%);stroke-opacity:0.7;stroke-miterlimit:3.25;" d="M 160.972656 179.765625 L 241.050781 99.6875 " transform="matrix(1,0,0,1,-66,-5)"/>
<path style="fill:none;stroke-width:1.795;stroke-linecap:butt;stroke-linejoin:miter;stroke:rgb(64.704895%,43.136597%,99.998474%);stroke-opacity:0.7;stroke-miterlimit:3.25;" d="M 161.972656 187.359375 L 361.59375 302.609375 " transform="matrix(1,0,0,1,-66,-5)"/>
<path style="fill:none;stroke-width:1.795;stroke-linecap:butt;stroke-linejoin:miter;stroke:rgb(64.704895%,43.136597%,99.998474%);stroke-opacity:0.7;stroke-miterlimit:3.25;" d="M 129.40625 302.609375 L 329.027344 187.359375 " transform="matrix(1,0,0,1,-66,-5)"/>
<path style="fill:none;stroke-width:1.795;stroke-linecap:butt;stroke-linejoin:miter;stroke:rgb(64.704895%,43.136597%,99.998474%);stroke-opacity:0.7;stroke-miterlimit:3.25;" d="M 130.035156 304.125 L 239.421875 274.816406 " transform="matrix(1,0,0,1,-66,-5)"/>
<path style="fill:none;stroke-width:1.795;stroke-linecap:butt;stroke-linejoin:miter;stroke:rgb(64.704895%,43.136597%,99.998474%);stroke-opacity:0.7;stroke-miterlimit:3.25;" d="M 123.957031 299.460938 L 123.957031 68.964844 " transform="matrix(1,0,0,1,-66,-5)"/>
<path style="fill:none;stroke-width:1.795;stroke-linecap:butt;stroke-linejoin:miter;stroke:rgb(64.704895%,43.136597%,99.998474%);stroke-opacity:0.7;stroke-miterlimit:3.25;" d="M 127.105469 300.304688 L 242.355469 100.6875 " transform="matrix(1,0,0,1,-66,-5)"/>
<path style="fill:none;stroke-width:1.795;stroke-linecap:butt;stroke-linejoin:miter;stroke:rgb(64.704895%,43.136597%,99.998474%);stroke-opacity:0.7;stroke-miterlimit:3.25;" d="M 130.25 305.753906 L 360.75 305.753906 " transform="matrix(1,0,0,1,-66,-5)"/>
<path style="fill:none;stroke-width:1.795;stroke-linecap:butt;stroke-linejoin:miter;stroke:rgb(64.704895%,43.136597%,99.998474%);stroke-opacity:0.7;stroke-miterlimit:3.25;" d="M 330.027344 188.660156 L 249.949219 268.738281 " transform="matrix(1,0,0,1,-66,-5)"/>
<path style="fill:none;stroke-width:1.795;stroke-linecap:butt;stroke-linejoin:miter;stroke:rgb(64.704895%,43.136597%,99.998474%);stroke-opacity:0.7;stroke-miterlimit:3.25;" d="M 329.027344 181.066406 L 129.40625 65.816406 " transform="matrix(1,0,0,1,-66,-5)"/>
<path style="fill:none;stroke-width:1.795;stroke-linecap:butt;stroke-linejoin:miter;stroke:rgb(64.704895%,43.136597%,99.998474%);stroke-opacity:0.7;stroke-miterlimit:3.25;" d="M 330.027344 179.765625 L 249.949219 99.6875 " transform="matrix(1,0,0,1,-66,-5)"/>
<path style="fill:none;stroke-width:1.795;stroke-linecap:butt;stroke-linejoin:miter;stroke:rgb(64.704895%,43.136597%,99.998474%);stroke-opacity:0.7;stroke-miterlimit:3.25;" d="M 336.101562 190.289062 L 365.414062 299.675781 " transform="matrix(1,0,0,1,-66,-5)"/>
<path style="fill:none;stroke-width:1.795;stroke-linecap:butt;stroke-linejoin:miter;stroke:rgb(64.704895%,43.136597%,99.998474%);stroke-opacity:0.7;stroke-miterlimit:3.25;" d="M 242.355469 267.738281 L 127.105469 68.121094 " transform="matrix(1,0,0,1,-66,-5)"/>
<path style="fill:none;stroke-width:1.795;stroke-linecap:butt;stroke-linejoin:miter;stroke:rgb(64.704895%,43.136597%,99.998474%);stroke-opacity:0.7;stroke-miterlimit:3.25;" d="M 245.5 266.894531 L 245.5 101.53125 " transform="matrix(1,0,0,1,-66,-5)"/>
<path style="fill:none;stroke-width:1.795;stroke-linecap:butt;stroke-linejoin:miter;stroke:rgb(64.704895%,43.136597%,99.998474%);stroke-opacity:0.7;stroke-miterlimit:3.25;" d="M 251.578125 274.816406 L 360.964844 304.125 " transform="matrix(1,0,0,1,-66,-5)"/>
<path style="fill:none;stroke-width:1.795;stroke-linecap:butt;stroke-linejoin:miter;stroke:rgb(64.704895%,43.136597%,99.998474%);stroke-opacity:0.7;stroke-miterlimit:3.25;" d="M 130.035156 64.300781 L 239.421875 93.609375 " transform="matrix(1,0,0,1,-66,-5)"/>
<path style="fill:none;stroke-width:1.795;stroke-linecap:butt;stroke-linejoin:miter;stroke:rgb(64.704895%,43.136597%,99.998474%);stroke-opacity:0.7;stroke-miterlimit:3.25;" d="M 128.40625 67.121094 L 362.59375 301.304688 " transform="matrix(1,0,0,1,-66,-5)"/>
<path style="fill:none;stroke-width:1.795;stroke-linecap:butt;stroke-linejoin:miter;stroke:rgb(64.704895%,43.136597%,99.998474%);stroke-opacity:0.7;stroke-miterlimit:3.25;" d="M 248.644531 100.6875 L 363.894531 300.304688 " transform="matrix(1,0,0,1,-66,-5)"/>
<path style="fill:none;stroke-width:1.795;stroke-linecap:square;stroke-linejoin:miter;stroke:rgb(64.704895%,43.136597%,99.998474%);stroke-opacity:0.7;stroke-miterlimit:3.25;" d="M 161.972656 181.066406 Z M 161.972656 181.066406 " transform="matrix(1,0,0,1,-66,-5)"/>
<path style="fill:none;stroke-width:1.795;stroke-linecap:square;stroke-linejoin:miter;stroke:rgb(64.704895%,43.136597%,99.998474%);stroke-opacity:0.7;stroke-miterlimit:3.25;" d="M 128.40625 301.304688 Z M 128.40625 301.304688 " transform="matrix(1,0,0,1,-66,-5)"/>
<path style="fill:none;stroke-width:1.795;stroke-linecap:square;stroke-linejoin:miter;stroke:rgb(64.704895%,43.136597%,99.998474%);stroke-opacity:0.7;stroke-miterlimit:3.25;" d="M 336.101562 178.136719 Z M 336.101562 178.136719 " transform="matrix(1,0,0,1,-66,-5)"/>
<path style="fill:none;stroke-width:1.795;stroke-linecap:square;stroke-linejoin:miter;stroke:rgb(64.704895%,43.136597%,99.998474%);stroke-opacity:0.7;stroke-miterlimit:3.25;" d="M 248.644531 267.738281 Z M 248.644531 267.738281 " transform="matrix(1,0,0,1,-66,-5)"/>
<path style="fill:none;stroke-width:1.795;stroke-linecap:square;stroke-linejoin:miter;stroke:rgb(64.704895%,43.136597%,99.998474%);stroke-opacity:0.7;stroke-miterlimit:3.25;" d="M 130.25 62.671875 Z M 130.25 62.671875 " transform="matrix(1,0,0,1,-66,-5)"/>
<path style="fill:none;stroke-width:1.795;stroke-linecap:square;stroke-linejoin:miter;stroke:rgb(64.704895%,43.136597%,99.998474%);stroke-opacity:0.7;stroke-miterlimit:3.25;" d="M 251.578125 93.609375 Z M 251.578125 93.609375 " transform="matrix(1,0,0,1,-66,-5)"/>
<path style="fill:none;stroke-width:1.795;stroke-linecap:square;stroke-linejoin:miter;stroke:rgb(64.704895%,43.136597%,99.998474%);stroke-opacity:0.7;stroke-miterlimit:3.25;" d="M 367.042969 299.460938 Z M 367.042969 299.460938 " transform="matrix(1,0,0,1,-66,-5)"/>
<path style="fill:none;stroke-width:1.795;stroke-linecap:square;stroke-linejoin:miter;stroke:rgb(64.704895%,43.136597%,99.998474%);stroke-opacity:0.7;stroke-miterlimit:3.25;" d="M 125.585938 299.675781 Z M 125.585938 299.675781 " transform="matrix(1,0,0,1,-66,-5)"/>
<path style="fill:none;stroke-width:1.795;stroke-linecap:square;stroke-linejoin:miter;stroke:rgb(64.704895%,43.136597%,99.998474%);stroke-opacity:0.7;stroke-miterlimit:3.25;" d="M 328.183594 184.210938 Z M 328.183594 184.210938 " transform="matrix(1,0,0,1,-66,-5)"/>
<path style="fill:none;stroke-width:1.795;stroke-linecap:square;stroke-linejoin:miter;stroke:rgb(64.704895%,43.136597%,99.998474%);stroke-opacity:0.7;stroke-miterlimit:3.25;" d="M 241.050781 268.738281 Z M 241.050781 268.738281 " transform="matrix(1,0,0,1,-66,-5)"/>
<path style="fill:none;stroke-width:1.795;stroke-linecap:square;stroke-linejoin:miter;stroke:rgb(64.704895%,43.136597%,99.998474%);stroke-opacity:0.7;stroke-miterlimit:3.25;" d="M 125.585938 68.75 Z M 125.585938 68.75 " transform="matrix(1,0,0,1,-66,-5)"/>
<path style="fill:none;stroke-width:1.795;stroke-linecap:square;stroke-linejoin:miter;stroke:rgb(64.704895%,43.136597%,99.998474%);stroke-opacity:0.7;stroke-miterlimit:3.25;" d="M 241.050781 99.6875 Z M 241.050781 99.6875 " transform="matrix(1,0,0,1,-66,-5)"/>
<path style="fill:none;stroke-width:1.795;stroke-linecap:square;stroke-linejoin:miter;stroke:rgb(64.704895%,43.136597%,99.998474%);stroke-opacity:0.7;stroke-miterlimit:3.25;" d="M 361.59375 302.609375 Z M 361.59375 302.609375 " transform="matrix(1,0,0,1,-66,-5)"/>
<path style="fill:none;stroke-width:1.795;stroke-linecap:square;stroke-linejoin:miter;stroke:rgb(64.704895%,43.136597%,99.998474%);stroke-opacity:0.7;stroke-miterlimit:3.25;" d="M 329.027344 187.359375 Z M 329.027344 187.359375 " transform="matrix(1,0,0,1,-66,-5)"/>
<path style="fill:none;stroke-width:1.795;stroke-linecap:square;stroke-linejoin:miter;stroke:rgb(64.704895%,43.136597%,99.998474%);stroke-opacity:0.7;stroke-miterlimit:3.25;" d="M 239.421875 274.816406 Z M 239.421875 274.816406 " transform="matrix(1,0,0,1,-66,-5)"/>
<path style="fill:none;stroke-width:1.795;stroke-linecap:square;stroke-linejoin:miter;stroke:rgb(64.704895%,43.136597%,99.998474%);stroke-opacity:0.7;stroke-miterlimit:3.25;" d="M 123.957031 68.964844 Z M 123.957031 68.964844 " transform="matrix(1,0,0,1,-66,-5)"/>
<path style="fill:none;stroke-width:1.795;stroke-linecap:square;stroke-linejoin:miter;stroke:rgb(64.704895%,43.136597%,99.998474%);stroke-opacity:0.7;stroke-miterlimit:3.25;" d="M 242.355469 100.6875 Z M 242.355469 100.6875 " transform="matrix(1,0,0,1,-66,-5)"/>
<path style="fill:none;stroke-width:1.795;stroke-linecap:square;stroke-linejoin:miter;stroke:rgb(64.704895%,43.136597%,99.998474%);stroke-opacity:0.7;stroke-miterlimit:3.25;" d="M 360.75 305.753906 Z M 360.75 305.753906 " transform="matrix(1,0,0,1,-66,-5)"/>
<path style="fill:none;stroke-width:1.795;stroke-linecap:square;stroke-linejoin:miter;stroke:rgb(64.704895%,43.136597%,99.998474%);stroke-opacity:0.7;stroke-miterlimit:3.25;" d="M 249.949219 268.738281 Z M 249.949219 268.738281 " transform="matrix(1,0,0,1,-66,-5)"/>
<path style="fill:none;stroke-width:1.795;stroke-linecap:square;stroke-linejoin:miter;stroke:rgb(64.704895%,43.136597%,99.998474%);stroke-opacity:0.7;stroke-miterlimit:3.25;" d="M 129.40625 65.816406 Z M 129.40625 65.816406 " transform="matrix(1,0,0,1,-66,-5)"/>
<path style="fill:none;stroke-width:1.795;stroke-linecap:square;stroke-linejoin:miter;stroke:rgb(64.704895%,43.136597%,99.998474%);stroke-opacity:0.7;stroke-miterlimit:3.25;" d="M 249.949219 99.6875 Z M 249.949219 99.6875 " transform="matrix(1,0,0,1,-66,-5)"/>
<path style="fill:none;stroke-width:1.795;stroke-linecap:square;stroke-linejoin:miter;stroke:rgb(64.704895%,43.136597%,99.998474%);stroke-opacity:0.7;stroke-miterlimit:3.25;" d="M 365.414062 299.675781 Z M 365.414062 299.675781 " transform="matrix(1,0,0,1,-66,-5)"/>
<path style="fill:none;stroke-width:1.795;stroke-linecap:square;stroke-linejoin:miter;stroke:rgb(64.704895%,43.136597%,99.998474%);stroke-opacity:0.7;stroke-miterlimit:3.25;" d="M 127.105469 68.121094 Z M 127.105469 68.121094 " transform="matrix(1,0,0,1,-66,-5)"/>
<path style="fill:none;stroke-width:1.795;stroke-linecap:square;stroke-linejoin:miter;stroke:rgb(64.704895%,43.136597%,99.998474%);stroke-opacity:0.7;stroke-miterlimit:3.25;" d="M 245.5 101.53125 Z M 245.5 101.53125 " transform="matrix(1,0,0,1,-66,-5)"/>
<path style="fill:none;stroke-width:1.795;stroke-linecap:square;stroke-linejoin:miter;stroke:rgb(64.704895%,43.136597%,99.998474%);stroke-opacity:0.7;stroke-miterlimit:3.25;" d="M 360.964844 304.125 Z M 360.964844 304.125 " transform="matrix(1,0,0,1,-66,-5)"/>
<path style="fill:none;stroke-width:1.795;stroke-linecap:square;stroke-linejoin:miter;stroke:rgb(64.704895%,43.136597%,99.998474%);stroke-opacity:0.7;stroke-miterlimit:3.25;" d="M 239.421875 93.609375 Z M 239.421875 93.609375 " transform="matrix(1,0,0,1,-66,-5)"/>
<path style="fill:none;stroke-width:1.795;stroke-linecap:square;stroke-linejoin:miter;stroke:rgb(64.704895%,43.136597%,99.998474%);stroke-opacity:0.7;stroke-miterlimit:3.25;" d="M 362.59375 301.304688 Z M 362.59375 301.304688 " transform="matrix(1,0,0,1,-66,-5)"/>
<path style="fill:none;stroke-width:1.795;stroke-linecap:square;stroke-linejoin:miter;stroke:rgb(64.704895%,43.136597%,99.998474%);stroke-opacity:0.7;stroke-miterlimit:3.25;" d="M 363.894531 300.304688 Z M 363.894531 300.304688 " transform="matrix(1,0,0,1,-66,-5)"/>
<path style="fill-rule:evenodd;fill:rgb(64.704895%,43.136597%,99.998474%);fill-opacity:1;stroke-width:1;stroke-linecap:square;stroke-linejoin:miter;stroke:rgb(0%,0%,0%);stroke-opacity:0.7;stroke-miterlimit:3.25;" d="M 373.332031 62.671875 C 373.332031 61.003906 372.671875 59.402344 371.488281 58.222656 C 370.308594 57.042969 368.710938 56.378906 367.042969 56.378906 C 365.371094 56.378906 363.773438 57.042969 362.59375 58.222656 C 361.414062 59.402344 360.75 61.003906 360.75 62.671875 C 360.75 64.339844 361.414062 65.941406 362.59375 67.121094 C 363.773438 68.300781 365.371094 68.964844 367.042969 68.964844 C 368.710938 68.964844 370.308594 68.300781 371.488281 67.121094 C 372.671875 65.941406 373.332031 64.339844 373.332031 62.671875 Z M 373.332031 62.671875 " transform="matrix(1,0,0,1,-66,-5)"/>
<path style="fill-rule:evenodd;fill:rgb(64.704895%,43.136597%,99.998474%);fill-opacity:1;stroke-width:1;stroke-linecap:square;stroke-linejoin:miter;stroke:rgb(0%,0%,0%);stroke-opacity:0.7;stroke-miterlimit:3.25;" d="M 162.816406 184.210938 C 162.816406 182.542969 162.152344 180.945312 160.972656 179.765625 C 159.792969 178.585938 158.195312 177.921875 156.527344 177.921875 C 154.855469 177.921875 153.257812 178.585938 152.078125 179.765625 C 150.898438 180.945312 150.234375 182.542969 150.234375 184.210938 C 150.234375 185.882812 150.898438 187.480469 152.078125 188.660156 C 153.257812 189.839844 154.855469 190.503906 156.527344 190.503906 C 158.195312 190.503906 159.792969 189.839844 160.972656 188.660156 C 162.152344 187.480469 162.816406 185.882812 162.816406 184.210938 Z M 162.816406 184.210938 " transform="matrix(1,0,0,1,-66,-5)"/>
<path style="fill-rule:evenodd;fill:rgb(64.704895%,43.136597%,99.998474%);fill-opacity:1;stroke-width:1;stroke-linecap:square;stroke-linejoin:miter;stroke:rgb(0%,0%,0%);stroke-opacity:0.7;stroke-miterlimit:3.25;" d="M 130.25 305.753906 C 130.25 304.085938 129.585938 302.484375 128.40625 301.304688 C 127.226562 300.125 125.628906 299.460938 123.957031 299.460938 C 122.289062 299.460938 120.691406 300.125 119.511719 301.304688 C 118.328125 302.484375 117.667969 304.085938 117.667969 305.753906 C 117.667969 307.421875 118.328125 309.023438 119.511719 310.203125 C 120.691406 311.382812 122.289062 312.046875 123.957031 312.046875 C 125.628906 312.046875 127.226562 311.382812 128.40625 310.203125 C 129.585938 309.023438 130.25 307.421875 130.25 305.753906 Z M 130.25 305.753906 " transform="matrix(1,0,0,1,-66,-5)"/>
<path style="fill-rule:evenodd;fill:rgb(64.704895%,43.136597%,99.998474%);fill-opacity:1;stroke-width:1;stroke-linecap:square;stroke-linejoin:miter;stroke:rgb(0%,0%,0%);stroke-opacity:0.7;stroke-miterlimit:3.25;" d="M 340.765625 184.210938 C 340.765625 182.542969 340.101562 180.945312 338.921875 179.765625 C 337.742188 178.585938 336.144531 177.921875 334.472656 177.921875 C 332.804688 177.921875 331.207031 178.585938 330.027344 179.765625 C 328.847656 180.945312 328.183594 182.542969 328.183594 184.210938 C 328.183594 185.882812 328.847656 187.480469 330.027344 188.660156 C 331.207031 189.839844 332.804688 190.503906 334.472656 190.503906 C 336.144531 190.503906 337.742188 189.839844 338.921875 188.660156 C 340.101562 187.480469 340.765625 185.882812 340.765625 184.210938 Z M 340.765625 184.210938 " transform="matrix(1,0,0,1,-66,-5)"/>
<path style="fill-rule:evenodd;fill:rgb(64.704895%,43.136597%,99.998474%);fill-opacity:1;stroke-width:1;stroke-linecap:square;stroke-linejoin:miter;stroke:rgb(0%,0%,0%);stroke-opacity:0.7;stroke-miterlimit:3.25;" d="M 251.792969 273.1875 C 251.792969 271.519531 251.128906 269.917969 249.949219 268.738281 C 248.769531 267.558594 247.167969 266.894531 245.5 266.894531 C 243.832031 266.894531 242.230469 267.558594 241.050781 268.738281 C 239.871094 269.917969 239.207031 271.519531 239.207031 273.1875 C 239.207031 274.855469 239.871094 276.457031 241.050781 277.636719 C 242.230469 278.816406 243.832031 279.480469 245.5 279.480469 C 247.167969 279.480469 248.769531 278.816406 249.949219 277.636719 C 251.128906 276.457031 251.792969 274.855469 251.792969 273.1875 Z M 251.792969 273.1875 " transform="matrix(1,0,0,1,-66,-5)"/>
<path style="fill-rule:evenodd;fill:rgb(64.704895%,43.136597%,99.998474%);fill-opacity:1;stroke-width:1;stroke-linecap:square;stroke-linejoin:miter;stroke:rgb(0%,0%,0%);stroke-opacity:0.7;stroke-miterlimit:3.25;" d="M 130.25 62.671875 C 130.25 61.003906 129.585938 59.402344 128.40625 58.222656 C 127.226562 57.042969 125.628906 56.378906 123.957031 56.378906 C 122.289062 56.378906 120.691406 57.042969 119.511719 58.222656 C 118.328125 59.402344 117.667969 61.003906 117.667969 62.671875 C 117.667969 64.339844 118.328125 65.941406 119.511719 67.121094 C 120.691406 68.300781 122.289062 68.964844 123.957031 68.964844 C 125.628906 68.964844 127.226562 68.300781 128.40625 67.121094 C 129.585938 65.941406 130.25 64.339844 130.25 62.671875 Z M 130.25 62.671875 " transform="matrix(1,0,0,1,-66,-5)"/>
<path style="fill-rule:evenodd;fill:rgb(64.704895%,43.136597%,99.998474%);fill-opacity:1;stroke-width:1;stroke-linecap:square;stroke-linejoin:miter;stroke:rgb(0%,0%,0%);stroke-opacity:0.7;stroke-miterlimit:3.25;" d="M 251.792969 95.238281 C 251.792969 93.570312 251.128906 91.96875 249.949219 90.789062 C 248.769531 89.609375 247.167969 88.945312 245.5 88.945312 C 243.832031 88.945312 242.230469 89.609375 241.050781 90.789062 C 239.871094 91.96875 239.207031 93.570312 239.207031 95.238281 C 239.207031 96.90625 239.871094 98.507812 241.050781 99.6875 C 242.230469 100.867188 243.832031 101.53125 245.5 101.53125 C 247.167969 101.53125 248.769531 100.867188 249.949219 99.6875 C 251.128906 98.507812 251.792969 96.90625 251.792969 95.238281 Z M 251.792969 95.238281 " transform="matrix(1,0,0,1,-66,-5)"/>
<path style="fill-rule:evenodd;fill:rgb(64.704895%,43.136597%,99.998474%);fill-opacity:1;stroke-width:1;stroke-linecap:square;stroke-linejoin:miter;stroke:rgb(0%,0%,0%);stroke-opacity:0.7;stroke-miterlimit:3.25;" d="M 373.332031 305.753906 C 373.332031 304.085938 372.671875 302.484375 371.488281 301.304688 C 370.308594 300.125 368.710938 299.460938 367.042969 299.460938 C 365.371094 299.460938 363.773438 300.125 362.59375 301.304688 C 361.414062 302.484375 360.75 304.085938 360.75 305.753906 C 360.75 307.421875 361.414062 309.023438 362.59375 310.203125 C 363.773438 311.382812 365.371094 312.046875 367.042969 312.046875 C 368.710938 312.046875 370.308594 311.382812 371.488281 310.203125 C 372.671875 309.023438 373.332031 307.421875 373.332031 305.753906 Z M 373.332031 305.753906 " transform="matrix(1,0,0,1,-66,-5)"/>
</g>
</svg>
