<?xml version="1.0" encoding="UTF-8" standalone="no"?><!DOCTYPE svg PUBLIC "-//W3C//DTD SVG 1.1//EN" "http://www.w3.org/Graphics/SVG/1.1/DTD/svg11.dtd"><svg width="301px" height="315px" version="1.1" xmlns="http://www.w3.org/2000/svg" xmlns:xlink="http://www.w3.org/1999/xlink" xml:space="preserve" xmlns:serif="http://www.serif.com/" style="fill-rule:evenodd;clip-rule:evenodd;stroke-linejoin:round;stroke-miterlimit:2;"><rect id="Artboard1" x="0" y="0" width="300.709" height="314.623" style="fill:none;"/><g id="Layer-1" serif:id="Layer 1"><path id="path10261" d="M70.877,181.417l65.464,0l32.732,56.693c0.835,-1.458 -130.927,0 -130.927,0l32.731,-56.693Z" style="fill:#c4deb6;fill-rule:nonzero;"/><path id="path10263" d="M136.341,68.032l32.732,56.692l-32.732,56.693l-65.464,0l65.464,-113.385Z" style="fill:#eeabab;fill-rule:nonzero;"/><path id="path10265" d="M169.073,124.724c-0,0 65.463,113.386 65.463,113.386l-65.463,0l-32.732,-56.693l32.732,-56.693Z" style="fill:#b2c2eb;fill-rule:nonzero;"/><circle id="circle10376" cx="38.146" cy="238.11" r="10" style="fill:#909090;"/><circle id="circle10400" cx="169.073" cy="238.11" r="10" style="fill:#909090;"/><circle id="circle10402" cx="234.377" cy="238.11" r="10" style="fill:#909090;"/><circle id="circle10404" cx="136.341" cy="181.417" r="10" style="fill:#909090;"/><circle id="circle10408" cx="71.706" cy="181.417" r="10" style="fill:#909090;"/><circle id="circle10410" cx="169.073" cy="124.724" r="10" style="fill:#909090;"/><circle id="circle10412" cx="136.341" cy="68.032" r="10" style="fill:#909090;"/><g id="g10537"><path id="path10522" d="M54.396,78.594l16.365,28.346l-16.365,28.347l-32.732,-0l32.732,-56.693Z" style="fill:#eeabab;fill-rule:nonzero;"/><circle id="circle10524" cx="54.396" cy="135.287" r="5" style="fill:#909090;"/><circle id="circle10526" cx="22.078" cy="135.287" r="5" style="fill:#909090;"/><circle id="circle10528" cx="70.761" cy="106.94" r="5" style="fill:#909090;"/><circle id="circle10530" cx="54.396" cy="78.594" r="5" style="fill:#909090;"/></g><g id="text10541"><text x="49.279px" y="97.381px" style="font-family:'Helvetica';font-size:13.333px;fill:#ca0000;">X</text></g><g id="text10545"><text x="55.216px" y="112.352px" style="font-family:'Helvetica';font-size:13.333px;fill:#ca0000;">X</text></g><g id="text10549"><text x="48.006px" y="129.728px" style="font-family:'Helvetica';font-size:13.333px;fill:#ca0000;">X</text></g><g id="text10553"><text x="29.64px" y="133.397px" style="font-family:'Helvetica';font-size:13.333px;fill:#ca0000;">X</text></g><g id="g10667"><path id="path10657" d="M97.063,5l16.366,28.346l-16.366,28.347l-32.732,-0l32.732,-56.693Z" style="fill:#eeabab;fill-rule:nonzero;"/><circle id="circle10659" cx="97.063" cy="61.693" r="5" style="fill:#909090;"/><circle id="circle10661" cx="64.745" cy="61.693" r="5" style="fill:#909090;"/><circle id="circle10663" cx="113.429" cy="33.346" r="5" style="fill:#909090;"/><circle id="circle10665" cx="97.063" cy="5" r="5" style="fill:#909090;"/></g><g id="text10671"><text x="91.946px" y="23.787px" style="font-family:'Helvetica';font-size:13.333px;fill:#5640d1;">Z</text></g><g id="text10675"><text x="97.883px" y="38.758px" style="font-family:'Helvetica';font-size:13.333px;fill:#5640d1;">Z</text></g><g id="text10679"><text x="90.673px" y="56.134px" style="font-family:'Helvetica';font-size:13.333px;fill:#5640d1;">Z</text></g><g id="text10683"><text x="72.307px" y="59.803px" style="font-family:'Helvetica';font-size:13.333px;fill:#5640d1;">Z</text></g><path id="path11878" d="M213.17,77.48c0,0 32.732,56.693 32.732,56.693l-32.732,0l-16.366,-28.346l16.366,-28.347Z" style="fill:#b2c2eb;fill-rule:nonzero;"/><circle id="circle11880" cx="213.17" cy="134.173" r="5" style="fill:#909090;"/><circle id="circle11882" cx="245.823" cy="134.173" r="5" style="fill:#909090;"/><circle id="circle11884" cx="196.804" cy="105.827" r="5" style="fill:#909090;"/><circle id="circle11886" cx="213.17" cy="77.48" r="5" style="fill:#909090;"/><path id="path11899" d="M21.366,280.355l32.732,-0l16.365,28.346c0.418,-0.729 -65.463,-0 -65.463,-0l16.366,-28.346Z" style="fill:#c4deb6;fill-rule:nonzero;"/><circle id="circle11901" cx="5" cy="308.701" r="5" style="fill:#909090;"/><circle id="circle11903" cx="70.463" cy="308.701" r="5" style="fill:#909090;"/><circle id="circle11905" cx="54.098" cy="280.355" r="5" style="fill:#909090;"/><circle id="circle11907" cx="21.78" cy="280.355" r="5" style="fill:#909090;"/><path id="path12471" d="M262.268,162.52c-0,-0 32.731,56.693 32.731,56.693l-32.731,-0l-16.366,-28.347l16.366,-28.346Z" style="fill:#b2c2eb;fill-rule:nonzero;"/><circle id="circle12473" cx="262.268" cy="219.213" r="5" style="fill:#909090;"/><circle id="circle12475" cx="294.92" cy="219.213" r="5" style="fill:#909090;"/><circle id="circle12477" cx="245.902" cy="190.866" r="5" style="fill:#909090;"/><circle id="circle12479" cx="262.268" cy="162.52" r="5" style="fill:#909090;"/><path id="path12597" d="M118.338,280.63l32.732,0l16.366,28.347c0.418,-0.73 -65.463,-0 -65.463,-0l16.365,-28.347Z" style="fill:#c4deb6;fill-rule:nonzero;"/><circle id="circle12599" cx="101.973" cy="308.977" r="5" style="fill:#909090;"/><circle id="circle12601" cx="167.436" cy="308.977" r="5" style="fill:#909090;"/><circle id="circle12603" cx="151.07" cy="280.63" r="5" style="fill:#909090;"/><circle id="circle12605" cx="118.753" cy="280.63" r="5" style="fill:#909090;"/><g id="text12609"><text x="21.44px" y="295.003px" style="font-family:'Helvetica';font-size:13.333px;fill:#ca0000;">X</text></g><g id="text12613"><text x="42.405px" y="295.003px" style="font-family:'Helvetica';font-size:13.333px;fill:#ca0000;">X</text></g><g id="text12617"><text x="13.191px" y="306.688px" style="font-family:'Helvetica';font-size:13.333px;fill:#ca0000;">X</text></g><g id="text12621"><text x="51.685px" y="306.688px" style="font-family:'Helvetica';font-size:13.333px;fill:#ca0000;">X</text></g><g id="text12625"><text x="122.037px" y="292.914px" style="font-family:'Helvetica';font-size:13.333px;fill:#5640d1;">Z</text></g><g id="text12629"><text x="137.847px" y="292.914px" style="font-family:'Helvetica';font-size:13.333px;fill:#5640d1;">Z</text></g><g id="text12633"><text x="110.155px" y="306.142px" style="font-family:'Helvetica';font-size:13.333px;fill:#5640d1;">Z</text></g><g id="text12637"><text x="149.336px" y="306.142px" style="font-family:'Helvetica';font-size:13.333px;fill:#5640d1;">Z</text></g><g id="text12641"><text x="201.804px" y="109.606px" style="font-family:'Helvetica';font-size:13.333px;fill:#ca0000;">X</text></g><g id="text12645"><text x="208.351px" y="94.488px" style="font-family:'Helvetica';font-size:13.333px;fill:#ca0000;">X</text></g><g id="text12649"><text x="211.624px" y="126.614px" style="font-family:'Helvetica';font-size:13.333px;fill:#ca0000;">X</text></g><g id="text12653"><text x="228.808px" y="131.082px" style="font-family:'Helvetica';font-size:13.333px;fill:#ca0000;">X</text></g><g id="text12657"><text x="250.902px" y="194.646px" style="font-family:'Helvetica';font-size:13.333px;fill:#5640d1;">Z</text></g><g id="text12661"><text x="260.721px" y="211.654px" style="font-family:'Helvetica';font-size:13.333px;fill:#5640d1;">Z</text></g><g id="text12665"><text x="277.087px" y="217.323px" style="font-family:'Helvetica';font-size:13.333px;fill:#5640d1;">Z</text></g><g id="text12669"><text x="257.153px" y="179.861px" style="font-family:'Helvetica';font-size:13.333px;fill:#5640d1;">Z</text></g><g id="text13844"><text x="131.526px" y="186.264px" style="font-family:'Helvetica-Bold', 'Helvetica';font-weight:700;font-size:13.333px;fill:#fff;">7</text></g><g id="text14047"><text x="229.41px" y="242.97px" style="font-family:'Helvetica-Bold', 'Helvetica';font-weight:700;font-size:13.333px;fill:#fff;">1</text></g><g id="text14051"><text x="33.136px" y="243.052px" style="font-family:'Helvetica-Bold', 'Helvetica';font-weight:700;font-size:13.333px;fill:#fff;">2</text></g><g id="text14055"><text x="164.336px" y="242.957px" style="font-family:'Helvetica-Bold', 'Helvetica';font-weight:700;font-size:13.333px;fill:#fff;">3</text></g><g id="text14059"><text x="131.592px" y="72.866px" style="font-family:'Helvetica-Bold', 'Helvetica';font-weight:700;font-size:13.333px;fill:#fff;">4</text></g><g id="text14063"><text x="66.868px" y="186.164px" style="font-family:'Helvetica-Bold', 'Helvetica';font-weight:700;font-size:13.333px;fill:#fff;">6</text></g><g id="text14067"><text x="164.235px" y="129.562px" style="font-family:'Helvetica-Bold', 'Helvetica';font-weight:700;font-size:13.333px;fill:#fff;">5</text></g></g></svg>