<?xml version="1.0" encoding="UTF-8"?>
<svg xmlns="http://www.w3.org/2000/svg" xmlns:xlink="http://www.w3.org/1999/xlink" width="360pt" height="359pt" viewBox="0 0 360 359" version="1.1">
<g id="surface7">
<path style="fill:none;stroke-width:1.795;stroke-linecap:butt;stroke-linejoin:miter;stroke:rgb(0%,36.470032%,36.470032%);stroke-opacity:0.7;stroke-miterlimit:3.25;" d="M 380.125 180.46875 L 249.246094 49.589844 " transform="matrix(1,0,0,1,-66,-5)"/>
<path style="fill:none;stroke-width:1.795;stroke-linecap:butt;stroke-linejoin:miter;stroke:rgb(0%,36.470032%,36.470032%);stroke-opacity:0.7;stroke-miterlimit:3.25;" d="M 381.839844 189.105469 L 345.367188 277.160156 " transform="matrix(1,0,0,1,-66,-5)"/>
<path style="fill:none;stroke-width:1.795;stroke-linecap:butt;stroke-linejoin:miter;stroke:rgb(0%,36.470032%,36.470032%);stroke-opacity:0.7;stroke-miterlimit:3.25;" d="M 381.839844 179.320312 L 345.367188 91.265625 " transform="matrix(1,0,0,1,-66,-5)"/>
<path style="fill:none;stroke-width:1.795;stroke-linecap:butt;stroke-linejoin:miter;stroke:rgb(0%,36.470032%,36.470032%);stroke-opacity:0.7;stroke-miterlimit:3.25;" d="M 378.574219 184.210938 L 112.425781 184.210938 " transform="matrix(1,0,0,1,-66,-5)"/>
<path style="fill:none;stroke-width:1.795;stroke-linecap:butt;stroke-linejoin:miter;stroke:rgb(0%,36.470032%,36.470032%);stroke-opacity:0.7;stroke-miterlimit:3.25;" d="M 380.125 187.957031 L 249.246094 318.835938 " transform="matrix(1,0,0,1,-66,-5)"/>
<path style="fill:none;stroke-width:1.795;stroke-linecap:butt;stroke-linejoin:miter;stroke:rgb(0%,36.470032%,36.470032%);stroke-opacity:0.7;stroke-miterlimit:3.25;" d="M 378.976562 182.1875 L 152.550781 88.398438 " transform="matrix(1,0,0,1,-66,-5)"/>
<path style="fill:none;stroke-width:1.795;stroke-linecap:butt;stroke-linejoin:miter;stroke:rgb(0%,36.470032%,36.470032%);stroke-opacity:0.7;stroke-miterlimit:3.25;" d="M 378.976562 186.238281 L 152.550781 280.027344 " transform="matrix(1,0,0,1,-66,-5)"/>
<path style="fill:none;stroke-width:1.795;stroke-linecap:butt;stroke-linejoin:miter;stroke:rgb(0%,36.470032%,36.470032%);stroke-opacity:0.7;stroke-miterlimit:3.25;" d="M 247.527344 50.738281 L 341.316406 277.160156 " transform="matrix(1,0,0,1,-66,-5)"/>
<path style="fill:none;stroke-width:1.795;stroke-linecap:butt;stroke-linejoin:miter;stroke:rgb(0%,36.470032%,36.470032%);stroke-opacity:0.7;stroke-miterlimit:3.25;" d="M 250.390625 47.871094 L 338.449219 84.34375 " transform="matrix(1,0,0,1,-66,-5)"/>
<path style="fill:none;stroke-width:1.795;stroke-linecap:butt;stroke-linejoin:miter;stroke:rgb(0%,36.470032%,36.470032%);stroke-opacity:0.7;stroke-miterlimit:3.25;" d="M 241.753906 49.589844 L 110.875 180.46875 " transform="matrix(1,0,0,1,-66,-5)"/>
<path style="fill:none;stroke-width:1.795;stroke-linecap:butt;stroke-linejoin:miter;stroke:rgb(0%,36.470032%,36.470032%);stroke-opacity:0.7;stroke-miterlimit:3.25;" d="M 245.5 51.140625 L 245.5 317.285156 " transform="matrix(1,0,0,1,-66,-5)"/>
<path style="fill:none;stroke-width:1.795;stroke-linecap:butt;stroke-linejoin:miter;stroke:rgb(0%,36.470032%,36.470032%);stroke-opacity:0.7;stroke-miterlimit:3.25;" d="M 240.609375 47.871094 L 152.550781 84.34375 " transform="matrix(1,0,0,1,-66,-5)"/>
<path style="fill:none;stroke-width:1.795;stroke-linecap:butt;stroke-linejoin:miter;stroke:rgb(0%,36.470032%,36.470032%);stroke-opacity:0.7;stroke-miterlimit:3.25;" d="M 243.472656 50.738281 L 149.683594 277.160156 " transform="matrix(1,0,0,1,-66,-5)"/>
<path style="fill:none;stroke-width:1.795;stroke-linecap:butt;stroke-linejoin:miter;stroke:rgb(0%,36.470032%,36.470032%);stroke-opacity:0.7;stroke-miterlimit:3.25;" d="M 343.339844 276.757812 L 343.339844 91.667969 " transform="matrix(1,0,0,1,-66,-5)"/>
<path style="fill:none;stroke-width:1.795;stroke-linecap:butt;stroke-linejoin:miter;stroke:rgb(0%,36.470032%,36.470032%);stroke-opacity:0.7;stroke-miterlimit:3.25;" d="M 338.449219 280.027344 L 112.023438 186.238281 " transform="matrix(1,0,0,1,-66,-5)"/>
<path style="fill:none;stroke-width:1.795;stroke-linecap:butt;stroke-linejoin:miter;stroke:rgb(0%,36.470032%,36.470032%);stroke-opacity:0.7;stroke-miterlimit:3.25;" d="M 338.449219 284.078125 L 250.390625 320.554688 " transform="matrix(1,0,0,1,-66,-5)"/>
<path style="fill:none;stroke-width:1.795;stroke-linecap:butt;stroke-linejoin:miter;stroke:rgb(0%,36.470032%,36.470032%);stroke-opacity:0.7;stroke-miterlimit:3.25;" d="M 339.597656 278.308594 L 151.402344 90.117188 " transform="matrix(1,0,0,1,-66,-5)"/>
<path style="fill:none;stroke-width:1.795;stroke-linecap:butt;stroke-linejoin:miter;stroke:rgb(0%,36.470032%,36.470032%);stroke-opacity:0.7;stroke-miterlimit:3.25;" d="M 338.046875 282.054688 L 152.953125 282.054688 " transform="matrix(1,0,0,1,-66,-5)"/>
<path style="fill:none;stroke-width:1.795;stroke-linecap:butt;stroke-linejoin:miter;stroke:rgb(0%,36.470032%,36.470032%);stroke-opacity:0.7;stroke-miterlimit:3.25;" d="M 338.449219 88.398438 L 112.023438 182.1875 " transform="matrix(1,0,0,1,-66,-5)"/>
<path style="fill:none;stroke-width:1.795;stroke-linecap:butt;stroke-linejoin:miter;stroke:rgb(0%,36.470032%,36.470032%);stroke-opacity:0.7;stroke-miterlimit:3.25;" d="M 341.316406 91.265625 L 247.527344 317.6875 " transform="matrix(1,0,0,1,-66,-5)"/>
<path style="fill:none;stroke-width:1.795;stroke-linecap:butt;stroke-linejoin:miter;stroke:rgb(0%,36.470032%,36.470032%);stroke-opacity:0.7;stroke-miterlimit:3.25;" d="M 338.046875 86.371094 L 152.953125 86.371094 " transform="matrix(1,0,0,1,-66,-5)"/>
<path style="fill:none;stroke-width:1.795;stroke-linecap:butt;stroke-linejoin:miter;stroke:rgb(0%,36.470032%,36.470032%);stroke-opacity:0.7;stroke-miterlimit:3.25;" d="M 339.597656 90.117188 L 151.402344 278.308594 " transform="matrix(1,0,0,1,-66,-5)"/>
<path style="fill:none;stroke-width:1.795;stroke-linecap:butt;stroke-linejoin:miter;stroke:rgb(0%,36.470032%,36.470032%);stroke-opacity:0.7;stroke-miterlimit:3.25;" d="M 110.875 187.957031 L 241.753906 318.835938 " transform="matrix(1,0,0,1,-66,-5)"/>
<path style="fill:none;stroke-width:1.795;stroke-linecap:butt;stroke-linejoin:miter;stroke:rgb(0%,36.470032%,36.470032%);stroke-opacity:0.7;stroke-miterlimit:3.25;" d="M 109.160156 179.320312 L 145.632812 91.265625 " transform="matrix(1,0,0,1,-66,-5)"/>
<path style="fill:none;stroke-width:1.795;stroke-linecap:butt;stroke-linejoin:miter;stroke:rgb(0%,36.470032%,36.470032%);stroke-opacity:0.7;stroke-miterlimit:3.25;" d="M 109.160156 189.105469 L 145.632812 277.160156 " transform="matrix(1,0,0,1,-66,-5)"/>
<path style="fill:none;stroke-width:1.795;stroke-linecap:butt;stroke-linejoin:miter;stroke:rgb(0%,36.470032%,36.470032%);stroke-opacity:0.7;stroke-miterlimit:3.25;" d="M 243.472656 317.6875 L 149.683594 91.265625 " transform="matrix(1,0,0,1,-66,-5)"/>
<path style="fill:none;stroke-width:1.795;stroke-linecap:butt;stroke-linejoin:miter;stroke:rgb(0%,36.470032%,36.470032%);stroke-opacity:0.7;stroke-miterlimit:3.25;" d="M 240.609375 320.554688 L 152.550781 284.078125 " transform="matrix(1,0,0,1,-66,-5)"/>
<path style="fill:none;stroke-width:1.795;stroke-linecap:butt;stroke-linejoin:miter;stroke:rgb(0%,36.470032%,36.470032%);stroke-opacity:0.7;stroke-miterlimit:3.25;" d="M 147.660156 91.667969 L 147.660156 276.757812 " transform="matrix(1,0,0,1,-66,-5)"/>
<path style="fill:none;stroke-width:1.795;stroke-linecap:square;stroke-linejoin:miter;stroke:rgb(0%,36.470032%,36.470032%);stroke-opacity:0.7;stroke-miterlimit:3.25;" d="M 249.246094 49.589844 Z M 249.246094 49.589844 " transform="matrix(1,0,0,1,-66,-5)"/>
<path style="fill:none;stroke-width:1.795;stroke-linecap:square;stroke-linejoin:miter;stroke:rgb(0%,36.470032%,36.470032%);stroke-opacity:0.7;stroke-miterlimit:3.25;" d="M 345.367188 277.160156 Z M 345.367188 277.160156 " transform="matrix(1,0,0,1,-66,-5)"/>
<path style="fill:none;stroke-width:1.795;stroke-linecap:square;stroke-linejoin:miter;stroke:rgb(0%,36.470032%,36.470032%);stroke-opacity:0.7;stroke-miterlimit:3.25;" d="M 345.367188 91.265625 Z M 345.367188 91.265625 " transform="matrix(1,0,0,1,-66,-5)"/>
<path style="fill:none;stroke-width:1.795;stroke-linecap:square;stroke-linejoin:miter;stroke:rgb(0%,36.470032%,36.470032%);stroke-opacity:0.7;stroke-miterlimit:3.25;" d="M 112.425781 184.210938 Z M 112.425781 184.210938 " transform="matrix(1,0,0,1,-66,-5)"/>
<path style="fill:none;stroke-width:1.795;stroke-linecap:square;stroke-linejoin:miter;stroke:rgb(0%,36.470032%,36.470032%);stroke-opacity:0.7;stroke-miterlimit:3.25;" d="M 249.246094 318.835938 Z M 249.246094 318.835938 " transform="matrix(1,0,0,1,-66,-5)"/>
<path style="fill:none;stroke-width:1.795;stroke-linecap:square;stroke-linejoin:miter;stroke:rgb(0%,36.470032%,36.470032%);stroke-opacity:0.7;stroke-miterlimit:3.25;" d="M 152.550781 88.398438 Z M 152.550781 88.398438 " transform="matrix(1,0,0,1,-66,-5)"/>
<path style="fill:none;stroke-width:1.795;stroke-linecap:square;stroke-linejoin:miter;stroke:rgb(0%,36.470032%,36.470032%);stroke-opacity:0.7;stroke-miterlimit:3.25;" d="M 152.550781 280.027344 Z M 152.550781 280.027344 " transform="matrix(1,0,0,1,-66,-5)"/>
<path style="fill:none;stroke-width:1.795;stroke-linecap:square;stroke-linejoin:miter;stroke:rgb(0%,36.470032%,36.470032%);stroke-opacity:0.7;stroke-miterlimit:3.25;" d="M 341.316406 277.160156 Z M 341.316406 277.160156 " transform="matrix(1,0,0,1,-66,-5)"/>
<path style="fill:none;stroke-width:1.795;stroke-linecap:square;stroke-linejoin:miter;stroke:rgb(0%,36.470032%,36.470032%);stroke-opacity:0.7;stroke-miterlimit:3.25;" d="M 338.449219 84.34375 Z M 338.449219 84.34375 " transform="matrix(1,0,0,1,-66,-5)"/>
<path style="fill:none;stroke-width:1.795;stroke-linecap:square;stroke-linejoin:miter;stroke:rgb(0%,36.470032%,36.470032%);stroke-opacity:0.7;stroke-miterlimit:3.25;" d="M 110.875 180.46875 Z M 110.875 180.46875 " transform="matrix(1,0,0,1,-66,-5)"/>
<path style="fill:none;stroke-width:1.795;stroke-linecap:square;stroke-linejoin:miter;stroke:rgb(0%,36.470032%,36.470032%);stroke-opacity:0.7;stroke-miterlimit:3.25;" d="M 245.5 317.285156 Z M 245.5 317.285156 " transform="matrix(1,0,0,1,-66,-5)"/>
<path style="fill:none;stroke-width:1.795;stroke-linecap:square;stroke-linejoin:miter;stroke:rgb(0%,36.470032%,36.470032%);stroke-opacity:0.7;stroke-miterlimit:3.25;" d="M 152.550781 84.34375 Z M 152.550781 84.34375 " transform="matrix(1,0,0,1,-66,-5)"/>
<path style="fill:none;stroke-width:1.795;stroke-linecap:square;stroke-linejoin:miter;stroke:rgb(0%,36.470032%,36.470032%);stroke-opacity:0.7;stroke-miterlimit:3.25;" d="M 149.683594 277.160156 Z M 149.683594 277.160156 " transform="matrix(1,0,0,1,-66,-5)"/>
<path style="fill:none;stroke-width:1.795;stroke-linecap:square;stroke-linejoin:miter;stroke:rgb(0%,36.470032%,36.470032%);stroke-opacity:0.7;stroke-miterlimit:3.25;" d="M 343.339844 91.667969 Z M 343.339844 91.667969 " transform="matrix(1,0,0,1,-66,-5)"/>
<path style="fill:none;stroke-width:1.795;stroke-linecap:square;stroke-linejoin:miter;stroke:rgb(0%,36.470032%,36.470032%);stroke-opacity:0.7;stroke-miterlimit:3.25;" d="M 112.023438 186.238281 Z M 112.023438 186.238281 " transform="matrix(1,0,0,1,-66,-5)"/>
<path style="fill:none;stroke-width:1.795;stroke-linecap:square;stroke-linejoin:miter;stroke:rgb(0%,36.470032%,36.470032%);stroke-opacity:0.7;stroke-miterlimit:3.25;" d="M 250.390625 320.554688 Z M 250.390625 320.554688 " transform="matrix(1,0,0,1,-66,-5)"/>
<path style="fill:none;stroke-width:1.795;stroke-linecap:square;stroke-linejoin:miter;stroke:rgb(0%,36.470032%,36.470032%);stroke-opacity:0.7;stroke-miterlimit:3.25;" d="M 151.402344 90.117188 Z M 151.402344 90.117188 " transform="matrix(1,0,0,1,-66,-5)"/>
<path style="fill:none;stroke-width:1.795;stroke-linecap:square;stroke-linejoin:miter;stroke:rgb(0%,36.470032%,36.470032%);stroke-opacity:0.7;stroke-miterlimit:3.25;" d="M 152.953125 282.054688 Z M 152.953125 282.054688 " transform="matrix(1,0,0,1,-66,-5)"/>
<path style="fill:none;stroke-width:1.795;stroke-linecap:square;stroke-linejoin:miter;stroke:rgb(0%,36.470032%,36.470032%);stroke-opacity:0.7;stroke-miterlimit:3.25;" d="M 112.023438 182.1875 Z M 112.023438 182.1875 " transform="matrix(1,0,0,1,-66,-5)"/>
<path style="fill:none;stroke-width:1.795;stroke-linecap:square;stroke-linejoin:miter;stroke:rgb(0%,36.470032%,36.470032%);stroke-opacity:0.7;stroke-miterlimit:3.25;" d="M 247.527344 317.6875 Z M 247.527344 317.6875 " transform="matrix(1,0,0,1,-66,-5)"/>
<path style="fill:none;stroke-width:1.795;stroke-linecap:square;stroke-linejoin:miter;stroke:rgb(0%,36.470032%,36.470032%);stroke-opacity:0.7;stroke-miterlimit:3.25;" d="M 152.953125 86.371094 Z M 152.953125 86.371094 " transform="matrix(1,0,0,1,-66,-5)"/>
<path style="fill:none;stroke-width:1.795;stroke-linecap:square;stroke-linejoin:miter;stroke:rgb(0%,36.470032%,36.470032%);stroke-opacity:0.7;stroke-miterlimit:3.25;" d="M 151.402344 278.308594 Z M 151.402344 278.308594 " transform="matrix(1,0,0,1,-66,-5)"/>
<path style="fill:none;stroke-width:1.795;stroke-linecap:square;stroke-linejoin:miter;stroke:rgb(0%,36.470032%,36.470032%);stroke-opacity:0.7;stroke-miterlimit:3.25;" d="M 241.753906 318.835938 Z M 241.753906 318.835938 " transform="matrix(1,0,0,1,-66,-5)"/>
<path style="fill:none;stroke-width:1.795;stroke-linecap:square;stroke-linejoin:miter;stroke:rgb(0%,36.470032%,36.470032%);stroke-opacity:0.7;stroke-miterlimit:3.25;" d="M 145.632812 91.265625 Z M 145.632812 91.265625 " transform="matrix(1,0,0,1,-66,-5)"/>
<path style="fill:none;stroke-width:1.795;stroke-linecap:square;stroke-linejoin:miter;stroke:rgb(0%,36.470032%,36.470032%);stroke-opacity:0.7;stroke-miterlimit:3.25;" d="M 145.632812 277.160156 Z M 145.632812 277.160156 " transform="matrix(1,0,0,1,-66,-5)"/>
<path style="fill:none;stroke-width:1.795;stroke-linecap:square;stroke-linejoin:miter;stroke:rgb(0%,36.470032%,36.470032%);stroke-opacity:0.7;stroke-miterlimit:3.25;" d="M 149.683594 91.265625 Z M 149.683594 91.265625 " transform="matrix(1,0,0,1,-66,-5)"/>
<path style="fill:none;stroke-width:1.795;stroke-linecap:square;stroke-linejoin:miter;stroke:rgb(0%,36.470032%,36.470032%);stroke-opacity:0.7;stroke-miterlimit:3.25;" d="M 152.550781 284.078125 Z M 152.550781 284.078125 " transform="matrix(1,0,0,1,-66,-5)"/>
<path style="fill:none;stroke-width:1.795;stroke-linecap:square;stroke-linejoin:miter;stroke:rgb(0%,36.470032%,36.470032%);stroke-opacity:0.7;stroke-miterlimit:3.25;" d="M 147.660156 276.757812 Z M 147.660156 276.757812 " transform="matrix(1,0,0,1,-66,-5)"/>
<path style="fill-rule:evenodd;fill:rgb(0%,36.470032%,36.470032%);fill-opacity:1;stroke-width:1;stroke-linecap:square;stroke-linejoin:miter;stroke:rgb(0%,0%,0%);stroke-opacity:0.7;stroke-miterlimit:3.25;" d="M 389.164062 184.210938 C 389.164062 182.808594 388.605469 181.460938 387.613281 180.46875 C 386.617188 179.476562 385.273438 178.917969 383.867188 178.917969 C 382.464844 178.917969 381.117188 179.476562 380.125 180.46875 C 379.128906 181.460938 378.574219 182.808594 378.574219 184.210938 C 378.574219 185.617188 379.128906 186.964844 380.125 187.957031 C 381.117188 188.949219 382.464844 189.507812 383.867188 189.507812 C 385.273438 189.507812 386.617188 188.949219 387.613281 187.957031 C 388.605469 186.964844 389.164062 185.617188 389.164062 184.210938 Z M 389.164062 184.210938 " transform="matrix(1,0,0,1,-66,-5)"/>
<path style="fill-rule:evenodd;fill:rgb(0%,36.470032%,36.470032%);fill-opacity:1;stroke-width:1;stroke-linecap:square;stroke-linejoin:miter;stroke:rgb(0%,0%,0%);stroke-opacity:0.7;stroke-miterlimit:3.25;" d="M 250.796875 45.84375 C 250.796875 44.441406 250.238281 43.09375 249.246094 42.101562 C 248.25 41.109375 246.90625 40.550781 245.5 40.550781 C 244.09375 40.550781 242.75 41.109375 241.753906 42.101562 C 240.761719 43.09375 240.203125 44.441406 240.203125 45.84375 C 240.203125 47.25 240.761719 48.597656 241.753906 49.589844 C 242.75 50.582031 244.09375 51.140625 245.5 51.140625 C 246.90625 51.140625 248.25 50.582031 249.246094 49.589844 C 250.238281 48.597656 250.796875 47.25 250.796875 45.84375 Z M 250.796875 45.84375 " transform="matrix(1,0,0,1,-66,-5)"/>
<path style="fill-rule:evenodd;fill:rgb(0%,36.470032%,36.470032%);fill-opacity:1;stroke-width:1;stroke-linecap:square;stroke-linejoin:miter;stroke:rgb(0%,0%,0%);stroke-opacity:0.7;stroke-miterlimit:3.25;" d="M 348.636719 282.054688 C 348.636719 280.648438 348.078125 279.300781 347.085938 278.308594 C 346.09375 277.316406 344.746094 276.757812 343.339844 276.757812 C 341.9375 276.757812 340.589844 277.316406 339.597656 278.308594 C 338.605469 279.300781 338.046875 280.648438 338.046875 282.054688 C 338.046875 283.457031 338.605469 284.804688 339.597656 285.796875 C 340.589844 286.789062 341.9375 287.347656 343.339844 287.347656 C 344.746094 287.347656 346.09375 286.789062 347.085938 285.796875 C 348.078125 284.804688 348.636719 283.457031 348.636719 282.054688 Z M 348.636719 282.054688 " transform="matrix(1,0,0,1,-66,-5)"/>
<path style="fill-rule:evenodd;fill:rgb(0%,36.470032%,36.470032%);fill-opacity:1;stroke-width:1;stroke-linecap:square;stroke-linejoin:miter;stroke:rgb(0%,0%,0%);stroke-opacity:0.7;stroke-miterlimit:3.25;" d="M 348.636719 86.371094 C 348.636719 84.96875 348.078125 83.621094 347.085938 82.628906 C 346.09375 81.632812 344.746094 81.078125 343.339844 81.078125 C 341.9375 81.078125 340.589844 81.632812 339.597656 82.628906 C 338.605469 83.621094 338.046875 84.96875 338.046875 86.371094 C 338.046875 87.777344 338.605469 89.125 339.597656 90.117188 C 340.589844 91.109375 341.9375 91.667969 343.339844 91.667969 C 344.746094 91.667969 346.09375 91.109375 347.085938 90.117188 C 348.078125 89.125 348.636719 87.777344 348.636719 86.371094 Z M 348.636719 86.371094 " transform="matrix(1,0,0,1,-66,-5)"/>
<path style="fill-rule:evenodd;fill:rgb(0%,36.470032%,36.470032%);fill-opacity:1;stroke-width:1;stroke-linecap:square;stroke-linejoin:miter;stroke:rgb(0%,0%,0%);stroke-opacity:0.7;stroke-miterlimit:3.25;" d="M 112.425781 184.210938 C 112.425781 182.808594 111.871094 181.460938 110.875 180.46875 C 109.882812 179.476562 108.535156 178.917969 107.132812 178.917969 C 105.726562 178.917969 104.382812 179.476562 103.386719 180.46875 C 102.394531 181.460938 101.835938 182.808594 101.835938 184.210938 C 101.835938 185.617188 102.394531 186.964844 103.386719 187.957031 C 104.382812 188.949219 105.726562 189.507812 107.132812 189.507812 C 108.535156 189.507812 109.882812 188.949219 110.875 187.957031 C 111.871094 186.964844 112.425781 185.617188 112.425781 184.210938 Z M 112.425781 184.210938 " transform="matrix(1,0,0,1,-66,-5)"/>
<path style="fill-rule:evenodd;fill:rgb(0%,36.470032%,36.470032%);fill-opacity:1;stroke-width:1;stroke-linecap:square;stroke-linejoin:miter;stroke:rgb(0%,0%,0%);stroke-opacity:0.7;stroke-miterlimit:3.25;" d="M 250.796875 322.582031 C 250.796875 321.175781 250.238281 319.828125 249.246094 318.835938 C 248.25 317.84375 246.90625 317.285156 245.5 317.285156 C 244.09375 317.285156 242.75 317.84375 241.753906 318.835938 C 240.761719 319.828125 240.203125 321.175781 240.203125 322.582031 C 240.203125 323.984375 240.761719 325.332031 241.753906 326.324219 C 242.75 327.316406 244.09375 327.875 245.5 327.875 C 246.90625 327.875 248.25 327.316406 249.246094 326.324219 C 250.238281 325.332031 250.796875 323.984375 250.796875 322.582031 Z M 250.796875 322.582031 " transform="matrix(1,0,0,1,-66,-5)"/>
<path style="fill-rule:evenodd;fill:rgb(0%,36.470032%,36.470032%);fill-opacity:1;stroke-width:1;stroke-linecap:square;stroke-linejoin:miter;stroke:rgb(0%,0%,0%);stroke-opacity:0.7;stroke-miterlimit:3.25;" d="M 152.953125 86.371094 C 152.953125 84.96875 152.394531 83.621094 151.402344 82.628906 C 150.410156 81.632812 149.0625 81.078125 147.660156 81.078125 C 146.253906 81.078125 144.90625 81.632812 143.914062 82.628906 C 142.921875 83.621094 142.363281 84.96875 142.363281 86.371094 C 142.363281 87.777344 142.921875 89.125 143.914062 90.117188 C 144.90625 91.109375 146.253906 91.667969 147.660156 91.667969 C 149.0625 91.667969 150.410156 91.109375 151.402344 90.117188 C 152.394531 89.125 152.953125 87.777344 152.953125 86.371094 Z M 152.953125 86.371094 " transform="matrix(1,0,0,1,-66,-5)"/>
<path style="fill-rule:evenodd;fill:rgb(0%,36.470032%,36.470032%);fill-opacity:1;stroke-width:1;stroke-linecap:square;stroke-linejoin:miter;stroke:rgb(0%,0%,0%);stroke-opacity:0.7;stroke-miterlimit:3.25;" d="M 152.953125 282.054688 C 152.953125 280.648438 152.394531 279.300781 151.402344 278.308594 C 150.410156 277.316406 149.0625 276.757812 147.660156 276.757812 C 146.253906 276.757812 144.90625 277.316406 143.914062 278.308594 C 142.921875 279.300781 142.363281 280.648438 142.363281 282.054688 C 142.363281 283.457031 142.921875 284.804688 143.914062 285.796875 C 144.90625 286.789062 146.253906 287.347656 147.660156 287.347656 C 149.0625 287.347656 150.410156 286.789062 151.402344 285.796875 C 152.394531 284.804688 152.953125 283.457031 152.953125 282.054688 Z M 152.953125 282.054688 " transform="matrix(1,0,0,1,-66,-5)"/>
<path style="fill:none;stroke-width:1.795;stroke-linecap:butt;stroke-linejoin:miter;stroke:rgb(0%,36.470032%,36.470032%);stroke-opacity:0.7;stroke-miterlimit:3.25;" d="M 218.871094 119.921875 L 312.65625 346.34375 " transform="matrix(1,0,0,1,-66,-5)"/>
<path style="fill:none;stroke-width:1.795;stroke-linecap:butt;stroke-linejoin:miter;stroke:rgb(0%,36.470032%,36.470032%);stroke-opacity:0.7;stroke-miterlimit:3.25;" d="M 221.734375 117.054688 L 309.792969 153.53125 " transform="matrix(1,0,0,1,-66,-5)"/>
<path style="fill:none;stroke-width:1.795;stroke-linecap:butt;stroke-linejoin:miter;stroke:rgb(0%,36.470032%,36.470032%);stroke-opacity:0.7;stroke-miterlimit:3.25;" d="M 214.816406 119.921875 L 178.34375 207.976562 " transform="matrix(1,0,0,1,-66,-5)"/>
<path style="fill:none;stroke-width:1.795;stroke-linecap:butt;stroke-linejoin:miter;stroke:rgb(0%,36.470032%,36.470032%);stroke-opacity:0.7;stroke-miterlimit:3.25;" d="M 214.816406 110.136719 L 178.34375 22.078125 " transform="matrix(1,0,0,1,-66,-5)"/>
<path style="fill:none;stroke-width:1.795;stroke-linecap:butt;stroke-linejoin:miter;stroke:rgb(0%,36.470032%,36.470032%);stroke-opacity:0.7;stroke-miterlimit:3.25;" d="M 218.871094 119.921875 L 272.128906 248.503906 " transform="matrix(1,0,0,1,-66,-5)"/>
<path style="fill:none;stroke-width:1.795;stroke-linecap:butt;stroke-linejoin:miter;stroke:rgb(0%,36.470032%,36.470032%);stroke-opacity:0.7;stroke-miterlimit:3.25;" d="M 222.136719 115.027344 L 407.230469 115.027344 " transform="matrix(1,0,0,1,-66,-5)"/>
<path style="fill:none;stroke-width:1.795;stroke-linecap:butt;stroke-linejoin:miter;stroke:rgb(0%,36.470032%,36.470032%);stroke-opacity:0.7;stroke-miterlimit:3.25;" d="M 213.097656 118.773438 L 82.21875 249.652344 " transform="matrix(1,0,0,1,-66,-5)"/>
<path style="fill:none;stroke-width:1.795;stroke-linecap:butt;stroke-linejoin:miter;stroke:rgb(0%,36.470032%,36.470032%);stroke-opacity:0.7;stroke-miterlimit:3.25;" d="M 314.683594 345.941406 L 314.683594 160.851562 " transform="matrix(1,0,0,1,-66,-5)"/>
<path style="fill:none;stroke-width:1.795;stroke-linecap:butt;stroke-linejoin:miter;stroke:rgb(0%,36.470032%,36.470032%);stroke-opacity:0.7;stroke-miterlimit:3.25;" d="M 310.941406 347.492188 L 180.058594 216.613281 " transform="matrix(1,0,0,1,-66,-5)"/>
<path style="fill:none;stroke-width:1.795;stroke-linecap:butt;stroke-linejoin:miter;stroke:rgb(0%,36.470032%,36.470032%);stroke-opacity:0.7;stroke-miterlimit:3.25;" d="M 312.65625 346.34375 L 178.34375 22.078125 " transform="matrix(1,0,0,1,-66,-5)"/>
<path style="fill:none;stroke-width:1.795;stroke-linecap:butt;stroke-linejoin:miter;stroke:rgb(0%,36.470032%,36.470032%);stroke-opacity:0.7;stroke-miterlimit:3.25;" d="M 312.65625 346.34375 L 276.183594 258.289062 " transform="matrix(1,0,0,1,-66,-5)"/>
<path style="fill:none;stroke-width:1.795;stroke-linecap:butt;stroke-linejoin:miter;stroke:rgb(0%,36.470032%,36.470032%);stroke-opacity:0.7;stroke-miterlimit:3.25;" d="M 316.710938 346.34375 L 410.5 119.921875 " transform="matrix(1,0,0,1,-66,-5)"/>
<path style="fill:none;stroke-width:1.795;stroke-linecap:butt;stroke-linejoin:miter;stroke:rgb(0%,36.470032%,36.470032%);stroke-opacity:0.7;stroke-miterlimit:3.25;" d="M 309.792969 349.210938 L 83.367188 255.421875 " transform="matrix(1,0,0,1,-66,-5)"/>
<path style="fill:none;stroke-width:1.795;stroke-linecap:butt;stroke-linejoin:miter;stroke:rgb(0%,36.470032%,36.470032%);stroke-opacity:0.7;stroke-miterlimit:3.25;" d="M 309.792969 157.582031 L 181.207031 210.84375 " transform="matrix(1,0,0,1,-66,-5)"/>
<path style="fill:none;stroke-width:1.795;stroke-linecap:butt;stroke-linejoin:miter;stroke:rgb(0%,36.470032%,36.470032%);stroke-opacity:0.7;stroke-miterlimit:3.25;" d="M 310.941406 151.8125 L 180.058594 20.933594 " transform="matrix(1,0,0,1,-66,-5)"/>
<path style="fill:none;stroke-width:1.795;stroke-linecap:butt;stroke-linejoin:miter;stroke:rgb(0%,36.470032%,36.470032%);stroke-opacity:0.7;stroke-miterlimit:3.25;" d="M 312.65625 160.449219 L 276.183594 248.503906 " transform="matrix(1,0,0,1,-66,-5)"/>
<path style="fill:none;stroke-width:1.795;stroke-linecap:butt;stroke-linejoin:miter;stroke:rgb(0%,36.470032%,36.470032%);stroke-opacity:0.7;stroke-miterlimit:3.25;" d="M 319.574219 153.53125 L 407.632812 117.054688 " transform="matrix(1,0,0,1,-66,-5)"/>
<path style="fill:none;stroke-width:1.795;stroke-linecap:butt;stroke-linejoin:miter;stroke:rgb(0%,36.470032%,36.470032%);stroke-opacity:0.7;stroke-miterlimit:3.25;" d="M 309.792969 157.582031 L 83.367188 251.371094 " transform="matrix(1,0,0,1,-66,-5)"/>
<path style="fill:none;stroke-width:1.795;stroke-linecap:butt;stroke-linejoin:miter;stroke:rgb(0%,36.470032%,36.470032%);stroke-opacity:0.7;stroke-miterlimit:3.25;" d="M 176.316406 207.574219 L 176.316406 22.484375 " transform="matrix(1,0,0,1,-66,-5)"/>
<path style="fill:none;stroke-width:1.795;stroke-linecap:butt;stroke-linejoin:miter;stroke:rgb(0%,36.470032%,36.470032%);stroke-opacity:0.7;stroke-miterlimit:3.25;" d="M 181.207031 214.894531 L 269.265625 251.371094 " transform="matrix(1,0,0,1,-66,-5)"/>
<path style="fill:none;stroke-width:1.795;stroke-linecap:butt;stroke-linejoin:miter;stroke:rgb(0%,36.470032%,36.470032%);stroke-opacity:0.7;stroke-miterlimit:3.25;" d="M 181.207031 210.84375 L 407.632812 117.054688 " transform="matrix(1,0,0,1,-66,-5)"/>
<path style="fill:none;stroke-width:1.795;stroke-linecap:butt;stroke-linejoin:miter;stroke:rgb(0%,36.470032%,36.470032%);stroke-opacity:0.7;stroke-miterlimit:3.25;" d="M 171.425781 214.894531 L 83.367188 251.371094 " transform="matrix(1,0,0,1,-66,-5)"/>
<path style="fill:none;stroke-width:1.795;stroke-linecap:butt;stroke-linejoin:miter;stroke:rgb(0%,36.470032%,36.470032%);stroke-opacity:0.7;stroke-miterlimit:3.25;" d="M 178.34375 22.078125 L 272.128906 248.503906 " transform="matrix(1,0,0,1,-66,-5)"/>
<path style="fill:none;stroke-width:1.795;stroke-linecap:butt;stroke-linejoin:miter;stroke:rgb(0%,36.470032%,36.470032%);stroke-opacity:0.7;stroke-miterlimit:3.25;" d="M 181.207031 19.214844 L 407.632812 113.003906 " transform="matrix(1,0,0,1,-66,-5)"/>
<path style="fill:none;stroke-width:1.795;stroke-linecap:butt;stroke-linejoin:miter;stroke:rgb(0%,36.470032%,36.470032%);stroke-opacity:0.7;stroke-miterlimit:3.25;" d="M 174.289062 22.078125 L 80.5 248.503906 " transform="matrix(1,0,0,1,-66,-5)"/>
<path style="fill:none;stroke-width:1.795;stroke-linecap:butt;stroke-linejoin:miter;stroke:rgb(0%,36.470032%,36.470032%);stroke-opacity:0.7;stroke-miterlimit:3.25;" d="M 277.902344 249.652344 L 408.78125 118.773438 " transform="matrix(1,0,0,1,-66,-5)"/>
<path style="fill:none;stroke-width:1.795;stroke-linecap:butt;stroke-linejoin:miter;stroke:rgb(0%,36.470032%,36.470032%);stroke-opacity:0.7;stroke-miterlimit:3.25;" d="M 268.863281 253.398438 L 83.769531 253.398438 " transform="matrix(1,0,0,1,-66,-5)"/>
<path style="fill:none;stroke-width:1.795;stroke-linecap:butt;stroke-linejoin:miter;stroke:rgb(0%,36.470032%,36.470032%);stroke-opacity:0.7;stroke-miterlimit:3.25;" d="M 407.632812 117.054688 L 83.367188 251.371094 " transform="matrix(1,0,0,1,-66,-5)"/>
<path style="fill:none;stroke-width:1.795;stroke-linecap:square;stroke-linejoin:miter;stroke:rgb(0%,36.470032%,36.470032%);stroke-opacity:0.7;stroke-miterlimit:3.25;" d="M 312.65625 346.34375 Z M 312.65625 346.34375 " transform="matrix(1,0,0,1,-66,-5)"/>
<path style="fill:none;stroke-width:1.795;stroke-linecap:square;stroke-linejoin:miter;stroke:rgb(0%,36.470032%,36.470032%);stroke-opacity:0.7;stroke-miterlimit:3.25;" d="M 309.792969 153.53125 Z M 309.792969 153.53125 " transform="matrix(1,0,0,1,-66,-5)"/>
<path style="fill:none;stroke-width:1.795;stroke-linecap:square;stroke-linejoin:miter;stroke:rgb(0%,36.470032%,36.470032%);stroke-opacity:0.7;stroke-miterlimit:3.25;" d="M 178.34375 207.976562 Z M 178.34375 207.976562 " transform="matrix(1,0,0,1,-66,-5)"/>
<path style="fill:none;stroke-width:1.795;stroke-linecap:square;stroke-linejoin:miter;stroke:rgb(0%,36.470032%,36.470032%);stroke-opacity:0.7;stroke-miterlimit:3.25;" d="M 178.34375 22.078125 Z M 178.34375 22.078125 " transform="matrix(1,0,0,1,-66,-5)"/>
<path style="fill:none;stroke-width:1.795;stroke-linecap:square;stroke-linejoin:miter;stroke:rgb(0%,36.470032%,36.470032%);stroke-opacity:0.7;stroke-miterlimit:3.25;" d="M 272.128906 248.503906 Z M 272.128906 248.503906 " transform="matrix(1,0,0,1,-66,-5)"/>
<path style="fill:none;stroke-width:1.795;stroke-linecap:square;stroke-linejoin:miter;stroke:rgb(0%,36.470032%,36.470032%);stroke-opacity:0.7;stroke-miterlimit:3.25;" d="M 407.230469 115.027344 Z M 407.230469 115.027344 " transform="matrix(1,0,0,1,-66,-5)"/>
<path style="fill:none;stroke-width:1.795;stroke-linecap:square;stroke-linejoin:miter;stroke:rgb(0%,36.470032%,36.470032%);stroke-opacity:0.7;stroke-miterlimit:3.25;" d="M 82.21875 249.652344 Z M 82.21875 249.652344 " transform="matrix(1,0,0,1,-66,-5)"/>
<path style="fill:none;stroke-width:1.795;stroke-linecap:square;stroke-linejoin:miter;stroke:rgb(0%,36.470032%,36.470032%);stroke-opacity:0.7;stroke-miterlimit:3.25;" d="M 314.683594 160.851562 Z M 314.683594 160.851562 " transform="matrix(1,0,0,1,-66,-5)"/>
<path style="fill:none;stroke-width:1.795;stroke-linecap:square;stroke-linejoin:miter;stroke:rgb(0%,36.470032%,36.470032%);stroke-opacity:0.7;stroke-miterlimit:3.25;" d="M 180.058594 216.613281 Z M 180.058594 216.613281 " transform="matrix(1,0,0,1,-66,-5)"/>
<path style="fill:none;stroke-width:1.795;stroke-linecap:square;stroke-linejoin:miter;stroke:rgb(0%,36.470032%,36.470032%);stroke-opacity:0.7;stroke-miterlimit:3.25;" d="M 178.34375 22.078125 Z M 178.34375 22.078125 " transform="matrix(1,0,0,1,-66,-5)"/>
<path style="fill:none;stroke-width:1.795;stroke-linecap:square;stroke-linejoin:miter;stroke:rgb(0%,36.470032%,36.470032%);stroke-opacity:0.7;stroke-miterlimit:3.25;" d="M 276.183594 258.289062 Z M 276.183594 258.289062 " transform="matrix(1,0,0,1,-66,-5)"/>
<path style="fill:none;stroke-width:1.795;stroke-linecap:square;stroke-linejoin:miter;stroke:rgb(0%,36.470032%,36.470032%);stroke-opacity:0.7;stroke-miterlimit:3.25;" d="M 410.5 119.921875 Z M 410.5 119.921875 " transform="matrix(1,0,0,1,-66,-5)"/>
<path style="fill:none;stroke-width:1.795;stroke-linecap:square;stroke-linejoin:miter;stroke:rgb(0%,36.470032%,36.470032%);stroke-opacity:0.7;stroke-miterlimit:3.25;" d="M 83.367188 255.421875 Z M 83.367188 255.421875 " transform="matrix(1,0,0,1,-66,-5)"/>
<path style="fill:none;stroke-width:1.795;stroke-linecap:square;stroke-linejoin:miter;stroke:rgb(0%,36.470032%,36.470032%);stroke-opacity:0.7;stroke-miterlimit:3.25;" d="M 181.207031 210.84375 Z M 181.207031 210.84375 " transform="matrix(1,0,0,1,-66,-5)"/>
<path style="fill:none;stroke-width:1.795;stroke-linecap:square;stroke-linejoin:miter;stroke:rgb(0%,36.470032%,36.470032%);stroke-opacity:0.7;stroke-miterlimit:3.25;" d="M 180.058594 20.933594 Z M 180.058594 20.933594 " transform="matrix(1,0,0,1,-66,-5)"/>
<path style="fill:none;stroke-width:1.795;stroke-linecap:square;stroke-linejoin:miter;stroke:rgb(0%,36.470032%,36.470032%);stroke-opacity:0.7;stroke-miterlimit:3.25;" d="M 276.183594 248.503906 Z M 276.183594 248.503906 " transform="matrix(1,0,0,1,-66,-5)"/>
<path style="fill:none;stroke-width:1.795;stroke-linecap:square;stroke-linejoin:miter;stroke:rgb(0%,36.470032%,36.470032%);stroke-opacity:0.7;stroke-miterlimit:3.25;" d="M 407.632812 117.054688 Z M 407.632812 117.054688 " transform="matrix(1,0,0,1,-66,-5)"/>
<path style="fill:none;stroke-width:1.795;stroke-linecap:square;stroke-linejoin:miter;stroke:rgb(0%,36.470032%,36.470032%);stroke-opacity:0.7;stroke-miterlimit:3.25;" d="M 83.367188 251.371094 Z M 83.367188 251.371094 " transform="matrix(1,0,0,1,-66,-5)"/>
<path style="fill:none;stroke-width:1.795;stroke-linecap:square;stroke-linejoin:miter;stroke:rgb(0%,36.470032%,36.470032%);stroke-opacity:0.7;stroke-miterlimit:3.25;" d="M 176.316406 22.484375 Z M 176.316406 22.484375 " transform="matrix(1,0,0,1,-66,-5)"/>
<path style="fill:none;stroke-width:1.795;stroke-linecap:square;stroke-linejoin:miter;stroke:rgb(0%,36.470032%,36.470032%);stroke-opacity:0.7;stroke-miterlimit:3.25;" d="M 269.265625 251.371094 Z M 269.265625 251.371094 " transform="matrix(1,0,0,1,-66,-5)"/>
<path style="fill:none;stroke-width:1.795;stroke-linecap:square;stroke-linejoin:miter;stroke:rgb(0%,36.470032%,36.470032%);stroke-opacity:0.7;stroke-miterlimit:3.25;" d="M 407.632812 117.054688 Z M 407.632812 117.054688 " transform="matrix(1,0,0,1,-66,-5)"/>
<path style="fill:none;stroke-width:1.795;stroke-linecap:square;stroke-linejoin:miter;stroke:rgb(0%,36.470032%,36.470032%);stroke-opacity:0.7;stroke-miterlimit:3.25;" d="M 83.367188 251.371094 Z M 83.367188 251.371094 " transform="matrix(1,0,0,1,-66,-5)"/>
<path style="fill:none;stroke-width:1.795;stroke-linecap:square;stroke-linejoin:miter;stroke:rgb(0%,36.470032%,36.470032%);stroke-opacity:0.7;stroke-miterlimit:3.25;" d="M 272.128906 248.503906 Z M 272.128906 248.503906 " transform="matrix(1,0,0,1,-66,-5)"/>
<path style="fill:none;stroke-width:1.795;stroke-linecap:square;stroke-linejoin:miter;stroke:rgb(0%,36.470032%,36.470032%);stroke-opacity:0.7;stroke-miterlimit:3.25;" d="M 407.632812 113.003906 Z M 407.632812 113.003906 " transform="matrix(1,0,0,1,-66,-5)"/>
<path style="fill:none;stroke-width:1.795;stroke-linecap:square;stroke-linejoin:miter;stroke:rgb(0%,36.470032%,36.470032%);stroke-opacity:0.7;stroke-miterlimit:3.25;" d="M 80.5 248.503906 Z M 80.5 248.503906 " transform="matrix(1,0,0,1,-66,-5)"/>
<path style="fill:none;stroke-width:1.795;stroke-linecap:square;stroke-linejoin:miter;stroke:rgb(0%,36.470032%,36.470032%);stroke-opacity:0.7;stroke-miterlimit:3.25;" d="M 408.78125 118.773438 Z M 408.78125 118.773438 " transform="matrix(1,0,0,1,-66,-5)"/>
<path style="fill:none;stroke-width:1.795;stroke-linecap:square;stroke-linejoin:miter;stroke:rgb(0%,36.470032%,36.470032%);stroke-opacity:0.7;stroke-miterlimit:3.25;" d="M 83.769531 253.398438 Z M 83.769531 253.398438 " transform="matrix(1,0,0,1,-66,-5)"/>
<path style="fill:none;stroke-width:1.795;stroke-linecap:square;stroke-linejoin:miter;stroke:rgb(0%,36.470032%,36.470032%);stroke-opacity:0.7;stroke-miterlimit:3.25;" d="M 83.367188 251.371094 Z M 83.367188 251.371094 " transform="matrix(1,0,0,1,-66,-5)"/>
<path style="fill-rule:evenodd;fill:rgb(0%,36.470032%,36.470032%);fill-opacity:1;stroke-width:1;stroke-linecap:square;stroke-linejoin:miter;stroke:rgb(0%,0%,0%);stroke-opacity:0.7;stroke-miterlimit:3.25;" d="M 222.136719 115.027344 C 222.136719 113.625 221.582031 112.277344 220.585938 111.285156 C 219.59375 110.292969 218.246094 109.734375 216.84375 109.734375 C 215.4375 109.734375 214.09375 110.292969 213.097656 111.285156 C 212.105469 112.277344 211.546875 113.625 211.546875 115.027344 C 211.546875 116.433594 212.105469 117.78125 213.097656 118.773438 C 214.09375 119.765625 215.4375 120.324219 216.84375 120.324219 C 218.246094 120.324219 219.59375 119.765625 220.585938 118.773438 C 221.582031 117.78125 222.136719 116.433594 222.136719 115.027344 Z M 222.136719 115.027344 " transform="matrix(1,0,0,1,-66,-5)"/>
<path style="fill-rule:evenodd;fill:rgb(0%,36.470032%,36.470032%);fill-opacity:1;stroke-width:1;stroke-linecap:square;stroke-linejoin:miter;stroke:rgb(0%,0%,0%);stroke-opacity:0.7;stroke-miterlimit:3.25;" d="M 319.980469 351.238281 C 319.980469 349.832031 319.421875 348.488281 318.429688 347.492188 C 317.433594 346.5 316.089844 345.941406 314.683594 345.941406 C 313.28125 345.941406 311.933594 346.5 310.941406 347.492188 C 309.945312 348.488281 309.390625 349.832031 309.390625 351.238281 C 309.390625 352.640625 309.945312 353.988281 310.941406 354.980469 C 311.933594 355.976562 313.28125 356.53125 314.683594 356.53125 C 316.089844 356.53125 317.433594 355.976562 318.429688 354.980469 C 319.421875 353.988281 319.980469 352.640625 319.980469 351.238281 Z M 319.980469 351.238281 " transform="matrix(1,0,0,1,-66,-5)"/>
<path style="fill-rule:evenodd;fill:rgb(0%,36.470032%,36.470032%);fill-opacity:1;stroke-width:1;stroke-linecap:square;stroke-linejoin:miter;stroke:rgb(0%,0%,0%);stroke-opacity:0.7;stroke-miterlimit:3.25;" d="M 319.980469 155.554688 C 319.980469 154.152344 319.421875 152.804688 318.429688 151.8125 C 317.433594 150.820312 316.089844 150.261719 314.683594 150.261719 C 313.28125 150.261719 311.933594 150.820312 310.941406 151.8125 C 309.945312 152.804688 309.390625 154.152344 309.390625 155.554688 C 309.390625 156.960938 309.945312 158.308594 310.941406 159.300781 C 311.933594 160.292969 313.28125 160.851562 314.683594 160.851562 C 316.089844 160.851562 317.433594 160.292969 318.429688 159.300781 C 319.421875 158.308594 319.980469 156.960938 319.980469 155.554688 Z M 319.980469 155.554688 " transform="matrix(1,0,0,1,-66,-5)"/>
<path style="fill-rule:evenodd;fill:rgb(0%,36.470032%,36.470032%);fill-opacity:1;stroke-width:1;stroke-linecap:square;stroke-linejoin:miter;stroke:rgb(0%,0%,0%);stroke-opacity:0.7;stroke-miterlimit:3.25;" d="M 181.609375 212.871094 C 181.609375 211.464844 181.054688 210.117188 180.058594 209.125 C 179.066406 208.132812 177.71875 207.574219 176.316406 207.574219 C 174.910156 207.574219 173.566406 208.132812 172.570312 209.125 C 171.578125 210.117188 171.019531 211.464844 171.019531 212.871094 C 171.019531 214.273438 171.578125 215.621094 172.570312 216.613281 C 173.566406 217.605469 174.910156 218.164062 176.316406 218.164062 C 177.71875 218.164062 179.066406 217.605469 180.058594 216.613281 C 181.054688 215.621094 181.609375 214.273438 181.609375 212.871094 Z M 181.609375 212.871094 " transform="matrix(1,0,0,1,-66,-5)"/>
<path style="fill-rule:evenodd;fill:rgb(0%,36.470032%,36.470032%);fill-opacity:1;stroke-width:1;stroke-linecap:square;stroke-linejoin:miter;stroke:rgb(0%,0%,0%);stroke-opacity:0.7;stroke-miterlimit:3.25;" d="M 181.609375 17.1875 C 181.609375 15.785156 181.054688 14.4375 180.058594 13.445312 C 179.066406 12.449219 177.71875 11.894531 176.316406 11.894531 C 174.910156 11.894531 173.566406 12.449219 172.570312 13.445312 C 171.578125 14.4375 171.019531 15.785156 171.019531 17.1875 C 171.019531 18.59375 171.578125 19.9375 172.570312 20.933594 C 173.566406 21.925781 174.910156 22.484375 176.316406 22.484375 C 177.71875 22.484375 179.066406 21.925781 180.058594 20.933594 C 181.054688 19.9375 181.609375 18.59375 181.609375 17.1875 Z M 181.609375 17.1875 " transform="matrix(1,0,0,1,-66,-5)"/>
<path style="fill-rule:evenodd;fill:rgb(0%,36.470032%,36.470032%);fill-opacity:1;stroke-width:1;stroke-linecap:square;stroke-linejoin:miter;stroke:rgb(0%,0%,0%);stroke-opacity:0.7;stroke-miterlimit:3.25;" d="M 279.453125 253.398438 C 279.453125 251.992188 278.894531 250.644531 277.902344 249.652344 C 276.90625 248.660156 275.5625 248.101562 274.15625 248.101562 C 272.753906 248.101562 271.40625 248.660156 270.414062 249.652344 C 269.417969 250.644531 268.863281 251.992188 268.863281 253.398438 C 268.863281 254.800781 269.417969 256.148438 270.414062 257.140625 C 271.40625 258.132812 272.753906 258.691406 274.15625 258.691406 C 275.5625 258.691406 276.90625 258.132812 277.902344 257.140625 C 278.894531 256.148438 279.453125 254.800781 279.453125 253.398438 Z M 279.453125 253.398438 " transform="matrix(1,0,0,1,-66,-5)"/>
<path style="fill-rule:evenodd;fill:rgb(0%,36.470032%,36.470032%);fill-opacity:1;stroke-width:1;stroke-linecap:square;stroke-linejoin:miter;stroke:rgb(0%,0%,0%);stroke-opacity:0.7;stroke-miterlimit:3.25;" d="M 417.820312 115.027344 C 417.820312 113.625 417.261719 112.277344 416.269531 111.285156 C 415.277344 110.292969 413.929688 109.734375 412.523438 109.734375 C 411.121094 109.734375 409.773438 110.292969 408.78125 111.285156 C 407.789062 112.277344 407.230469 113.625 407.230469 115.027344 C 407.230469 116.433594 407.789062 117.78125 408.78125 118.773438 C 409.773438 119.765625 411.121094 120.324219 412.523438 120.324219 C 413.929688 120.324219 415.277344 119.765625 416.269531 118.773438 C 417.261719 117.78125 417.820312 116.433594 417.820312 115.027344 Z M 417.820312 115.027344 " transform="matrix(1,0,0,1,-66,-5)"/>
<path style="fill-rule:evenodd;fill:rgb(0%,36.470032%,36.470032%);fill-opacity:1;stroke-width:1;stroke-linecap:square;stroke-linejoin:miter;stroke:rgb(0%,0%,0%);stroke-opacity:0.7;stroke-miterlimit:3.25;" d="M 83.769531 253.398438 C 83.769531 251.992188 83.210938 250.644531 82.21875 249.652344 C 81.226562 248.660156 79.878906 248.101562 78.476562 248.101562 C 77.070312 248.101562 75.722656 248.660156 74.730469 249.652344 C 73.738281 250.644531 73.179688 251.992188 73.179688 253.398438 C 73.179688 254.800781 73.738281 256.148438 74.730469 257.140625 C 75.722656 258.132812 77.070312 258.691406 78.476562 258.691406 C 79.878906 258.691406 81.226562 258.132812 82.21875 257.140625 C 83.210938 256.148438 83.769531 254.800781 83.769531 253.398438 Z M 83.769531 253.398438 " transform="matrix(1,0,0,1,-66,-5)"/>
<path style="fill:none;stroke-width:1.795;stroke-linecap:butt;stroke-linejoin:miter;stroke:rgb(0%,36.470032%,36.470032%);stroke-opacity:0.7;stroke-miterlimit:3.25;" d="M 314.683594 207.574219 L 314.683594 22.484375 " transform="matrix(1,0,0,1,-66,-5)"/>
<path style="fill:none;stroke-width:1.795;stroke-linecap:butt;stroke-linejoin:miter;stroke:rgb(0%,36.470032%,36.470032%);stroke-opacity:0.7;stroke-miterlimit:3.25;" d="M 319.574219 214.894531 L 407.632812 251.371094 " transform="matrix(1,0,0,1,-66,-5)"/>
<path style="fill:none;stroke-width:1.795;stroke-linecap:butt;stroke-linejoin:miter;stroke:rgb(0%,36.470032%,36.470032%);stroke-opacity:0.7;stroke-miterlimit:3.25;" d="M 312.65625 207.976562 L 276.183594 119.921875 " transform="matrix(1,0,0,1,-66,-5)"/>
<path style="fill:none;stroke-width:1.795;stroke-linecap:butt;stroke-linejoin:miter;stroke:rgb(0%,36.470032%,36.470032%);stroke-opacity:0.7;stroke-miterlimit:3.25;" d="M 309.792969 214.894531 L 221.734375 251.371094 " transform="matrix(1,0,0,1,-66,-5)"/>
<path style="fill:none;stroke-width:1.795;stroke-linecap:butt;stroke-linejoin:miter;stroke:rgb(0%,36.470032%,36.470032%);stroke-opacity:0.7;stroke-miterlimit:3.25;" d="M 309.792969 210.84375 L 83.367188 117.054688 " transform="matrix(1,0,0,1,-66,-5)"/>
<path style="fill:none;stroke-width:1.795;stroke-linecap:butt;stroke-linejoin:miter;stroke:rgb(0%,36.470032%,36.470032%);stroke-opacity:0.7;stroke-miterlimit:3.25;" d="M 310.941406 216.613281 L 180.058594 347.492188 " transform="matrix(1,0,0,1,-66,-5)"/>
<path style="fill:none;stroke-width:1.795;stroke-linecap:butt;stroke-linejoin:miter;stroke:rgb(0%,36.470032%,36.470032%);stroke-opacity:0.7;stroke-miterlimit:3.25;" d="M 309.792969 210.84375 L 181.207031 157.582031 " transform="matrix(1,0,0,1,-66,-5)"/>
<path style="fill:none;stroke-width:1.795;stroke-linecap:butt;stroke-linejoin:miter;stroke:rgb(0%,36.470032%,36.470032%);stroke-opacity:0.7;stroke-miterlimit:3.25;" d="M 316.710938 22.078125 L 410.5 248.503906 " transform="matrix(1,0,0,1,-66,-5)"/>
<path style="fill:none;stroke-width:1.795;stroke-linecap:butt;stroke-linejoin:miter;stroke:rgb(0%,36.470032%,36.470032%);stroke-opacity:0.7;stroke-miterlimit:3.25;" d="M 312.65625 22.078125 L 276.183594 110.136719 " transform="matrix(1,0,0,1,-66,-5)"/>
<path style="fill:none;stroke-width:1.795;stroke-linecap:butt;stroke-linejoin:miter;stroke:rgb(0%,36.470032%,36.470032%);stroke-opacity:0.7;stroke-miterlimit:3.25;" d="M 312.65625 22.078125 L 218.871094 248.503906 " transform="matrix(1,0,0,1,-66,-5)"/>
<path style="fill:none;stroke-width:1.795;stroke-linecap:butt;stroke-linejoin:miter;stroke:rgb(0%,36.470032%,36.470032%);stroke-opacity:0.7;stroke-miterlimit:3.25;" d="M 309.792969 19.214844 L 83.367188 113.003906 " transform="matrix(1,0,0,1,-66,-5)"/>
<path style="fill:none;stroke-width:1.795;stroke-linecap:butt;stroke-linejoin:miter;stroke:rgb(0%,36.470032%,36.470032%);stroke-opacity:0.7;stroke-miterlimit:3.25;" d="M 312.65625 22.078125 L 178.34375 346.34375 " transform="matrix(1,0,0,1,-66,-5)"/>
<path style="fill:none;stroke-width:1.795;stroke-linecap:butt;stroke-linejoin:miter;stroke:rgb(0%,36.470032%,36.470032%);stroke-opacity:0.7;stroke-miterlimit:3.25;" d="M 310.941406 20.933594 L 180.058594 151.8125 " transform="matrix(1,0,0,1,-66,-5)"/>
<path style="fill:none;stroke-width:1.795;stroke-linecap:butt;stroke-linejoin:miter;stroke:rgb(0%,36.470032%,36.470032%);stroke-opacity:0.7;stroke-miterlimit:3.25;" d="M 408.78125 249.652344 L 277.902344 118.773438 " transform="matrix(1,0,0,1,-66,-5)"/>
<path style="fill:none;stroke-width:1.795;stroke-linecap:butt;stroke-linejoin:miter;stroke:rgb(0%,36.470032%,36.470032%);stroke-opacity:0.7;stroke-miterlimit:3.25;" d="M 407.230469 253.398438 L 222.136719 253.398438 " transform="matrix(1,0,0,1,-66,-5)"/>
<path style="fill:none;stroke-width:1.795;stroke-linecap:butt;stroke-linejoin:miter;stroke:rgb(0%,36.470032%,36.470032%);stroke-opacity:0.7;stroke-miterlimit:3.25;" d="M 407.632812 251.371094 L 83.367188 117.054688 " transform="matrix(1,0,0,1,-66,-5)"/>
<path style="fill:none;stroke-width:1.795;stroke-linecap:butt;stroke-linejoin:miter;stroke:rgb(0%,36.470032%,36.470032%);stroke-opacity:0.7;stroke-miterlimit:3.25;" d="M 407.632812 255.421875 L 181.207031 349.210938 " transform="matrix(1,0,0,1,-66,-5)"/>
<path style="fill:none;stroke-width:1.795;stroke-linecap:butt;stroke-linejoin:miter;stroke:rgb(0%,36.470032%,36.470032%);stroke-opacity:0.7;stroke-miterlimit:3.25;" d="M 407.632812 251.371094 L 181.207031 157.582031 " transform="matrix(1,0,0,1,-66,-5)"/>
<path style="fill:none;stroke-width:1.795;stroke-linecap:butt;stroke-linejoin:miter;stroke:rgb(0%,36.470032%,36.470032%);stroke-opacity:0.7;stroke-miterlimit:3.25;" d="M 272.128906 119.921875 L 218.871094 248.503906 " transform="matrix(1,0,0,1,-66,-5)"/>
<path style="fill:none;stroke-width:1.795;stroke-linecap:butt;stroke-linejoin:miter;stroke:rgb(0%,36.470032%,36.470032%);stroke-opacity:0.7;stroke-miterlimit:3.25;" d="M 268.863281 115.027344 L 83.769531 115.027344 " transform="matrix(1,0,0,1,-66,-5)"/>
<path style="fill:none;stroke-width:1.795;stroke-linecap:butt;stroke-linejoin:miter;stroke:rgb(0%,36.470032%,36.470032%);stroke-opacity:0.7;stroke-miterlimit:3.25;" d="M 272.128906 119.921875 L 178.34375 346.34375 " transform="matrix(1,0,0,1,-66,-5)"/>
<path style="fill:none;stroke-width:1.795;stroke-linecap:butt;stroke-linejoin:miter;stroke:rgb(0%,36.470032%,36.470032%);stroke-opacity:0.7;stroke-miterlimit:3.25;" d="M 269.265625 117.054688 L 181.207031 153.53125 " transform="matrix(1,0,0,1,-66,-5)"/>
<path style="fill:none;stroke-width:1.795;stroke-linecap:butt;stroke-linejoin:miter;stroke:rgb(0%,36.470032%,36.470032%);stroke-opacity:0.7;stroke-miterlimit:3.25;" d="M 213.097656 249.652344 L 82.21875 118.773438 " transform="matrix(1,0,0,1,-66,-5)"/>
<path style="fill:none;stroke-width:1.795;stroke-linecap:butt;stroke-linejoin:miter;stroke:rgb(0%,36.470032%,36.470032%);stroke-opacity:0.7;stroke-miterlimit:3.25;" d="M 214.816406 258.289062 L 178.34375 346.34375 " transform="matrix(1,0,0,1,-66,-5)"/>
<path style="fill:none;stroke-width:1.795;stroke-linecap:butt;stroke-linejoin:miter;stroke:rgb(0%,36.470032%,36.470032%);stroke-opacity:0.7;stroke-miterlimit:3.25;" d="M 214.816406 248.503906 L 178.34375 160.449219 " transform="matrix(1,0,0,1,-66,-5)"/>
<path style="fill:none;stroke-width:1.795;stroke-linecap:butt;stroke-linejoin:miter;stroke:rgb(0%,36.470032%,36.470032%);stroke-opacity:0.7;stroke-miterlimit:3.25;" d="M 80.5 119.921875 L 174.289062 346.34375 " transform="matrix(1,0,0,1,-66,-5)"/>
<path style="fill:none;stroke-width:1.795;stroke-linecap:butt;stroke-linejoin:miter;stroke:rgb(0%,36.470032%,36.470032%);stroke-opacity:0.7;stroke-miterlimit:3.25;" d="M 83.367188 117.054688 L 171.425781 153.53125 " transform="matrix(1,0,0,1,-66,-5)"/>
<path style="fill:none;stroke-width:1.795;stroke-linecap:butt;stroke-linejoin:miter;stroke:rgb(0%,36.470032%,36.470032%);stroke-opacity:0.7;stroke-miterlimit:3.25;" d="M 176.316406 345.941406 L 176.316406 160.851562 " transform="matrix(1,0,0,1,-66,-5)"/>
<path style="fill:none;stroke-width:1.795;stroke-linecap:square;stroke-linejoin:miter;stroke:rgb(0%,36.470032%,36.470032%);stroke-opacity:0.7;stroke-miterlimit:3.25;" d="M 314.683594 22.484375 Z M 314.683594 22.484375 " transform="matrix(1,0,0,1,-66,-5)"/>
<path style="fill:none;stroke-width:1.795;stroke-linecap:square;stroke-linejoin:miter;stroke:rgb(0%,36.470032%,36.470032%);stroke-opacity:0.7;stroke-miterlimit:3.25;" d="M 407.632812 251.371094 Z M 407.632812 251.371094 " transform="matrix(1,0,0,1,-66,-5)"/>
<path style="fill:none;stroke-width:1.795;stroke-linecap:square;stroke-linejoin:miter;stroke:rgb(0%,36.470032%,36.470032%);stroke-opacity:0.7;stroke-miterlimit:3.25;" d="M 276.183594 119.921875 Z M 276.183594 119.921875 " transform="matrix(1,0,0,1,-66,-5)"/>
<path style="fill:none;stroke-width:1.795;stroke-linecap:square;stroke-linejoin:miter;stroke:rgb(0%,36.470032%,36.470032%);stroke-opacity:0.7;stroke-miterlimit:3.25;" d="M 221.734375 251.371094 Z M 221.734375 251.371094 " transform="matrix(1,0,0,1,-66,-5)"/>
<path style="fill:none;stroke-width:1.795;stroke-linecap:square;stroke-linejoin:miter;stroke:rgb(0%,36.470032%,36.470032%);stroke-opacity:0.7;stroke-miterlimit:3.25;" d="M 83.367188 117.054688 Z M 83.367188 117.054688 " transform="matrix(1,0,0,1,-66,-5)"/>
<path style="fill:none;stroke-width:1.795;stroke-linecap:square;stroke-linejoin:miter;stroke:rgb(0%,36.470032%,36.470032%);stroke-opacity:0.7;stroke-miterlimit:3.25;" d="M 180.058594 347.492188 Z M 180.058594 347.492188 " transform="matrix(1,0,0,1,-66,-5)"/>
<path style="fill:none;stroke-width:1.795;stroke-linecap:square;stroke-linejoin:miter;stroke:rgb(0%,36.470032%,36.470032%);stroke-opacity:0.7;stroke-miterlimit:3.25;" d="M 181.207031 157.582031 Z M 181.207031 157.582031 " transform="matrix(1,0,0,1,-66,-5)"/>
<path style="fill:none;stroke-width:1.795;stroke-linecap:square;stroke-linejoin:miter;stroke:rgb(0%,36.470032%,36.470032%);stroke-opacity:0.7;stroke-miterlimit:3.25;" d="M 410.5 248.503906 Z M 410.5 248.503906 " transform="matrix(1,0,0,1,-66,-5)"/>
<path style="fill:none;stroke-width:1.795;stroke-linecap:square;stroke-linejoin:miter;stroke:rgb(0%,36.470032%,36.470032%);stroke-opacity:0.7;stroke-miterlimit:3.25;" d="M 276.183594 110.136719 Z M 276.183594 110.136719 " transform="matrix(1,0,0,1,-66,-5)"/>
<path style="fill:none;stroke-width:1.795;stroke-linecap:square;stroke-linejoin:miter;stroke:rgb(0%,36.470032%,36.470032%);stroke-opacity:0.7;stroke-miterlimit:3.25;" d="M 218.871094 248.503906 Z M 218.871094 248.503906 " transform="matrix(1,0,0,1,-66,-5)"/>
<path style="fill:none;stroke-width:1.795;stroke-linecap:square;stroke-linejoin:miter;stroke:rgb(0%,36.470032%,36.470032%);stroke-opacity:0.7;stroke-miterlimit:3.25;" d="M 83.367188 113.003906 Z M 83.367188 113.003906 " transform="matrix(1,0,0,1,-66,-5)"/>
<path style="fill:none;stroke-width:1.795;stroke-linecap:square;stroke-linejoin:miter;stroke:rgb(0%,36.470032%,36.470032%);stroke-opacity:0.7;stroke-miterlimit:3.25;" d="M 178.34375 346.34375 Z M 178.34375 346.34375 " transform="matrix(1,0,0,1,-66,-5)"/>
<path style="fill:none;stroke-width:1.795;stroke-linecap:square;stroke-linejoin:miter;stroke:rgb(0%,36.470032%,36.470032%);stroke-opacity:0.7;stroke-miterlimit:3.25;" d="M 180.058594 151.8125 Z M 180.058594 151.8125 " transform="matrix(1,0,0,1,-66,-5)"/>
<path style="fill:none;stroke-width:1.795;stroke-linecap:square;stroke-linejoin:miter;stroke:rgb(0%,36.470032%,36.470032%);stroke-opacity:0.7;stroke-miterlimit:3.25;" d="M 277.902344 118.773438 Z M 277.902344 118.773438 " transform="matrix(1,0,0,1,-66,-5)"/>
<path style="fill:none;stroke-width:1.795;stroke-linecap:square;stroke-linejoin:miter;stroke:rgb(0%,36.470032%,36.470032%);stroke-opacity:0.7;stroke-miterlimit:3.25;" d="M 222.136719 253.398438 Z M 222.136719 253.398438 " transform="matrix(1,0,0,1,-66,-5)"/>
<path style="fill:none;stroke-width:1.795;stroke-linecap:square;stroke-linejoin:miter;stroke:rgb(0%,36.470032%,36.470032%);stroke-opacity:0.7;stroke-miterlimit:3.25;" d="M 83.367188 117.054688 Z M 83.367188 117.054688 " transform="matrix(1,0,0,1,-66,-5)"/>
<path style="fill:none;stroke-width:1.795;stroke-linecap:square;stroke-linejoin:miter;stroke:rgb(0%,36.470032%,36.470032%);stroke-opacity:0.7;stroke-miterlimit:3.25;" d="M 181.207031 349.210938 Z M 181.207031 349.210938 " transform="matrix(1,0,0,1,-66,-5)"/>
<path style="fill:none;stroke-width:1.795;stroke-linecap:square;stroke-linejoin:miter;stroke:rgb(0%,36.470032%,36.470032%);stroke-opacity:0.7;stroke-miterlimit:3.25;" d="M 181.207031 157.582031 Z M 181.207031 157.582031 " transform="matrix(1,0,0,1,-66,-5)"/>
<path style="fill:none;stroke-width:1.795;stroke-linecap:square;stroke-linejoin:miter;stroke:rgb(0%,36.470032%,36.470032%);stroke-opacity:0.7;stroke-miterlimit:3.25;" d="M 218.871094 248.503906 Z M 218.871094 248.503906 " transform="matrix(1,0,0,1,-66,-5)"/>
<path style="fill:none;stroke-width:1.795;stroke-linecap:square;stroke-linejoin:miter;stroke:rgb(0%,36.470032%,36.470032%);stroke-opacity:0.7;stroke-miterlimit:3.25;" d="M 83.769531 115.027344 Z M 83.769531 115.027344 " transform="matrix(1,0,0,1,-66,-5)"/>
<path style="fill:none;stroke-width:1.795;stroke-linecap:square;stroke-linejoin:miter;stroke:rgb(0%,36.470032%,36.470032%);stroke-opacity:0.7;stroke-miterlimit:3.25;" d="M 178.34375 346.34375 Z M 178.34375 346.34375 " transform="matrix(1,0,0,1,-66,-5)"/>
<path style="fill:none;stroke-width:1.795;stroke-linecap:square;stroke-linejoin:miter;stroke:rgb(0%,36.470032%,36.470032%);stroke-opacity:0.7;stroke-miterlimit:3.25;" d="M 181.207031 153.53125 Z M 181.207031 153.53125 " transform="matrix(1,0,0,1,-66,-5)"/>
<path style="fill:none;stroke-width:1.795;stroke-linecap:square;stroke-linejoin:miter;stroke:rgb(0%,36.470032%,36.470032%);stroke-opacity:0.7;stroke-miterlimit:3.25;" d="M 82.21875 118.773438 Z M 82.21875 118.773438 " transform="matrix(1,0,0,1,-66,-5)"/>
<path style="fill:none;stroke-width:1.795;stroke-linecap:square;stroke-linejoin:miter;stroke:rgb(0%,36.470032%,36.470032%);stroke-opacity:0.7;stroke-miterlimit:3.25;" d="M 178.34375 346.34375 Z M 178.34375 346.34375 " transform="matrix(1,0,0,1,-66,-5)"/>
<path style="fill:none;stroke-width:1.795;stroke-linecap:square;stroke-linejoin:miter;stroke:rgb(0%,36.470032%,36.470032%);stroke-opacity:0.7;stroke-miterlimit:3.25;" d="M 178.34375 160.449219 Z M 178.34375 160.449219 " transform="matrix(1,0,0,1,-66,-5)"/>
<path style="fill:none;stroke-width:1.795;stroke-linecap:square;stroke-linejoin:miter;stroke:rgb(0%,36.470032%,36.470032%);stroke-opacity:0.7;stroke-miterlimit:3.25;" d="M 174.289062 346.34375 Z M 174.289062 346.34375 " transform="matrix(1,0,0,1,-66,-5)"/>
<path style="fill:none;stroke-width:1.795;stroke-linecap:square;stroke-linejoin:miter;stroke:rgb(0%,36.470032%,36.470032%);stroke-opacity:0.7;stroke-miterlimit:3.25;" d="M 171.425781 153.53125 Z M 171.425781 153.53125 " transform="matrix(1,0,0,1,-66,-5)"/>
<path style="fill:none;stroke-width:1.795;stroke-linecap:square;stroke-linejoin:miter;stroke:rgb(0%,36.470032%,36.470032%);stroke-opacity:0.7;stroke-miterlimit:3.25;" d="M 176.316406 160.851562 Z M 176.316406 160.851562 " transform="matrix(1,0,0,1,-66,-5)"/>
<path style="fill-rule:evenodd;fill:rgb(0%,36.470032%,36.470032%);fill-opacity:1;stroke-width:1;stroke-linecap:square;stroke-linejoin:miter;stroke:rgb(0%,0%,0%);stroke-opacity:0.7;stroke-miterlimit:3.25;" d="M 319.980469 212.871094 C 319.980469 211.464844 319.421875 210.117188 318.429688 209.125 C 317.433594 208.132812 316.089844 207.574219 314.683594 207.574219 C 313.28125 207.574219 311.933594 208.132812 310.941406 209.125 C 309.945312 210.117188 309.390625 211.464844 309.390625 212.871094 C 309.390625 214.273438 309.945312 215.621094 310.941406 216.613281 C 311.933594 217.605469 313.28125 218.164062 314.683594 218.164062 C 316.089844 218.164062 317.433594 217.605469 318.429688 216.613281 C 319.421875 215.621094 319.980469 214.273438 319.980469 212.871094 Z M 319.980469 212.871094 " transform="matrix(1,0,0,1,-66,-5)"/>
<path style="fill-rule:evenodd;fill:rgb(0%,36.470032%,36.470032%);fill-opacity:1;stroke-width:1;stroke-linecap:square;stroke-linejoin:miter;stroke:rgb(0%,0%,0%);stroke-opacity:0.7;stroke-miterlimit:3.25;" d="M 319.980469 17.1875 C 319.980469 15.785156 319.421875 14.4375 318.429688 13.445312 C 317.433594 12.449219 316.089844 11.894531 314.683594 11.894531 C 313.28125 11.894531 311.933594 12.449219 310.941406 13.445312 C 309.945312 14.4375 309.390625 15.785156 309.390625 17.1875 C 309.390625 18.59375 309.945312 19.9375 310.941406 20.933594 C 311.933594 21.925781 313.28125 22.484375 314.683594 22.484375 C 316.089844 22.484375 317.433594 21.925781 318.429688 20.933594 C 319.421875 19.9375 319.980469 18.59375 319.980469 17.1875 Z M 319.980469 17.1875 " transform="matrix(1,0,0,1,-66,-5)"/>
<path style="fill-rule:evenodd;fill:rgb(0%,36.470032%,36.470032%);fill-opacity:1;stroke-width:1;stroke-linecap:square;stroke-linejoin:miter;stroke:rgb(0%,0%,0%);stroke-opacity:0.7;stroke-miterlimit:3.25;" d="M 417.820312 253.398438 C 417.820312 251.992188 417.261719 250.644531 416.269531 249.652344 C 415.277344 248.660156 413.929688 248.101562 412.523438 248.101562 C 411.121094 248.101562 409.773438 248.660156 408.78125 249.652344 C 407.789062 250.644531 407.230469 251.992188 407.230469 253.398438 C 407.230469 254.800781 407.789062 256.148438 408.78125 257.140625 C 409.773438 258.132812 411.121094 258.691406 412.523438 258.691406 C 413.929688 258.691406 415.277344 258.132812 416.269531 257.140625 C 417.261719 256.148438 417.820312 254.800781 417.820312 253.398438 Z M 417.820312 253.398438 " transform="matrix(1,0,0,1,-66,-5)"/>
<path style="fill-rule:evenodd;fill:rgb(0%,36.470032%,36.470032%);fill-opacity:1;stroke-width:1;stroke-linecap:square;stroke-linejoin:miter;stroke:rgb(0%,0%,0%);stroke-opacity:0.7;stroke-miterlimit:3.25;" d="M 279.453125 115.027344 C 279.453125 113.625 278.894531 112.277344 277.902344 111.285156 C 276.90625 110.292969 275.5625 109.734375 274.15625 109.734375 C 272.753906 109.734375 271.40625 110.292969 270.414062 111.285156 C 269.417969 112.277344 268.863281 113.625 268.863281 115.027344 C 268.863281 116.433594 269.417969 117.78125 270.414062 118.773438 C 271.40625 119.765625 272.753906 120.324219 274.15625 120.324219 C 275.5625 120.324219 276.90625 119.765625 277.902344 118.773438 C 278.894531 117.78125 279.453125 116.433594 279.453125 115.027344 Z M 279.453125 115.027344 " transform="matrix(1,0,0,1,-66,-5)"/>
<path style="fill-rule:evenodd;fill:rgb(0%,36.470032%,36.470032%);fill-opacity:1;stroke-width:1;stroke-linecap:square;stroke-linejoin:miter;stroke:rgb(0%,0%,0%);stroke-opacity:0.7;stroke-miterlimit:3.25;" d="M 222.136719 253.398438 C 222.136719 251.992188 221.582031 250.644531 220.585938 249.652344 C 219.59375 248.660156 218.246094 248.101562 216.84375 248.101562 C 215.4375 248.101562 214.09375 248.660156 213.097656 249.652344 C 212.105469 250.644531 211.546875 251.992188 211.546875 253.398438 C 211.546875 254.800781 212.105469 256.148438 213.097656 257.140625 C 214.09375 258.132812 215.4375 258.691406 216.84375 258.691406 C 218.246094 258.691406 219.59375 258.132812 220.585938 257.140625 C 221.582031 256.148438 222.136719 254.800781 222.136719 253.398438 Z M 222.136719 253.398438 " transform="matrix(1,0,0,1,-66,-5)"/>
<path style="fill-rule:evenodd;fill:rgb(0%,36.470032%,36.470032%);fill-opacity:1;stroke-width:1;stroke-linecap:square;stroke-linejoin:miter;stroke:rgb(0%,0%,0%);stroke-opacity:0.7;stroke-miterlimit:3.25;" d="M 83.769531 115.027344 C 83.769531 113.625 83.210938 112.277344 82.21875 111.285156 C 81.226562 110.292969 79.878906 109.734375 78.476562 109.734375 C 77.070312 109.734375 75.722656 110.292969 74.730469 111.285156 C 73.738281 112.277344 73.179688 113.625 73.179688 115.027344 C 73.179688 116.433594 73.738281 117.78125 74.730469 118.773438 C 75.722656 119.765625 77.070312 120.324219 78.476562 120.324219 C 79.878906 120.324219 81.226562 119.765625 82.21875 118.773438 C 83.210938 117.78125 83.769531 116.433594 83.769531 115.027344 Z M 83.769531 115.027344 " transform="matrix(1,0,0,1,-66,-5)"/>
<path style="fill-rule:evenodd;fill:rgb(0%,36.470032%,36.470032%);fill-opacity:1;stroke-width:1;stroke-linecap:square;stroke-linejoin:miter;stroke:rgb(0%,0%,0%);stroke-opacity:0.7;stroke-miterlimit:3.25;" d="M 181.609375 351.238281 C 181.609375 349.832031 181.054688 348.488281 180.058594 347.492188 C 179.066406 346.5 177.71875 345.941406 176.316406 345.941406 C 174.910156 345.941406 173.566406 346.5 172.570312 347.492188 C 171.578125 348.488281 171.019531 349.832031 171.019531 351.238281 C 171.019531 352.640625 171.578125 353.988281 172.570312 354.980469 C 173.566406 355.976562 174.910156 356.53125 176.316406 356.53125 C 177.71875 356.53125 179.066406 355.976562 180.058594 354.980469 C 181.054688 353.988281 181.609375 352.640625 181.609375 351.238281 Z M 181.609375 351.238281 " transform="matrix(1,0,0,1,-66,-5)"/>
<path style="fill-rule:evenodd;fill:rgb(0%,36.470032%,36.470032%);fill-opacity:1;stroke-width:1;stroke-linecap:square;stroke-linejoin:miter;stroke:rgb(0%,0%,0%);stroke-opacity:0.7;stroke-miterlimit:3.25;" d="M 181.609375 155.554688 C 181.609375 154.152344 181.054688 152.804688 180.058594 151.8125 C 179.066406 150.820312 177.71875 150.261719 176.316406 150.261719 C 174.910156 150.261719 173.566406 150.820312 172.570312 151.8125 C 171.578125 152.804688 171.019531 154.152344 171.019531 155.554688 C 171.019531 156.960938 171.578125 158.308594 172.570312 159.300781 C 173.566406 160.292969 174.910156 160.851562 176.316406 160.851562 C 177.71875 160.851562 179.066406 160.292969 180.058594 159.300781 C 181.054688 158.308594 181.609375 156.960938 181.609375 155.554688 Z M 181.609375 155.554688 " transform="matrix(1,0,0,1,-66,-5)"/>
</g>
</svg>
