<?xml version="1.0" encoding="UTF-8"?>
<svg xmlns="http://www.w3.org/2000/svg" xmlns:xlink="http://www.w3.org/1999/xlink" width="42.328053mm" height="42.394mm" viewBox="3.74219 3.35939 491.514 492.28" version="1.1">
<g id="surface17">
<path style="fill:none;stroke-width:1;stroke-linecap:square;stroke-linejoin:miter;stroke:rgb(11.372549%,30.588235%,84.705882%);stroke-opacity:1;stroke-miterlimit:3.25;" d="M 555.019531 254.5 L 372.042969 14.597656 " transform="matrix(1,0,0,1,-66,-5)"/>
<path style="fill:none;stroke-width:1;stroke-linecap:square;stroke-linejoin:miter;stroke:rgb(11.372549%,30.588235%,84.705882%);stroke-opacity:1;stroke-miterlimit:3.25;" d="M 555.019531 254.5 L 75.980469 106.230469 " transform="matrix(1,0,0,1,-66,-5)"/>
<path style="fill:none;stroke-width:1;stroke-linecap:square;stroke-linejoin:miter;stroke:rgb(11.372549%,30.588235%,84.705882%);stroke-opacity:1;stroke-miterlimit:3.25;" d="M 555.019531 254.5 L 75.980469 402.769531 " transform="matrix(1,0,0,1,-66,-5)"/>
<path style="fill:none;stroke-width:1;stroke-linecap:square;stroke-linejoin:miter;stroke:rgb(11.372549%,30.588235%,84.705882%);stroke-opacity:1;stroke-miterlimit:3.25;" d="M 555.019531 254.5 L 372.042969 494.402344 " transform="matrix(1,0,0,1,-66,-5)"/>
<path style="fill:none;stroke-width:1;stroke-linecap:square;stroke-linejoin:miter;stroke:rgb(11.372549%,30.588235%,84.705882%);stroke-opacity:1;stroke-miterlimit:3.25;" d="M 372.042969 14.597656 L 75.980469 106.230469 " transform="matrix(1,0,0,1,-66,-5)"/>
<path style="fill:none;stroke-width:1;stroke-linecap:square;stroke-linejoin:miter;stroke:rgb(11.372549%,30.588235%,84.705882%);stroke-opacity:1;stroke-miterlimit:3.25;" d="M 372.042969 14.597656 L 75.980469 402.769531 " transform="matrix(1,0,0,1,-66,-5)"/>
<path style="fill:none;stroke-width:1;stroke-linecap:square;stroke-linejoin:miter;stroke:rgb(11.372549%,30.588235%,84.705882%);stroke-opacity:1;stroke-miterlimit:3.25;" d="M 372.042969 14.597656 L 372.042969 494.402344 " transform="matrix(1,0,0,1,-66,-5)"/>
<path style="fill:none;stroke-width:1;stroke-linecap:square;stroke-linejoin:miter;stroke:rgb(11.372549%,30.588235%,84.705882%);stroke-opacity:1;stroke-miterlimit:3.25;" d="M 75.980469 106.230469 L 75.980469 402.769531 " transform="matrix(1,0,0,1,-66,-5)"/>
<path style="fill:none;stroke-width:1;stroke-linecap:square;stroke-linejoin:miter;stroke:rgb(11.372549%,30.588235%,84.705882%);stroke-opacity:1;stroke-miterlimit:3.25;" d="M 75.980469 106.230469 L 372.042969 494.402344 " transform="matrix(1,0,0,1,-66,-5)"/>
<path style="fill:none;stroke-width:1;stroke-linecap:square;stroke-linejoin:miter;stroke:rgb(11.372549%,30.588235%,84.705882%);stroke-opacity:1;stroke-miterlimit:3.25;" d="M 75.980469 402.769531 L 372.042969 494.402344 " transform="matrix(1,0,0,1,-66,-5)"/>
<path style=" stroke:none;fill-rule:evenodd;fill:rgb(11.372549%,30.588235%,84.705882%);fill-opacity:1;" d="M 495.257812 249.5 C 495.257812 251.152344 494.601562 252.742188 493.429688 253.910156 C 492.261719 255.082031 490.675781 255.738281 489.019531 255.738281 C 487.367188 255.738281 485.777344 255.082031 484.609375 253.910156 C 483.441406 252.742188 482.78125 251.152344 482.78125 249.5 C 482.78125 247.847656 483.441406 246.257812 484.609375 245.089844 C 485.777344 243.917969 487.367188 243.261719 489.019531 243.261719 C 490.675781 243.261719 492.261719 243.917969 493.429688 245.089844 C 494.601562 246.257812 495.257812 247.847656 495.257812 249.5 Z M 495.257812 249.5 "/>
<path style=" stroke:none;fill-rule:evenodd;fill:rgb(11.372549%,30.588235%,84.705882%);fill-opacity:1;" d="M 312.28125 9.597656 C 312.28125 11.25 311.625 12.835938 310.453125 14.007812 C 309.285156 15.175781 307.699219 15.832031 306.042969 15.832031 C 304.390625 15.832031 302.800781 15.175781 301.632812 14.007812 C 300.460938 12.835938 299.804688 11.25 299.804688 9.597656 C 299.804688 7.941406 300.460938 6.355469 301.632812 5.1875 C 302.800781 4.015625 304.390625 3.359375 306.042969 3.359375 C 307.699219 3.359375 309.285156 4.015625 310.453125 5.1875 C 311.625 6.355469 312.28125 7.941406 312.28125 9.597656 Z M 312.28125 9.597656 "/>
<path style=" stroke:none;fill-rule:evenodd;fill:rgb(11.372549%,30.588235%,84.705882%);fill-opacity:1;" d="M 16.21875 101.230469 C 16.21875 102.886719 15.558594 104.472656 14.390625 105.640625 C 13.222656 106.8125 11.632812 107.46875 9.980469 107.46875 C 8.324219 107.46875 6.738281 106.8125 5.570312 105.640625 C 4.398438 104.472656 3.742188 102.886719 3.742188 101.230469 C 3.742188 99.578125 4.398438 97.992188 5.570312 96.820312 C 6.738281 95.652344 8.324219 94.992188 9.980469 94.992188 C 11.632812 94.992188 13.222656 95.652344 14.390625 96.820312 C 15.558594 97.992188 16.21875 99.578125 16.21875 101.230469 Z M 16.21875 101.230469 "/>
<path style=" stroke:none;fill-rule:evenodd;fill:rgb(11.372549%,30.588235%,84.705882%);fill-opacity:1;" d="M 16.21875 397.769531 C 16.21875 399.421875 15.558594 401.007812 14.390625 402.179688 C 13.222656 403.347656 11.632812 404.007812 9.980469 404.007812 C 8.324219 404.007812 6.738281 403.347656 5.570312 402.179688 C 4.398438 401.007812 3.742188 399.421875 3.742188 397.769531 C 3.742188 396.113281 4.398438 394.527344 5.570312 393.359375 C 6.738281 392.1875 8.324219 391.53125 9.980469 391.53125 C 11.632812 391.53125 13.222656 392.1875 14.390625 393.359375 C 15.558594 394.527344 16.21875 396.113281 16.21875 397.769531 Z M 16.21875 397.769531 "/>
<path style=" stroke:none;fill-rule:evenodd;fill:rgb(11.372549%,30.588235%,84.705882%);fill-opacity:1;" d="M 312.28125 489.402344 C 312.28125 491.058594 311.625 492.644531 310.453125 493.8125 C 309.285156 494.984375 307.699219 495.640625 306.042969 495.640625 C 304.390625 495.640625 302.800781 494.984375 301.632812 493.8125 C 300.460938 492.644531 299.804688 491.058594 299.804688 489.402344 C 299.804688 487.75 300.460938 486.164062 301.632812 484.992188 C 302.800781 483.824219 304.390625 483.167969 306.042969 483.167969 C 307.699219 483.167969 309.285156 483.824219 310.453125 484.992188 C 311.625 486.164062 312.28125 487.75 312.28125 489.402344 Z M 312.28125 489.402344 "/>
</g>
</svg>
