<?xml version="1.0" encoding="UTF-8" standalone="no"?>
<!-- Created with Inkscape (http://www.inkscape.org/) -->

<svg
   width="51.813469mm"
   height="47.188198mm"
   viewBox="0 0 51.813469 47.188198"
   version="1.1"
   id="svg5"
   inkscape:version="1.1.1 (c3084ef, 2021-09-22)"
   sodipodi:docname="clifford-deformed_surface.svg"
   xmlns:inkscape="http://www.inkscape.org/namespaces/inkscape"
   xmlns:sodipodi="http://sodipodi.sourceforge.net/DTD/sodipodi-0.dtd"
   xmlns="http://www.w3.org/2000/svg"
   xmlns:svg="http://www.w3.org/2000/svg">
  <sodipodi:namedview
     id="namedview7"
     pagecolor="#ffffff"
     bordercolor="#666666"
     borderopacity="1.0"
     inkscape:pageshadow="2"
     inkscape:pageopacity="0.0"
     inkscape:pagecheckerboard="0"
     inkscape:document-units="mm"
     showgrid="false"
     inkscape:zoom="1.1850501"
     inkscape:cx="364.96347"
     inkscape:cy="50.208848"
     inkscape:window-width="2560"
     inkscape:window-height="1395"
     inkscape:window-x="0"
     inkscape:window-y="23"
     inkscape:window-maximized="1"
     inkscape:current-layer="layer1"
     fit-margin-top="0"
     fit-margin-left="0"
     fit-margin-right="0"
     fit-margin-bottom="0" />
  <defs
     id="defs2">
    <rect
       x="-454.47849"
       y="61.10635"
       width="305.53174"
       height="95.478668"
       id="rect10999" />
    <clipPath
       id="clip0">
      <rect
         x="-1199"
         y="204"
         width="1616"
         height="1462"
         id="rect9" />
    </clipPath>
    <clipPath
       id="clip0-2">
      <rect
         x="706"
         y="286"
         width="1520"
         height="1390"
         id="rect218" />
    </clipPath>
    <clipPath
       id="clip0-3">
      <rect
         x="706"
         y="286"
         width="1520"
         height="1390"
         id="rect489" />
    </clipPath>
    <clipPath
       id="clip0-6">
      <rect
         x="706"
         y="286"
         width="1520"
         height="1390"
         id="rect590" />
    </clipPath>
  </defs>
  <g
     inkscape:label="Layer 1"
     inkscape:groupmode="layer"
     id="layer1"
     transform="translate(-1.637095,-0.74905719)">
    <g
       clip-path="url(#clip0-3)"
       transform="matrix(0.26458333,0,0,0.26458333,-470.02774,61.893035)"
       id="g532">
      <path
         d="M 942,533 1418.31,1006.33 1421,1474 946.773,1008.78 Z"
         fill="#007dc9"
         fill-rule="evenodd"
         fill-opacity="0.670588"
         id="path494" />
      <path
         d="m 950.833,343.168 10e-4,1134.582 h -6.667 V 343.168 Z m -13.333,3.332 10,-20 10,20 z"
         id="path496" />
      <path
         d="M 16.6689,-3.31153 1154.27,-1.82362 1154.26,4.84304 16.6602,3.35513 Z M 19.9869,10.0262 0,0 20.0131,-9.97383 Z"
         transform="matrix(-1,0,0,1,2101.77,1473.5)"
         id="path498" />
      <path
         d="m 2052.5,1535.1 h 51.68 v 2.23 c -2.24,0.54 -3.68,1.28 -4.31,2.2 -0.64,0.92 -0.96,3.23 -0.96,6.92 v 39.28 c 0,3.61 0.32,5.89 0.96,6.86 0.63,0.97 2.07,1.73 4.31,2.27 v 2.23 h -19.07 v -2.23 c 2.15,-0.51 3.56,-1.22 4.24,-2.11 0.69,-0.89 1.03,-3.23 1.03,-7.02 v -46.45 h -24.07 v 46.45 c 0,3.79 0.36,6.13 1.07,7.02 0.71,0.89 2.12,1.6 4.24,2.11 v 2.23 h -19.12 v -2.23 c 2.21,-0.54 3.65,-1.27 4.32,-2.18 0.66,-0.91 1,-3.22 1,-6.95 v -39.28 c 0,-3.78 -0.36,-6.12 -1.07,-7.01 -0.71,-0.9 -2.13,-1.6 -4.25,-2.11 z"
         fill-rule="evenodd"
         id="path500" />
      <text
         fill="#000000"
         fill-opacity="0"
         font-family="Arial, Arial_MSFontService, sans-serif"
         font-size="61.9849px"
         x="2052.5"
         y="1589.34"
         id="text502">Π</text>
      <path
         d="m 2159.52,1577.76 h 26.22 l -0.33,1.46 -27.55,37.08 h 9.69 c 1.02,0 1.86,-0.08 2.49,-0.26 0.64,-0.17 1.2,-0.43 1.68,-0.77 0.49,-0.34 0.98,-0.81 1.49,-1.39 0.5,-0.59 1.01,-1.31 1.53,-2.17 0.51,-0.85 1.1,-2.05 1.77,-3.58 h 2.9 l -2.33,10.96 h -26.85 l 0.3,-1.49 27.49,-37.05 h -9.29 c -1.13,0 -2.03,0.1 -2.7,0.3 -0.66,0.2 -1.28,0.56 -1.86,1.08 -0.58,0.51 -1.18,1.23 -1.8,2.14 -0.63,0.92 -1.35,2.23 -2.18,3.93 h -2.91 z m -41.09,0 h 12.23 l -0.33,1.49 c -0.87,0.14 -1.56,0.44 -2.07,0.89 -0.52,0.45 -0.77,1.11 -0.77,1.98 0,1.29 0.33,2.92 0.99,4.88 l 2.52,7.32 5.6,-7.08 c 0.87,-1.09 1.54,-1.98 2.03,-2.68 0.48,-0.7 0.83,-1.31 1.04,-1.85 0.21,-0.53 0.32,-1 0.32,-1.41 0,-0.54 -0.16,-1 -0.49,-1.39 -0.32,-0.38 -0.87,-0.6 -1.66,-0.66 l 0.33,-1.49 h 11.29 l -0.33,1.49 c -0.6,0.18 -1.17,0.47 -1.71,0.87 -0.53,0.41 -1.17,1.01 -1.91,1.82 -0.73,0.81 -2.1,2.4 -4.1,4.78 l -9.02,10.78 4.42,12.29 c 0.67,1.86 1.21,3.28 1.63,4.26 0.43,0.97 0.8,1.7 1.12,2.16 0.27,0.34 0.54,0.61 0.82,0.8 0.28,0.19 0.76,0.39 1.42,0.59 l -0.3,1.49 h -12.23 l 0.3,-1.49 c 0.93,-0.14 1.64,-0.46 2.14,-0.95 0.49,-0.5 0.74,-1.14 0.74,-1.92 0,-1.19 -0.24,-2.52 -0.73,-3.97 l -3.15,-9.23 -6.9,8.63 c -1.03,1.29 -1.77,2.34 -2.24,3.16 -0.46,0.82 -0.69,1.52 -0.69,2.1 0,0.79 0.18,1.33 0.56,1.62 0.37,0.3 0.9,0.48 1.59,0.56 l -0.34,1.49 h -11.26 l 0.3,-1.49 c 0.63,-0.2 1.2,-0.49 1.71,-0.88 0.52,-0.38 1.18,-1.03 2,-1.95 0.82,-0.92 2.25,-2.59 4.29,-5.01 l 9.59,-11.41 -4.48,-12.44 c -0.74,-2.08 -1.33,-3.52 -1.75,-4.32 -0.43,-0.79 -0.85,-1.35 -1.26,-1.68 -0.41,-0.32 -0.94,-0.54 -1.59,-0.66 z"
         fill-rule="evenodd"
         id="path504" />
      <text
         fill="#000000"
         fill-opacity="0"
         font-family="Arial, Arial_MSFontService, sans-serif"
         font-size="41.3232px"
         x="2109.29"
         y="1613.92"
         id="text506">𝑋𝑍</text>
      <text
         font-family="'Times New Roman', 'Times New Roman_MSFontService', sans-serif"
         font-weight="400"
         font-size="93px"
         transform="translate(1366.37,1597)"
         id="text508">0.5</text>
      <path
         d="m 769.099,325.55 h 51.677 v 2.225 c -2.24,0.545 -3.678,1.279 -4.314,2.202 -0.636,0.923 -0.953,3.232 -0.953,6.925 v 39.28 c 0,3.602 0.317,5.888 0.953,6.857 0.636,0.969 2.074,1.725 4.314,2.27 v 2.225 h -19.072 v -2.225 c 2.149,-0.514 3.565,-1.218 4.246,-2.111 0.681,-0.893 1.021,-3.232 1.021,-7.016 v -46.455 h -24.067 v 46.455 c 0,3.784 0.356,6.123 1.067,7.016 0.712,0.893 2.127,1.597 4.246,2.111 v 2.225 h -19.118 v -2.225 c 2.21,-0.545 3.648,-1.271 4.314,-2.179 0.666,-0.909 0.999,-3.224 0.999,-6.948 v -39.28 c 0,-3.784 -0.355,-6.123 -1.067,-7.016 -0.711,-0.893 -2.126,-1.597 -4.246,-2.111 z"
         fill-rule="evenodd"
         id="path510" />
      <text
         fill="#000000"
         fill-opacity="0"
         font-family="Arial, Arial_MSFontService, sans-serif"
         font-size="61.9849px"
         x="769.099"
         y="379.78601"
         id="text512">Π</text>
      <path
         d="m 874.118,368.211 h 26.217 l -0.333,1.453 -27.549,37.085 h 9.688 c 1.029,0 1.861,-0.086 2.497,-0.257 0.636,-0.172 1.196,-0.429 1.68,-0.772 0.485,-0.343 0.979,-0.807 1.484,-1.393 0.504,-0.585 1.014,-1.306 1.529,-2.164 0.514,-0.858 1.104,-2.054 1.771,-3.588 h 2.906 l -2.331,10.959 h -26.853 l 0.303,-1.483 27.488,-37.055 h -9.294 c -1.13,0 -2.028,0.101 -2.694,0.303 -0.666,0.202 -1.287,0.56 -1.862,1.075 -0.575,0.514 -1.176,1.231 -1.801,2.149 -0.626,0.918 -1.352,2.225 -2.18,3.921 h -2.906 z m -44.115,0 h 11.716 l -0.333,1.484 c -0.848,0.08 -1.494,0.328 -1.938,0.741 -0.444,0.414 -0.666,1.055 -0.666,1.923 0,1.231 0.283,2.845 0.848,4.843 l 3.209,11.413 7.447,-9.959 c 1.514,-2.019 2.508,-3.517 2.982,-4.496 0.474,-0.979 0.711,-1.842 0.711,-2.588 0,-0.566 -0.191,-0.999 -0.575,-1.302 -0.383,-0.303 -0.938,-0.495 -1.665,-0.575 l 0.333,-1.484 h 11.353 l -0.333,1.484 c -0.485,0.101 -0.903,0.247 -1.257,0.439 -0.353,0.191 -0.756,0.499 -1.211,0.923 -0.454,0.424 -1.069,1.105 -1.846,2.043 -0.777,0.939 -1.771,2.195 -2.982,3.769 l -11.777,15.288 -1.876,8.568 c -0.182,0.807 -0.308,1.438 -0.379,1.892 -0.071,0.454 -0.131,0.938 -0.182,1.453 -0.05,0.515 -0.075,0.974 -0.075,1.378 0,0.625 0.101,1.115 0.303,1.468 0.201,0.353 0.504,0.61 0.908,0.772 0.403,0.161 1.1,0.282 2.089,0.363 l -0.333,1.483 h -12.746 l 0.333,-1.483 c 0.808,-0.121 1.403,-0.283 1.787,-0.484 0.383,-0.202 0.721,-0.515 1.014,-0.939 0.292,-0.424 0.585,-1.09 0.878,-1.998 0.292,-0.908 0.64,-2.28 1.044,-4.117 l 1.786,-8.356 -4.389,-15.288 c -0.666,-2.341 -1.191,-3.925 -1.575,-4.753 -0.383,-0.827 -0.792,-1.412 -1.226,-1.755 -0.434,-0.344 -1.004,-0.565 -1.71,-0.666 z"
         fill-rule="evenodd"
         id="path514" />
      <text
         fill="#000000"
         fill-opacity="0"
         font-family="Arial, Arial_MSFontService, sans-serif"
         font-size="41.3232px"
         x="829.66998"
         y="404.36899"
         id="text516">𝑌𝑍</text>
      <text
         font-family="'Times New Roman', 'Times New Roman_MSFontService', sans-serif"
         font-weight="400"
         font-size="93px"
         transform="translate(1866.91,1597)"
         id="text524">1<tspan
   font-size="93px"
   x="-1040.48"
   y="0"
   id="tspan518">0</tspan><tspan
   font-size="93px"
   x="-1104.86"
   y="-570"
   id="tspan520">0.5</tspan><tspan
   font-size="93px"
   x="-1054.46"
   y="-1043"
   id="tspan522">1</tspan></text>
      <path
         d="m 947.5,1004.5 462,455.25 -2.5,9.75 H 947.5 Z"
         stroke="#000000"
         stroke-width="15"
         stroke-miterlimit="8"
         fill="none"
         fill-rule="evenodd"
         id="path526" />
      <path
         d="m 1422.06,1469.5 -2.56,-455 450,455 z"
         stroke="#c55a11"
         stroke-width="15"
         stroke-miterlimit="8"
         fill="none"
         fill-rule="evenodd"
         id="path528" />
      <path
         d="m 948.074,991.5 -2.574,-449 453,449 z"
         stroke="#874988"
         stroke-width="15"
         stroke-miterlimit="8"
         fill="none"
         fill-rule="evenodd"
         id="path530" />
    </g>
    <g
       clip-path="url(#clip0-6)"
       transform="matrix(0.03647989,0,0,0.03647989,-26.284991,-11.126971)"
       id="g633">
      <path
         d="M 942,533 1418.31,1006.33 1421,1474 946.773,1008.78 Z"
         fill="#007dc9"
         fill-rule="evenodd"
         fill-opacity="0.670588"
         id="path595" />
      <path
         d="m 950.833,343.168 10e-4,1134.582 h -6.667 V 343.168 Z m -13.333,3.332 10,-20 10,20 z"
         id="path597" />
      <path
         d="M 16.6689,-3.31153 1154.27,-1.82362 1154.26,4.84304 16.6602,3.35513 Z M 19.9869,10.0262 0,0 20.0131,-9.97383 Z"
         transform="matrix(-1,0,0,1,2101.77,1473.5)"
         id="path599" />
      <path
         d="m 2052.5,1535.1 h 51.68 v 2.23 c -2.24,0.54 -3.68,1.28 -4.31,2.2 -0.64,0.92 -0.96,3.23 -0.96,6.92 v 39.28 c 0,3.61 0.32,5.89 0.96,6.86 0.63,0.97 2.07,1.73 4.31,2.27 v 2.23 h -19.07 v -2.23 c 2.15,-0.51 3.56,-1.22 4.24,-2.11 0.69,-0.89 1.03,-3.23 1.03,-7.02 v -46.45 h -24.07 v 46.45 c 0,3.79 0.36,6.13 1.07,7.02 0.71,0.89 2.12,1.6 4.24,2.11 v 2.23 h -19.12 v -2.23 c 2.21,-0.54 3.65,-1.27 4.32,-2.18 0.66,-0.91 1,-3.22 1,-6.95 v -39.28 c 0,-3.78 -0.36,-6.12 -1.07,-7.01 -0.71,-0.9 -2.13,-1.6 -4.25,-2.11 z"
         fill-rule="evenodd"
         id="path601" />
      <text
         fill="#000000"
         fill-opacity="0"
         font-family="Arial, Arial_MSFontService, sans-serif"
         font-size="61.9849px"
         x="2052.5"
         y="1589.34"
         id="text603">Π</text>
      <path
         d="m 2159.52,1577.76 h 26.22 l -0.33,1.46 -27.55,37.08 h 9.69 c 1.02,0 1.86,-0.08 2.49,-0.26 0.64,-0.17 1.2,-0.43 1.68,-0.77 0.49,-0.34 0.98,-0.81 1.49,-1.39 0.5,-0.59 1.01,-1.31 1.53,-2.17 0.51,-0.85 1.1,-2.05 1.77,-3.58 h 2.9 l -2.33,10.96 h -26.85 l 0.3,-1.49 27.49,-37.05 h -9.29 c -1.13,0 -2.03,0.1 -2.7,0.3 -0.66,0.2 -1.28,0.56 -1.86,1.08 -0.58,0.51 -1.18,1.23 -1.8,2.14 -0.63,0.92 -1.35,2.23 -2.18,3.93 h -2.91 z m -41.09,0 h 12.23 l -0.33,1.49 c -0.87,0.14 -1.56,0.44 -2.07,0.89 -0.52,0.45 -0.77,1.11 -0.77,1.98 0,1.29 0.33,2.92 0.99,4.88 l 2.52,7.32 5.6,-7.08 c 0.87,-1.09 1.54,-1.98 2.03,-2.68 0.48,-0.7 0.83,-1.31 1.04,-1.85 0.21,-0.53 0.32,-1 0.32,-1.41 0,-0.54 -0.16,-1 -0.49,-1.39 -0.32,-0.38 -0.87,-0.6 -1.66,-0.66 l 0.33,-1.49 h 11.29 l -0.33,1.49 c -0.6,0.18 -1.17,0.47 -1.71,0.87 -0.53,0.41 -1.17,1.01 -1.91,1.82 -0.73,0.81 -2.1,2.4 -4.1,4.78 l -9.02,10.78 4.42,12.29 c 0.67,1.86 1.21,3.28 1.63,4.26 0.43,0.97 0.8,1.7 1.12,2.16 0.27,0.34 0.54,0.61 0.82,0.8 0.28,0.19 0.76,0.39 1.42,0.59 l -0.3,1.49 h -12.23 l 0.3,-1.49 c 0.93,-0.14 1.64,-0.46 2.14,-0.95 0.49,-0.5 0.74,-1.14 0.74,-1.92 0,-1.19 -0.24,-2.52 -0.73,-3.97 l -3.15,-9.23 -6.9,8.63 c -1.03,1.29 -1.77,2.34 -2.24,3.16 -0.46,0.82 -0.69,1.52 -0.69,2.1 0,0.79 0.18,1.33 0.56,1.62 0.37,0.3 0.9,0.48 1.59,0.56 l -0.34,1.49 h -11.26 l 0.3,-1.49 c 0.63,-0.2 1.2,-0.49 1.71,-0.88 0.52,-0.38 1.18,-1.03 2,-1.95 0.82,-0.92 2.25,-2.59 4.29,-5.01 l 9.59,-11.41 -4.48,-12.44 c -0.74,-2.08 -1.33,-3.52 -1.75,-4.32 -0.43,-0.79 -0.85,-1.35 -1.26,-1.68 -0.41,-0.32 -0.94,-0.54 -1.59,-0.66 z"
         fill-rule="evenodd"
         id="path605" />
      <text
         fill="#000000"
         fill-opacity="0"
         font-family="Arial, Arial_MSFontService, sans-serif"
         font-size="41.3232px"
         x="2109.29"
         y="1613.92"
         id="text607">𝑋𝑍</text>
      <text
         font-family="'Times New Roman', 'Times New Roman_MSFontService', sans-serif"
         font-weight="400"
         font-size="93px"
         transform="translate(1366.37,1597)"
         id="text609">0.5</text>
      <path
         d="m 769.099,325.55 h 51.677 v 2.225 c -2.24,0.545 -3.678,1.279 -4.314,2.202 -0.636,0.923 -0.953,3.232 -0.953,6.925 v 39.28 c 0,3.602 0.317,5.888 0.953,6.857 0.636,0.969 2.074,1.725 4.314,2.27 v 2.225 h -19.072 v -2.225 c 2.149,-0.514 3.565,-1.218 4.246,-2.111 0.681,-0.893 1.021,-3.232 1.021,-7.016 v -46.455 h -24.067 v 46.455 c 0,3.784 0.356,6.123 1.067,7.016 0.712,0.893 2.127,1.597 4.246,2.111 v 2.225 h -19.118 v -2.225 c 2.21,-0.545 3.648,-1.271 4.314,-2.179 0.666,-0.909 0.999,-3.224 0.999,-6.948 v -39.28 c 0,-3.784 -0.355,-6.123 -1.067,-7.016 -0.711,-0.893 -2.126,-1.597 -4.246,-2.111 z"
         fill-rule="evenodd"
         id="path611" />
      <text
         fill="#000000"
         fill-opacity="0"
         font-family="Arial, Arial_MSFontService, sans-serif"
         font-size="61.9849px"
         x="769.099"
         y="379.78601"
         id="text613">Π</text>
      <path
         d="m 874.118,368.211 h 26.217 l -0.333,1.453 -27.549,37.085 h 9.688 c 1.029,0 1.861,-0.086 2.497,-0.257 0.636,-0.172 1.196,-0.429 1.68,-0.772 0.485,-0.343 0.979,-0.807 1.484,-1.393 0.504,-0.585 1.014,-1.306 1.529,-2.164 0.514,-0.858 1.104,-2.054 1.771,-3.588 h 2.906 l -2.331,10.959 h -26.853 l 0.303,-1.483 27.488,-37.055 h -9.294 c -1.13,0 -2.028,0.101 -2.694,0.303 -0.666,0.202 -1.287,0.56 -1.862,1.075 -0.575,0.514 -1.176,1.231 -1.801,2.149 -0.626,0.918 -1.352,2.225 -2.18,3.921 h -2.906 z m -44.115,0 h 11.716 l -0.333,1.484 c -0.848,0.08 -1.494,0.328 -1.938,0.741 -0.444,0.414 -0.666,1.055 -0.666,1.923 0,1.231 0.283,2.845 0.848,4.843 l 3.209,11.413 7.447,-9.959 c 1.514,-2.019 2.508,-3.517 2.982,-4.496 0.474,-0.979 0.711,-1.842 0.711,-2.588 0,-0.566 -0.191,-0.999 -0.575,-1.302 -0.383,-0.303 -0.938,-0.495 -1.665,-0.575 l 0.333,-1.484 h 11.353 l -0.333,1.484 c -0.485,0.101 -0.903,0.247 -1.257,0.439 -0.353,0.191 -0.756,0.499 -1.211,0.923 -0.454,0.424 -1.069,1.105 -1.846,2.043 -0.777,0.939 -1.771,2.195 -2.982,3.769 l -11.777,15.288 -1.876,8.568 c -0.182,0.807 -0.308,1.438 -0.379,1.892 -0.071,0.454 -0.131,0.938 -0.182,1.453 -0.05,0.515 -0.075,0.974 -0.075,1.378 0,0.625 0.101,1.115 0.303,1.468 0.201,0.353 0.504,0.61 0.908,0.772 0.403,0.161 1.1,0.282 2.089,0.363 l -0.333,1.483 h -12.746 l 0.333,-1.483 c 0.808,-0.121 1.403,-0.283 1.787,-0.484 0.383,-0.202 0.721,-0.515 1.014,-0.939 0.292,-0.424 0.585,-1.09 0.878,-1.998 0.292,-0.908 0.64,-2.28 1.044,-4.117 l 1.786,-8.356 -4.389,-15.288 c -0.666,-2.341 -1.191,-3.925 -1.575,-4.753 -0.383,-0.827 -0.792,-1.412 -1.226,-1.755 -0.434,-0.344 -1.004,-0.565 -1.71,-0.666 z"
         fill-rule="evenodd"
         id="path615" />
      <text
         fill="#000000"
         fill-opacity="0"
         font-family="Arial, Arial_MSFontService, sans-serif"
         font-size="41.3232px"
         x="829.66998"
         y="404.36899"
         id="text617">𝑌𝑍</text>
      <text
         font-family="'Times New Roman', 'Times New Roman_MSFontService', sans-serif"
         font-weight="400"
         font-size="93px"
         transform="translate(1866.91,1597)"
         id="text625">1<tspan
   font-size="93px"
   x="-1040.48"
   y="0"
   id="tspan619">0</tspan><tspan
   font-size="93px"
   x="-1104.86"
   y="-570"
   id="tspan621">0.5</tspan><tspan
   font-size="93px"
   x="-1054.46"
   y="-1043"
   id="tspan623">1</tspan></text>
      <path
         d="m 947.5,1004.5 462,455.25 -2.5,9.75 H 947.5 Z"
         stroke="#000000"
         stroke-width="15"
         stroke-miterlimit="8"
         fill="none"
         fill-rule="evenodd"
         id="path627" />
      <path
         d="m 1422.06,1469.5 -2.56,-455 450,455 z"
         stroke="#c55a11"
         stroke-width="15"
         stroke-miterlimit="8"
         fill="none"
         fill-rule="evenodd"
         id="path629" />
      <path
         d="m 948.074,991.5 -2.574,-449 453,449 z"
         stroke="#874988"
         stroke-width="15"
         stroke-miterlimit="8"
         fill="none"
         fill-rule="evenodd"
         id="path631" />
    </g>
    <text
       xml:space="preserve"
       transform="matrix(0.26458333,0,0,0.26458333,104.00824,6.632517)"
       id="text10997"
       style="font-style:normal;font-variant:normal;font-weight:normal;font-stretch:normal;font-size:13.3333px;line-height:1.25;font-family:'Source Sans Pro';-inkscape-font-specification:'Source Sans Pro, Normal';font-variant-ligatures:normal;font-variant-caps:normal;font-variant-numeric:normal;font-variant-east-asian:normal;white-space:pre;shape-inside:url(#rect10999)"><tspan
         x="-454.47852"
         y="72.772106"
         id="tspan12807">0.5</tspan></text>
  </g>
</svg>
